<svg data-name="C1" viewBox="0 0 256 256" xml:space="preserve" width="256" height="256" xmlns="http://www.w3.org/2000/svg"><defs><linearGradient x1="0" y1="40" x2="40" y2="0" id="a" gradientUnits="userSpaceOnUse"><stop stop-color="#4D27A8" offset="0%"/><stop stop-color="#A166FF" offset="100%"/></linearGradient></defs><path style="fill:none" d="M0 0h256v256H0Z"/><g fill="none" fill-rule="evenodd"><path d="M0 0h40v40H0Z" fill="url(#a)" style="fill:url(#a)" transform="translate(17.908 17.908)scale(5.50458)"/><path d="M117.14 158.275c0 4.552 3.704 8.257 8.256 8.257s8.257-3.705 8.257-8.257-3.705-8.257-8.257-8.257-8.257 3.705-8.257 8.257m-5.505 0c0-7.586 6.171-13.762 13.762-13.762s13.761 6.176 13.761 13.762c0 6.644-4.734 12.203-11.009 13.48v11.29h-5.504v-11.29a13.76 13.76 0 0 1-11.01-13.48m68.004-87.27-3.897 3.897 14.57 14.566H60.481l14.57-14.566-3.897-3.897-21.21 21.215 21.21 21.214 3.897-3.897-14.57-14.565h129.83l-14.57 14.565 3.897 3.897 21.21-21.214zM78.607 199.56h93.578V128H78.607zm77.064-77.064h22.018v82.569H73.102v-82.569h22.019v-21.561h5.504v21.561h49.542v-22.018h5.504zm-55.046-38.532h-5.504v-2.752c0-16.696 13.585-30.276 30.275-30.276s30.275 13.58 30.275 30.276v2.752h-5.504v-2.752c0-13.657-11.114-24.77-24.771-24.77a24.8 24.8 0 0 0-24.77 24.77z" fill="#fff"/></g></svg>