<?xml version="1.0" encoding="UTF-8" standalone="no"?>
<svg
   data-name="Capa 1"
   viewBox="0 0 256 256"
   version="1.1"
   id="svg8"
   xml:space="preserve"
   width="256"
   height="256"
   xmlns="http://www.w3.org/2000/svg"
   xmlns:svg="http://www.w3.org/2000/svg"><defs
     id="defs2"><linearGradient
       x1="0"
       y1="40"
       x2="40"
       y2="0"
       id="Arch_AWS-Site-to-Site-VPN_32_svg__a"
       gradientUnits="userSpaceOnUse"><stop
         stop-color="#4D27A8"
         offset="0%"
         id="stop1-8" /><stop
         stop-color="#A166FF"
         offset="100%"
         id="stop2-2" /></linearGradient></defs><path
     style="fill:none"
     d="M 0,0 H 256 V 256 H 0 Z"
     id="path2" /><g
     fill="none"
     fill-rule="evenodd"
     id="g5"
     transform="matrix(5.5045849,0,0,5.5045849,17.908302,17.908302)"><path
       d="M 0,0 H 40 V 40 H 0 Z"
       fill="url(#Arch_AWS-Site-to-Site-VPN_32_svg__a)"
       id="path4-5"
       style="fill:url(#Arch_AWS-Site-to-Site-VPN_32_svg__a)" /><path
       d="m 18.027,25.5 c 0,0.827 0.673,1.5 1.5,1.5 0.827,0 1.5,-0.673 1.5,-1.5 0,-0.827 -0.673,-1.5 -1.5,-1.5 -0.827,0 -1.5,0.673 -1.5,1.5 z m -1,0 c 0,-1.378 1.121,-2.5 2.5,-2.5 1.379,0 2.5,1.122 2.5,2.5 0,1.207 -0.86,2.217 -2,2.449 V 30 h -1 v -2.051 a 2.503,2.503 0 0 1 -2,-2.449 z M 29.381,9.646 28.673,10.354 31.32,13 H 7.734 L 10.381,10.354 9.673,9.646 5.82,13.5 9.673,17.354 10.381,16.646 7.734,14 H 31.32 l -2.647,2.646 0.708,0.708 3.853,-3.854 z M 11.027,33 h 17 V 20 h -17 z m 14,-14 h 4 v 15 h -19 V 19 h 4 v -3.917 h 1 V 19 h 9 v -4 h 1 z m -10,-7 h -1 v -0.5 c 0,-3.033 2.468,-5.5 5.5,-5.5 3.032,0 5.5,2.467 5.5,5.5 V 12 h -1 v -0.5 c 0,-2.481 -2.019,-4.5 -4.5,-4.5 a 4.505,4.505 0 0 0 -4.5,4.5 z"
       fill="#ffffff"
       id="path5-1" /></g></svg>
