<?xml version="1.0" encoding="UTF-8" standalone="no"?>
<svg
   data-name="Capa 1"
   viewBox="0 0 256 256"
   version="1.1"
   id="svg8"
   xml:space="preserve"
   width="256"
   height="256"
   xmlns="http://www.w3.org/2000/svg"
   xmlns:svg="http://www.w3.org/2000/svg"><defs
     id="defs2" /><path
     style="fill:none"
     d="M 0,0 H 256 V 256 H 0 Z"
     id="path2" /><g
     transform="matrix(0.43052909,0,0,0.43052909,17.784122,17.353809)"
     id="g8">
	<path
   style="fill:#243442"
   d="M 113.593,424.725 H 9.993 C 4.476,424.725 0,420.249 0,414.732 v -15.325 c 0,-5.517 4.476,-9.993 9.993,-9.993 h 103.601 c 5.517,0 9.993,4.476 9.993,9.993 v 15.325 c -0.001,5.517 -4.476,9.993 -9.994,9.993"
   id="path1" />
	<path
   style="fill:#ecf0f1"
   d="M 503.888,177.552 H 132.415 v -35.31 h 371.474 c 4.484,0 8.113,3.628 8.113,8.113 v 19.085 c -10e-4,4.484 -3.629,8.112 -8.114,8.112"
   id="path2-9" />
	<path
   style="fill:#35495e"
   d="m 70.621,159.897 c 0,-19.5 15.81,-35.31 35.31,-35.31 v -18.609 c 0,-9.225 -7.477,-16.702 -16.702,-16.702 H 34.357 c -9.225,0 -16.702,7.477 -16.702,16.702 v 283.436 h 88.276 V 195.207 c -19.5,0 -35.31,-15.81 -35.31,-35.31"
   id="path3-4" />
	<g
   id="g7">
		<path
   style="fill:#c03a2b"
   d="m 456.448,148.483 c 1.721,-1.721 2.586,-3.981 2.586,-6.241 h -21.31 l -29.069,29.069 c -1.721,1.721 -2.586,3.981 -2.586,6.241 h 21.31 z"
   id="path4-8" />
		<path
   style="fill:#c03a2b"
   d="m 385.827,148.483 c 1.721,-1.721 2.586,-3.981 2.586,-6.241 h -21.31 l -29.069,29.069 c -1.721,1.721 -2.586,3.981 -2.586,6.241 h 21.31 z"
   id="path5-8" />
		<path
   style="fill:#c03a2b"
   d="m 315.207,148.483 c 1.721,-1.721 2.586,-3.981 2.586,-6.241 h -21.31 l -29.069,29.069 c -1.721,1.721 -2.586,3.981 -2.586,6.241 h 21.31 z"
   id="path6-2" />
		<path
   style="fill:#c03a2b"
   d="m 244.586,148.483 c 1.721,-1.721 2.586,-3.981 2.586,-6.241 h -21.31 l -29.069,29.069 c -1.721,1.721 -2.586,3.981 -2.586,6.241 h 21.31 z"
   id="path7-4" />
	</g>
	<path
   style="fill:#95a5a5"
   d="m 141.241,159.897 c 0,19.5 -15.81,35.31 -35.31,35.31 -19.5,0 -35.31,-15.81 -35.31,-35.31 0,-19.5 15.81,-35.31 35.31,-35.31 19.5,0 35.31,15.81 35.31,35.31"
   id="path8-5" />
</g></svg>
