<svg id="uuid-19907d1f-9315-477d-b7ba-91ae3e2acc9a" data-name="Capa 1" version="1.1" xml:space="preserve" width="256" height="256" xmlns="http://www.w3.org/2000/svg">
    <defs id="defs2">
        <linearGradient gradientUnits="userSpaceOnUse" id="linear-gradient" x1="32" x2="32" y1="10.446" y2="34.341">
            <stop offset="0" stop-color="#fcb64d" id="stop1-6"/>
            <stop offset="1" stop-color="#f78c1e" id="stop2-8"/>
        </linearGradient>
        <linearGradient gradientUnits="userSpaceOnUse" id="linear-gradient-2" x1="32" x2="32" y1="25.178" y2="58.687">
            <stop offset="0" stop-color="#fecc81" id="stop3"/>
            <stop offset="1" stop-color="#faa629" id="stop4"/>
        </linearGradient>
        <linearGradient gradientUnits="userSpaceOnUse" id="linear-gradient-3" x1="40.505" x2="40.505" y1="10.327" y2="24.834">
            <stop offset="0" stop-color="#faa629" id="stop5"/>
            <stop offset="1" stop-color="#f47c20" id="stop6"/>
        </linearGradient>
        <style id="style1">
            .uuid-153302a6-b94e-4ad0-9cfb-43725c5c5610{fill:url(#uuid-af07a271-8980-47e6-b92b-41550c7dc68a)}.uuid-27fce091-ee3a-4889-9199-28416b94f462{fill:url(#uuid-dc53e15d-e646-4f9b-aab3-d9d8fec05b0e)}.uuid-ed4306aa-b6e6-45eb-bfe3-e4f85f33ea76{fill:url(#uuid-afdc0b81-5c65-49b4-9e34-1cf3c2f4f8f7)}.uuid-03bde706-b35e-416f-8ae5-693e38f68253{fill:url(#uuid-8e0b3ff5-2b0d-4ede-9e3a-d9af7f50b81e)}.uuid-aed79b63-67fc-4862-91f2-2516d39da3fa{fill:url(#uuid-5be9ed93-6987-4def-8687-537049e4e1cf)}.uuid-7fb198ab-10f1-4f2d-9a38-66668a795b4d{fill:url(#uuid-ebe94990-143f-470c-b744-73e231e6133d)}
        </style>
    </defs>
    <path id="rect2" style="fill:none" d="M0 0h256v256H0z"/>
    <g id="g17" transform="matrix(4.0739 0 0 4.0739 -2.365 -2.365)">
        <path d="M59 21.992v5.19H5v-15.21a2.006 2.006 0 0 1 2-2h15.62l1.39 2.32 4.61 7.7H57a2 2 0 0 1 2 2z" id="path6" style="fill:url(#linear-gradient)"/>
        <path d="M5 27.181v24.847a2 2 0 0 0 2 2h50a2 2 0 0 0 2-2V27.181Z" id="path7" style="fill:url(#linear-gradient-2)"/>
        <path d="M57 14.292v5.7H28.62l-4.61-7.7H55a2.006 2.006 0 0 1 2 2z" id="path8" style="fill:url(#linear-gradient-3)"/>
    </g>
    <g id="g18" transform="matrix(5.61378 0 0 5.61378 107.902 120.116)">
        <path style="fill:#4286c9" id="polygon1" d="M15.985 18.857 4.557 12l11.428-6.857 1.03 1.714L8.443 12l8.572 5.143z"/>
        <circle cx="16.5" cy="6.5" r="3.5" style="fill:#4c9ae8" id="circle1"/>
        <circle cx="6.5" cy="12" r="3.5" style="fill:#4c9ae8" id="circle2"/>
        <circle cx="16.5" cy="17.5" r="3.5" style="fill:#4c9ae8" id="circle3"/>
    </g>
</svg>
