<?xml version="1.0" encoding="UTF-8" standalone="no"?>
<svg
   id="uuid-19907d1f-9315-477d-b7ba-91ae3e2acc9a"
   data-name="Capa 1"
   viewBox="0 0 256 256"
   version="1.1"
   sodipodi:docname="iconpack-folder-backup-2.svg"
   xml:space="preserve"
   inkscape:export-filename="iconpack-folder-backup-2.svg"
   inkscape:export-xdpi="96"
   inkscape:export-ydpi="96"
   width="256"
   height="256"
   xmlns:inkscape="http://www.inkscape.org/namespaces/inkscape"
   xmlns:sodipodi="http://sodipodi.sourceforge.net/DTD/sodipodi-0.dtd"
   xmlns="http://www.w3.org/2000/svg"
   xmlns:svg="http://www.w3.org/2000/svg"><sodipodi:namedview
     id="namedview7"
     pagecolor="#ffffff"
     bordercolor="#000000"
     borderopacity="0.25"
     inkscape:showpageshadow="2"
     inkscape:pageopacity="0.0"
     inkscape:pagecheckerboard="0"
     inkscape:deskcolor="#d1d1d1"><inkscape:page
       x="0"
       y="0"
       width="256"
       height="256"
       id="page2"
       margin="0"
       bleed="0" /></sodipodi:namedview><defs
     id="defs2"><style
       id="style1">
      .uuid-153302a6-b94e-4ad0-9cfb-43725c5c5610 {
        fill: url(#uuid-af07a271-8980-47e6-b92b-41550c7dc68a);
      }

      .uuid-27fce091-ee3a-4889-9199-28416b94f462 {
        fill: url(#uuid-dc53e15d-e646-4f9b-aab3-d9d8fec05b0e);
      }

      .uuid-5da2c4a3-8db1-41d9-92d6-1ab0c264b0da {
        fill: none;
      }

      .uuid-ed4306aa-b6e6-45eb-bfe3-e4f85f33ea76 {
        fill: url(#uuid-afdc0b81-5c65-49b4-9e34-1cf3c2f4f8f7);
      }

      .uuid-03bde706-b35e-416f-8ae5-693e38f68253 {
        fill: url(#uuid-8e0b3ff5-2b0d-4ede-9e3a-d9af7f50b81e);
      }

      .uuid-aed79b63-67fc-4862-91f2-2516d39da3fa {
        fill: url(#uuid-5be9ed93-6987-4def-8687-537049e4e1cf);
      }

      .uuid-7fb198ab-10f1-4f2d-9a38-66668a795b4d {
        fill: url(#uuid-ebe94990-143f-470c-b744-73e231e6133d);
      }
    </style><style
       id="style1-17">
      .uuid-153302a6-b94e-4ad0-9cfb-43725c5c5610 {
        fill: url(#uuid-af07a271-8980-47e6-b92b-41550c7dc68a);
      }

      .uuid-27fce091-ee3a-4889-9199-28416b94f462 {
        fill: url(#uuid-dc53e15d-e646-4f9b-aab3-d9d8fec05b0e);
      }

      .uuid-5da2c4a3-8db1-41d9-92d6-1ab0c264b0da {
        fill: none;
      }

      .uuid-ed4306aa-b6e6-45eb-bfe3-e4f85f33ea76 {
        fill: url(#uuid-afdc0b81-5c65-49b4-9e34-1cf3c2f4f8f7);
      }

      .uuid-03bde706-b35e-416f-8ae5-693e38f68253 {
        fill: url(#uuid-8e0b3ff5-2b0d-4ede-9e3a-d9af7f50b81e);
      }

      .uuid-aed79b63-67fc-4862-91f2-2516d39da3fa {
        fill: url(#uuid-5be9ed93-6987-4def-8687-537049e4e1cf);
      }

      .uuid-7fb198ab-10f1-4f2d-9a38-66668a795b4d {
        fill: url(#uuid-ebe94990-143f-470c-b744-73e231e6133d);
      }
    </style><style
       id="style1-1">.cls-1{fill:url(#linear-gradient);}.cls-2{fill:url(#linear-gradient-2);}.cls-3{fill:url(#linear-gradient-3);}</style><linearGradient
       gradientUnits="userSpaceOnUse"
       id="linear-gradient"
       x1="32"
       x2="32"
       y1="10.446"
       y2="34.341"><stop
         offset="0"
         stop-color="#fcb64d"
         id="stop1-6" /><stop
         offset="1"
         stop-color="#f78c1e"
         id="stop2-8" /></linearGradient><linearGradient
       gradientUnits="userSpaceOnUse"
       id="linear-gradient-2"
       x1="32"
       x2="32"
       y1="25.177999"
       y2="58.687"><stop
         offset="0"
         stop-color="#fecc81"
         id="stop3" /><stop
         offset="1"
         stop-color="#faa629"
         id="stop4" /></linearGradient><linearGradient
       gradientUnits="userSpaceOnUse"
       id="linear-gradient-3"
       x1="40.505001"
       x2="40.505001"
       y1="10.327"
       y2="24.834"><stop
         offset="0"
         stop-color="#faa629"
         id="stop5" /><stop
         offset="1"
         stop-color="#f47c20"
         id="stop6" /></linearGradient></defs><rect
     class="uuid-5da2c4a3-8db1-41d9-92d6-1ab0c264b0da"
     width="256"
     height="256"
     id="rect2"
     x="0"
     y="0" /><g
     id="Flat"
     transform="matrix(0.47286915,0,0,0.47286915,6.9454976,6.9454976)"><path
       d="M 96,224 H 80 V 80 a 24.028,24.028 0 0 1 24,-24 h 40 v 16 h -40 a 8.009,8.009 0 0 0 -8,8 z"
       fill="#959494"
       id="path1" /><g
       fill="#686869"
       id="g4"><path
         d="M 112,280 H 64 v -32 l 8,-32 h 32 l 8,32 z"
         id="path2-0" /><path
         d="M 200,40 V 88 H 168 L 136,80 V 48 l 32,-8 z"
         id="path3-9" /><path
         d="m 192.001,80 h 272 v 64 h -272 z"
         id="path4-4" /></g><path
       d="m 192,80 h 272 v 32 H 192 Z"
       fill="#4e4e4f"
       id="path5-8" /><path
       d="M 168,32 H 488 V 96 H 168 Z"
       fill="#3f3f40"
       id="path6-8" /><path
       d="m 448,56 h 16 v 16 h -16 z"
       fill="#57c3c1"
       id="path7-2" /><path
       d="m 416,56 h 16 v 16 h -16 z"
       fill="#57c3c1"
       id="path8" /><path
       d="m 336,56 h 64 v 16 h -64 z"
       fill="#57c3c1"
       id="path9" /><path
       d="m 192.001,176 h 272 v 64 h -272 z"
       fill="#686869"
       id="path10" /><path
       d="m 192,176 h 272 v 32 H 192 Z"
       fill="#4e4e4f"
       id="path11" /><path
       d="m 168,128 h 320 v 64 H 168 Z"
       fill="#3f3f40"
       id="path12" /><path
       d="m 448,152 h 16 v 16 h -16 z"
       fill="#57c3c1"
       id="path13" /><path
       d="m 416,152 h 16 v 16 h -16 z"
       fill="#57c3c1"
       id="path14" /><path
       d="m 336,152 h 64 v 16 h -64 z"
       fill="#57c3c1"
       id="path15" /><path
       d="m 192.001,272 h 272 v 64 h -272 z"
       fill="#686869"
       id="path16" /><path
       d="m 192,272 h 272 v 32 H 192 Z"
       fill="#4e4e4f"
       id="path17" /><path
       d="m 168,224 h 320 v 64 H 168 Z"
       fill="#3f3f40"
       id="path18" /><path
       d="m 448,248 h 16 v 16 h -16 z"
       fill="#57c3c1"
       id="path19" /><path
       d="m 416,248 h 16 v 16 h -16 z"
       fill="#57c3c1"
       id="path20" /><path
       d="m 336,248 h 64 v 16 h -64 z"
       fill="#57c3c1"
       id="path21" /><path
       d="m 392,384 32,32 h 32 v -48 h -64 z"
       fill="#686869"
       id="path22" /><path
       d="m 456,400 h -48 l -16,-16 v -16 h 64 z"
       fill="#4e4e4f"
       id="path23" /><path
       d="m 168,320 h 320 v 64 H 168 Z"
       fill="#3f3f40"
       id="path24" /><path
       d="m 448,344 h 16 v 16 h -16 z"
       fill="#57c3c1"
       id="path25" /><path
       d="m 416,344 h 16 v 16 h -16 z"
       fill="#57c3c1"
       id="path26" /><path
       d="m 336,344 h 64 v 16 h -64 z"
       fill="#57c3c1"
       id="path27" /></g><g
     id="g7"
     transform="matrix(0.60842626,0,0,0.60842626,11.266419,100.70508)"><rect
       class="uuid-5da2c4a3-8db1-41d9-92d6-1ab0c264b0da"
       width="256"
       height="256"
       id="rect2-1"
       x="0"
       y="0" /><g
       id="g17"
       transform="matrix(4.0738976,0,0,4.0738976,-2.3647232,-2.3647232)"><path
         class="cls-1"
         d="m 59,21.992 v 5.19 H 5 v -15.21 a 2.006,2.006 0 0 1 2,-2 h 15.62 l 1.39,2.32 4.61,7.7 H 57 a 2,2 0 0 1 2,2 z"
         id="path6"
         style="fill:url(#linear-gradient)" /><path
         class="cls-2"
         d="m 5,27.181 v 24.847 a 2,2 0 0 0 2,2 h 50 a 2,2 0 0 0 2,-2 V 27.181 Z"
         id="path7"
         style="fill:url(#linear-gradient-2)" /><path
         class="cls-3"
         d="m 57,14.292 v 5.7 H 28.62 l -4.61,-7.7 H 55 a 2.006,2.006 0 0 1 2,2 z"
         id="path8-1"
         style="fill:url(#linear-gradient-3)" /></g></g><style
     type="text/css"
     id="style1-5">
	.st0{fill:#171516;}
	.st1{fill:#314A52;}
	.st2{fill:#FFFFFF;}
	.st3{fill-rule:evenodd;clip-rule:evenodd;fill:#ACBDC5;}
</style><g
     id="GitHub"
     transform="matrix(1.3271588,0,0,1.3271588,121.37726,32.220649)"><path
       class="st0"
       d="M 64,32 C 64,46.2 54.8,58.2 42,62.4 H 22 C 9.2,58.2 0,46.2 0,32 0,14.3 14.3,0 32,0 49.7,0 64,14.3 64,32 Z"
       id="path1-2"
       style="display:inline" /><path
       class="st2"
       d="m 44,45 c 3,-1 8,-4 8,-13 0,-3.5 -0.9,-6.7 -2.9,-9.3 C 51.3,17.4 48.9,14 48,14 47.2,14 43.8,14.6 40.7,17.1 38.2,16.4 35.3,16 32,16 28.7,16 25.8,16.4 23.3,17.1 20.2,14.6 16.8,14 16,14 c -0.9,0 -3.3,3.4 -1.1,8.7 -2,2.6 -2.9,5.8 -2.9,9.3 0,9 5,12 8,13 2.4,0.8 5,1.3 6,1.5 -0.6,0.6 -1.6,2.2 -1.9,4.4 -0.8,0.6 -2,1.1 -3.6,1.1 -3,0 -4.5,-2 -6,-4 C 13,46 11,45 10,45 c -1,0 -2,0.5 -1,1.5 1,1 2.3,0.2 5,5 2,3.6 4.5,3.5 6.5,3.5 1.8,0 3.5,-1 3.5,-1 h 15 l 1,-2 c 0,-2.8 -1.3,-4.8 -2,-5.5 1,-0.2 3.6,-0.7 6,-1.5 z"
       id="path3"
       style="display:inline" /><path
       class="st3"
       d="m 9,46.5 c -0.6,-0.6 -0.5,-1 -0.1,-1.2 1.8,1.8 4.1,3.2 6.8,4.2 1.2,1.4 2.6,2.5 4.8,2.5 1,0 1.9,-0.3 2.7,-0.6 2.8,0.4 5.8,0.6 8.8,0.6 2.8,0 5.5,-0.1 8,-0.5 0,0.2 0,0.3 0,0.5 v 8 l 2.3,2.3 c -6.7,2.3 -13.9,2.3 -20.6,0 L 24,60 v -4.8 c -0.8,0.3 -2.2,0.8 -3.5,0.8 -2,0 -5,-0.4 -7,-4 -2,-3.7 -3,-4.4 -3.8,-4.9 C 9.5,46.9 9.2,46.7 9,46.5 Z"
       id="path4"
       style="display:inline;fill:#ffffff;fill-opacity:1" /></g></svg>
