<?xml version="1.0" encoding="UTF-8" standalone="no"?>
<svg
   id="uuid-19907d1f-9315-477d-b7ba-91ae3e2acc9a"
   data-name="Capa 1"
   viewBox="0 0 256 256"
   version="1.1"
   sodipodi:docname="iconpack-foreground-1.svg"
   xml:space="preserve"
   width="256"
   height="256"
   xmlns:inkscape="http://www.inkscape.org/namespaces/inkscape"
   xmlns:sodipodi="http://sodipodi.sourceforge.net/DTD/sodipodi-0.dtd"
   xmlns="http://www.w3.org/2000/svg"
   xmlns:svg="http://www.w3.org/2000/svg"><sodipodi:namedview
     id="namedview7"
     pagecolor="#ffffff"
     bordercolor="#000000"
     borderopacity="0.25"
     inkscape:showpageshadow="2"
     inkscape:pageopacity="0.0"
     inkscape:pagecheckerboard="0"
     inkscape:deskcolor="#d1d1d1"><inkscape:page
       x="0"
       y="0"
       width="256"
       height="256"
       id="page2"
       margin="0"
       bleed="0" /></sodipodi:namedview><defs
     id="defs2"><style
       id="style1">
      .uuid-153302a6-b94e-4ad0-9cfb-43725c5c5610 {
        fill: url(#uuid-af07a271-8980-47e6-b92b-41550c7dc68a);
      }

      .uuid-27fce091-ee3a-4889-9199-28416b94f462 {
        fill: url(#uuid-dc53e15d-e646-4f9b-aab3-d9d8fec05b0e);
      }

      .uuid-5da2c4a3-8db1-41d9-92d6-1ab0c264b0da {
        fill: none;
      }

      .uuid-ed4306aa-b6e6-45eb-bfe3-e4f85f33ea76 {
        fill: url(#uuid-afdc0b81-5c65-49b4-9e34-1cf3c2f4f8f7);
      }

      .uuid-03bde706-b35e-416f-8ae5-693e38f68253 {
        fill: url(#uuid-8e0b3ff5-2b0d-4ede-9e3a-d9af7f50b81e);
      }

      .uuid-aed79b63-67fc-4862-91f2-2516d39da3fa {
        fill: url(#uuid-5be9ed93-6987-4def-8687-537049e4e1cf);
      }

      .uuid-7fb198ab-10f1-4f2d-9a38-66668a795b4d {
        fill: url(#uuid-ebe94990-143f-470c-b744-73e231e6133d);
      }
    </style></defs><rect
     class="uuid-5da2c4a3-8db1-41d9-92d6-1ab0c264b0da"
     width="256"
     height="256"
     id="rect2"
     x="0"
     y="0" /><g
     id="g4"
     transform="matrix(3.7307458,0,0,3.7307458,17.942999,17.942999)">
	<path
   style="fill:#556080"
   d="M 55.19,13 H 47 V 43.19 C 47,45.294 45.294,47 43.19,47 H 13 v 8.19 C 13,57.294 14.706,59 16.81,59 H 55.19 C 57.294,59 59,57.294 59,55.19 V 16.81 C 59,14.706 57.294,13 55.19,13 Z"
   id="path1" />
	<g
   id="g3">
		<path
   style="fill:#26b99a"
   d="M 43.19,47 H 4.81 C 2.706,47 1,45.294 1,43.19 V 4.81 C 1,2.706 2.706,1 4.81,1 H 43.19 C 45.294,1 47,2.706 47,4.81 V 43.19 C 47,45.294 45.294,47 43.19,47 Z"
   id="path2-4" />
		<path
   style="fill:#26b99a"
   d="M 43.19,48 H 4.81 C 2.157,48 0,45.842 0,43.19 V 4.81 C 0,2.158 2.157,0 4.81,0 H 43.19 C 45.843,0 48,2.158 48,4.81 V 43.19 C 48,45.842 45.843,48 43.19,48 Z M 4.81,2 C 3.261,2 2,3.261 2,4.81 V 43.19 C 2,44.739 3.261,46 4.81,46 H 43.19 C 44.739,46 46,44.739 46,43.19 V 4.81 C 46,3.261 44.739,2 43.19,2 Z"
   id="path3-5" />
	</g>
</g></svg>
