<svg data-name="C1" xml:space="preserve" width="256" height="256" xmlns="http://www.w3.org/2000/svg"><path style="fill:none" d="M0 0h256v256H0z"/><path style="fill:#26b99a" d="M13 16.81A3.81 3.81 0 0 1 16.81 13H47V4.81A3.81 3.81 0 0 0 43.19 1H4.81A3.81 3.81 0 0 0 1 4.81v38.38A3.81 3.81 0 0 0 4.81 47H13Z" transform="translate(18.102 18.102)scale(3.72537)"/><path style="fill:#26b99a" d="M14 48H4.81A4.815 4.815 0 0 1 0 43.19V4.81A4.815 4.815 0 0 1 4.81 0h38.38A4.815 4.815 0 0 1 48 4.81V14H16.81A2.814 2.814 0 0 0 14 16.81ZM4.81 2A2.814 2.814 0 0 0 2 4.81v38.38A2.814 2.814 0 0 0 4.81 46H12V16.81A4.815 4.815 0 0 1 16.81 12H46V4.81A2.814 2.814 0 0 0 43.19 2Z" transform="translate(18.102 18.102)scale(3.72537)"/><path style="fill:#556080" d="M55.19 59H16.81A3.81 3.81 0 0 1 13 55.19V16.81A3.81 3.81 0 0 1 16.81 13h38.38A3.81 3.81 0 0 1 59 16.81v38.38A3.81 3.81 0 0 1 55.19 59" transform="translate(18.102 18.102)scale(3.72537)"/></svg>