<?xml version="1.0" encoding="UTF-8" standalone="no"?>
<svg
   data-name="Capa 1"
   viewBox="0 0 256 256"
   version="1.1"
   id="svg8"
   xml:space="preserve"
   width="256"
   height="256"
   xmlns="http://www.w3.org/2000/svg"
   xmlns:svg="http://www.w3.org/2000/svg"><defs
     id="defs2" /><path
     style="fill:none"
     d="M 0,0 H 256 V 256 H 0 Z"
     id="path2" /><g
     id="g11"
     transform="matrix(0.24463109,0,0,0.24463109,2.7488819,2.7488819)"><path
       d="m 447.5,960.3 -321,-110 v -642 l 321,82 z"
       fill="#37bbef"
       id="path1" /><path
       d="m 447.5,960.3 450,-240 v -600 l -450,170 z"
       fill="#2481ba"
       id="path2-7" /><path
       d="m 126.5,208.3 321,82 450,-170 -344.4,-56.6 z"
       fill="#3ed6ff"
       id="path3-9" /><path
       d="m 400.3,348.9 v 80 l -239,-60 v -80 z m -239,48.3 239,60 v -10 l -239,-60 z m 0,23 239,60 v -10 l -239,-60 z m 0,23 239,60 v -10 l -239,-60 z"
       fill="#d4f7ff"
       id="path4-3" /><path
       d="m 175.7,308.4 v 34 l 210.2,53 v -34 z m 0,55 210.2,53 v -13.3 l -210.2,-53 z"
       fill="#113b42"
       id="path5-1" /><path
       d="m 447.5,894.1 v -5.2 l -174.4,-55.3 -1.2,4.8 z M 271.9,809.3 447.5,864 v -5.3 L 273.1,804.4 Z m 0,-29.2 175.6,53.7 v -5.2 L 273.1,775.2 Z m 175.6,-72.2 -174.4,-49.3 -1.2,4.8 175.6,49.7 z m -175.6,-15.3 175.6,50.7 v -5.2 L 273.1,687.7 Z m 0,58.3 175.6,52.7 v -5.2 L 273.1,746.1 Z m 0,-29.1 175.6,51.7 v -5.3 L 273.1,716.9 Z"
       fill="#0071bc"
       id="path6-9" /><path
       d="m 379.5,540.8 c -9.4,-3.4 -17,1.6 -17,11.2 0,9.6 7.6,20.1 17,23.2 9.4,3.1 17,-1.9 17,-11.2 0,-9.3 -7.6,-19.8 -17,-23.2 z m 0,62.8 c -3.9,-1.2 -7,1 -7,4.9 0,3.9 3.1,8.1 7,9.3 3.9,1.2 7,-1 7,-4.9 0,-3.9 -3.1,-8 -7,-9.3 z"
       fill="#ffffff"
       id="path7" /></g></svg>
