<?xml version="1.0" encoding="UTF-8" standalone="no"?>
<svg
   id="uuid-19907d1f-9315-477d-b7ba-91ae3e2acc9a"
   data-name="Capa 1"
   viewBox="0 0 256 256"
   version="1.1"
   sodipodi:docname="iconpack-terminal-1.svg"
   xml:space="preserve"
   width="256"
   height="256"
   xmlns:inkscape="http://www.inkscape.org/namespaces/inkscape"
   xmlns:sodipodi="http://sodipodi.sourceforge.net/DTD/sodipodi-0.dtd"
   xmlns="http://www.w3.org/2000/svg"
   xmlns:svg="http://www.w3.org/2000/svg"><sodipodi:namedview
     id="namedview7"
     pagecolor="#ffffff"
     bordercolor="#000000"
     borderopacity="0.25"
     inkscape:showpageshadow="2"
     inkscape:pageopacity="0.0"
     inkscape:pagecheckerboard="0"
     inkscape:deskcolor="#d1d1d1"><inkscape:page
       x="0"
       y="0"
       width="256"
       height="256"
       id="page2"
       margin="0"
       bleed="0" /></sodipodi:namedview><defs
     id="defs2"><style
       id="style1">
      .uuid-153302a6-b94e-4ad0-9cfb-43725c5c5610 {
        fill: url(#uuid-af07a271-8980-47e6-b92b-41550c7dc68a);
      }

      .uuid-27fce091-ee3a-4889-9199-28416b94f462 {
        fill: url(#uuid-dc53e15d-e646-4f9b-aab3-d9d8fec05b0e);
      }

      .uuid-5da2c4a3-8db1-41d9-92d6-1ab0c264b0da {
        fill: none;
      }

      .uuid-ed4306aa-b6e6-45eb-bfe3-e4f85f33ea76 {
        fill: url(#uuid-afdc0b81-5c65-49b4-9e34-1cf3c2f4f8f7);
      }

      .uuid-03bde706-b35e-416f-8ae5-693e38f68253 {
        fill: url(#uuid-8e0b3ff5-2b0d-4ede-9e3a-d9af7f50b81e);
      }

      .uuid-aed79b63-67fc-4862-91f2-2516d39da3fa {
        fill: url(#uuid-5be9ed93-6987-4def-8687-537049e4e1cf);
      }

      .uuid-7fb198ab-10f1-4f2d-9a38-66668a795b4d {
        fill: url(#uuid-ebe94990-143f-470c-b744-73e231e6133d);
      }
    </style></defs><rect
     class="uuid-5da2c4a3-8db1-41d9-92d6-1ab0c264b0da"
     width="256"
     height="256"
     id="rect2"
     x="0"
     y="0" /><g
     id="g4"
     transform="matrix(3.7307458,0,0,3.7307458,17.942999,17.942999)">
	
	
<g
   id="g7"
   transform="matrix(0.23010323,0,0,0.23010323,0.04678653,5.4148653)"><rect
     width="256"
     height="209.342"
     rx="5"
     id="rect1"
     x="0"
     y="0" /><path
     d="m 28.241,21.774 c -0.855,-0.856 -1.888,-1.284 -3.098,-1.284 -1.21,0 -2.246,0.432 -3.11,1.296 -0.852,0.852 -1.284,1.888 -1.284,3.098 0,1.21 0.432,2.247 1.284,3.098 l 13.442,13.442 -13.43,13.43 c -0.864,0.864 -1.296,1.9 -1.308,3.11 0.012,1.21 0.444,2.247 1.296,3.098 0.864,0.852 1.9,1.284 3.098,1.296 1.222,0 2.259,-0.432 3.123,-1.296 L 43.189,46.115 c 3.135,-3.123 3.135,-6.258 0,-9.394 z M 86.786,54.878 C 85.922,54.014 84.873,53.582 83.651,53.582 V 53.576 H 54.817 v 0.006 c -1.222,0 -2.26,0.432 -3.123,1.296 -0.864,0.864 -1.296,1.901 -1.296,3.123 0,1.222 0.432,2.271 1.296,3.135 0.864,0.864 1.9,1.296 3.123,1.296 V 62.426 H 83.65 v 0.006 c 1.222,0 2.27,-0.432 3.135,-1.296 0.864,-0.864 1.296,-1.913 1.296,-3.135 0,-1.222 -0.432,-2.259 -1.296,-3.123 z"
     fill="#ffffff"
     id="path1" /></g></g></svg>
