<svg
   data-name="C1"
   viewBox="0 0 256 256"
   version="1.1"
   id="svg8"
   xml:space="preserve"
   width="256"
   height="256"
   xmlns="http://www.w3.org/2000/svg"
   xmlns:svg="http://www.w3.org/2000/svg"><defs
     id="defs2" /><path
     style="fill:none"
     d="M 0,0 H 256 V 256 H 0 Z"
     id="path2" /><g
     id="g11"
     transform="matrix(0.26095809,0,0,0.26095809,-5.6105421,-5.5974942)"><path
       d="m 111.3,359 5.7,14.6 -1.4,-17.5 z m 797,-2.7 -1.2,16.1 5.6,-13.4 z"
       fill="#37bbef"
       id="path1" /><path
       d="m 171.3,520.5 -29.5,21.8 c 0,0 8.4,20.3 31.9,31.6 7.1,3.4 1.7,-50.3 1.7,-50.3 z m 712.3,18.9 c 0,0 -14.8,22 -32.1,26.1 -2.9,0.7 -6.1,-3.8 -6.1,-3.8 l 8.4,-43.6 z"
       fill="#7c99a3"
       id="path2-6" /><path
       d="m 854.4,517.8 c 0,204 -153.3,369.4 -342.4,369.4 -189.1,0 -342.4,-165.4 -342.4,-369.4 0,-204 153.3,-297.3 342.4,-297.3 189.1,0 342.4,93.3 342.4,297.3 z"
       fill="#37bbef"
       id="path3-5" /><path
       d="m 848,449.3 c 0.6,8.6 -18.2,7.4 -17.9,16.4 6.4,238.4 -118.9,391.9 -327.9,411.7 -86.9,8.2 -177.5,-50.5 -239.5,-106.7 62.3,71.8 151,116.5 249.3,116.5 189.1,0 342.4,-165.4 342.4,-369.4 0,-24.4 -2.2,-47.2 -6.4,-68.5 z"
       fill="#2481ba"
       id="path4-0" /><path
       d="m 850.6,464.3 -179,-138.6 -208.1,-50 -173,100 -120,117.4 c -0.5,8 -0.8,16.2 -0.8,24.6 0,30.9 3.5,61 10.2,89.7 16,-38.8 -49.8,-70.8 94.6,-125.3 12.4,-4.7 99.8,-25.9 99.8,-25.9 0,0 42,-128.8 137.8,-123.6 102.8,5.5 131.2,120 131.2,120 0,0 153.5,43 180,98.2 13.6,28.4 15.1,50.3 19,64.8 7.9,-31.2 12.2,-64 12.2,-98 -0.1,-18.5 -1.4,-36.4 -3.9,-53.3 z"
       fill="#2481ba"
       id="path5-9" /><path
       d="m 924.3,325.2 c 0.5,8.9 0.8,17.9 0.8,27 0,67.1 -14.9,130.6 -41.5,187.2 -56.4,-38.8 -135,-68.5 -226.2,-83.8 -11.9,-72 -72.5,-126.8 -145.4,-126.8 -73.3,0 -134,55.3 -145.6,127.8 -91,16 -169.2,46.3 -224.7,85.8 C 114.3,485 98.9,420.5 98.9,352.2 c 0,-9.1 0.3,-18.1 0.8,-27 0.5,8.3 1.2,16.5 2.2,24.7 C 209.1,277 353.4,232.4 512,232.4 c 158.6,0 302.9,44.6 410.1,117.4 1,-8.1 1.7,-16.3 2.2,-24.6 z"
       fill="#c0d2d8"
       id="path6-0" /><path
       d="m 884.2,537.9 c 6.1,-29.4 48.6,-123.4 7.2,-183.3 -15.5,-22.4 -33.9,-29.1 -63.5,-45 -27.5,-11.6 -168.1,-66.8 -331.3,-61.7 -129.8,4 -205.3,26 -238.1,38.2 -112.7,40.6 -124.9,58.4 -138.1,102.3 -15.5,51.7 19.6,137.4 26.6,150.2 -1.8,1.2 -3.5,2.4 -5.2,3.6 -27.5,-57.2 -42.9,-121.7 -42.9,-190 0,-8.9 0.3,-17.6 0.8,-26.4 h 0.1 c 0.5,8.1 1.2,16.1 2.2,24 31.6,-21.4 66.3,-40.4 103.7,-56.5 l 61,-18.7 12.6,-9.1 c 0,0 145.5,-34.5 232.8,-30.4 87.3,4.1 200.9,21.9 265.7,43.5 19.4,6.5 32.1,12 40.4,16.7 l 12.2,3.3 c 8.7,4 17.3,8.1 25.7,12.4 l 69.1,41.5 c -0.1,66.4 -14.8,129.3 -41,185.4 z"
       fill="#a1bbc6"
       id="path7" /><path
       d="m 93.1,271.9 c -1.1,12.4 -1.7,25 -1.7,37.7 0,17 1.1,33.8 3.1,50.3 109.2,-71.6 256,-115.4 417.6,-115.4 161.6,0 308.4,43.8 417.6,115.4 2,-16.5 3.1,-33.3 3.1,-50.3 0,-12.7 -0.6,-25.3 -1.7,-37.7 C 821.6,199.8 674.2,155.6 512,155.6 349.8,155.6 202.4,199.8 93.1,271.9 Z"
       fill="#37bbef"
       id="path8" /><path
       d="M 930.9,253.1 C 879,218.9 818.6,190.9 752,171 c -1.8,3.3 -5.3,5.6 -9.4,5.6 -5.9,0 -10.7,-4.8 -10.7,-10.7 v -0.6 c -68.3,-18.4 -142.5,-28.6 -220,-28.6 -77.5,0 -151.8,10.1 -220,28.6 v 0.6 c 0,5.9 -4.8,10.7 -10.7,10.7 -4,0 -7.6,-2.3 -9.4,-5.6 -66.5,19.9 -127,47.8 -178.9,82 -1.1,12.4 -1.7,25 -1.7,37.7 0,17 1.1,33.8 3.1,50.3 109.2,-71.6 256,-115.4 417.6,-115.4 161.6,0 308.4,43.8 417.6,115.4 2,-16.5 3.1,-33.3 3.1,-50.3 0,-12.6 -0.6,-25.2 -1.7,-37.6 z"
       fill="#37bbef"
       id="path9" /><path
       d="m 93.1,262.5 c -1.1,12.4 -1.7,25 -1.7,37.7 0,17 1.1,33.8 3.1,50.3 109.2,-71.6 256,-115.4 417.6,-115.4 161.6,0 308.4,43.8 417.6,115.4 2,-16.5 3.1,-33.3 3.1,-50.3 0,-12.7 -0.6,-25.3 -1.7,-37.7 C 821.6,190.4 674.2,146.2 512,146.2 349.8,146.2 202.4,190.4 93.1,262.5 Z"
       fill="#3ed6ff"
       id="path10" /><path
       d="m 512,637.6 m -194.4,0 a 194.4,194.4 0 1 0 388.8,0 194.4,194.4 0 1 0 -388.8,0 z"
       fill="#a1bbc6"
       id="path11" /><path
       d="m 512,637.6 m -158.7,0 a 158.7,158.7 0 1 0 317.4,0 158.7,158.7 0 1 0 -317.4,0 z"
       fill="#113b42"
       id="path12" /><path
       d="m 512,478.9 c -31.6,0 -61,9.2 -85.8,25.1 37.2,80.6 100.1,205.3 148.1,242.7 9.3,7.2 19,14.2 28.9,20.8 C 644,738.8 670.6,691.3 670.6,637.6 670.7,550 599.6,478.9 512,478.9 Z"
       fill="#2c5766"
       id="path13" /><path
       d="m 512,637.6 m -89.3,0 a 89.3,89.3 0 1 0 178.6,0 89.3,89.3 0 1 0 -178.6,0 z"
       fill="#ffffff"
       id="path14" /><path
       d="m 512,637.6 m -61,0 a 61,61 0 1 0 122,0 61,61 0 1 0 -122,0 z"
       fill="#113b42"
       id="path15" /><path
       d="m 512,576.6 c -16.3,0 -31.1,6.4 -42,16.8 19,36.5 39.8,73.1 60.2,102.4 24.8,-7.7 42.8,-30.9 42.8,-58.2 0,-33.7 -27.4,-61 -61,-61 z"
       fill="#2c5766"
       id="path16" /><path
       d="m 130.6,252.7 c 0,0 -4.2,51.8 10.2,55.9 14.4,4 75.2,-13.6 75.2,-13.6 l -104.7,55 c 0,0 -4,-33.1 -2.8,-55 1.2,-21.9 1.5,-29.4 1.5,-29.4 z m 757.9,-3 25.5,15.9 c 0,0 2.3,41 1.4,51.8 -0.9,10.8 -2.7,32.6 -2.7,32.6 L 861,319.2 c 0,0 55.6,2.1 46.2,-28.8 -9.3,-31 -18.7,-40.7 -18.7,-40.7 z"
       fill="#37bbef"
       id="path17" /></g></svg>
