<svg
   data-name="C1"
   viewBox="0 0 256 256"
   version="1.1"
   id="svg8"
   xml:space="preserve"
   width="256"
   height="256"
   xmlns="http://www.w3.org/2000/svg"
   xmlns:svg="http://www.w3.org/2000/svg"><defs
     id="defs2" /><path
     style="fill:none"
     d="M 0,0 H 256 V 256 H 0 Z"
     id="path2" /><g
     id="g11"
     transform="matrix(0.24698986,0,0,0.24698986,1.5411917,1.5411917)"><path
       d="M 537,820.3 67,590.3 v -222 l 470,212 z"
       fill="#37bbef"
       id="path1" /><path
       d="m 537,820.3 420,-230 v -220 l -420,210 z"
       fill="#2481ba"
       id="path2-8" /><path
       d="m 67,368.3 470,212 420,-210 -494.4,-166.6 z"
       fill="#3ed6ff"
       id="path3-6" /><path
       d="m 532,266.7 -117.1,-7.1 28.7,48 29.5,-13.6 102.7,39.2 29.6,-14.4 -102.9,-38.4 z m -125.2,57.9 -116.6,-9.6 28.3,50.4 29.4,-13.6 102.1,42.7 29.6,-14.4 -102.2,-41.9 z m 199,113.5 117.4,5.8 -28,-52.2 -29.8,15.5 -102.5,-40.5 -29.6,14.7 102.3,41.2 z m -67,34.8 L 437,429 l -29.7,14.7 101.8,44.6 -29.8,15.5 116.9,8.2 -27.6,-54.6 z"
       fill="#ffffff"
       id="path4-5" /></g></svg>
