<?xml version="1.0" encoding="UTF-8" standalone="no"?>
<svg
   data-name="Capa 1"
   viewBox="0 0 256 256"
   version="1.1"
   id="svg8"
   xml:space="preserve"
   width="256"
   height="256"
   xmlns="http://www.w3.org/2000/svg"
   xmlns:svg="http://www.w3.org/2000/svg"><defs
     id="defs2" /><path
     style="fill:none"
     d="M 0,0 H 256 V 256 H 0 Z"
     id="path2" /><g
     id="g11"
     transform="matrix(0.24776293,0,0,0.24776293,1.1453798,1.1453798)"><path
       d="M 537,950.3 67,720.3 v -482 l 470,212 z"
       fill="#37bbef"
       id="path1" /><path
       d="m 537,950.3 420,-230 v -480 l -420,210 z"
       fill="#2481ba"
       id="path2-1" /><path
       d="m 67,238.3 470,212 420,-210 L 462.6,73.7 Z"
       fill="#3ed6ff"
       id="path3-1" /><path
       d="m 288.2,470.2 -26.7,-14.5 40.2,-46.1 39.7,89.5 -26.7,-14.5 -0.3,76.3 -26.7,-14.4 z m 26.1,177.1 -26.7,-14.4 -0.3,76.3 -26.8,-14.4 39.9,89.3 40.4,-46.3 -26.8,-14.4 z m -105.5,-175.4 52.8,82.8 19,-9 -52.8,-82.8 18.9,-9 -75.3,-60.2 18.4,87.1 z m 184.9,249.8 -53.1,-82.5 -19,9 53.1,82.5 -19,9 75.7,59.7 -18.8,-86.7 z M 183.3,547 l 75.2,40.5 0.1,-27.1 -75.2,-40.6 0.2,-27.2 -67,4.7 66.5,76.8 z M 485.6,696.5 418.9,619.9 V 647 l -75.2,-40.6 -0.1,27.1 75.2,40.5 v 27.1 z M 280.3,626 261.5,596.6 208,622 l -18.8,-29.4 -19.4,66.7 75.9,21.4 -18.8,-29.4 z m 41.6,-58 18.8,29.4 53.2,-25.2 18.8,29.4 19,-66.3 -75.4,-21.8 18.8,29.4 z"
       fill="#ffffff"
       id="path4-3" /></g></svg>
