<svg
   data-name="C1"
   viewBox="0 0 256 256"
   version="1.1"
   id="svg8"
   xml:space="preserve"
   width="256"
   height="256"
   xmlns="http://www.w3.org/2000/svg"
   xmlns:svg="http://www.w3.org/2000/svg"><defs
     id="defs2" /><path
     style="fill:none"
     d="M 0,0 H 256 V 256 H 0 Z"
     id="path2" /><g
     id="g11"
     transform="matrix(0.25075132,0,0,0.25075132,-0.38467584,-0.38467584)"><path
       d="m 628.9,935.1 -415.1,-137.3 165,-130 389.1,107.3 z"
       fill="#a1bbc6"
       id="path1" /><path
       d="M 767.9,775.1 V 788 l -139,161.3 v -14.2 z"
       fill="#678289"
       id="path2-5" /><path
       d="M 628.9,949.3 V 935.1 L 213.8,797.8 v 13.9 z"
       fill="#baccd3"
       id="path3-7" /><path
       d="m 600.1,729 157.2,43.3 -117,13.4 -39.5,19.1 z"
       fill="#8ea8af"
       id="path4-6" /><path
       d="m 404.9,583.2 31.4,173.6 164.5,48 -28.9,-170.6 z"
       fill="#7c99a3"
       id="path5-1" /><path
       d="m 598.6,700 16.5,91 -14.3,13.8 L 581.1,703 Z"
       fill="#678289"
       id="path6-8" /><path
       d="M 884,792.4 114,584.9 v -491 l 770,162.5 z"
       fill="#37bbef"
       id="path7" /><path
       d="m 909,751.9 -25,40.5 v -536 l 26,-27.5 z"
       fill="#678289"
       id="path8" /><path
       d="M 910,228.9 151.4,74.7 114,93.9 884,256.4 Z"
       fill="#a1bbc6"
       id="path9" /><path
       d="m 114,93.9 v 491 l 770,207.5 v -536 z M 869.6,710.4 123.6,517.9 V 106 l 746,161 z"
       fill="#baccd3"
       id="path10" /><path
       d="m 850.8,724.5 v 17 l -39.5,-11 V 714 Z"
       fill="#ffffff"
       id="path11" /><path
       d="m 846,727.3 v 8.9 l -29.9,-8.4 v -8.5 z"
       fill="#113b42"
       id="path12" /><path
       d="m 787.6,708 v 17 l -39.5,-11 v -16.5 z"
       fill="#ffffff"
       id="path13" /><path
       d="m 784.1,711.1 v 9.5 l -32.5,-9.1 v -9 z"
       fill="#113b42"
       id="path14" /><path
       d="m 853.3,703.6 -213,-485.8 229.1,49.3 -0.1,441 z"
       fill="#3ed6ff"
       id="path15" /><path
       d="M 124.9,106 V 518.8"
       fill="#3ed6ff"
       id="path16" /></g></svg>
