<svg
   data-name="C1"
   viewBox="0 0 256 256"
   version="1.1"
   id="svg8"
   xml:space="preserve"
   width="256"
   height="256"
   xmlns="http://www.w3.org/2000/svg"
   xmlns:svg="http://www.w3.org/2000/svg"><defs
     id="defs2" /><path
     style="fill:none"
     d="M 0,0 H 256 V 256 H 0 Z"
     id="path2" /><g
     id="g11"
     transform="matrix(0.24776293,0,0,0.24776293,1.1453798,1.1453798)"><path
       d="M 537,950.3 67,720.3 v -482 l 470,212 z"
       fill="#37bbef"
       id="path1" /><path
       d="m 537,950.3 420,-230 v -480 l -420,210 z"
       fill="#2481ba"
       id="path2-0" /><path
       d="m 67,238.3 470,212 420,-210 L 462.6,73.7 Z"
       fill="#3ed6ff"
       id="path3-2" /><path
       d="m 259.6,703 38.7,18 v 36.4 l -38.7,-17.9 z m 24.7,-283.7 c -64.5,-30.5 -117.2,-7.8 -120.8,50.4 l 38.8,18.2 c 3.6,-38 39.1,-52.5 82.1,-32.2 45.4,21.4 82.3,73.5 82.3,116 0,42.5 -36.9,59.9 -82.2,38.8 L 259.6,599 v 77 l 38.7,18 v -41.2 c 60.2,21.5 107,-4.6 107,-62.8 0.1,-62.7 -54.1,-139.1 -121,-170.7 z"
       fill="#ffffff"
       id="path4-8" /></g></svg>
