<svg data-name="C1" xml:space="preserve" width="256" height="256" xmlns="http://www.w3.org/2000/svg"><defs><linearGradient gradientUnits="userSpaceOnUse" id="a" x1="32" x2="32" y1="10.446" y2="34.341"><stop offset="0" stop-color="#fcb64d"/><stop offset="1" stop-color="#f78c1e"/></linearGradient><linearGradient gradientUnits="userSpaceOnUse" id="b" x1="32" x2="32" y1="25.178" y2="58.687"><stop offset="0" stop-color="#fecc81"/><stop offset="1" stop-color="#faa629"/></linearGradient><linearGradient gradientUnits="userSpaceOnUse" id="c" x1="40.505" x2="40.505" y1="10.327" y2="24.834"><stop offset="0" stop-color="#faa629"/><stop offset="1" stop-color="#f47c20"/></linearGradient></defs><path style="fill:none" d="M0 0h256v256H0z"/><path d="M59 21.992v5.19H5v-15.21a2.006 2.006 0 0 1 2-2h15.62l1.39 2.32 4.61 7.7H57a2 2 0 0 1 2 2" style="fill:url(#a)" transform="translate(-2.365 -2.365)scale(4.0739)"/><path d="M5 27.181v24.847a2 2 0 0 0 2 2h50a2 2 0 0 0 2-2V27.181Z" style="fill:url(#b)" transform="translate(-2.365 -2.365)scale(4.0739)"/><path d="M57 14.292v5.7H28.62l-4.61-7.7H55a2.006 2.006 0 0 1 2 2" style="fill:url(#c)" transform="translate(-2.365 -2.365)scale(4.0739)"/><g transform="translate(107.902 120.116)scale(5.61378)"><path style="fill:#4286c9" d="M15.985 18.857 4.557 12l11.428-6.857 1.03 1.714L8.443 12l8.572 5.143z"/><circle cx="16.5" cy="6.5" r="3.5" style="fill:#4c9ae8"/><circle cx="6.5" cy="12" r="3.5" style="fill:#4c9ae8"/><circle cx="16.5" cy="17.5" r="3.5" style="fill:#4c9ae8"/></g></svg>