<svg
   data-name="C1"
   viewBox="0 0 256 256"
   version="1.1"
   id="svg8"
   xml:space="preserve"
   width="256"
   height="256"
   xmlns="http://www.w3.org/2000/svg"
   xmlns:svg="http://www.w3.org/2000/svg"><defs
     id="defs2" /><path
     style="fill:none"
     d="M 0,0 H 256 V 256 H 0 Z"
     id="path2" /><g
     id="g11"
     transform="matrix(-0.24583718,0,0,0.24583718,253.86917,2.1313638)"><path
       d="m 803.8,624.2 132,23 v 191 l -132,-42 z"
       fill="#37bbef"
       id="path1" /><path
       d="M 635.9,701 843.2,682.7 901.7,696.6 681.2,731 Z"
       fill="#a1bbc6"
       id="path2-6" /><path
       d="m 685.1,698.5 8.8,-3.2 2.4,23 44.7,2.4 -47.4,8.3 z"
       fill="#678289"
       id="path3-0" /><path
       d="m 714.8,573.2 -21,208 -46,19 21,-226 z"
       fill="#7c99a3"
       id="path4-2" /><path
       d="m 615.2,576.8 -21,197 53.6,26.4 21,-226 z"
       fill="#a1bbc6"
       id="path5-4" /><path
       d="m 901.6,746.2 -32.1,11.6 -52.7,24.7 -13,13.7 v -38.3 z"
       fill="#1772a0"
       id="path6-8" /><path
       d="m 569.3,581.8 67.5,18.4 0.9,-35.3 z"
       fill="#2481ba"
       id="path7" /><path
       d="M 886.7,348.9 C 867.8,260 800.1,198.9 735.2,211.6 l -0.1,-0.7 -494.9,70.2 56.3,369.1 503.1,-113.2 3.3,-0.6 c 65.4,-14 102.9,-97.9 83.8,-187.5 z"
       fill="#37bbef"
       id="path8" /><path
       d="m 86.3,234.6 c -5.4,1.1 -21.4,11.4 -22,35.1 -0.6,24 1,41 23.3,76.8 22.3,35.8 50.6,60.1 50.6,60.1 l 41.9,-29.6 40,-77.3 c 0,0 -12.9,-16.9 -46,-37 -33.1,-20.1 -41.8,-25.6 -60.9,-29.1 -15.1,-2.8 -21.6,-0.2 -26.9,1 z"
       fill="#2481ba"
       id="path9" /><path
       d="m 210.1,288.4 c 0,0 -54.3,45 -59.5,58.8 -5.2,13.8 -22,49.8 -22,49.8 0,0 3.1,-34.4 16.3,-61.1 17.3,-35.3 24.5,-48 20.7,-69.3 -4,-22 4.3,-21.4 4.3,-21.4 z"
       fill="#1772a0"
       id="path10" /><path
       d="m 377.7,413 c 0,0 22.7,96 11.3,105.3 -11.3,9.3 245.5,-24.3 372,-53.3 72,-16.5 126,-26.3 126,-26.3 0,0 4.3,-14.3 4.7,-44.4 0.2,-14 -514,18.7 -514,18.7 z"
       fill="#2481ba"
       id="path11" /><path
       d="m 128.39918,487.29564 a 187,136.5 81.494 1 0 269.9971,-40.38024 187,136.5 81.494 1 0 -269.9971,40.38024 z"
       fill="#a1bbc6"
       id="path12" /><path
       d="M 145.8934,481.18381 A 148.9,108.7 81.494 1 0 360.90209,449.02753 148.9,108.7 81.494 1 0 145.8934,481.18381 Z"
       fill="#113b42"
       id="path13" /><path
       d="m 231.4,317.8 c -16.9,2.5 -32.1,10.3 -44.9,21.9 19.7,54 49.6,117.3 89.3,151.4 32.5,27.9 55.3,48.8 70.8,63.5 C 361,525.6 366.8,488.3 361,449 348.8,367.7 290.8,309 231.4,317.8 Z"
       fill="#2c5766"
       id="path14" /><path
       d="M 192.36533,472.73798 A 70.6,51.6 81.494 1 0 294.43016,457.47336 70.6,51.6 81.494 1 0 192.36533,472.73798 Z"
       fill="#ffffff"
       id="path15" /><path
       d="m 209.87063,470.11992 a 46.400003,33.900002 81.494 1 0 67.05423,-10.0285 46.400003,33.900002 81.494 1 0 -67.05423,10.0285 z"
       fill="#113b42"
       id="path16" /><path
       d="m 267,483 c 2.3,-6.3 3.1,-13.8 1.9,-21.7 -2.9,-19.3 -16.7,-33.2 -30.7,-31.1 -3.1,0.5 -5.9,1.6 -8.4,3.4 11.2,18.6 23.6,35.7 37.2,49.4 z"
       fill="#2c5766"
       id="path17" /><path
       d="m 905.6,260.5 c -35.3,-60 -116.7,-74.7 -116.7,-74.7 l -701.1,44.7 -7.2,6.7 c 2.3,-1.5 4.3,-2.4 5.7,-2.6 5.4,-1.1 11.9,-3.8 26.9,-1 19,3.5 27.8,9 60.9,29.1 33.1,20.1 46,37 46,37 l -0.1,0.2 c 39.9,39.4 76.2,91 137,134.6 66,47.3 137.3,58 293.3,39.3 211.2,-25.3 251.3,-78.7 268.7,-100 17.3,-21.3 21.9,-53.3 -13.4,-113.3 z"
       fill="#3ed6ff"
       id="path18" /><path
       d="m 759.8,537.2 -123,27 v 36 l 123,-28 z"
       fill="#37bbef"
       id="path19" /><path
       d="m 647.8,800.2 66,-23 187.9,-31 v -49.6 l -248.5,38.2 z"
       fill="#7c99a3"
       id="path20" /><path
       d="m 635.9,573.8 89,-20.5 -88,26 z"
       fill="#2481ba"
       id="path21" /><path
       d="m 935.8,838.2 24,-13.4 v -184 l -24,6.4 z"
       fill="#1772a0"
       id="path22" /><path
       d="m 803.8,624.2 132,23 24,-6.4 -127,-22.3 z"
       fill="#3ed6ff"
       id="path23" /><path
       d="m 915.6,282.9 c -3.2,-6.7 -6.9,-13.7 -11.3,-21.2 -24.7,13.1 -81.8,44.9 -174.1,58.1 -123.7,17.7 -252.3,31.3 -252.3,31.3 0,0 225,-10 320,-29 70,-14 104.5,-31.2 117.7,-39.2 z"
       fill="#d4f7ff"
       id="path24" /></g></svg>
