<?xml version="1.0" encoding="UTF-8" standalone="no"?>
<svg
   data-name="Capa 1"
   viewBox="0 0 256 256"
   version="1.1"
   id="svg8"
   xml:space="preserve"
   width="256"
   height="256"
   xmlns="http://www.w3.org/2000/svg"
   xmlns:svg="http://www.w3.org/2000/svg"><defs
     id="defs2" /><path
     style="fill:none"
     d="M 0,0 H 256 V 256 H 0 Z"
     id="path2" /><g
     id="g10"
     transform="matrix(3.6494901,0,0,3.6494901,11.033842,11.216317)"><g
       fill="#3e4347"
       id="g9"><path
         d="m 14.3,18.3 c 1.1,0.2 1.6,1.3 1.1,2.3 l -3.2,7.6 c -0.4,1.1 -1.5,1.4 -2.4,0.9 L 3,24.9 C 2.1,24.3 1.7,23 2.1,21.9 l 1.6,-3.8 c 0.4,-1 1.7,-1.7 2.7,-1.5 l 7.9,1.7"
         id="path1" /><path
         d="m 9.8,34.8 c 0.9,-0.6 2,-0.2 2.5,0.9 l 3.2,7.6 c 0.4,1.1 -0.1,2.1 -1.1,2.3 L 6.6,47.3 C 5.5,47.5 4.3,46.9 3.9,45.8 L 2.3,42 c -0.4,-1.1 0,-2.4 0.9,-3 l 6.6,-4.2"
         id="path2-2" /><path
         d="m 18.3,49.7 c 0.2,-1.1 1.3,-1.6 2.3,-1.1 l 7.6,3.2 c 1.1,0.4 1.4,1.5 0.9,2.5 L 24.8,61 c -0.6,0.9 -1.9,1.3 -3,0.9 L 18,60.3 c -1,-0.4 -1.7,-1.7 -1.5,-2.7 l 1.8,-7.9"
         id="path3-7" /><path
         d="m 34.8,54.2 c -0.6,-0.9 -0.2,-2 0.9,-2.5 l 7.6,-3.2 c 1.1,-0.4 2.1,0.1 2.3,1.1 l 1.7,7.8 c 0.2,1.1 -0.4,2.3 -1.5,2.7 L 42,61.7 c -1.1,0.4 -2.4,0 -3,-0.9 l -4.2,-6.6"
         id="path4-6" /><path
         d="m 49.7,45.7 c -1.1,-0.2 -1.6,-1.3 -1.1,-2.3 l 3.2,-7.6 c 0.4,-1 1.5,-1.4 2.5,-0.9 l 6.8,4.3 c 0.9,0.6 1.3,1.9 0.9,3 L 60.4,46 c -0.4,1 -1.7,1.7 -2.7,1.5 l -8,-1.8"
         id="path5-1" /><path
         d="m 54.2,29.2 c -0.9,0.6 -2,0.2 -2.5,-0.9 l -3.2,-7.6 c -0.4,-1.1 0.1,-2.1 1.1,-2.3 l 7.8,-1.7 c 1.1,-0.2 2.3,0.4 2.7,1.5 l 1.6,3.8 c 0.4,1 0,2.4 -0.9,3 l -6.6,4.2"
         id="path6-4" /><path
         d="m 45.7,14.3 c -0.2,1.1 -1.3,1.6 -2.3,1.1 L 35.8,12.2 C 34.7,11.8 34.4,10.7 34.9,9.7 L 39.1,3 c 0.6,-0.9 1.9,-1.3 3,-0.9 l 3.8,1.6 c 1,0.4 1.7,1.7 1.5,2.7 l -1.7,7.9"
         id="path7" /><path
         d="m 29.2,9.8 c 0.6,0.9 0.2,2 -0.9,2.5 l -7.6,3.2 c -1,0.4 -2.1,-0.1 -2.3,-1.1 L 16.7,6.6 C 16.5,5.5 17.1,4.3 18.2,3.9 L 22,2.3 c 1.1,-0.4 2.4,0 3,0.9 l 4.2,6.6"
         id="path8" /><path
         d="M 32,6.7 C 18,6.7 6.7,18 6.7,32 6.7,46 18,57.3 32,57.3 46,57.3 57.3,46 57.3,32 57.3,18 46,6.7 32,6.7 Z m 0,41.2 c -8.8,0 -15.9,-7.1 -15.9,-15.9 0,-8.8 7.1,-15.9 15.9,-15.9 8.8,0 15.9,7.1 15.9,15.9 0,8.8 -7.1,15.9 -15.9,15.9 z"
         id="path9" /></g><path
       d="M 32,12.3 C 21.1,12.3 12.3,21.1 12.3,32 12.3,42.9 21.1,51.7 32,51.7 42.9,51.7 51.7,42.9 51.7,32 51.7,21.1 42.9,12.3 32,12.3 m 0,27.2 c -4.1,0 -7.5,-3.4 -7.5,-7.5 0,-4.1 3.4,-7.5 7.5,-7.5 4.1,0 7.5,3.4 7.5,7.5 0,4.1 -3.4,7.5 -7.5,7.5"
       fill="#94989b"
       id="path10" /><path
       d="m 32,17 c -8.3,0 -15,6.7 -15,15 0,8.3 6.7,15 15,15 8.3,0 15,-6.7 15,-15 0,-8.3 -6.7,-15 -15,-15 m 0,22.5 c -4.1,0 -7.5,-3.4 -7.5,-7.5 0,-4.1 3.4,-7.5 7.5,-7.5 4.1,0 7.5,3.4 7.5,7.5 0,4.1 -3.4,7.5 -7.5,7.5"
       fill="#3e4347"
       id="path11" /></g></svg>
