<?xml version="1.0" encoding="UTF-8" standalone="no"?>
<svg
   data-name="Capa 1"
   viewBox="0 0 256 256"
   version="1.1"
   id="svg8"
   xml:space="preserve"
   width="256"
   height="256"
   xmlns="http://www.w3.org/2000/svg"
   xmlns:svg="http://www.w3.org/2000/svg"><defs
     id="defs2" /><path
     style="fill:none"
     d="M 0,0 H 256 V 256 H 0 Z"
     id="path2" /><g
     id="g11"
     transform="matrix(0.23861229,0,0,0.23861229,5.8305075,5.8305075)"><path
       d="m 762.1,944.8 -660,-230 v -552 l 660,192 z"
       fill="#37bbef"
       id="path1" /><path
       d="m 762.1,944.8 160,-170 v -550 l -160,130 z"
       fill="#2481ba"
       id="path2-7" /><path
       d="m 102.1,162.8 660,192 160,-130 L 297.7,68.2 Z"
       fill="#3ed6ff"
       id="path3-9" /><path
       d="m 922.1,399.4 v -25.7 l -160,129.7 v 2.7 L 517.8,431.3 V 297.6 h -20 V 425.2 L 235.8,345 V 210.7 h -20 V 338.8 L 102.1,304 v 20.9 l 233.7,71.5 v 112 L 102.1,433.5 v 21 l 113.7,36.4 V 612.8 L 102.1,576.4 v 21 l 233.7,74.9 v 123.9 l 20,7 V 678.8 l 280,89.7 v 132.3 l 20,7 V 774.9 L 762.1,809 v 2.3 l 160,-153.8 v -28.6 l -160,153.8 V 788 L 517.8,709.7 V 587.8 l 244.3,78.3 v 1.4 l 160,-141.8 v -27.1 l -160,141.8 v 4.8 L 655.8,611.1 V 494.4 L 762.1,527 v 2.1 z m -424.3,303.9 -262,-84 V 497.5 l 262,84 z m 138,-98.6 -280,-89.7 V 402.6 l 280,85.7 z"
       fill="#ffffff"
       id="path4-5" /><path
       d="m 82.1,637.5 c 0,0 27.9,-8 39.9,-64 12,-56 22,-126 22,-126 0,0 38,134 72,160 32.4,24.8 26,-52 80,-102 54,-50 111,-34 117,-34 6,0 -138.6,105.7 -42,174 58,41 86,-26 126,-74 40,-48 54,-25 54,-25 0,0 -18,147 18,143 36,-4 78,-90 78,-90 0,0 61,91 83,201 22,110 12.1,171.3 12.1,171.3 l -660,-233 z"
       fill="#69fff7"
       id="path5-4"
       style="fill:#ff0404;fill-opacity:1" /><path
       d="M 70.1,157.8 765.7,353.4 955.3,224.2 287.7,52.2 Z"
       fill="#3ed6ff"
       id="path6-3" /><path
       d="m 68.7,179.2 v -21.4 l 697,195.6 v 24.8 z"
       fill="#369bce"
       id="path7" /><path
       d="M 955.3,224.2 V 248 L 765.7,378.2 v -24.8 z"
       fill="#1a6d96"
       id="path8" /></g></svg>
