<svg data-name="C1" xml:space="preserve" width="256" height="256" xmlns="http://www.w3.org/2000/svg"><path style="fill:none" d="M0 0h256v256H0z"/><path style="fill:#556080" d="M55.19 13H47v30.19A3.81 3.81 0 0 1 43.19 47H13v8.19A3.81 3.81 0 0 0 16.81 59h38.38A3.81 3.81 0 0 0 59 55.19V16.81A3.81 3.81 0 0 0 55.19 13" transform="translate(17.943 17.943)scale(3.73075)"/><path style="fill:#26b99a" d="M43.19 47H4.81A3.81 3.81 0 0 1 1 43.19V4.81A3.81 3.81 0 0 1 4.81 1h38.38A3.81 3.81 0 0 1 47 4.81v38.38A3.81 3.81 0 0 1 43.19 47" transform="translate(17.943 17.943)scale(3.73075)"/><path style="fill:#26b99a" d="M43.19 48H4.81A4.815 4.815 0 0 1 0 43.19V4.81A4.815 4.815 0 0 1 4.81 0h38.38A4.815 4.815 0 0 1 48 4.81v38.38A4.815 4.815 0 0 1 43.19 48M4.81 2A2.814 2.814 0 0 0 2 4.81v38.38A2.814 2.814 0 0 0 4.81 46h38.38A2.814 2.814 0 0 0 46 43.19V4.81A2.814 2.814 0 0 0 43.19 2Z" transform="translate(17.943 17.943)scale(3.73075)"/></svg>