<svg
   data-name="C1"
   viewBox="0 0 256 256"
   version="1.1"
   id="svg8"
   xml:space="preserve"
   width="256"
   height="256"
   xmlns="http://www.w3.org/2000/svg"
   xmlns:svg="http://www.w3.org/2000/svg"><defs
     id="defs2" /><path
     style="fill:none"
     d="M 0,0 H 256 V 256 H 0 Z"
     id="path2" /><g
     id="g11"
     transform="matrix(0.24698986,0,0,0.24698986,1.5411917,1.5411917)"><path
       d="M 537,830.3 67,600.3 v -242 l 470,212 z"
       fill="#37bbef"
       id="path1" /><path
       d="M 499.7,735.6 86.4,536.2 V 428 l 413.3,193.8 z"
       fill="#ffffff"
       id="path2-1" /><path
       d="m 537,830.3 420,-230 v -240 l -420,210 z"
       fill="#2481ba"
       id="path3-2" /><path
       d="m 67,358.3 470,212 420,-210 -494.4,-166.6 z"
       fill="#3ed6ff"
       id="path4-3" /><path
       d="m 159.8,503.5 v -18.6 l -37.6,-17.5 v 18.5 L 109,479.8 v 51.4 l 63.9,30.5 v -52 z"
       fill="#113b42"
       id="path5-3" /><path
       d="m 125,532 2.5,1.2 v -33.5 l -2.5,-1.2 z m 9.8,4.6 2.5,1.3 v -33.6 l -2.5,-1.2 z m 9.8,4.7 2.5,1.2 v -33.6 l -2.5,-1.2 z m 9.8,-29 V 546 l 2.5,1.2 v -33.7 z"
       fill="#ffffff"
       id="path6-4" /><path
       d="m 259.3,550.1 v -19 l -37.6,-17.5 v 18.9 l -13.2,-6.1 v 52.4 l 63.9,30.6 v -53.2 z"
       fill="#113b42"
       id="path7" /><path
       d="m 224.5,579.5 2.5,1.2 v -34.2 l -2.5,-1.2 z m 9.8,4.6 2.5,1.2 v -34.2 l -2.5,-1.2 z m 9.8,4.7 2.5,1.2 v -34.3 l -2.5,-1.2 z m 9.8,-29.7 v 34.4 l 2.5,1.2 v -34.4 z"
       fill="#ffffff"
       id="path8" /><path
       d="m 358.8,596.7 v -19.4 l -37.7,-17.5 v 19.3 L 308,572.9 v 53.5 l 63.9,30.6 v -54.2 z"
       fill="#113b42"
       id="path9" /><path
       d="m 324,626.9 2.5,1.3 v -34.9 l -2.5,-1.2 z m 9.8,4.7 2.5,1.2 v -34.9 l -2.5,-1.2 z m 9.8,4.7 2.5,1.2 v -35 l -2.5,-1.2 z m 9.8,-30.4 v 35 l 2.5,1.3 v -35.1 z"
       fill="#ffffff"
       id="path10" /><path
       d="M 458.2,643.2 V 623.5 L 420.6,606 v 19.6 l -13.1,-6.1 V 674 l 63.9,30.6 v -55.2 z"
       fill="#113b42"
       id="path11" /><path
       d="m 423.5,674.4 2.5,1.2 v -35.5 l -2.5,-1.2 z m 9.8,4.7 2.5,1.2 v -35.6 l -2.5,-1.2 z m 9.8,4.7 2.5,1.2 v -35.7 l -2.5,-1.2 z m 9.8,-31.1 v 35.7 l 2.5,1.2 v -35.7 z"
       fill="#ffffff"
       id="path12" /><path
       d="m 127.5,583.8 m -6.8,0 a 6.8,6.8 0 1 0 13.6,0 6.8,6.8 0 1 0 -13.6,0 z"
       fill="#7c1919"
       id="path13" /><path
       d="m 233.5,635 m -6.8,0 a 6.8,6.8 0 1 0 13.6,0 6.8,6.8 0 1 0 -13.6,0 z"
       fill="#197f42"
       id="path14" /><path
       d="m 332.2,682.7 m -6.8,0 a 6.8,6.8 0 1 0 13.6,0 6.8,6.8 0 1 0 -13.6,0 z"
       fill="#197f42"
       id="path15" /><path
       d="m 433.8,732 m -6.8,0 a 6.8,6.8 0 1 0 13.6,0 6.8,6.8 0 1 0 -13.6,0 z"
       fill="#197f42"
       id="path16" /></g></svg>
