<svg id="uuid-19907d1f-9315-477d-b7ba-91ae3e2acc9a" data-name="Capa 1" version="1.1" xml:space="preserve" width="256" height="256" xmlns="http://www.w3.org/2000/svg">
    <defs id="defs2">
        <linearGradient gradientUnits="userSpaceOnUse" id="linear-gradient" x1="32" x2="32" y1="10.446" y2="34.341">
            <stop offset="0" stop-color="#fcb64d" id="stop1-6"/>
            <stop offset="1" stop-color="#f78c1e" id="stop2-8"/>
        </linearGradient>
        <linearGradient gradientUnits="userSpaceOnUse" id="linear-gradient-2" x1="32" x2="32" y1="25.178" y2="58.687">
            <stop offset="0" stop-color="#fecc81" id="stop3"/>
            <stop offset="1" stop-color="#faa629" id="stop4"/>
        </linearGradient>
        <linearGradient gradientUnits="userSpaceOnUse" id="linear-gradient-3" x1="40.505" x2="40.505" y1="10.327" y2="24.834">
            <stop offset="0" stop-color="#faa629" id="stop5"/>
            <stop offset="1" stop-color="#f47c20" id="stop6"/>
        </linearGradient>
        <style id="style1">
            .uuid-5da2c4a3-8db1-41d9-92d6-1ab0c264b0da{fill:none}
        </style>
    </defs>
    <path class="uuid-5da2c4a3-8db1-41d9-92d6-1ab0c264b0da" id="rect2" d="M0 0h256v256H0z"/>
    <g id="Flat" transform="matrix(.47287 0 0 .47287 6.945 6.945)">
        <path d="M96 224H80V80a24.028 24.028 0 0 1 24-24h40v16h-40a8.009 8.009 0 0 0-8 8z" fill="#959494" id="path1"/>
        <g fill="#686869" id="g4">
            <path d="M112 280H64v-32l8-32h32l8 32z" id="path2-0"/>
            <path d="M200 40v48h-32l-32-8V48l32-8z" id="path3-9"/>
            <path d="M192.001 80h272v64h-272z" id="path4-4"/>
        </g>
        <path d="M192 80h272v32H192Z" fill="#4e4e4f" id="path5-8"/>
        <path d="M168 32h320v64H168Z" fill="#3f3f40" id="path6-8"/>
        <path d="M448 56h16v16h-16z" fill="#57c3c1" id="path7-2"/>
        <path d="M416 56h16v16h-16z" fill="#57c3c1" id="path8"/>
        <path d="M336 56h64v16h-64z" fill="#57c3c1" id="path9"/>
        <path d="M192.001 176h272v64h-272z" fill="#686869" id="path10"/>
        <path d="M192 176h272v32H192Z" fill="#4e4e4f" id="path11"/>
        <path d="M168 128h320v64H168Z" fill="#3f3f40" id="path12"/>
        <path d="M448 152h16v16h-16z" fill="#57c3c1" id="path13"/>
        <path d="M416 152h16v16h-16z" fill="#57c3c1" id="path14"/>
        <path d="M336 152h64v16h-64z" fill="#57c3c1" id="path15"/>
        <path d="M192.001 272h272v64h-272z" fill="#686869" id="path16"/>
        <path d="M192 272h272v32H192Z" fill="#4e4e4f" id="path17"/>
        <path d="M168 224h320v64H168Z" fill="#3f3f40" id="path18"/>
        <path d="M448 248h16v16h-16z" fill="#57c3c1" id="path19"/>
        <path d="M416 248h16v16h-16z" fill="#57c3c1" id="path20"/>
        <path d="M336 248h64v16h-64z" fill="#57c3c1" id="path21"/>
        <path d="m392 384 32 32h32v-48h-64z" fill="#686869" id="path22"/>
        <path d="M456 400h-48l-16-16v-16h64z" fill="#4e4e4f" id="path23"/>
        <path d="M168 320h320v64H168Z" fill="#3f3f40" id="path24"/>
        <path d="M448 344h16v16h-16z" fill="#57c3c1" id="path25"/>
        <path d="M416 344h16v16h-16z" fill="#57c3c1" id="path26"/>
        <path d="M336 344h64v16h-64z" fill="#57c3c1" id="path27"/>
    </g>
    <g id="g7" transform="matrix(.60843 0 0 .60843 11.266 100.705)">
        <path class="uuid-5da2c4a3-8db1-41d9-92d6-1ab0c264b0da" id="rect2-1" d="M0 0h256v256H0z"/>
        <g id="g17" transform="matrix(4.0739 0 0 4.0739 -2.365 -2.365)">
            <path d="M59 21.992v5.19H5v-15.21a2.006 2.006 0 0 1 2-2h15.62l1.39 2.32 4.61 7.7H57a2 2 0 0 1 2 2z" id="path6" style="fill:url(#linear-gradient)"/>
            <path d="M5 27.181v24.847a2 2 0 0 0 2 2h50a2 2 0 0 0 2-2V27.181Z" id="path7" style="fill:url(#linear-gradient-2)"/>
            <path d="M57 14.292v5.7H28.62l-4.61-7.7H55a2.006 2.006 0 0 1 2 2z" id="path8-1" style="fill:url(#linear-gradient-3)"/>
        </g>
    </g>
    <g id="GitHub" transform="matrix(1.32716 0 0 1.32716 121.377 32.22)">
        <path d="M64 32c0 14.2-9.2 26.2-22 30.4H22C9.2 58.2 0 46.2 0 32 0 14.3 14.3 0 32 0s32 14.3 32 32Z" id="path1-2" style="display:inline;fill:#171516"/>
        <path d="M44 45c3-1 8-4 8-13 0-3.5-.9-6.7-2.9-9.3 2.2-5.3-.2-8.7-1.1-8.7-.8 0-4.2.6-7.3 3.1-2.5-.7-5.4-1.1-8.7-1.1-3.3 0-6.2.4-8.7 1.1-3.1-2.5-6.5-3.1-7.3-3.1-.9 0-3.3 3.4-1.1 8.7-2 2.6-2.9 5.8-2.9 9.3 0 9 5 12 8 13 2.4.8 5 1.3 6 1.5-.6.6-1.6 2.2-1.9 4.4-.8.6-2 1.1-3.6 1.1-3 0-4.5-2-6-4S11 45 10 45s-2 .5-1 1.5 2.3.2 5 5c2 3.6 4.5 3.5 6.5 3.5 1.8 0 3.5-1 3.5-1h15l1-2c0-2.8-1.3-4.8-2-5.5 1-.2 3.6-.7 6-1.5z" id="path3" style="display:inline;fill:#fff"/>
        <path d="M9 46.5c-.6-.6-.5-1-.1-1.2 1.8 1.8 4.1 3.2 6.8 4.2 1.2 1.4 2.6 2.5 4.8 2.5 1 0 1.9-.3 2.7-.6 2.8.4 5.8.6 8.8.6 2.8 0 5.5-.1 8-.5V60l2.3 2.3c-6.7 2.3-13.9 2.3-20.6 0L24 60v-4.8c-.8.3-2.2.8-3.5.8-2 0-5-.4-7-4-2-3.7-3-4.4-3.8-4.9-.2-.2-.5-.4-.7-.6Z" id="path4" style="display:inline;fill:#fff;fill-opacity:1;fill-rule:evenodd;clip-rule:evenodd"/>
    </g>
</svg>
