<svg
   id="uuid-19907d1f-9315-477d-b7ba-91ae3e2acc9a"
   data-name="C1"
   viewBox="0 0 256 256"
   version="1.1"
   sodipodi:docname="iconpack-dns-1.svg"
   xml:space="preserve"
   width="256"
   height="256"
   xmlns:inkscape="http://www.inkscape.org/namespaces/inkscape"
   xmlns:sodipodi="http://sodipodi.sourceforge.net/DTD/sodipodi-0.dtd"
   xmlns="http://www.w3.org/2000/svg"
   xmlns:svg="http://www.w3.org/2000/svg"><sodipodi:namedview
     id="namedview7"
     pagecolor="#ffffff"
     bordercolor="#000000"
     borderopacity="0.25"
     inkscape:showpageshadow="2"
     inkscape:pageopacity="0.0"
     inkscape:pagecheckerboard="0"
     inkscape:deskcolor="#d1d1d1"><inkscape:page
       x="0"
       y="0"
       width="256"
       height="256"
       id="page2"
       margin="0"
       bleed="0" /></sodipodi:namedview><defs
     id="defs2"><style
       id="style1">
      .uuid-153302a6-b94e-4ad0-9cfb-43725c5c5610 {
        fill: url(#uuid-af07a271-8980-47e6-b92b-41550c7dc68a);
      }

      .uuid-27fce091-ee3a-4889-9199-28416b94f462 {
        fill: url(#uuid-dc53e15d-e646-4f9b-aab3-d9d8fec05b0e);
      }

      .uuid-5da2c4a3-8db1-41d9-92d6-1ab0c264b0da {
        fill: none;
      }

      .uuid-ed4306aa-b6e6-45eb-bfe3-e4f85f33ea76 {
        fill: url(#uuid-afdc0b81-5c65-49b4-9e34-1cf3c2f4f8f7);
      }

      .uuid-03bde706-b35e-416f-8ae5-693e38f68253 {
        fill: url(#uuid-8e0b3ff5-2b0d-4ede-9e3a-d9af7f50b81e);
      }

      .uuid-aed79b63-67fc-4862-91f2-2516d39da3fa {
        fill: url(#uuid-5be9ed93-6987-4def-8687-537049e4e1cf);
      }

      .uuid-7fb198ab-10f1-4f2d-9a38-66668a795b4d {
        fill: url(#uuid-ebe94990-143f-470c-b744-73e231e6133d);
      }
    </style></defs><rect
     class="uuid-5da2c4a3-8db1-41d9-92d6-1ab0c264b0da"
     width="256"
     height="256"
     id="rect2"
     x="0"
     y="0" /><g
     id="g4"
     transform="matrix(0.42923288,0,0,0.42923288,18.116383,18.116383)"><linearGradient
       id="linearGradient4"
       x1="256"
       x2="256"
       y1="512"
       y2="0"
       gradientUnits="userSpaceOnUse"><stop
         offset="0"
         stop-color="#e93528"
         id="stop3" /><stop
         offset="1"
         stop-color="#f8bc16"
         id="stop4" /></linearGradient><path
       fill="url(#a)"
       d="M 471.037,117.095 C 449.074,83.169 419.23,54.692 384.241,34.398 345.44,11.895 301.096,0 256,0 210.904,0 166.56,11.895 127.76,34.398 92.77,54.692 62.927,83.169 40.964,117.095 18.239,117.909 0,136.638 0,159.557 v 192.887 c 0,22.919 18.239,41.648 40.963,42.461 21.964,33.926 51.807,62.403 86.796,82.697 C 166.56,500.105 210.904,512 256,512 c 45.096,0 89.439,-11.895 128.239,-34.398 34.991,-20.294 64.833,-48.771 86.797,-82.697 C 493.761,394.091 512,375.362 512,352.443 V 159.557 c 0,-22.919 -18.239,-41.648 -40.963,-42.462 z m -39.376,-0.039 H 355.95 c -8.644,-29.919 -20.079,-55.524 -33.448,-74.83 42.726,13.398 81.017,39.419 109.159,74.83 z M 256,32 c 24.648,0 49.852,32.756 66.527,85.056 H 189.473 C 206.147,64.756 231.351,32 256,32 Z m -66.503,10.227 c -13.37,19.306 -24.804,44.91 -33.447,74.829 H 80.34 C 108.481,81.645 146.771,55.625 189.497,42.227 Z M 80.339,394.944 h 75.71 c 8.643,29.919 20.078,55.524 33.447,74.829 C 146.771,456.375 108.481,430.355 80.339,394.944 Z M 256,480 c -24.649,0 -49.853,-32.756 -66.527,-85.056 H 322.528 C 305.853,447.244 280.649,480 256,480 Z m 66.502,-10.227 c 13.37,-19.306 24.805,-44.91 33.448,-74.829 h 75.71 c -28.142,35.411 -66.432,61.431 -109.158,74.829 z M 480,352.443 c 0,5.692 -4.809,10.5 -10.501,10.5 H 42.501 C 36.809,362.943 32,358.134 32,352.443 V 159.557 c 0,-5.692 4.809,-10.5 10.501,-10.5 h 419.581 l 0.077,0.002 0.074,-0.002 h 7.267 c 5.692,0 10.501,4.809 10.501,10.5 V 352.443 Z M 118.98,180.693 H 73.989 c -8.837,0 -16,7.164 -16,16 v 118.614 c 0,8.836 7.163,16 16,16 h 44.991 c 33.631,0 60.991,-27.361 60.991,-60.992 v -28.631 c 0.001,-33.63 -27.36,-60.991 -60.991,-60.991 z m 28.992,89.622 c 0,15.986 -13.005,28.992 -28.991,28.992 H 89.989 v -86.614 h 28.991 c 15.986,0 28.991,13.005 28.991,28.992 v 28.63 z m 306.039,15.338 c 0,25.173 -20.48,45.654 -45.653,45.654 h -30.676 c -14.813,0 -28.774,-7.27 -37.346,-19.446 -5.087,-7.226 -3.353,-17.207 3.873,-22.293 7.227,-5.086 17.207,-3.352 22.293,3.874 2.586,3.673 6.765,5.866 11.18,5.866 h 30.676 c 7.528,0 13.653,-6.125 13.653,-13.653 0,-7.529 -6.125,-13.654 -13.653,-13.654 h -30.676 c -25.173,0 -45.653,-20.48 -45.653,-45.653 0,-25.173 20.48,-45.654 45.653,-45.654 h 30.676 c 17.024,0 32.528,9.408 40.463,24.553 4.101,7.827 1.079,17.497 -6.748,21.598 -7.828,4.101 -17.497,1.079 -21.598,-6.748 -2.393,-4.566 -7.035,-7.403 -12.117,-7.403 h -30.676 c -7.528,0 -13.653,6.125 -13.653,13.653 0,7.529 6.125,13.654 13.653,13.654 h 30.676 c 25.172,-0.001 45.653,20.479 45.653,45.652 z m -137.02,-88.96 v 118.614 a 16.001,16.001 0 0 1 -28.747,9.67 l -61.235,-80.72 v 71.05 c 0,8.836 -7.163,16 -16,16 -8.837,0 -16,-7.164 -16,-16 V 196.693 a 16.001,16.001 0 0 1 28.747,-9.67 l 61.235,80.72 v -71.05 c 0,-8.836 7.163,-16 16,-16 8.837,0 16,7.163 16,16 z"
       opacity="1"
       data-original="url(#a)"
       id="path4-2"
       style="fill:#0074d0;fill-opacity:1" /></g></svg>
