<?xml version="1.0" encoding="UTF-8" standalone="no"?>
<svg
   id="uuid-19907d1f-9315-477d-b7ba-91ae3e2acc9a"
   data-name="Capa 1"
   viewBox="0 0 256 256"
   version="1.1"
   sodipodi:docname="iconpack-folder-share-1.svg"
   xml:space="preserve"
   width="256"
   height="256"
   xmlns:inkscape="http://www.inkscape.org/namespaces/inkscape"
   xmlns:sodipodi="http://sodipodi.sourceforge.net/DTD/sodipodi-0.dtd"
   xmlns="http://www.w3.org/2000/svg"
   xmlns:svg="http://www.w3.org/2000/svg"><sodipodi:namedview
     id="namedview7"
     pagecolor="#ffffff"
     bordercolor="#000000"
     borderopacity="0.25"
     inkscape:showpageshadow="2"
     inkscape:pageopacity="0.0"
     inkscape:pagecheckerboard="0"
     inkscape:deskcolor="#d1d1d1"><inkscape:page
       x="0"
       y="0"
       width="256"
       height="256"
       id="page2"
       margin="0"
       bleed="0" /></sodipodi:namedview><defs
     id="defs2"><style
       id="style1">
      .uuid-153302a6-b94e-4ad0-9cfb-43725c5c5610 {
        fill: url(#uuid-af07a271-8980-47e6-b92b-41550c7dc68a);
      }

      .uuid-27fce091-ee3a-4889-9199-28416b94f462 {
        fill: url(#uuid-dc53e15d-e646-4f9b-aab3-d9d8fec05b0e);
      }

      .uuid-5da2c4a3-8db1-41d9-92d6-1ab0c264b0da {
        fill: none;
      }

      .uuid-ed4306aa-b6e6-45eb-bfe3-e4f85f33ea76 {
        fill: url(#uuid-afdc0b81-5c65-49b4-9e34-1cf3c2f4f8f7);
      }

      .uuid-03bde706-b35e-416f-8ae5-693e38f68253 {
        fill: url(#uuid-8e0b3ff5-2b0d-4ede-9e3a-d9af7f50b81e);
      }

      .uuid-aed79b63-67fc-4862-91f2-2516d39da3fa {
        fill: url(#uuid-5be9ed93-6987-4def-8687-537049e4e1cf);
      }

      .uuid-7fb198ab-10f1-4f2d-9a38-66668a795b4d {
        fill: url(#uuid-ebe94990-143f-470c-b744-73e231e6133d);
      }
    </style><style
       id="style1-1">.cls-1{fill:url(#linear-gradient);}.cls-2{fill:url(#linear-gradient-2);}.cls-3{fill:url(#linear-gradient-3);}</style><linearGradient
       gradientUnits="userSpaceOnUse"
       id="linear-gradient"
       x1="32"
       x2="32"
       y1="10.446"
       y2="34.341"><stop
         offset="0"
         stop-color="#fcb64d"
         id="stop1-6" /><stop
         offset="1"
         stop-color="#f78c1e"
         id="stop2-8" /></linearGradient><linearGradient
       gradientUnits="userSpaceOnUse"
       id="linear-gradient-2"
       x1="32"
       x2="32"
       y1="25.177999"
       y2="58.687"><stop
         offset="0"
         stop-color="#fecc81"
         id="stop3" /><stop
         offset="1"
         stop-color="#faa629"
         id="stop4" /></linearGradient><linearGradient
       gradientUnits="userSpaceOnUse"
       id="linear-gradient-3"
       x1="40.505001"
       x2="40.505001"
       y1="10.327"
       y2="24.834"><stop
         offset="0"
         stop-color="#faa629"
         id="stop5" /><stop
         offset="1"
         stop-color="#f47c20"
         id="stop6" /></linearGradient></defs><rect
     class="uuid-5da2c4a3-8db1-41d9-92d6-1ab0c264b0da"
     width="256"
     height="256"
     id="rect2"
     x="0"
     y="0" /><g
     id="g17"
     transform="matrix(4.0738976,0,0,4.0738976,-2.3647232,-2.3647232)"><path
       class="cls-1"
       d="m 59,21.992 v 5.19 H 5 v -15.21 a 2.006,2.006 0 0 1 2,-2 h 15.62 l 1.39,2.32 4.61,7.7 H 57 a 2,2 0 0 1 2,2 z"
       id="path6"
       style="fill:url(#linear-gradient)" /><path
       class="cls-2"
       d="m 5,27.181 v 24.847 a 2,2 0 0 0 2,2 h 50 a 2,2 0 0 0 2,-2 V 27.181 Z"
       id="path7"
       style="fill:url(#linear-gradient-2)" /><path
       class="cls-3"
       d="m 57,14.292 v 5.7 H 28.62 l -4.61,-7.7 H 55 a 2.006,2.006 0 0 1 2,2 z"
       id="path8"
       style="fill:url(#linear-gradient-3)" /></g><g
     id="g18"
     transform="matrix(5.6137786,0,0,5.6137786,107.90178,120.11595)"><polygon
       points="15.985,18.857 4.557,12 15.985,5.143 17.015,6.857 8.443,12 17.015,17.143 "
       style="fill:#4286c9"
       id="polygon1" /><circle
       cx="16.5"
       cy="6.5"
       r="3.5"
       style="fill:#4c9ae8"
       id="circle1" /><circle
       cx="6.5"
       cy="12"
       r="3.5"
       style="fill:#4c9ae8"
       id="circle2" /><circle
       cx="16.5"
       cy="17.5"
       r="3.5"
       style="fill:#4c9ae8"
       id="circle3" /></g></svg>
