<svg
   data-name="C1"
   viewBox="0 0 256 256"
   version="1.1"
   id="svg8"
   xml:space="preserve"
   width="256"
   height="256"
   xmlns="http://www.w3.org/2000/svg"
   xmlns:svg="http://www.w3.org/2000/svg"><defs
     id="defs2" /><path
     style="fill:none"
     d="M 0,0 H 256 V 256 H 0 Z"
     id="path2" /><g
     id="g11"
     transform="matrix(0.24563181,0,0,0.24563181,2.2242317,2.2365133)"><path
       d="m 407.3,960.3 -321,-110 v -642 l 321,82 z"
       fill="#37bbef"
       id="path1" /><path
       d="m 407.3,960.3 450,-240 v -600 l -450,170 z"
       fill="#2481ba"
       id="path2-8" /><path
       d="m 86.3,208.3 321,82 450,-170 -344.4,-56.6 z"
       fill="#3ed6ff"
       id="path3-7" /><path
       d="m 360.1,348.9 v 80 l -239,-60 v -80 z m -239,48.3 239,60 v -10 l -239,-60 z m 0,23 239,60 v -10 l -239,-60 z m 0,23 239,60 v -10 l -239,-60 z"
       fill="#d4f7ff"
       id="path4-4" /><path
       d="m 135.5,308.4 v 34 l 210.2,53 v -34 z m 0,55 210.2,53 v -13.3 l -210.2,-53 z"
       fill="#113b42"
       id="path5-2" /><path
       d="m 407.3,894.1 v -5.2 l -174.4,-55.3 -1.3,4.8 z M 231.6,809.3 407.3,864 v -5.3 L 232.9,804.4 Z m 0,-29.2 175.7,53.7 v -5.2 L 232.9,775.2 Z m 175.7,-72.2 -174.4,-49.3 -1.3,4.8 175.7,49.7 z m -175.7,-15.3 175.7,50.7 v -5.2 L 232.9,687.7 Z m 0,58.3 175.7,52.7 v -5.2 L 232.9,746.1 Z m 0,-29.1 175.7,51.7 v -5.3 L 232.9,716.9 Z"
       fill="#0071bc"
       id="path6-7" /><path
       d="m 339.3,540.8 c -9.4,-3.4 -17,1.6 -17,11.2 0,9.6 7.6,20.1 17,23.2 9.4,3.1 17,-1.9 17,-11.2 0,-9.3 -7.6,-19.8 -17,-23.2 z m 0,62.8 c -3.9,-1.2 -7,1 -7,4.9 0,3.9 3.1,8.1 7,9.3 3.9,1.2 7,-1 7,-4.9 0,-3.9 -3.2,-8 -7,-9.3 z"
       fill="#ffffff"
       id="path7" /><path
       d="m 737.7,753.9 m -200,0 a 200,200 0 1 0 400,0 200,200 0 1 0 -400,0 z"
       fill="#37bbef"
       id="path8" /><path
       d="m 799.5,563.7 c 53.5,36.8 87.3,90.6 87.3,150.6 0,110.9 -115.4,200.8 -257.8,200.8 -3.4,0 -6.7,-0.1 -10,-0.2 33.2,24.6 74.3,39.1 118.8,39.1 110.5,0 200,-89.5 200,-200 -0.1,-89 -58.1,-164.3 -138.3,-190.3 z"
       fill="#3495c6"
       id="path9" /><path
       d="m 804.3,760 c 0,0 -7.5,-4.5 -12.5,-6 -5,-1.5 -2.5,-9 -2.5,-9 0,0 3,4.5 11.5,6 8.5,1.5 22.5,3.5 26.5,8.5 4,5 4.5,8 6.5,10 2,2 3.5,7 3.5,7 0,0 -8.3,-1.3 -10,-5 -1.7,-3.7 -3.5,-9.5 -5,-8 -1.5,1.5 -0.5,7 -6,7 -5.5,0 -7,-5 -11,-6 -4,-1 -1,-4.5 -1,-4.5 z m -22.5,-104 14,-2.5 7,-7.5 -2,-7 3,-11 -4,-6 c 0,0 0,-11.5 -4.5,-13.5 -4.5,-2 -3,-14.5 -3,-14.5 l 0.5,-2.5 -5,4.5 3,13 4.5,13 0.5,22.5 -10.5,6.5 -8,10.5 z m 10.5,-25.5 -3,-4 -3.5,0.5 -1,6.5 3.5,0.5 z M 831.8,803 c 0,0 -0.5,-9 -4.5,-9 -4,0 -5.5,-10 -5.5,-10 l -8,-8.5 c 0,0 0,12.5 0.5,14.5 0.5,2 -5.5,5 -7,4 -1.5,-1 -7,-9.5 -7,-9.5 0,0 2.2,-4.8 -1,-4.5 -0.3,0 -0.5,0.1 -0.7,0.1 -0.8,-0.1 -2.1,-0.3 -4.3,-0.6 l -10.4,-1.3 -1.1,4.3 c 0,0 -6,5 -9.5,6.5 -3.5,1.5 -7.5,16 -12,16 -4.5,0 -11,0.5 -11,0.5 0,0 -8,13.5 -5.5,18.5 2.5,5 3.5,10 3,16 -0.5,6 0.5,5 9,3.5 8.5,-1.5 15.5,-13 25,-11 9.5,2 12.5,11.5 12.5,11.5 l 8,-7 c 0,0 -1,5 -2.5,5.5 -1.5,0.5 1.5,1 3.5,4.5 2,3.5 12.9,8.4 27,-5 14.1,-13.4 9,-25 9,-25 z M 612.3,791 c 1,-9.5 -4.5,-7 -4,-20.5 0.5,-13.5 19,-45 17.5,-45 -1.5,0 -10,6.5 -13,6 -3,-0.5 -16,-30 -16,-34.5 0,-4.5 -3.5,-21.5 -3.5,-21.5 0,0 4,11.5 7,12 3,0.5 4,13 6.5,19 2.5,6 10.5,16 15.5,15.5 5,-0.5 20.5,-28.5 20.5,-28.5 l -8.5,-5 -9,5.5 c 0,0 -2.5,-6 -5.5,-9.5 -3,-3.5 -2.5,-12 -0.5,-12 2,0 4.3,5.8 14.5,12.5 10.2,6.7 19.5,0 21.5,1.5 2,1.5 10,8 10.5,12 0.5,4 10.5,31.5 12,33.5 1.5,2 7.5,-7 10,-18.5 2.5,-11.5 14.5,-17 18.5,-20 4,-3 3.5,3.5 6,9.5 2.5,6 9,9.5 12,12 3,2.5 0.5,10.5 5.5,10.5 5,0 9,-8.5 9,-8.5 l -3.5,-9.5 c -3.5,-9.5 1.5,-10.5 6,-12.5 4.5,-2 12.5,-9.5 18,-18 5.5,-8.5 -4.5,-16.5 -7.5,-24 -3,-7.5 3.5,-7 7,-7.5 3.5,-0.5 7,19.5 7,19.5 l 6.5,-3.5 c 0,0 -1.5,-6.5 -4.5,-12.5 -3,-6 4,-6 12.5,-15 8.5,-9 3.6,-13.3 4,-24.5 0.4,-11.2 -10.5,-10 -10.5,-10 0,0 -2.5,4 0.5,-10 3,-14 23.5,-6 28.5,-6.5 3.9,-0.4 8.8,-10.1 10.7,-14.2 -23.4,-9.6 -48.9,-14.9 -75.8,-14.9 -106.8,0 -194.1,83.7 -199.7,189.2 2.4,1.3 5.6,2.7 9.3,3.4 8,1.5 4.5,14 5,20.5 0.5,6.5 2,13.5 5,20 3,6.5 -1,10.5 -2.5,15 -1.5,4.5 2,11.5 5,11.5 3,0 -5.5,15.5 4,31.5 9.5,16 23.5,-1.5 30,-24.5 6.5,-23 17.5,-20 18.5,-29.5 z m 129,-43.5 4,8 8.5,4 c 0,0 3,-12 8,-18 5,-6 -3,-11.5 -6.5,-12.5 z m 83.2,-137 c 0.3,1 0.8,1.5 0.8,1.5 0,0 -0.3,-0.6 -0.8,-1.5 z m -60.1,161.8 c -2.6,-0.8 -6.8,-2 -13.2,-3.8 -16,-4.5 -12,-3 -17.5,-6.5 -5.5,-3.5 -0.5,-5 0.5,-9.5 1,-4.5 -5,-19 -5,-19 l -6,-5 -1.5,9 -6.5,2 8,19 c 0,0 13.5,11.5 22,15.5 5.1,2.4 13.4,0.3 19.2,-1.7 z M 619.8,826 c 0,0 8,-14.5 9.5,-21.5 1.5,-7 -1,-18 -1,-18 0,0 -10.5,8 -8.5,9 2,1 -3,5.5 -4,13.5 -1,8 4,17 4,17 z M 821.1,572.1 c -4.4,5.4 -10.3,13.1 -10.3,15.9 0,4.5 7,4.5 7.5,8 0.4,2.7 4.5,11 6.2,14.5 -0.4,-1.3 -0.6,-3.4 0.8,-6 2.5,-4.5 3,-15 0.5,-19.5 -1.2,-2.1 0.3,-6 2.2,-9.6 z M 769,770.5 c 1.4,-0.6 2.2,-1 2.2,-1 0,0 -1,0.4 -2.2,1 z m -1.7,2.5 c -1.5,-0.6 0.2,-1.7 1.8,-2.5 -1.2,0.5 -2.8,1.1 -4.6,1.8 4,1.2 4.3,1.3 2.8,0.7 z"
       fill="#d4f7ff"
       id="path10" /></g></svg>
