<svg data-name="C1" viewBox="0 0 256 256" xml:space="preserve" width="256" height="256" xmlns="http://www.w3.org/2000/svg"><path style="fill:none" d="M0 0h256v256H0Z"/><path style="fill:#243442" d="M113.593 424.725H9.993c-5.517 0-9.993-4.476-9.993-9.993v-15.325c0-5.517 4.476-9.993 9.993-9.993h103.601c5.517 0 9.993 4.476 9.993 9.993v15.325c-.001 5.517-4.476 9.993-9.994 9.993" transform="translate(17.784 17.354)scale(.43053)"/><path style="fill:#ecf0f1" d="M503.888 177.552H132.415v-35.31h371.474a8.11 8.11 0 0 1 8.113 8.113v19.085a8.11 8.11 0 0 1-8.114 8.112" transform="translate(17.784 17.354)scale(.43053)"/><path style="fill:#35495e" d="M70.621 159.897c0-19.5 15.81-35.31 35.31-35.31v-18.609c0-9.225-7.477-16.702-16.702-16.702H34.357c-9.225 0-16.702 7.477-16.702 16.702v283.436h88.276V195.207c-19.5 0-35.31-15.81-35.31-35.31" transform="translate(17.784 17.354)scale(.43053)"/><path style="fill:#c03a2b" d="M456.448 148.483a8.8 8.8 0 0 0 2.586-6.241h-21.31l-29.069 29.069a8.8 8.8 0 0 0-2.586 6.241h21.31zm-70.621 0a8.8 8.8 0 0 0 2.586-6.241h-21.31l-29.069 29.069a8.8 8.8 0 0 0-2.586 6.241h21.31zm-70.62 0a8.8 8.8 0 0 0 2.586-6.241h-21.31l-29.069 29.069a8.8 8.8 0 0 0-2.586 6.241h21.31zm-70.621 0a8.8 8.8 0 0 0 2.586-6.241h-21.31l-29.069 29.069a8.8 8.8 0 0 0-2.586 6.241h21.31z" transform="translate(17.784 17.354)scale(.43053)"/><path style="fill:#95a5a5" d="M141.241 159.897c0 19.5-15.81 35.31-35.31 35.31s-35.31-15.81-35.31-35.31 15.81-35.31 35.31-35.31 35.31 15.81 35.31 35.31" transform="translate(17.784 17.354)scale(.43053)"/></svg>