<?xml version="1.0" encoding="UTF-8" standalone="no"?>
<svg
   data-name="Capa 1"
   viewBox="0 0 256 256"
   version="1.1"
   id="svg8"
   xml:space="preserve"
   width="256"
   height="256"
   xmlns="http://www.w3.org/2000/svg"
   xmlns:svg="http://www.w3.org/2000/svg"><defs
     id="defs2"><linearGradient
       id="be262aa0-1e96-4515-9b80-c7d70e614118"
       x1="9"
       y1="16.573"
       x2="9"
       y2="1.427"
       gradientUnits="userSpaceOnUse"><stop
         offset="0"
         stop-color="#b31b1b"
         id="stop1-0" /><stop
         offset="0.82"
         stop-color="#e62323"
         id="stop2-9" /></linearGradient><linearGradient
       id="b1eb80a0-ef92-42a3-af43-f22c07fe7d9c"
       x1="9"
       y1="16.525"
       x2="9"
       y2="1.427"
       gradientUnits="userSpaceOnUse"><stop
         offset="0"
         stop-color="#b31b1b"
         id="stop3" /><stop
         offset="0.82"
         stop-color="#e62323"
         id="stop4" /></linearGradient></defs><path
     style="fill:none"
     d="M 0,0 H 256 V 256 H 0 Z"
     id="path2" /><g
     id="g5"
     transform="matrix(13.701008,0,0,13.701008,4.6846621,4.6829891)"><path
       d="m 9,16.573 c 7.7,-5.518 7.96,-8.737 8,-9.745 0.048,-1.409 -0.149,-5.1 -3.866,-5.386 A 4.023,4.023 0 0 0 9,4.132 4.023,4.023 0 0 0 4.871,1.442 C 1.154,1.733 0.957,5.419 1,6.828 c 0.035,1.008 0.294,4.227 8,9.745"
       fill="url(#be262aa0-1e96-4515-9b80-c7d70e614118)"
       id="path4-4"
       style="fill:url(#be262aa0-1e96-4515-9b80-c7d70e614118)" /><path
       d="M 17,6.828 C 17.048,5.419 16.851,1.728 13.134,1.442 A 4.023,4.023 0 0 0 9,4.132 4.023,4.023 0 0 0 4.871,1.442 C 1.154,1.733 0.957,5.419 1,6.828 c 0.035,1.008 0.227,4.179 7.928,9.7"
       fill="url(#b1eb80a0-ef92-42a3-af43-f22c07fe7d9c)"
       id="path5-8"
       style="fill:url(#b1eb80a0-ef92-42a3-af43-f22c07fe7d9c)" /></g></svg>
