<?xml version="1.0" encoding="UTF-8" standalone="no"?>
<svg
   id="uuid-19907d1f-9315-477d-b7ba-91ae3e2acc9a"
   data-name="Capa 1"
   viewBox="0 0 256 256"
   version="1.1"
   sodipodi:docname="iot-homeassistant-1.svg"
   xml:space="preserve"
   width="256"
   height="256"
   xmlns:inkscape="http://www.inkscape.org/namespaces/inkscape"
   xmlns:sodipodi="http://sodipodi.sourceforge.net/DTD/sodipodi-0.dtd"
   xmlns="http://www.w3.org/2000/svg"
   xmlns:svg="http://www.w3.org/2000/svg"><sodipodi:namedview
     id="namedview7"
     pagecolor="#ffffff"
     bordercolor="#000000"
     borderopacity="0.25"
     inkscape:showpageshadow="2"
     inkscape:pageopacity="0.0"
     inkscape:pagecheckerboard="0"
     inkscape:deskcolor="#d1d1d1"><inkscape:page
       x="0"
       y="0"
       width="256"
       height="256"
       id="page2"
       margin="0"
       bleed="0" /></sodipodi:namedview><defs
     id="defs2"><style
       id="style1">
      .uuid-153302a6-b94e-4ad0-9cfb-43725c5c5610 {
        fill: url(#uuid-af07a271-8980-47e6-b92b-41550c7dc68a);
      }

      .uuid-27fce091-ee3a-4889-9199-28416b94f462 {
        fill: url(#uuid-dc53e15d-e646-4f9b-aab3-d9d8fec05b0e);
      }

      .uuid-5da2c4a3-8db1-41d9-92d6-1ab0c264b0da {
        fill: none;
      }

      .uuid-ed4306aa-b6e6-45eb-bfe3-e4f85f33ea76 {
        fill: url(#uuid-afdc0b81-5c65-49b4-9e34-1cf3c2f4f8f7);
      }

      .uuid-03bde706-b35e-416f-8ae5-693e38f68253 {
        fill: url(#uuid-8e0b3ff5-2b0d-4ede-9e3a-d9af7f50b81e);
      }

      .uuid-aed79b63-67fc-4862-91f2-2516d39da3fa {
        fill: url(#uuid-5be9ed93-6987-4def-8687-537049e4e1cf);
      }

      .uuid-7fb198ab-10f1-4f2d-9a38-66668a795b4d {
        fill: url(#uuid-ebe94990-143f-470c-b744-73e231e6133d);
      }
    </style></defs><rect
     class="uuid-5da2c4a3-8db1-41d9-92d6-1ab0c264b0da"
     width="256"
     height="256"
     id="rect2"
     x="0"
     y="0" /><g
     id="g8"
     transform="matrix(7.8544124,0,0,7.8544124,2.3266601,2.30903)"><path
       d="M 5.114,27.944 V 18.427 H 2.66 A 0.668,0.668 0 0 1 2.19,17.293 L 15.41,3.748 v 0 A 0.819,0.819 0 0 1 16.576,3.74 l 0.007,0.007 6.9,7.037 v -1.3 0 a 0.553,0.553 0 0 1 0.55,-0.556 h 2.292 a 0.553,0.553 0 0 1 0.549,0.556 v 4.78 l 2.938,3.036 v 0 a 0.671,0.671 0 0 1 -0.01,0.942 0.657,0.657 0 0 1 -0.462,0.19 h -2.464 v 9.517 a 0.553,0.553 0 0 1 -0.549,0.556 H 5.664 a 0.553,0.553 0 0 1 -0.55,-0.561 z"
       style="fill:#3dbcf3;fill-rule:evenodd"
       id="path1" /><path
       d="m 21.718,15.07 a 2.841,2.841 0 0 0 -2.826,2.857 2.876,2.876 0 0 0 0.224,1.116 l -2.061,2.083 v -6.335 a 2.826,2.826 0 1 0 -2.12,0 v 6.335 l -2.061,-2.083 a 2.876,2.876 0 0 0 0.224,-1.116 2.826,2.826 0 1 0 -2.826,2.858 2.791,2.791 0 0 0 1.1,-0.227 l 3.559,3.6 V 28.5 h 2.12 v -4.343 l 3.56,-3.6 a 2.782,2.782 0 0 0 1.1,0.227 2.858,2.858 0 0 0 0,-5.715 z m -11.446,4 a 1.143,1.143 0 1 1 1.13,-1.143 1.136,1.136 0 0 1 -1.13,1.143 z M 16,13.284 A 1.143,1.143 0 1 1 17.131,12.141 1.136,1.136 0 0 1 16,13.284 Z m 5.723,5.786 a 1.143,1.143 0 1 1 1.131,-1.143 1.136,1.136 0 0 1 -1.136,1.143 z"
       style="fill:#ffffff"
       id="path2-3" /></g></svg>
