<svg id="uuid-d837f90e-3a4b-44c2-81ee-d7b8ed5bc69b" data-name="C1" xmlns="http://www.w3.org/2000/svg" width="1920" height="773" viewBox="0 0 1920 773">
  <defs>
    <style>
      .uuid-c90f1ad1-f831-4e7c-956b-467930e03b8f {
        fill: none;
      }

      .uuid-04a06d85-28dc-4ddd-a18a-468519060675 {
        fill: #e2111a;
      }
    </style>
  </defs>
  <rect class="uuid-c90f1ad1-f831-4e7c-956b-467930e03b8f" width="1920" height="773"/>
  <path id="uuid-b994ec4a-e7f5-4ea4-ae8d-cf36d345be07" data-name="path4" class="uuid-04a06d85-28dc-4ddd-a18a-468519060675" d="M1566.94,405.34c-37.67-37.67-83.72-55.81-135.34-55.81s-94.88,18.14-132.55,55.81c-37.67,37.67-55.81,83.72-55.81,136.74s18.14,97.67,55.81,135.34c36.28,37.67,82.32,55.81,132.55,55.81s97.67-18.14,135.34-55.81c37.67-37.67,54.42-82.32,54.42-135.34,0-55.81-18.14-99.06-54.42-136.74M1502.76,611.83c-18.14,20.93-43.25,29.3-69.76,29.3s-51.62-9.77-69.76-29.3c-18.14-20.93-29.3-44.65-29.3-71.16,0-29.3,9.77-53.02,29.3-71.16,18.14-20.93,43.25-29.3,69.76-29.3,27.91-1.4,51.62,8.37,71.16,29.3,18.14,18.14,27.91,43.25,29.3,71.16-2.79,26.51-11.16,50.23-30.7,71.16"/>
  <path id="uuid-e9493530-f339-4329-8926-61d112b7940d" data-name="path6" class="uuid-04a06d85-28dc-4ddd-a18a-468519060675" d="M235.86,254.65c-64.18-1.4-119.99,22.32-166.04,69.76C25.17,370.45,2.85,424.87,2.85,491.84s22.32,121.39,68.37,167.43c46.04,46.04,99.06,68.37,166.04,68.37,53.02,0,100.46-15.35,140.92-47.44,40.46-32.09,68.37-75.34,82.32-124.18h-94.88c-12.56,23.72-29.3,44.65-51.62,60-23.72,15.35-48.83,22.32-78.13,22.32-40.46,0-75.34-15.35-101.85-43.25-29.3-29.3-43.25-62.79-43.25-101.85s13.95-75.34,43.25-104.64c27.91-27.91,61.39-43.25,101.85-43.25,27.91,0,53.02,8.37,78.13,23.72,22.32,15.35,39.07,36.28,51.62,60h94.88c-13.95-51.62-40.46-92.09-82.32-124.18-40.46-34.88-90.69-51.62-142.32-50.23"/>
  <path id="uuid-7e9b8927-fb77-46b9-9520-bd94b31501e4" data-name="path8" class="uuid-04a06d85-28dc-4ddd-a18a-468519060675" d="M813.5,346.74c-61.39-1.4-104.64,15.35-128.36,47.44-15.35,20.93-23.72,46.04-25.11,79.53h90.69c1.4-15.35,6.98-25.11,13.95-32.09,9.77-12.56,25.11-18.14,47.44-16.74,18.14-1.4,33.49,2.79,44.65,8.37,9.77,5.58,15.35,15.35,15.35,30.7,0,12.56-6.98,22.32-20.93,27.91l-69.76,12.56c-32.09,5.58-58.6,12.56-78.13,23.72-33.49,20.93-51.62,53.02-48.83,99.06-1.4,32.09,9.77,58.6,30.7,78.13,18.14,15.35,44.65,23.72,75.34,25.11,48.83-1.4,89.3-13.95,117.2-37.67v37.67h90.69v-269.29c0-44.65-15.35-75.34-46.04-90.69-36.28-16.74-69.76-23.72-108.83-23.72M851.17,553.23l16.74-9.77v37.67c0,30.7-8.37,53.02-25.11,64.18-16.74,12.56-36.28,18.14-55.81,18.14-13.95,0-23.72-2.79-32.09-9.77-8.37-8.37-13.95-18.14-13.95-36.28s6.98-30.7,22.32-40.46c8.37-5.58,23.72-9.77,43.25-12.56l44.65-11.16Z"/>
  <rect id="uuid-4ab2ed61-6e8e-45c5-80be-91272795efd2" data-name="rect10" class="uuid-04a06d85-28dc-4ddd-a18a-468519060675" x="506.54" y="254.65" width="90.69" height="474.39"/>
  <g id="uuid-f4e16727-0b10-43a8-9112-3d774dc31f06" data-name="g14">
    <path id="uuid-b62d365c-8aeb-4737-8f29-f9041bd78663" data-name="path12" class="uuid-04a06d85-28dc-4ddd-a18a-468519060675" d="M1176.27,360.69c-23.72,9.77-46.04,25.11-64.18,51.62v-46.04h-86.51v362.77h90.69v-174.41c0-29.3,2.79-51.62,12.56-62.79,6.98-13.95,16.74-25.11,30.7-33.49,15.35-9.77,32.09-15.35,48.83-15.35l27.91,1.4v-92.09l-23.72-1.4-36.28,9.77Z"/>
  </g>
  <rect id="uuid-7031427f-c8bd-4636-86f1-e51740954d18" data-name="rect16" class="uuid-04a06d85-28dc-4ddd-a18a-468519060675" x="1563.91" y="182.12" width="309.75" height="82.32" transform="translate(346.14 1281.54) rotate(-45.03)"/>
  <rect id="uuid-7dae666e-6ce0-42f4-b881-6d9e3d8f7220" data-name="rect18" class="uuid-04a06d85-28dc-4ddd-a18a-468519060675" x="1403.69" y="39.78" width="82.32" height="235.8"/>
  <rect id="uuid-3fecdaeb-74a2-4038-9331-fd92e76e7343" data-name="rect20" class="uuid-04a06d85-28dc-4ddd-a18a-468519060675" x="1677.16" y="452.77" width="239.99" height="82.32"/>
</svg>