<svg
   id="uuid-d837f90e-3a4b-44c2-81ee-d7b8ed5bc69b"
   data-name="C1"
   width="1920"
   height="773"
   viewBox="0 0 1920 773"
   version="1.1"
   xml:space="preserve"
   xmlns="http://www.w3.org/2000/svg"
   xmlns:svg="http://www.w3.org/2000/svg"><defs
     id="defs1"><style
       id="style1">
      .uuid-c90f1ad1-f831-4e7c-956b-467930e03b8f {
        fill: none;
      }

      .uuid-04a06d85-28dc-4ddd-a18a-468519060675 {
        fill: #e2111a;
      }
    </style></defs><rect
     class="uuid-c90f1ad1-f831-4e7c-956b-467930e03b8f"
     width="1920"
     height="773"
     id="rect1"
     x="0"
     y="0" /><style
     type="text/css"
     id="style1-0">
	.st0{fill:#F04E23;}
</style><path
     d="M 990.17525,224.31388 H 818.41256 v 27.36553 h 72.1977 v 161.76865 h 27.36556 V 251.6794 h 72.19753 z m -224.71653,0 v 151.68143 l -81.35236,-143.4628 c -2.7086,-4.57664 -8.21928,-8.21916 -13.72984,-8.21916 H 614.70939 V 413.4511 h 27.36556 V 251.68245 h 21.94974 l 86.76819,150.84037 c 3.64262,6.35146 10.92775,10.9281 19.1469,10.9281 h 23.81656 V 224.31317 Z m -448.60821,81.35058 c 15.50437,0 27.36552,-11.86168 27.36552,-27.45878 0,-14.57043 -11.86186,-26.52627 -27.36552,-26.52627 h -86.7681 v 53.98505 z m 41.09677,80.32482 h 15.50415 v 27.45878 H 355.2388 c -8.21927,0 -15.50436,-4.57664 -19.24013,-10.92809 l -40.16242,-70.42409 h -65.75438 v 81.35237 H 202.62129 V 224.31047 h 113.29437 c 28.29984,0 52.11648,21.0155 54.82606,49.31534 2.7086,29.23414 -17.37221,53.98505 -44.73882,58.46825 z M 173.38233,251.6794 V 224.31388 H 19.92555 V 413.45165 H 48.225381 V 332.09927 H 158.81189 V 305.66624 H 48.225381 v -53.98505 z m 387.33162,67.62119 c 0,-39.22811 -31.94197,-71.26515 -71.17191,-71.26515 -39.32132,0 -72.19769,32.03525 -72.19769,71.26515 0,39.32136 32.87637,71.26515 72.19769,71.26515 39.22809,0 71.17191,-31.942 71.17191,-71.26515 m 27.45881,0 c 0,53.8918 -43.89786,97.78963 -98.63072,97.78963 -54.8261,0 -99.65823,-43.89783 -99.65823,-97.78963 0,-54.8261 44.83213,-98.63068 99.65823,-98.63068 54.73286,0 98.63072,43.80458 98.63072,98.63068 M 1222.1708,251.6794 v -27.36553 h -150.7472 v 189.13778 h 150.7472 v -27.45878 h -122.3541 v -53.8918 h 115.0697 v -26.43303 h -115.0697 v -53.98505 z m 140.7548,53.98505 c 14.5705,0 26.4331,-11.86168 26.4331,-27.45878 0,-14.57043 -11.8617,-26.52627 -26.4331,-26.52627 h -86.863 v 53.98505 z m 40.1625,80.32483 h 10.9278 v 27.45878 h -13.6364 c -8.2191,0 -14.6638,-4.57664 -19.2401,-10.92809 l -40.1624,-70.42409 h -64.9134 v 81.35237 h -28.2998 V 224.31047 h 114.2287 c 27.3655,0 52.0231,21.0155 54.8261,49.31534 2.7086,29.23414 -18.3059,53.98505 -44.8321,58.46825 z m -388.2641,27.45878 h 27.3655 V 224.31029 H 1014.824 Z M 1865.3253,225.2428 v -10.08705 l 4.5766,6.44452 h 0.9343 l 4.5768,-6.44452 v 10.08705 h 1.7736 v -13.72993 h -1.7736 l -4.5768,7.2854 -5.5106,-7.2854 h -1.7735 v 13.72993 z m -10.928,-11.86168 v 11.86168 h 2.7086 v -11.86168 h 4.5769 v -1.86753 h -10.928 v 1.86753 z m -169.989,-42.96353 h -210.9979 c -0.9343,0 -2.7086,0.93431 -3.6425,1.86735 -0.9343,0.84105 -0.9343,2.70857 -0.9343,3.64252 v 42.87027 c 0,1.86734 0,2.802 0.9343,3.73596 0.9342,1.77355 2.7086,1.77355 3.6425,1.77355 h 210.9979 c 89.571,0 161.7686,73.13197 161.7686,161.6754 0,89.57096 -72.1976,162.60966 -161.7686,162.60966 -77.6153,0 -143.3696,-55.66709 -158.8744,-128.79906 0,-3.64253 -3.7359,-6.3511 -7.3786,-6.3511 h -42.031 c -1.7735,0 -2.7086,0.9343 -3.6425,1.86752 -0.8411,0.84105 -1.7736,2.70859 -1.7736,4.48322 16.4383,103.30042 105.9151,182.78952 213.7058,182.78952 118.8051,0 215.6605,-96.85529 215.6605,-216.59294 0,-118.71187 -96.8554,-215.57079 -215.6605,-215.57079 m -210.998,135.24418 h 178.1146 c 1.8673,0 2.8019,-0.9343 4.5764,-1.86734 0.9342,-0.9343 0.9342,-2.70859 0.9342,-3.64289 V 257.1891 c 0,-1.77355 0,-2.70858 -0.9342,-4.57682 -1.7736,-0.9343 -2.7086,-0.9343 -4.5764,-0.9343 H 1473.416 c -0.9342,0 -2.7083,0 -3.6425,0.9343 -0.9342,1.86752 -0.9342,2.80218 -0.9342,4.57682 v 42.96352 c 0,0.9343 0,2.70894 0.9342,3.64289 0.9343,0.9343 2.7089,1.86734 3.6425,1.86734 m 0,80.32483 c -0.9342,0 -2.7083,0 -3.6425,-0.84106 -0.9342,-0.9343 -0.9342,-2.80201 -0.9342,-4.57646 v -42.96353 c 0,-0.9343 0,-2.70857 0.9342,-3.64251 0.9343,-0.9343 2.7089,-1.86735 3.6425,-1.86735 h 97.7897 c 0.9343,0 2.7086,0.9343 3.6429,1.86735 0.9343,0.9343 1.7736,2.70857 1.7736,3.64251 v 42.96353 c 0,1.77356 -0.8411,3.64252 -1.7736,4.57646 -0.9343,0.84106 -2.7086,0.84106 -3.6429,0.84106 z"
     fill="#ff0035"
     id="path1"
     style="stroke-width:1.79329" /></svg>
