<svg id="uuid-ad8b615b-4476-4644-8248-abb0114225c4" data-name="uuid-3ac6753f-8127-48fd-a9a2-16f14a036189" xmlns="http://www.w3.org/2000/svg" width="1920" height="773" viewBox="0 0 1920 773">
  <defs>
    <style>
      .uuid-5ed14426-a907-417e-b81d-46b035f9e863 {
        fill: none;
      }

      .uuid-ae13eb4b-0195-4294-a91e-966197c77f49 {
        fill: #000000;
      }
    </style>
  </defs>
  <rect class="uuid-5ed14426-a907-417e-b81d-46b035f9e863" width="1920" height="773"/>
  <path class="uuid-5ed14426-a907-417e-b81d-46b035f9e863" d="M521.29,701.21H8.92c0-68.84,0-137.68.69-208.3,1.93-.82,3.43-.06,4.36,1.15,14.5,18.76,31.23,22.16,51.02,9.58,42.16-26.81,84.13-53.92,126.2-80.88,24.11-15.45,25.21-55.12-.65-70.74-43.39-26.23-85.89-53.92-128.85-80.87-17.97-11.27-35.02-7.79-47.7,9.15-1.16,1.55-3.36,2.31-5.08,3.44v-28.46c196.93,0,393.86,0,592.67.93,1.39,1.97.48,3.01.48,4.04-.09,70.76-.48,141.53.1,212.29.18,21.98,10.03,35.58,28.2,39.71,19.13,4.35,38.59,2.16,57.37-3.53,2.73-.83,6.44-5.01,6.32-7.47-.43-8.74-3.07-17.38-3.48-26.12-.48-10.27-5.81-11.59-14.53-11.3-17.16.58-17.17.14-17.17-17.42,0-63.71,0-127.43,0-191.14h1242.97c0,43.7,0,87.16-.8,132.43-1.85-.12-3.36-1.93-3.87-4-7.35-29.92-23.35-51.45-54.67-59.89-19.56-5.27-39.45-7.05-58.21-.92-14.38,4.7-30.67,11.96-39.67,23.23-30.48,38.15-30.04,82.26-12.97,125.38,13.88,35.07,60.9,52.48,101.36,41.16,9.79-2.74,20.09-5.16,28.72-10.18,20.03-11.65,31.11-30.12,35.54-52.78.35-1.78,3-3.12,4.58-4.66v256.18c-453.91,0-907.81,0-1362.83-.99.47-8.87,2.9-16.69,3.41-24.64.59-9.24,3.65-11.18,12.55-8.61,16.51,4.78,43.82-4.45,53.19-19.74,9.86-16.1,13.62-32.43,12.85-50.69-.61-14.34-7.28-23.7-21.27-28.27-17.08-5.58-33.68-1.04-50.17,2.89-2.71.65-6.04,4.5-6.61,7.36-2.92,14.72-4.86,29.63-7.47,44.42-4.61,26.11-9.45,52.18-14.19,78.27M1196.09,328.66c-19.81-9.08-40.12-10.31-61.78-7.36-30.1,4.09-57.91,27.63-65.25,56.93-6.17,24.62-6.44,49.23-1.99,73.82,3.42,18.89,10.8,37.43,28.03,47.12,39.88,22.43,80.97,19.86,121.23.03,3.46-1.7,6.95-9.14,6.02-12.79-2.2-8.69-6.82-16.83-10.9-24.97-2.9-5.78-6.41-8.31-13.97-4.91-14.94,6.72-31.04,8.92-47.55,7.52-12.33-1.04-26.33-9.27-25.43-28.52,26.77,0,53.59.07,80.4-.03,16.29-.06,23.9-5.11,28.11-19.76,7.33-25.53-.63-71.89-36.93-87.09M842.38,333.32c-22.21-12.47-45.47-16.03-70.93-11.98-33.65,5.35-54.2,24.1-65.31,55.38-8.28,23.32-8.19,47.08-4.32,70.89,3.41,21.04,11.93,39.63,30.67,52.02,24.93,16.48,52.76,16.35,80.5,12.69,13.24-1.75,25.99-7.75,38.76-12.39,7.97-2.9,7.61-9.8,5.58-16.34-1.56-5.02-4.08-9.76-6.3-14.57-7.03-15.19-7.03-15.11-23.2-9.87-5.4,1.75-10.9,3.23-16.42,4.52-27.69,6.47-45.39-2.71-52.69-28.13,26.23,0,52.17,0,78.11,0,24.79,0,37.23-12.35,35.39-36.76-1.86-24.6-6.76-48.3-29.82-65.45M534.21,435.54c5.14,0,10.28.15,15.41-.03,19.54-.68,31.02-13.13,28.75-29.77-.95-6.98.23-14.23-.23-21.31-1.47-22.53-17.67-50.57-43.3-58.31-18.76-5.67-37.03-7.26-56.71-4.88-32.58,3.94-57.83,30.72-65.96,59.53-6.57,23.27-6.87,47.13-1.91,70.3,4.94,23.09,14.98,44.34,39.39,53.98,34.65,13.67,69.36,12,103.55-1.3,14.68-5.71,16.06-11.9,9.04-26.28-2-4.09-3.95-8.27-5.3-12.59-2.59-8.29-6.65-10.69-15.87-8.32-14.38,3.69-29.27,6.19-44.07,7.16-16.43,1.08-26.97-9.5-30.03-28.17h67.25M1256.63,458.07c0,13.43,0,26.87,0,40.3,0,8.43,4.37,12.84,12.61,13.01,11.45.23,22.92.2,34.37,0,6.65-.12,10.22-2.72,10.12-10.56-.42-31.6-.17-63.22-.17-94.83v-36.88c7.52,0,13.84.54,20.04-.09,25.89-2.66,37.18,10.61,36.95,37.5-.26,30.42.29,60.85-.26,91.27-.18,10,4.74,13.3,13.12,13.56,11.45.35,22.96.64,34.35-.25,3.38-.26,9.25-4.58,9.24-7.02-.21-41.27.37-82.65-2.59-123.77-1.54-21.42-12.88-41.07-34.5-49.31-15.83-6.04-33.07-9.76-49.97-11.19-17.4-1.47-35.2.4-52.7,2.12-11.03,1.09-22.62,3.83-26.86,16.36-2.17,6.42-3.52,13.44-3.59,20.21-.36,32.4-.16,64.8-.16,99.57M352.87,484.09v-167.16c19.76,0,38.26-.13,56.75.06,8.35.08,12.27-3.48,12.09-11.96-.22-10.66.55-21.38-.44-31.94-.28-3-5.2-7.96-8.02-7.99-59.22-.47-118.45-.47-177.67,0-2.83.02-7.69,4.93-8.04,7.97-1.06,9.36-.41,18.91-.38,28.38.03,14.37,1.11,15.45,15.57,15.47,20.56.02,41.12,0,60.86,0-3.65,6.3-9.53,11.77-9.6,17.31-.69,54.87-.22,109.76-.64,164.64-.06,7.73,3.82,11.84,9.51,12.09,16.51.7,33.08-.08,50.02-.28v-26.6M1470.12,439.09c0,10.67-.06,21.35.01,32.02.13,19.05,11.11,35.07,29.04,39.42,24.51,5.95,49.12,4.38,73.74-1.19,9.38-2.12,9.45-7.71,8.52-14.42-1.16-8.33-3.79-16.51-4.34-24.86-.48-7.21-4.98-8.29-9.93-8.19-8.07.16-16.22.83-24.16,2.24-12.03,2.15-17.59-5.17-17.94-14.54-1-26.67-.35-53.4-.35-80.46,11.29,0,21.14-.15,30.99.05,7.58.15,13.9-3.04,13.66-10.5-.37-11.52,5.23-24.62-6.01-34.09-1.67-1.4-5.35-.5-8.11-.51-10.09-.04-20.19-.02-30.57-.02,0-15.37-.24-29.19.09-42.99.2-8.32-3.67-10.65-10.95-8.59-9.86,2.8-20.01,5.09-29.28,9.27-4.84,2.18-10.31,7.35-11.57,12.2-2.5,9.6-2.27,19.9-3.11,29.2-6.39,1.91-11.82,4.68-17.37,4.94-11.95.55-14.16,7.37-13.24,17.26.25,2.74.03,5.53.04,8.3.04,13.13,2.23,15.32,15.84,15.46,8.55.09,17.1.02,29,.02-12.83,5.62-14.75,13.63-14.2,23.73.78,14.58.2,29.24.2,46.24M980.58,319.3c-35.32,1.08-63.33,16.72-76.48,50.55-10.78,27.74-11.04,56.53-3.94,85.45,5.66,23.06,16.86,42.55,39.75,51.1,37.57,14.03,74.53,9.69,112.83-8.73-4.87-12.94-9.22-25.41-14.5-37.47-.77-1.75-6.28-2.67-9.15-2.03-9.24,2.07-18.12,5.99-27.42,7.46-14.93,2.36-29.79,1.72-40.52-11.31-13.65-16.58-14.01-57.56,1.19-74.49,8.73-9.72,19.31-14.37,31.95-12.87,8.65,1.02,17.14,3.69,25.57,6.09,9.31,2.64,15.66.94,18.09-9.56,1.36-5.89,3.29-11.77,5.83-17.25,3.64-7.82,2.59-13.2-5.85-16.65-17.68-7.23-35.92-11.18-57.35-10.29M1651.75,328.78c-15.44-12.09-33.19-16.53-53.54-16.75v12.4c0,50.21-.09,100.42.07,150.62.03,11.27-3.38,27.31,2.5,32.58,6.87,6.17,22.15,3.44,33.8,3.7,18.25.42,20.55-2.15,20.56-20.47.02-32.81.24-65.63-.18-98.44-.09-6.94,2.44-10.2,8.15-13.54,14.67-8.57,30.56-8.12,46.4-7.2,9.7.56,12.24-3.9,12.09-12.27-.17-9.88-.54-19.8.12-29.64.54-8.07-3.69-10.23-10.27-10.44-19.86-.63-39.43.64-59.7,9.44M475.69,566c-8.05,2.26-16.06,4.68-24.17,6.7-2.65.66-6.38,1.51-8.19.24-12.13-8.49-25.84-7.27-39.27-6.81-16.53.56-21.12,4.14-24.33,19.76-3.26,15.86-5.28,31.97-7.88,47.97-1.69,10.4-3.45,20.8-5.21,31.38,14.4.53,14.73.59,17.17-12.07,4.16-21.54,7.63-43.21,12.05-64.69.64-3.11,4.59-7.22,7.6-7.8,6.07-1.16,12.64-.89,18.83.01,11.54,1.68,16.2,9.86,15.81,20.59-.29,8.06-2.08,16.07-3.41,24.07-2.17,13.13-4.49,26.23-6.71,39.08,13.46,3.62,18.19-1.03,17.49-12.38-.11-1.84.89-3.73,1.2-5.62,3.18-19.58,6.31-39.17,9.81-60.91,4.87-1.27,12.47-4.11,20.3-5.1,15.56-1.96,24.17,5.35,22.92,20.78-1.73,21.33-5.22,42.51-7.96,63.82h16c2.98-23.78,6.75-47.06,8.53-70.5,1.29-17.01-9.28-27.14-26.59-28.47-3.93-.3-7.89-.05-13.98-.05M304.71,589.72h-11.95c2.03-9,4.34-16.67,5.38-24.51,1.37-10.31,7.19-13.71,16.83-13.52,13.41.27,26.84.08,40.26.07,15.14-.01,16.01-1.13,12.48-16.6-17.2,0-34.56-.54-51.86.15-18.4.73-30.47,10.84-34.15,28.56-5.16,24.84-10.23,49.74-13.9,74.83-1.94,13.26,3.54,25.74,21.71,26.68,20.02,1.03,40.13.24,59.98.24,1.14-4.97,2.07-9.02,3.27-14.23-12.91,0-25.45.28-37.96-.11-7.7-.24-15.82-.28-22.87-2.83-3.56-1.29-7.2-7.98-7.21-12.24-.01-7.91,2.59-15.82,4.14-23.72,1.05-5.35,2.9-8.98,9.79-8.71,14.58.57,29.22-.32,43.8.34,10.6.48,13.86-3.86,12.38-13.44-1.38-.42-2.12-.84-2.86-.84-15-.07-30-.09-47.27-.12M905.44,579.72c1.71,1.26,3.51,3.71,5.12,3.6,10.42-.71,20.81-2.83,31.21-2.79,8.36.03,13.43,5.87,13.47,14.44.05,9.66-6.99,9.33-13.93,9.03-5.9-.25-11.83-.17-17.74-.03-13.04.31-23.93,4.9-32.31,15.41-13.31,16.7-9.55,41.5,9.04,45.26,15.37,3.1,32.01.54,48.03-.4,10.05-.59,13.29-7.64,14.35-17.18,1.83-16.45,4.24-32.9,7.66-49.09,4.22-20-6.28-30.35-20.39-31.37-13.59-.98-27.55,2.36-41.25,4.46-1.71.26-2.8,4.54-3.28,8.64M761.32,651.26c-1.57.07-3.31-.27-4.7.27-20.93,8.17-42.03-5.75-34.9-30.98,18.09,0,36.53.35,54.94-.26,4.33-.14,12.02-3.13,12.25-5.41,1.13-11.17,3.09-23.53-.48-33.62-7.41-20.93-42.17-18.36-57.94-7.32-15.39,10.78-21.53,26.48-24.76,44.7-2.8,15.8-2.95,29.99,10.02,40.78,12.51,10.4,39.45,11.87,52.57,3.43,2.51-1.62,3.01-6.37,4.44-9.67-3.22-.95-6.44-1.89-11.44-1.93M1041.79,658.62c16.27-15.72,15.58-37.44-7.77-46.19-6.45-2.42-13.03-4.95-18.75-8.66-3.38-2.19-7.47-7.08-7.1-10.27.46-3.9,4.82-9.84,8.25-10.42,8.81-1.5,18.32-1.93,27.04-.2,12.31,2.45,14.08,2.07,15.57-11.13-15.57-5.83-31.41-8.63-47.6-2.94-11.19,3.93-20.99,17.61-20.39,28.49.68,12.23,8.21,18.12,19.55,21.29,6.19,1.73,12.15,5.31,17.33,9.24,3.5,2.66,7.97,7.73,7.49,11.06-.65,4.48-5.28,11.4-8.88,11.85-10.78,1.34-23.11,2.99-32.56-.95-12.25-5.11-15.22-1.25-17.64,10.05,21.61,9.76,42.78,11.94,65.46-1.2M847.68,580.23c4.93.73,10.16.64,14.72,2.36,9.58,3.62,14.07-.13,16.24-8.97-12.63-8.01-38.68-10.89-50.52-4.46-10.62,5.77-17.55,14.46-17.62,27.85-.07,12.89,8.68,17.15,18.04,21.42,5.59,2.55,11.81,4.17,16.67,7.7,4.28,3.11,10.55,9.24,9.7,12.33-1.41,5.14-7.29,11.76-12.21,12.65-9.87,1.79-21.65,3.01-30.31-.81-12.01-5.3-15.02-.31-18.36,9.61,20.94,8.31,41.72,12.98,63.03,1.17,18.55-10.28,20.11-33.56,2.52-44.72-8.02-5.09-17.4-7.98-25.74-12.62-9.76-5.43-9.4-15.94.63-21.02,3.29-1.66,7.39-1.7,13.21-2.48M690.29,568.34c-10.81-.65-21.73-2.46-32.36-1.37-4.05.41-9.17,6.9-10.72,11.63-3.18,9.75-4.43,20.16-6.21,30.34-3.22,18.45-6.25,36.93-9.49,56.2h15.57c5.01-28.51,9.96-56.71,15.44-87.9,13.62,4.43,25.68,8.36,39.79,12.95,1.18-1.4,4.45-5.28,8.82-10.45-6.04-3.61-12.45-7.44-20.83-11.4Z"/>
  <path class="uuid-ae13eb4b-0195-4294-a91e-966197c77f49" d="M8.92,284.83c1.72-2.24,3.92-3.01,5.08-4.55,12.69-16.94,29.73-20.42,47.7-9.15,42.96,26.94,85.46,54.64,128.85,80.87,25.85,15.63,24.76,55.29.65,70.74-42.07,26.96-84.04,54.07-126.2,80.88-19.79,12.59-36.51,9.18-51.02-9.58-.93-1.2-2.44-1.97-4.36-2.26-.69-68.17-.69-137.01-.69-206.96Z"/>
  <path class="uuid-ae13eb4b-0195-4294-a91e-966197c77f49" d="M1901.84,443.91c-1.58,2.66-4.23,3.99-4.58,5.77-4.43,22.66-15.51,41.13-35.54,52.78-8.63,5.02-18.94,7.44-28.72,10.18-40.46,11.31-87.47-6.09-101.36-41.16-17.07-43.12-17.51-87.24,12.97-125.38,9-11.27,25.29-18.53,39.67-23.23,18.76-6.13,38.66-4.36,58.21.92,31.32,8.45,47.32,29.97,54.67,59.89.51,2.06,2.02,3.88,3.87,5.11.8,17.53.8,35.77.8,55.11M1842.49,395.05c-.74-1.34-1.71-2.59-2.17-4.02-5.01-15.38-14.2-23.88-26.4-24.28-15.43-.51-26.82,5.91-31.71,21.52-6.82,21.75-7.73,43.81,3.16,65.19,5.39,10.59,13.75,13.47,24.79,13.04,11.02-.42,20.31-2.76,25.87-13.6,9.18-17.87,10.91-36.44,6.45-57.85Z"/>
  <path class="uuid-ae13eb4b-0195-4294-a91e-966197c77f49" d="M657.76,255.26c1.11,63.71,1.11,127.43,1.11,191.14,0,17.56.02,18,17.17,17.42,8.72-.29,14.06,1.02,14.53,11.3.41,8.74,3.04,17.38,3.48,26.12.12,2.46-3.59,6.64-6.32,7.47-18.78,5.7-38.24,7.89-57.37,3.53-18.17-4.14-28.02-17.73-28.2-39.71-.58-70.76-.19-141.52-.1-212.29,0-1.04.91-2.07.63-4.04,17.48-.93,35.71-.93,55.06-.93Z"/>
  <path class="uuid-ae13eb4b-0195-4294-a91e-966197c77f49" d="M1197.02,328.75c35.37,15.1,43.34,61.46,36,86.99-4.21,14.66-11.82,19.7-28.11,19.76-26.81.1-53.63.03-80.4.03-.9,19.25,13.1,27.48,25.43,28.52,16.51,1.39,32.6-.8,47.55-7.52,7.56-3.4,11.06-.88,13.97,4.91,4.08,8.14,8.7,16.28,10.9,24.97.93,3.66-2.56,11.09-6.02,12.79-40.26,19.83-81.35,22.4-121.23-.03-17.23-9.69-24.61-28.23-28.03-47.12-4.45-24.59-4.18-49.2,1.99-73.82,7.34-29.3,35.15-52.84,65.25-56.93,21.66-2.94,41.97-1.72,62.7,7.46M1179.97,383.7c-8.38-16.09-15.93-20.24-33.63-16.79-9.65,1.88-21.33,8.66-23.75,30.2h60.1c-.72-4.18-1.36-7.89-2.71-13.41Z"/>
  <path class="uuid-ae13eb4b-0195-4294-a91e-966197c77f49" d="M843.05,333.89c22.39,16.58,27.29,40.28,29.15,64.88,1.85,24.41-10.6,36.76-35.39,36.76-25.94,0-51.88,0-78.11,0,7.3,25.41,24.99,34.6,52.69,28.13,5.53-1.29,11.03-2.77,16.42-4.52,16.17-5.23,16.17-5.31,23.2,9.87,2.22,4.8,4.73,9.54,6.3,14.57,2.03,6.53,2.39,13.44-5.58,16.34-12.77,4.64-25.51,10.64-38.76,12.39-27.74,3.66-55.57,3.8-80.5-12.69-18.74-12.39-27.26-30.98-30.67-52.02-3.86-23.8-3.96-47.56,4.32-70.89,11.11-31.28,31.66-50.03,65.31-55.38,25.47-4.05,48.72-.49,71.6,12.55M806.72,371.21c-10.29-7.05-21.78-6.83-31.87-1.61-10.12,5.24-16.23,14.83-16.4,27.61h59.04c1.2-10.18-1.6-18.36-10.77-26Z"/>
  <path class="uuid-ae13eb4b-0195-4294-a91e-966197c77f49" d="M533.05,435.54h-66.08c3.06,18.67,13.6,29.25,30.03,28.17,14.81-.97,29.7-3.47,44.07-7.16,9.22-2.37,13.28.03,15.87,8.32,1.35,4.33,3.3,8.5,5.3,12.59,7.02,14.38,5.63,20.57-9.04,26.28-34.18,13.3-68.9,14.98-103.55,1.3-24.4-9.63-34.45-30.89-39.39-53.98-4.96-23.17-4.65-47.03,1.91-70.3,8.13-28.81,33.38-55.6,65.96-59.53,19.68-2.38,37.95-.78,56.71,4.88,25.64,7.74,41.84,35.79,43.3,58.31.46,7.08-.72,14.33.23,21.31,2.27,16.64-9.22,29.09-28.75,29.77-5.13.18-10.27.03-16.58.03M465.51,395.35c20.04,1.07,40.08,2.13,60.33,3.21-.82-18.16-9.08-30.23-20.38-31.8-20.94-2.91-33.25,5.65-39.95,28.59Z"/>
  <path class="uuid-ae13eb4b-0195-4294-a91e-966197c77f49" d="M1256.63,456.88c0-33.59-.2-65.99.16-98.38.08-6.77,1.42-13.78,3.59-20.21,4.24-12.54,15.83-15.28,26.86-16.36,17.5-1.72,35.3-3.59,52.7-2.12,16.9,1.43,34.14,5.15,49.97,11.19,21.62,8.25,32.96,27.9,34.5,49.31,2.96,41.11,2.38,82.5,2.59,123.77.01,2.44-5.86,6.75-9.24,7.02-11.39.89-22.9.6-34.35.25-8.38-.26-13.3-3.56-13.12-13.56.54-30.41,0-60.85.26-91.27.23-26.89-11.07-40.16-36.95-37.5-6.2.64-12.52.09-20.04.09v36.88c0,31.61-.25,63.22.17,94.83.1,7.84-3.47,10.44-10.12,10.56-11.46.2-22.92.23-34.37,0-8.24-.17-12.62-4.58-12.61-13.01,0-13.43,0-26.87,0-41.49Z"/>
  <path class="uuid-ae13eb4b-0195-4294-a91e-966197c77f49" d="M352.87,485.26v25.43c-16.94.2-33.51.99-50.02.28-5.69-.24-9.57-4.36-9.51-12.09.43-54.88-.05-109.77.64-164.64.07-5.54,5.95-11.01,9.6-17.31-19.74,0-40.3.02-60.86,0-14.46-.02-15.54-1.1-15.57-15.47-.02-9.48-.68-19.03.38-28.38.35-3.04,5.21-7.95,8.04-7.97,59.22-.47,118.45-.47,177.67,0,2.82.02,7.74,4.98,8.02,7.99.99,10.57.22,21.29.44,31.94.17,8.47-3.74,12.04-12.09,11.96-18.49-.18-36.99-.06-56.75-.06v168.32Z"/>
  <path class="uuid-ae13eb4b-0195-4294-a91e-966197c77f49" d="M1470.12,437.9c0-15.81.58-30.47-.2-45.05-.54-10.11,1.38-18.11,14.2-23.73-11.91,0-20.46.08-29-.02-13.6-.15-15.8-2.34-15.84-15.46,0-2.77.21-5.55-.04-8.3-.92-9.89,1.29-16.71,13.24-17.26,5.55-.26,10.98-3.03,17.37-4.94.84-9.3.61-19.6,3.11-29.2,1.26-4.84,6.72-10.01,11.57-12.2,9.27-4.18,19.42-6.48,29.28-9.27,7.28-2.06,11.15.27,10.95,8.59-.33,13.8-.09,27.62-.09,42.99,10.38,0,20.47-.02,30.57.02,2.75.01,6.44-.89,8.11.51,11.24,9.46,5.64,22.56,6.01,34.09.24,7.46-6.08,10.65-13.66,10.5-9.84-.2-19.7-.05-30.99-.05,0,27.07-.65,53.8.35,80.46.35,9.37,5.91,16.69,17.94,14.54,7.94-1.42,16.09-2.08,24.16-2.24,4.95-.1,9.45.98,9.93,8.19.55,8.34,3.19,16.53,4.34,24.86.93,6.71.85,12.29-8.52,14.42-24.62,5.57-49.23,7.14-73.74,1.19-17.94-4.36-28.92-20.38-29.04-39.42-.07-10.67-.01-21.35-.01-33.21Z"/>
  <path class="uuid-ae13eb4b-0195-4294-a91e-966197c77f49" d="M981.71,319.3c20.3-.9,38.54,3.05,56.22,10.29,8.45,3.46,9.49,8.83,5.85,16.65-2.55,5.48-4.47,11.36-5.83,17.25-2.43,10.5-8.78,12.2-18.09,9.56-8.43-2.39-16.92-5.07-25.57-6.09-12.64-1.49-23.22,3.15-31.95,12.87-15.2,16.92-14.84,57.91-1.19,74.49,10.73,13.03,25.58,13.68,40.52,11.31,9.3-1.47,18.18-5.4,27.42-7.46,2.88-.64,8.39.28,9.15,2.03,5.28,12.06,9.62,24.52,14.5,37.47-38.3,18.42-75.26,22.76-112.83,8.73-22.88-8.54-34.08-28.04-39.75-51.1-7.1-28.92-6.84-57.71,3.94-85.45,13.14-33.83,41.16-49.46,77.6-50.55Z"/>
  <path class="uuid-ae13eb4b-0195-4294-a91e-966197c77f49" d="M1652.71,328.73c19.31-8.76,38.89-10.03,58.74-9.4,6.58.21,10.81,2.37,10.27,10.44-.66,9.84-.29,19.76-.12,29.64.14,8.36-2.4,12.83-12.09,12.27-15.84-.91-31.73-1.37-46.4,7.2-5.71,3.34-8.24,6.6-8.15,13.54.43,32.81.21,65.62.18,98.44-.01,18.32-2.31,20.89-20.56,20.47-11.65-.26-26.93,2.47-33.8-3.7-5.87-5.27-2.46-21.3-2.5-32.58-.15-50.21-.07-100.42-.07-150.62v-12.4c20.35.22,38.1,4.66,54.5,16.71Z"/>
  <path class="uuid-5ed14426-a907-417e-b81d-46b035f9e863" d="M1842.51,396.07c4.43,20.39,2.7,38.96-6.48,56.83-5.57,10.84-14.86,13.18-25.87,13.6-11.04.42-19.4-2.45-24.79-13.04-10.89-21.38-9.97-43.44-3.16-65.19,4.89-15.61,16.27-22.03,31.71-21.52,12.2.41,21.38,8.9,26.4,24.28.46,1.42,1.44,2.68,2.2,5.04Z"/>
  <path class="uuid-5ed14426-a907-417e-b81d-46b035f9e863" d="M595.91,583.07c12.16,13.32,11.03,38.14-1.53,57.75-6.08,9.49-26.11,18.52-47.38,8.78,2.72-16.35,5.1-33.09,8.44-49.64,1.56-7.74-.82-19.27,13.2-18.55,8.78.45,17.57.86,27.27,1.66Z"/>
  <path class="uuid-5ed14426-a907-417e-b81d-46b035f9e863" d="M1180.32,384.61c1,4.62,1.64,8.33,2.36,12.51-20.08,0-40.09,0-60.1.01,2.42-21.55,14.1-28.33,23.75-30.21,17.7-3.45,25.26.69,33.99,17.69Z"/>
  <path class="uuid-5ed14426-a907-417e-b81d-46b035f9e863" d="M807.44,371.82c8.46,7.02,11.26,15.2,10.06,25.39h-59.04c.17-12.78,6.28-22.36,16.4-27.61,10.09-5.22,21.57-5.44,32.58,2.22Z"/>
  <path class="uuid-5ed14426-a907-417e-b81d-46b035f9e863" d="M466.07,394.56c6.14-22.15,18.45-30.72,39.39-27.8,11.3,1.57,19.56,13.64,20.38,31.8-20.25-1.08-40.29-2.14-59.77-4Z"/>
  <path class="uuid-5ed14426-a907-417e-b81d-46b035f9e863" d="M936.24,618.18h14.52c-1.95,11.29-3.72,21.48-5.72,33.04-7.8.81-16.18,1.37-24.46,2.61-11.89,1.78-20.86-7.19-21.24-13.68-.58-9.78,10.99-21.32,21.62-21.92,4.71-.27,9.45-.05,15.28-.05Z"/>
  <path class="uuid-5ed14426-a907-417e-b81d-46b035f9e863" d="M746.59,581.48c24.93-2.52,31.42,3.17,30.54,26.39h-52.6c4.01-11.81,8.8-21.8,22.06-26.39Z"/>
</svg>