<?xml version="1.0" encoding="UTF-8" standalone="no"?>
<svg
   id="uuid-d837f90e-3a4b-44c2-81ee-d7b8ed5bc69b"
   data-name="Capa 1"
   width="1920"
   height="773"
   viewBox="0 0 1920 773"
   version="1.1"
   xml:space="preserve"
   xmlns="http://www.w3.org/2000/svg"
   xmlns:svg="http://www.w3.org/2000/svg"><defs
     id="defs1"><style
       id="style1">
      .uuid-c90f1ad1-f831-4e7c-956b-467930e03b8f {
        fill: none;
      }

      .uuid-04a06d85-28dc-4ddd-a18a-468519060675 {
        fill: #e2111a;
      }
    </style></defs><rect
     class="uuid-c90f1ad1-f831-4e7c-956b-467930e03b8f"
     width="1920"
     height="773"
     id="rect1"
     x="0"
     y="0" /><style
     type="text/css"
     id="style1-0">
	.st0{fill:#F04E23;}
</style><style
     type="text/css"
     id="style1-5">
	.st0{fill:#EA4435;}
	.st1{fill:#FBBC04;}
	.st2{fill:#4285F4;}
	.st3{fill:#34A853;}
	.st4{fill:#5F6469;}
	.st5{display:none;}
	.st6{display:inline;}
	.st7{display:inline;fill:#FFFFFF;}
	.st8{fill:#FFFFFF;}
</style><g
     id="g7"
     transform="matrix(1.2635492,0,0,1.2635492,-254.82043,-295.87343)"><g
       id="FInal__x2F__RGB">
	<g
   id="g5">
		<g
   id="g1">
			<path
   class="st0"
   d="m 207.29,548.65 v 163.1 c 90.15,0 163.12,-72.96 163.12,-163.1 z"
   id="path1-2" />
		</g>
		<g
   id="g2">
			<path
   class="st1"
   d="m 387.61,548.65 v 163.1 c 90.13,0 163.09,-72.96 163.09,-163.1 z"
   id="path2" />
		</g>
		<g
   id="g3">
			<path
   class="st2"
   d="m 207.29,368.34 v 163.1 c 90.15,0 163.12,-72.96 163.12,-163.1 z"
   id="path3" />
		</g>
		<g
   id="g4">
			<path
   class="st3"
   d="m 387.61,368.34 v 163.1 c 90.13,0 163.09,-72.96 163.09,-163.1 z"
   id="path4" />
		</g>
	</g>
	<g
   id="g9">
		<g
   id="g6">
			<path
   class="st4"
   d="m 1645.69,519.21 h 2.15 c 4.78,-10.04 12.01,-17.8 21.68,-23.3 9.68,-5.49 20.37,-8.24 32.08,-8.24 5.9,0 12.06,0.96 13.98,1.43 v 40.14 c -4.46,-2.2 -11.92,-2.51 -17.56,-2.51 -15.05,0 -27.18,4.6 -36.38,13.8 -9.2,9.2 -13.8,21.33 -13.8,36.38 v 91.4 h -39.78 V 492.69 h 37.64 v 26.52 z"
   id="path5" />
		</g>
		<path
   class="st4"
   d="m 1219.5,411.48 h 39.86 v 79.37 l -2.16,24.42 h 2.16 c 4.79,-7.66 12.09,-14.3 21.91,-19.93 9.82,-5.62 21.55,-8.44 35.2,-8.44 11.25,0 21.96,2.34 32.14,7 10.17,4.67 19.09,11.19 26.76,19.57 7.66,8.38 13.76,18.26 18.32,29.63 4.54,11.38 6.82,23.88 6.82,37.53 0,13.65 -2.28,26.16 -6.82,37.53 -4.55,11.37 -10.66,21.25 -18.32,29.63 -7.67,8.39 -16.58,14.9 -26.76,19.57 -10.18,4.67 -20.89,7 -32.14,7 -13.65,0 -25.38,-2.82 -35.2,-8.44 -9.82,-5.62 -17.12,-12.27 -21.91,-19.93 h -2.16 v 22.63 h -37.71 V 411.48 Z m 89.43,225.89 c 6.7,0 13.23,-1.32 19.57,-3.95 6.34,-2.63 11.85,-6.4 16.52,-11.31 4.67,-4.91 8.44,-10.83 11.31,-17.78 2.87,-6.94 4.31,-14.84 4.31,-23.7 0,-8.85 -1.44,-16.75 -4.31,-23.7 -2.87,-6.94 -6.64,-12.86 -11.31,-17.77 -4.67,-4.91 -10.18,-8.68 -16.52,-11.31 -6.35,-2.63 -12.87,-3.95 -19.57,-3.95 -6.95,0 -13.53,1.32 -19.75,3.95 -6.23,2.64 -11.67,6.35 -16.34,11.14 -4.67,4.79 -8.44,10.72 -11.31,17.77 -2.87,7.07 -4.31,15.03 -4.31,23.88 0,8.86 1.44,16.82 4.31,23.88 2.87,7.06 6.64,12.99 11.31,17.78 4.67,4.79 10.11,8.5 16.34,11.13 6.22,2.63 12.8,3.94 19.75,3.94 z"
   id="path6" />
		<path
   class="st4"
   d="m 1586.84,626.6 c -7.42,13.65 -17.96,25.02 -31.6,34.12 -13.65,9.1 -30.41,13.65 -50.28,13.65 -13.17,0 -25.32,-2.33 -36.45,-7 -11.13,-4.67 -20.77,-11.19 -28.91,-19.57 -8.14,-8.38 -14.49,-18.25 -19.03,-29.63 -4.55,-11.37 -6.82,-23.88 -6.82,-37.53 0,-12.69 2.16,-24.72 6.47,-36.09 4.31,-11.37 10.35,-21.31 18.14,-29.81 7.78,-8.5 17.18,-15.27 28.19,-20.29 11.01,-5.03 23.22,-7.54 36.63,-7.54 13.65,0 25.8,2.28 36.45,6.83 10.65,4.55 19.69,10.9 27.11,19.03 7.42,8.14 13.11,17.96 17.06,29.45 3.95,11.49 5.93,24.06 5.93,37.71 0,1.2 0,2.28 0,3.23 -0.24,1.2 -0.36,2.28 -0.36,3.23 -0.24,0.96 -0.36,1.92 -0.36,2.87 H 1453.6 c 0.72,8.38 2.75,15.68 6.11,21.91 3.35,6.23 7.48,11.38 12.39,15.44 4.91,4.08 10.35,7.07 16.34,8.98 5.98,1.92 11.85,2.87 17.6,2.87 11.49,0 20.95,-2.75 28.37,-8.26 7.42,-5.51 13.52,-12.33 18.32,-20.47 z m -36.99,-67.88 c -0.48,-3.59 -1.62,-7.6 -3.41,-12.03 -1.8,-4.43 -4.55,-8.5 -8.26,-12.21 -3.71,-3.71 -8.5,-6.88 -14.37,-9.52 -5.87,-2.63 -12.99,-3.95 -21.37,-3.95 -11.49,0 -21.37,3.41 -29.63,10.23 -8.26,6.83 -13.83,15.98 -16.7,27.48 z"
   id="path7" />
		<polygon
   class="st4"
   points="974.03,668.62 1014.61,668.62 1014.61,567.33 1122.64,567.33 1122.64,529.32 1014.61,529.32 1014.61,450.27 1130.61,450.27 1130.61,411.48 974.03,411.48 "
   id="polygon7" />
		<path
   class="st4"
   d="M 1152.38,668.62 V 492.64 h 39.86 v 175.97 h -39.86 z"
   id="path8" />
		<circle
   class="st4"
   cx="1172.3101"
   cy="451.95001"
   r="24.73"
   id="circle8" />
		<path
   class="st4"
   d="m 947.62,539.15 c -0.48,-3.47 -0.96,-6.76 -1.44,-9.88 H 820.84 v 0.01 h -0.03 v 38.01 h 86.73 c -1.27,8.79 -3.7,16.9 -7.34,24.28 -3.83,7.78 -8.26,14.07 -13.29,18.86 -6.95,6.7 -15.5,12.57 -25.68,17.6 -10.18,5.03 -23.52,7.54 -40.04,7.54 -12.45,0 -24.3,-2.27 -35.55,-6.82 -11.26,-4.54 -21.19,-10.95 -29.81,-19.21 -8.62,-8.26 -15.44,-18.25 -20.47,-29.99 -5.03,-11.73 -7.54,-24.9 -7.54,-39.5 0,-14.6 2.51,-27.77 7.54,-39.5 5.03,-11.73 11.85,-21.73 20.47,-29.99 8.62,-8.26 18.55,-14.66 29.81,-19.21 11.25,-4.55 22.98,-6.83 35.19,-6.83 14.37,0 27.23,2.52 38.61,7.54 11.37,5.03 21.25,12.21 29.63,21.55 l 28.37,-28.37 c -11.26,-12.45 -25.2,-22.14 -41.84,-29.09 -16.64,-6.94 -34.78,-10.42 -54.41,-10.42 -18.44,0 -35.86,3.36 -52.25,10.06 -16.4,6.7 -30.71,16.05 -42.92,28.01 -12.21,11.97 -21.85,26.16 -28.91,42.56 -7.06,16.4 -10.59,34.29 -10.59,53.69 0,19.4 3.53,37.3 10.59,53.69 7.06,16.4 16.7,30.59 28.91,42.56 12.21,11.97 26.51,21.31 42.92,28.01 16.4,6.7 33.81,10.06 52.25,10.06 20.35,0 38.43,-3.36 54.23,-10.06 15.8,-6.7 29.57,-16.16 41.3,-28.37 11.49,-11.73 19.63,-25.14 24.42,-40.22 4.79,-15.08 7.18,-30.28 7.18,-45.61 0.02,-3.83 -0.22,-7.49 -0.7,-10.96 z"
   id="path9" />
	</g>
</g><g
       id="FInal__x2F__1C_BLK"
       class="st5">
	<g
   class="st6"
   id="g14">
		<g
   id="g10">
			<path
   d="m 207.29,548.65 v 163.1 c 90.15,0 163.12,-72.96 163.12,-163.1 z"
   id="path10" />
		</g>
		<g
   id="g11">
			<path
   d="m 387.61,548.65 v 163.1 c 90.13,0 163.09,-72.96 163.09,-163.1 z"
   id="path11" />
		</g>
		<g
   id="g12">
			<path
   d="m 207.29,368.34 v 163.1 c 90.15,0 163.12,-72.96 163.12,-163.1 z"
   id="path12" />
		</g>
		<g
   id="g13">
			<path
   d="m 387.61,368.34 v 163.1 c 90.13,0 163.09,-72.96 163.09,-163.1 z"
   id="path13" />
		</g>
	</g>
	<g
   class="st6"
   id="g18">
		<g
   id="g15">
			<path
   d="m 1645.69,519.21 h 2.15 c 4.78,-10.04 12.01,-17.8 21.68,-23.3 9.68,-5.49 20.37,-8.24 32.08,-8.24 5.9,0 12.06,0.96 13.98,1.43 v 40.14 c -4.46,-2.2 -11.92,-2.51 -17.56,-2.51 -15.05,0 -27.18,4.6 -36.38,13.8 -9.2,9.2 -13.8,21.33 -13.8,36.38 v 91.4 h -39.78 V 492.69 h 37.64 v 26.52 z"
   id="path14" />
		</g>
		<path
   d="m 1219.5,411.48 h 39.86 v 79.37 l -2.16,24.42 h 2.16 c 4.79,-7.66 12.09,-14.3 21.91,-19.93 9.82,-5.62 21.55,-8.44 35.2,-8.44 11.25,0 21.96,2.34 32.14,7 10.17,4.67 19.09,11.19 26.76,19.57 7.66,8.38 13.76,18.26 18.32,29.63 4.54,11.38 6.82,23.88 6.82,37.53 0,13.65 -2.28,26.16 -6.82,37.53 -4.55,11.37 -10.66,21.25 -18.32,29.63 -7.67,8.39 -16.58,14.9 -26.76,19.57 -10.18,4.67 -20.89,7 -32.14,7 -13.65,0 -25.38,-2.82 -35.2,-8.44 -9.82,-5.62 -17.12,-12.27 -21.91,-19.93 h -2.16 v 22.63 h -37.71 V 411.48 Z m 89.43,225.89 c 6.7,0 13.23,-1.32 19.57,-3.95 6.34,-2.63 11.85,-6.4 16.52,-11.31 4.67,-4.91 8.44,-10.83 11.31,-17.78 2.87,-6.94 4.31,-14.84 4.31,-23.7 0,-8.85 -1.44,-16.75 -4.31,-23.7 -2.87,-6.94 -6.64,-12.86 -11.31,-17.77 -4.67,-4.91 -10.18,-8.68 -16.52,-11.31 -6.35,-2.63 -12.87,-3.95 -19.57,-3.95 -6.95,0 -13.53,1.32 -19.75,3.95 -6.23,2.64 -11.67,6.35 -16.34,11.14 -4.67,4.79 -8.44,10.72 -11.31,17.77 -2.87,7.07 -4.31,15.03 -4.31,23.88 0,8.86 1.44,16.82 4.31,23.88 2.87,7.06 6.64,12.99 11.31,17.78 4.67,4.79 10.11,8.5 16.34,11.13 6.22,2.63 12.8,3.94 19.75,3.94 z"
   id="path15" />
		<path
   d="m 1586.84,626.6 c -7.42,13.65 -17.96,25.02 -31.6,34.12 -13.65,9.1 -30.41,13.65 -50.28,13.65 -13.17,0 -25.32,-2.33 -36.45,-7 -11.13,-4.67 -20.77,-11.19 -28.91,-19.57 -8.14,-8.38 -14.49,-18.25 -19.03,-29.63 -4.55,-11.37 -6.82,-23.88 -6.82,-37.53 0,-12.69 2.16,-24.72 6.47,-36.09 4.31,-11.37 10.35,-21.31 18.14,-29.81 7.78,-8.5 17.18,-15.27 28.19,-20.29 11.01,-5.03 23.22,-7.54 36.63,-7.54 13.65,0 25.8,2.28 36.45,6.83 10.65,4.55 19.69,10.9 27.11,19.03 7.42,8.14 13.11,17.96 17.06,29.45 3.95,11.49 5.93,24.06 5.93,37.71 0,1.2 0,2.28 0,3.23 -0.24,1.2 -0.36,2.28 -0.36,3.23 -0.24,0.96 -0.36,1.92 -0.36,2.87 H 1453.6 c 0.72,8.38 2.75,15.68 6.11,21.91 3.35,6.23 7.48,11.38 12.39,15.44 4.91,4.08 10.35,7.07 16.34,8.98 5.98,1.92 11.85,2.87 17.6,2.87 11.49,0 20.95,-2.75 28.37,-8.26 7.42,-5.51 13.52,-12.33 18.32,-20.47 z m -36.99,-67.88 c -0.48,-3.59 -1.62,-7.6 -3.41,-12.03 -1.8,-4.43 -4.55,-8.5 -8.26,-12.21 -3.71,-3.71 -8.5,-6.88 -14.37,-9.52 -5.87,-2.63 -12.99,-3.95 -21.37,-3.95 -11.49,0 -21.37,3.41 -29.63,10.23 -8.26,6.83 -13.83,15.98 -16.7,27.48 z"
   id="path16" />
		<polygon
   points="974.03,668.62 1014.61,668.62 1014.61,567.33 1122.64,567.33 1122.64,529.32 1014.61,529.32 1014.61,450.27 1130.61,450.27 1130.61,411.48 974.03,411.48 "
   id="polygon16" />
		<path
   d="M 1152.38,668.62 V 492.64 h 39.86 v 175.97 h -39.86 z"
   id="path17" />
		<circle
   cx="1172.3101"
   cy="451.95001"
   r="24.73"
   id="circle17" />
		<path
   d="m 947.62,539.15 c -0.48,-3.47 -0.96,-6.76 -1.44,-9.88 H 820.84 v 0.01 h -0.03 v 38.01 h 86.73 c -1.27,8.79 -3.7,16.9 -7.34,24.28 -3.83,7.78 -8.26,14.07 -13.29,18.86 -6.95,6.7 -15.5,12.57 -25.68,17.6 -10.18,5.03 -23.52,7.54 -40.04,7.54 -12.45,0 -24.3,-2.27 -35.55,-6.82 -11.26,-4.54 -21.19,-10.95 -29.81,-19.21 -8.62,-8.26 -15.44,-18.25 -20.47,-29.99 -5.03,-11.73 -7.54,-24.9 -7.54,-39.5 0,-14.6 2.51,-27.77 7.54,-39.5 5.03,-11.73 11.85,-21.73 20.47,-29.99 8.62,-8.26 18.55,-14.66 29.81,-19.21 11.25,-4.55 22.98,-6.83 35.19,-6.83 14.37,0 27.23,2.52 38.61,7.54 11.37,5.03 21.25,12.21 29.63,21.55 l 28.37,-28.37 c -11.26,-12.45 -25.2,-22.14 -41.84,-29.09 -16.64,-6.94 -34.78,-10.42 -54.41,-10.42 -18.44,0 -35.86,3.36 -52.25,10.06 -16.4,6.7 -30.71,16.05 -42.92,28.01 -12.21,11.97 -21.85,26.16 -28.91,42.56 -7.06,16.4 -10.59,34.29 -10.59,53.69 0,19.4 3.53,37.3 10.59,53.69 7.06,16.4 16.7,30.59 28.91,42.56 12.21,11.97 26.51,21.31 42.92,28.01 16.4,6.7 33.81,10.06 52.25,10.06 20.35,0 38.43,-3.36 54.23,-10.06 15.8,-6.7 29.57,-16.16 41.3,-28.37 11.49,-11.73 19.63,-25.14 24.42,-40.22 4.79,-15.08 7.18,-30.28 7.18,-45.61 0.02,-3.83 -0.22,-7.49 -0.7,-10.96 z"
   id="path18" />
	</g>
</g><g
       id="FInal__x2F__1C_WHT"
       class="st5">
	<g
   class="st6"
   id="g23">
		<g
   id="g19">
			<path
   class="st8"
   d="m 207.29,548.65 v 163.1 c 90.15,0 163.12,-72.96 163.12,-163.1 z"
   id="path19" />
		</g>
		<g
   id="g20">
			<path
   class="st8"
   d="m 387.61,548.65 v 163.1 c 90.13,0 163.09,-72.96 163.09,-163.1 z"
   id="path20" />
		</g>
		<g
   id="g21">
			<path
   class="st8"
   d="m 207.29,368.34 v 163.1 c 90.15,0 163.12,-72.96 163.12,-163.1 z"
   id="path21" />
		</g>
		<g
   id="g22">
			<path
   class="st8"
   d="m 387.61,368.34 v 163.1 c 90.13,0 163.09,-72.96 163.09,-163.1 z"
   id="path22" />
		</g>
	</g>
	<g
   class="st6"
   id="g27">
		<g
   id="g24">
			<path
   class="st8"
   d="m 1645.69,519.21 h 2.15 c 4.78,-10.04 12.01,-17.8 21.68,-23.3 9.68,-5.49 20.37,-8.24 32.08,-8.24 5.9,0 12.06,0.96 13.98,1.43 v 40.14 c -4.46,-2.2 -11.92,-2.51 -17.56,-2.51 -15.05,0 -27.18,4.6 -36.38,13.8 -9.2,9.2 -13.8,21.33 -13.8,36.38 v 91.4 h -39.78 V 492.69 h 37.64 v 26.52 z"
   id="path23" />
		</g>
		<path
   class="st8"
   d="m 1219.5,411.48 h 39.86 v 79.37 l -2.16,24.42 h 2.16 c 4.79,-7.66 12.09,-14.3 21.91,-19.93 9.82,-5.62 21.55,-8.44 35.2,-8.44 11.25,0 21.96,2.34 32.14,7 10.17,4.67 19.09,11.19 26.76,19.57 7.66,8.38 13.76,18.26 18.32,29.63 4.54,11.38 6.82,23.88 6.82,37.53 0,13.65 -2.28,26.16 -6.82,37.53 -4.55,11.37 -10.66,21.25 -18.32,29.63 -7.67,8.39 -16.58,14.9 -26.76,19.57 -10.18,4.67 -20.89,7 -32.14,7 -13.65,0 -25.38,-2.82 -35.2,-8.44 -9.82,-5.62 -17.12,-12.27 -21.91,-19.93 h -2.16 v 22.63 h -37.71 V 411.48 Z m 89.43,225.89 c 6.7,0 13.23,-1.32 19.57,-3.95 6.34,-2.63 11.85,-6.4 16.52,-11.31 4.67,-4.91 8.44,-10.83 11.31,-17.78 2.87,-6.94 4.31,-14.84 4.31,-23.7 0,-8.85 -1.44,-16.75 -4.31,-23.7 -2.87,-6.94 -6.64,-12.86 -11.31,-17.77 -4.67,-4.91 -10.18,-8.68 -16.52,-11.31 -6.35,-2.63 -12.87,-3.95 -19.57,-3.95 -6.95,0 -13.53,1.32 -19.75,3.95 -6.23,2.64 -11.67,6.35 -16.34,11.14 -4.67,4.79 -8.44,10.72 -11.31,17.77 -2.87,7.07 -4.31,15.03 -4.31,23.88 0,8.86 1.44,16.82 4.31,23.88 2.87,7.06 6.64,12.99 11.31,17.78 4.67,4.79 10.11,8.5 16.34,11.13 6.22,2.63 12.8,3.94 19.75,3.94 z"
   id="path24" />
		<path
   class="st8"
   d="m 1586.84,626.6 c -7.42,13.65 -17.96,25.02 -31.6,34.12 -13.65,9.1 -30.41,13.65 -50.28,13.65 -13.17,0 -25.32,-2.33 -36.45,-7 -11.13,-4.67 -20.77,-11.19 -28.91,-19.57 -8.14,-8.38 -14.49,-18.25 -19.03,-29.63 -4.55,-11.37 -6.82,-23.88 -6.82,-37.53 0,-12.69 2.16,-24.72 6.47,-36.09 4.31,-11.37 10.35,-21.31 18.14,-29.81 7.78,-8.5 17.18,-15.27 28.19,-20.29 11.01,-5.03 23.22,-7.54 36.63,-7.54 13.65,0 25.8,2.28 36.45,6.83 10.65,4.55 19.69,10.9 27.11,19.03 7.42,8.14 13.11,17.96 17.06,29.45 3.95,11.49 5.93,24.06 5.93,37.71 0,1.2 0,2.28 0,3.23 -0.24,1.2 -0.36,2.28 -0.36,3.23 -0.24,0.96 -0.36,1.92 -0.36,2.87 H 1453.6 c 0.72,8.38 2.75,15.68 6.11,21.91 3.35,6.23 7.48,11.38 12.39,15.44 4.91,4.08 10.35,7.07 16.34,8.98 5.98,1.92 11.85,2.87 17.6,2.87 11.49,0 20.95,-2.75 28.37,-8.26 7.42,-5.51 13.52,-12.33 18.32,-20.47 z m -36.99,-67.88 c -0.48,-3.59 -1.62,-7.6 -3.41,-12.03 -1.8,-4.43 -4.55,-8.5 -8.26,-12.21 -3.71,-3.71 -8.5,-6.88 -14.37,-9.52 -5.87,-2.63 -12.99,-3.95 -21.37,-3.95 -11.49,0 -21.37,3.41 -29.63,10.23 -8.26,6.83 -13.83,15.98 -16.7,27.48 z"
   id="path25" />
		<polygon
   class="st8"
   points="974.03,668.62 1014.61,668.62 1014.61,567.33 1122.64,567.33 1122.64,529.32 1014.61,529.32 1014.61,450.27 1130.61,450.27 1130.61,411.48 974.03,411.48 "
   id="polygon25" />
		<path
   class="st8"
   d="M 1152.38,668.62 V 492.64 h 39.86 v 175.97 h -39.86 z"
   id="path26" />
		<circle
   class="st8"
   cx="1172.3101"
   cy="451.95001"
   r="24.73"
   id="circle26" />
		<path
   class="st8"
   d="m 947.62,539.15 c -0.48,-3.47 -0.96,-6.76 -1.44,-9.88 H 820.84 v 0.01 h -0.03 v 38.01 h 86.73 c -1.27,8.79 -3.7,16.9 -7.34,24.28 -3.83,7.78 -8.26,14.07 -13.29,18.86 -6.95,6.7 -15.5,12.57 -25.68,17.6 -10.18,5.03 -23.52,7.54 -40.04,7.54 -12.45,0 -24.3,-2.27 -35.55,-6.82 -11.26,-4.54 -21.19,-10.95 -29.81,-19.21 -8.62,-8.26 -15.44,-18.25 -20.47,-29.99 -5.03,-11.73 -7.54,-24.9 -7.54,-39.5 0,-14.6 2.51,-27.77 7.54,-39.5 5.03,-11.73 11.85,-21.73 20.47,-29.99 8.62,-8.26 18.55,-14.66 29.81,-19.21 11.25,-4.55 22.98,-6.83 35.19,-6.83 14.37,0 27.23,2.52 38.61,7.54 11.37,5.03 21.25,12.21 29.63,21.55 l 28.37,-28.37 c -11.26,-12.45 -25.2,-22.14 -41.84,-29.09 -16.64,-6.94 -34.78,-10.42 -54.41,-10.42 -18.44,0 -35.86,3.36 -52.25,10.06 -16.4,6.7 -30.71,16.05 -42.92,28.01 -12.21,11.97 -21.85,26.16 -28.91,42.56 -7.06,16.4 -10.59,34.29 -10.59,53.69 0,19.4 3.53,37.3 10.59,53.69 7.06,16.4 16.7,30.59 28.91,42.56 12.21,11.97 26.51,21.31 42.92,28.01 16.4,6.7 33.81,10.06 52.25,10.06 20.35,0 38.43,-3.36 54.23,-10.06 15.8,-6.7 29.57,-16.16 41.3,-28.37 11.49,-11.73 19.63,-25.14 24.42,-40.22 4.79,-15.08 7.18,-30.28 7.18,-45.61 0.02,-3.83 -0.22,-7.49 -0.7,-10.96 z"
   id="path27" />
	</g>
</g></g></svg>
