<svg width="1920" height="773" xmlns="http://www.w3.org/2000/svg" xmlns:svg="http://www.w3.org/2000/svg" preserveAspectRatio="xMidYMid meet" version="1.0">
 <g class="layer">
  <title>Layer 1</title>
  <rect fill="#ffffff" height="341" id="svg_63" stroke="#000000" width="295" x="1583" y="157.5"/>
  <rect fill="#ffffff" height="341" id="svg_62" stroke="#000000" width="295" x="1069" y="157.5"/>
  <rect fill="#ffffff" height="341" id="svg_61" stroke="#000000" transform="matrix(1 0 0 1 0 0)" width="295" x="560" y="168.5"/>
  <rect fill="#ffffff" height="341" id="svg_59" stroke="#000000" width="295" x="47" y="161"/>
  <g fill="#006284" id="svg_1" transform="matrix(0.1 0 0 -0.1 0 0)">
   <path d="m0,-3315l0,-2255l1955,0l1955,0l0,2255l0,2255l-1955,0l-1955,0l0,-2255zm2257,1340c19,-69 193,-670 353,-1220c32,-110 90,-312 130,-450c82,-284 163,-564 244,-841c31,-105 56,-198 56,-207c0,-15 -24,-17 -260,-17l-259,0l-9,33c-4,17 -37,146 -73,285l-64,252l-420,-2l-419,-3l-14,-50c-15,-59 -107,-386 -128,-462l-15,-53l-255,0c-239,0 -255,1 -250,18c5,16 57,194 186,637c87,300 190,651 270,925c109,370 195,664 256,875c70,241 92,314 100,326c3,5 119,8 281,7l276,-3l14,-50z" id="svg_2"/>
   <path d="m1921,-2692c-18,-68 -53,-199 -77,-293c-25,-93 -64,-240 -86,-325c-21,-85 -50,-193 -64,-240c-13,-46 -24,-88 -24,-92c0,-4 129,-8 286,-8c267,0 285,1 280,18c-5,18 -214,831 -249,967c-11,44 -23,84 -27,88c-4,5 -22,-47 -39,-115z" id="svg_3"/>
   <path d="m5100,-3315l0,-2255l1955,0l1955,0l0,2255l0,2255l-1955,0l-1955,0l0,-2255zm2373,1367c112,-31 171,-66 258,-152c160,-158 239,-369 239,-630c-1,-277 -113,-517 -289,-617l-52,-30l50,-32c68,-44 138,-121 167,-185c44,-97 54,-179 64,-536c10,-379 17,-429 66,-478c25,-25 34,-43 34,-68l0,-34l-264,0c-249,0 -265,1 -271,19c-23,72 -37,219 -45,462c-13,420 -35,508 -140,561c-73,37 -179,48 -482,48l-238,0l0,-545l0,-545l-237,2l-238,3l-3,1380c-1,759 0,1386 3,1393c4,10 128,12 652,10c632,-4 650,-4 726,-26z" id="svg_4"/>
   <path d="m6570,-2779l0,-371l273,0c401,0 481,14 560,95c61,63 81,129 81,275c1,115 -1,130 -25,181c-35,73 -93,137 -149,163c-42,20 -65,21 -392,24l-348,3l0,-370z" id="svg_5"/>
   <path d="m10190,-3315l0,-2255l1955,0l1955,0l0,2255l0,2255l-1955,0l-1955,0l0,-2255zm2200,0l0,-1395l-240,0l-240,0l0,1395l0,1395l240,0l240,0l0,-1395z" id="svg_6"/>
   <path d="m15290,-3315l0,-2255l1955,0l1955,0l0,2255l0,2255l-1955,0l-1955,0l0,-2255zm1523,453c4,-1072 3,-1045 62,-1170c32,-68 113,-148 185,-184c110,-56 300,-42 418,29c59,35 90,71 129,148c60,120 57,65 63,1154l5,1000l243,3l242,2l0,-997c0,-837 -3,-1014 -15,-1098c-22,-144 -50,-236 -102,-339c-65,-128 -190,-252 -319,-318c-287,-148 -665,-151 -959,-8c-193,94 -336,277 -395,505c-48,187 -50,241 -50,1281l0,974l245,0l244,0l4,-982z" id="svg_7"/>
   <path d="m3648,-6470l-37,-70l42,1c39,0 46,5 95,64c28,35 52,66 52,69c0,3 -26,6 -57,6l-58,0l-37,-70z" id="svg_8"/>
   <path d="m13195,-6470l-35,-70l39,0c34,0 43,6 82,53c81,95 80,87 10,87l-61,0l-35,-70z" id="svg_9"/>
   <path d="m2080,-6485l0,-65l55,0l55,0l0,65l0,65l-55,0l-55,0l0,-65z" id="svg_10"/>
   <path d="m3230,-6485l0,-65l55,0l55,0l0,65l0,65l-55,0l-55,0l0,-65z" id="svg_11"/>
   <path d="m12780,-6485l0,-65l55,0l55,0l0,65l0,65l-55,0l-55,0l0,-65z" id="svg_12"/>
   <path d="m15357,-6427c-4,-3 -7,-33 -7,-65l0,-58l60,0l60,0l0,65l0,65l-53,0c-30,0 -57,-3 -60,-7z" id="svg_13"/>
   <path d="m17280,-6485l0,-65l55,0l55,0l0,65l0,65l-55,0l-55,0l0,-65z" id="svg_14"/>
   <path d="m18567,-6427c-4,-3 -7,-33 -7,-65l0,-58l60,0l60,0l0,65l0,65l-53,0c-30,0 -57,-3 -60,-7z" id="svg_15"/>
   <path d="m227,-6437c-3,-5 -42,-134 -87,-288c-45,-154 -90,-309 -101,-344c-10,-35 -19,-67 -19,-72c0,-5 29,-9 63,-9l64,0l13,58c21,96 16,93 138,90l107,-3l20,-72l20,-73l63,0c34,0 62,4 62,9c0,6 -21,81 -46,168c-71,245 -154,536 -154,539c0,8 -139,4 -143,-3zm109,-300c14,-59 28,-116 30,-125c5,-16 -3,-18 -70,-18c-42,0 -76,3 -76,6c0,4 11,47 24,98c14,50 30,111 36,136c15,57 22,45 56,-97z" id="svg_16"/>
   <path d="m4710,-6790l0,-360l60,0l60,0l0,140l0,140l88,0c56,0 95,-5 106,-13c23,-17 35,-75 36,-164c0,-102 1,-103 77,-103c58,0 64,2 57,18c-4,9 -11,69 -15,132c-4,63 -8,118 -8,122c-1,4 -15,23 -31,42c-30,34 -31,35 -11,46c81,43 80,243 0,317c-41,37 -74,43 -250,43l-169,0l0,-360zm306,230c40,-16 53,-39 54,-93c0,-38 -5,-53 -25,-72c-22,-23 -32,-25 -120,-25l-95,0l0,100l0,100l79,0c44,0 92,-5 107,-10z" id="svg_17"/>
   <path d="m6050,-6555c0,-69 -2,-125 -4,-125c-2,0 -20,16 -39,35c-31,31 -41,35 -87,35c-99,0 -159,-66 -180,-194c-12,-74 -7,-129 17,-216c27,-100 74,-140 160,-140c48,0 113,29 113,50c0,5 5,10 10,10c6,0 10,-11 10,-25c0,-24 3,-25 55,-25l55,0l0,360l0,360l-55,0l-55,0l0,-125zm-50,-185c39,-21 62,-160 39,-231c-35,-105 -140,-108 -178,-6c-26,68 -5,203 36,235c20,15 77,16 103,2z" id="svg_18"/>
   <path d="m7700,-6557l0,-128l-23,27c-30,35 -58,48 -107,48c-51,0 -92,-21 -123,-62c-39,-53 -52,-104 -51,-213c1,-121 26,-197 80,-244c30,-27 42,-31 94,-31c52,0 64,4 95,31l35,31l0,-26c0,-25 2,-26 55,-26l55,0l0,360l0,360l-55,0l-55,0l0,-127zm-31,-195c26,-27 36,-75 34,-154c-1,-61 -11,-93 -41,-126c-17,-20 -72,-24 -101,-8c-61,32 -70,231 -14,292c24,27 96,24 122,-4z" id="svg_19"/>
   <path d="m8610,-6790l0,-360l60,0l60,0l0,360l0,360l-60,0l-60,0l0,-360z" id="svg_20"/>
   <path d="m14253,-6712c5,-311 10,-340 64,-394c92,-92 300,-78 368,25c38,58 44,111 45,389l0,262l-60,0l-60,0l0,-242c0,-134 -5,-261 -10,-282c-22,-99 -145,-129 -197,-49c-16,24 -19,59 -23,298l-5,270l-64,3l-63,3l5,-283z" id="svg_21"/>
   <path d="m9367,-6476c-4,-4 -7,-38 -7,-76l0,-68l-31,0c-30,0 -30,-1 -27,-47c3,-44 5,-48 31,-51l27,-3l0,-175c0,-208 8,-237 67,-254c21,-6 56,-10 78,-8l40,3l0,50c0,49 -1,50 -32,53l-33,3l0,165l0,164l35,0l35,0l0,50l0,50l-35,0l-34,0l-3,73l-3,72l-50,3c-28,2 -54,0 -58,-4z" id="svg_22"/>
   <path d="m17518,-6542c-3,-71 -4,-73 -30,-76c-26,-3 -28,-6 -28,-53c0,-48 1,-49 30,-49l30,0l0,-189c0,-184 1,-191 23,-217c21,-24 31,-27 88,-28l64,-1l0,50c0,48 -1,50 -30,55l-30,5l-3,163l-2,162l35,0l35,0l0,50l0,50l-35,0l-35,0l0,75l0,75l-55,0l-54,0l-3,-72z" id="svg_23"/>
   <path d="m710,-6632c-48,-33 -70,-81 -70,-155c0,-55 3,-65 30,-91c28,-29 44,-36 169,-79c67,-22 81,-41 58,-77c-15,-22 -25,-26 -63,-26c-57,0 -79,12 -92,50c-10,28 -14,30 -62,30c-60,0 -68,-11 -48,-72c11,-31 27,-52 57,-73c38,-26 53,-30 124,-33c71,-3 88,0 126,20c26,14 51,38 62,58c23,42 25,129 5,168c-17,33 -91,74 -161,91c-67,16 -95,36 -95,66c0,29 26,45 73,45c34,0 58,-18 70,-52c5,-14 18,-18 62,-18l57,0l-7,33c-20,92 -81,137 -191,137c-57,0 -77,-4 -104,-22z" id="svg_24"/>
   <path d="m1230,-6621c-90,-36 -132,-107 -138,-233c-8,-158 26,-239 121,-288c32,-16 54,-19 108,-16c85,5 141,39 178,112c33,64 41,196 17,278c-17,61 -69,122 -122,144c-38,16 -127,17 -164,3zm133,-119c47,-37 66,-134 43,-215c-21,-71 -45,-95 -94,-95c-50,0 -77,21 -98,75c-19,51 -16,150 7,198c25,55 96,73 142,37z" id="svg_25"/>
   <path d="m1700,-6632c-75,-51 -104,-126 -104,-268c-1,-86 2,-102 29,-155c41,-82 78,-105 164,-105c45,0 77,6 101,19c41,21 86,90 96,144l6,37l-55,0c-49,0 -56,-3 -62,-22c-17,-55 -81,-86 -122,-60c-44,28 -58,193 -24,268c15,32 26,44 50,49c46,10 68,-2 87,-46c18,-38 19,-39 71,-39c51,0 53,1 53,28c-1,44 -35,107 -75,138c-32,24 -49,29 -109,32c-61,3 -76,1 -106,-20z" id="svg_26"/>
   <path d="m2380,-6632c-50,-26 -78,-66 -82,-118l-3,-35l50,-3c48,-2 51,-1 65,30c13,29 20,33 61,36c52,3 79,-14 79,-52c0,-33 -15,-42 -103,-60c-127,-26 -167,-69 -167,-181c0,-98 43,-145 135,-145c48,0 92,17 114,44c16,19 31,12 31,-15c0,-17 7,-19 65,-19c65,0 66,0 53,23c-9,15 -15,87 -18,229c-5,203 -5,207 -30,234c-35,37 -80,54 -148,54c-40,0 -71,-7 -102,-22zm170,-318c0,-40 -5,-55 -27,-80c-55,-60 -133,-42 -133,30c0,39 28,66 82,80c24,6 48,13 53,15c22,8 25,3 25,-45z" id="svg_27"/>
   <path d="m2865,-6621c-43,-25 -76,-65 -94,-113c-56,-152 -21,-349 72,-407c43,-26 149,-26 197,0c41,21 88,92 97,144l6,37l-56,0c-49,0 -55,-3 -61,-23c-17,-69 -99,-89 -140,-34c-18,24 -21,43 -21,126c0,76 4,103 18,124c41,63 108,61 135,-3c17,-39 18,-40 71,-40l54,0l-6,39c-7,55 -26,90 -70,125c-34,27 -47,31 -110,34c-42,1 -80,-2 -92,-9z" id="svg_28"/>
   <path d="m3559,-6630c-50,-26 -96,-81 -110,-132c-17,-56 -16,-203 0,-251c17,-50 64,-103 114,-129c32,-16 54,-19 107,-16c85,4 135,36 176,111c27,49 29,59 29,162c0,119 -10,150 -64,208c-61,67 -175,88 -252,47zm157,-111c27,-22 44,-80 44,-146c0,-105 -37,-163 -105,-163c-67,0 -105,58 -105,162c0,74 28,144 62,158c28,12 84,6 104,-11z" id="svg_29"/>
   <path d="m4110,-6650l-40,-40l0,35l0,35l-55,0l-55,0l0,-265l0,-265l54,0l54,0l4,173c3,151 5,176 23,207c25,41 72,59 110,42c36,-17 45,-67 45,-254l0,-168l55,0l55,0l0,208c0,182 -3,212 -20,249c-25,56 -70,83 -137,83c-48,0 -56,-3 -93,-40z" id="svg_30"/>
   <path d="m5375,-6628c-77,-49 -109,-123 -109,-252c1,-151 30,-217 117,-261c60,-31 161,-24 211,14c33,26 76,91 76,117c0,6 -25,10 -59,10c-50,0 -61,-3 -66,-19c-3,-10 -18,-24 -34,-31c-58,-24 -119,18 -128,89l-6,41l153,0l153,0l-7,78c-7,92 -35,151 -89,196c-34,27 -47,31 -110,34c-57,2 -78,-1 -102,-16zm136,-102c21,-12 49,-60 49,-85c0,-12 -15,-15 -90,-15c-55,0 -90,4 -90,10c0,23 29,79 47,89c23,13 59,14 84,1z" id="svg_31"/>
   <path d="m6348,-6624c-78,-41 -113,-126 -113,-271c0,-92 3,-106 30,-160c38,-75 88,-105 177,-105c95,0 157,42 186,128l11,32l-57,0c-47,0 -60,-4 -70,-20c-19,-31 -59,-43 -99,-29c-38,12 -63,52 -63,99l0,30l145,0l145,0l0,58c0,112 -41,197 -110,232c-47,24 -142,27 -182,6zm137,-112c20,-13 45,-60 45,-85c0,-5 -41,-9 -91,-9l-91,0l6,32c14,68 76,98 131,62z" id="svg_32"/>
   <path d="m6805,-6620c-47,-19 -95,-100 -95,-160c0,-48 26,-98 62,-120c18,-11 70,-32 115,-46c82,-25 105,-43 95,-74c-8,-26 -35,-40 -77,-40c-48,0 -80,20 -89,55c-6,24 -10,26 -59,23c-50,-3 -52,-4 -55,-33c-4,-43 33,-95 88,-123c38,-20 57,-23 127,-20c74,3 85,6 120,34c46,37 66,91 60,157c-7,77 -48,111 -178,147c-66,18 -99,38 -99,62c0,21 42,48 75,48c37,0 75,-28 75,-55c0,-12 13,-15 55,-15c53,0 55,1 55,28c0,83 -80,142 -189,141c-36,0 -75,-4 -86,-9z" id="svg_33"/>
   <path d="m8001,-6627c-66,-33 -111,-134 -111,-249c0,-195 65,-283 209,-284c79,0 133,27 167,86c37,63 33,74 -27,74c-42,0 -54,-4 -70,-24c-36,-46 -112,-42 -143,6c-8,13 -18,40 -21,61l-7,37l151,0l151,0l0,44c0,169 -75,266 -205,266c-35,0 -74,-7 -94,-17zm138,-109c22,-16 57,-81 48,-90c-3,-3 -45,-3 -95,-2l-90,3l14,40c7,22 21,45 31,52c23,18 64,16 92,-3z" id="svg_34"/>
   <path d="m8990,-6650l-40,-40l0,35l0,35l-55,0l-55,0l0,-265l0,-265l55,0l55,0l0,153c0,83 5,170 10,192c17,76 93,110 138,62c21,-22 22,-32 22,-215l0,-192l61,0l60,0l-3,218c-3,186 -6,222 -21,250c-26,47 -72,72 -134,72c-48,0 -56,-3 -93,-40z" id="svg_35"/>
   <path d="m9715,-6619c-26,-11 -74,-59 -90,-91c-50,-98 -42,-300 15,-380c49,-68 184,-92 265,-47c29,16 48,37 68,77l28,55l-57,3c-48,3 -59,0 -71,-18c-51,-72 -154,-31 -165,66l-3,29l149,3l149,3l-5,77c-5,94 -34,160 -86,200c-29,22 -47,27 -106,29c-39,2 -80,-1 -91,-6zm127,-112c18,-10 48,-65 48,-89c0,-6 -35,-10 -90,-10c-89,0 -90,0 -90,24c0,14 12,38 26,55c28,33 67,41 106,20z" id="svg_36"/>
   <path d="m10247,-6632c-12,-13 -30,-34 -39,-48l-17,-25l0,43l-1,42l-55,0l-55,0l0,-265l0,-265l59,0l60,0l3,174c3,168 4,175 27,200c16,17 36,26 65,28l41,3l3,68l3,67l-36,0c-24,0 -43,-7 -58,-22z" id="svg_37"/>
   <path d="m10500,-6617c-40,-15 -75,-51 -99,-102c-23,-50 -26,-68 -26,-172c0,-109 2,-119 30,-174c38,-73 75,-95 163,-95c108,0 166,49 191,159l9,41l-59,0c-51,0 -59,-3 -59,-19c0,-10 -10,-30 -21,-45c-18,-23 -28,-27 -62,-24c-35,3 -44,8 -62,38c-29,50 -29,190 1,240c38,66 111,64 140,-5c14,-34 16,-35 70,-35l56,0l-7,33c-22,109 -89,168 -190,166c-33,0 -67,-3 -75,-6z" id="svg_38"/>
   <path d="m10951,-6631c-89,-45 -126,-133 -119,-281c5,-115 29,-167 102,-215c42,-29 57,-33 113,-33c95,0 154,36 199,120c16,29 19,57 19,155c0,109 -2,124 -25,165c-14,24 -44,58 -68,74c-59,42 -156,48 -221,15zm143,-100c74,-34 88,-228 21,-295c-34,-34 -97,-33 -130,2c-29,32 -49,120 -40,177c18,103 76,149 149,116z" id="svg_39"/>
   <path d="m11509,-6649l-39,-39l0,34l0,34l-55,0l-55,0l0,-265l0,-265l54,0l54,0l4,183c3,194 8,215 55,236c37,17 62,13 88,-14c25,-24 25,-26 25,-215l0,-190l60,0l60,0l0,173c0,235 -8,282 -59,330c-37,34 -45,37 -97,37c-52,0 -59,-3 -95,-39z" id="svg_40"/>
   <path d="m11945,-6629c-85,-51 -120,-142 -113,-287c9,-165 66,-235 198,-242c101,-6 159,29 198,121c7,15 12,30 12,32c0,3 -25,5 -55,5c-48,0 -59,-4 -79,-27c-24,-27 -68,-36 -109,-20c-21,8 -61,92 -53,113c4,11 34,14 151,14l145,0l0,63c0,110 -34,179 -108,224c-48,30 -143,32 -187,4zm150,-117c14,-15 25,-33 25,-40c0,-7 3,-19 6,-28c5,-14 -6,-16 -85,-16c-90,0 -91,0 -91,24c0,14 12,38 26,55c34,41 84,43 119,5z" id="svg_41"/>
   <path d="m13109,-6630c-98,-51 -134,-132 -127,-280c7,-159 75,-241 207,-248c80,-5 129,15 179,72c39,45 55,100 56,196c2,131 -40,217 -125,260c-51,26 -141,26 -190,0zm136,-100c59,-22 85,-169 46,-257c-22,-47 -45,-63 -94,-63c-62,0 -101,64 -101,165c0,127 60,189 149,155z" id="svg_42"/>
   <path d="m13659,-6649l-39,-39l0,34l0,34l-55,0l-55,0l0,-265l0,-265l55,0l55,0l0,165c0,178 8,219 51,249c33,23 66,20 94,-9c25,-24 25,-26 25,-215l0,-190l61,0l61,0l-4,213c-3,182 -6,217 -22,249c-25,52 -71,78 -136,78c-48,0 -56,-4 -91,-39z" id="svg_43"/>
   <path d="m15025,-6621c-11,-6 -32,-25 -47,-43l-27,-31l-1,38l0,37l-55,0l-55,0l0,-265l0,-265l60,0l60,0l0,178c0,157 2,181 19,209c21,33 64,50 102,38c40,-13 49,-61 49,-250l0,-175l56,0l55,0l-3,223c-3,247 -6,258 -71,297c-35,22 -109,26 -142,9z" id="svg_44"/>
   <path d="m16123,-6625c-36,-15 -87,-88 -103,-145c-5,-19 -10,-71 -10,-116c0,-186 67,-274 211,-274c82,0 138,31 168,93c31,63 29,67 -33,67c-46,0 -56,-4 -70,-24c-30,-46 -108,-42 -141,7c-9,14 -19,41 -22,61l-6,36l152,0l151,0l0,48c0,114 -46,208 -122,248c-34,18 -133,17 -175,-1zm142,-117c14,-13 29,-38 34,-55l10,-33l-94,0l-94,0l9,29c11,40 28,68 42,74c30,12 69,5 93,-15z" id="svg_45"/>
   <path d="m16663,-6632c-11,-13 -27,-34 -36,-48l-17,-24l0,42l0,42l-55,0l-55,0l0,-265l0,-265l55,0l55,0l0,143c0,206 20,257 100,257l40,0l0,70l0,70l-33,0c-22,0 -40,-8 -54,-22z" id="svg_46"/>
   <path d="m16885,-6625c-16,-9 -41,-32 -55,-52c-21,-30 -25,-48 -25,-106c0,-68 1,-70 38,-102c20,-18 63,-40 95,-49c117,-35 127,-40 130,-68c5,-38 -22,-58 -78,-58c-41,0 -52,4 -69,26c-12,15 -21,33 -21,41c0,11 -12,13 -52,11c-49,-3 -53,-5 -56,-30c-10,-83 79,-148 202,-148c117,0 179,50 189,150c9,101 -36,153 -160,185c-110,29 -139,59 -95,98c40,36 132,9 132,-38c0,-12 13,-15 55,-15c50,0 55,2 55,23c-1,49 -36,103 -82,126c-53,25 -157,28 -203,6z" id="svg_47"/>
   <path d="m17850,-6632c-47,-24 -76,-67 -82,-123c-3,-30 -2,-30 49,-33c44,-3 52,0 58,17c11,35 35,51 75,51c44,0 70,-20 70,-54c0,-33 -16,-43 -93,-57c-135,-25 -181,-76 -175,-193c4,-64 6,-70 41,-102c32,-29 44,-34 87,-34c52,0 96,16 119,44c19,23 31,20 31,-9c0,-24 2,-25 65,-25c36,0 65,2 65,4c0,2 -7,17 -15,32c-12,23 -15,70 -15,217c0,213 -4,229 -68,265c-55,31 -151,31 -212,0zm170,-313c0,-60 -16,-91 -58,-111c-65,-31 -120,16 -96,84c7,22 22,31 74,49c36,12 68,22 73,23c4,0 7,-20 7,-45z" id="svg_48"/>
   <path d="m18403,-6632c-11,-13 -27,-34 -35,-46c-15,-22 -17,-22 -22,-5c-3,10 -4,28 -1,41c4,21 0,22 -51,22l-54,0l0,-265l0,-265l54,0l55,0l3,169c3,154 5,172 24,198c17,23 30,29 68,31l46,3l0,70l0,69l-33,0c-22,0 -40,-8 -54,-22z" id="svg_49"/>
   <path d="m18862,-6629c-32,-15 -47,-31 -62,-63c-11,-24 -20,-55 -20,-70c0,-27 2,-28 50,-28c39,0 52,4 57,18c13,37 36,52 78,52c48,0 68,-16 68,-56c0,-33 -7,-37 -104,-58c-63,-13 -89,-25 -115,-49c-65,-60 -69,-184 -8,-244c29,-30 38,-33 93,-33c53,0 65,4 94,30c41,36 45,36 49,8c3,-21 9,-23 66,-26c62,-3 73,3 50,26c-10,10 -13,65 -14,200c-1,103 -4,202 -8,220c-5,20 -21,42 -44,60c-30,23 -46,27 -111,30c-59,2 -85,-2 -119,-17zm176,-299c7,-43 -18,-102 -51,-122c-44,-27 -72,-25 -97,7c-23,29 -21,66 6,93c15,16 111,50 129,46c6,-2 11,-12 13,-24z" id="svg_50"/>
   <path d="m2080,-6885l0,-265l55,0l55,0l0,265l0,265l-55,0l-55,0l0,-265z" id="svg_51"/>
   <path d="m3230,-6885l0,-265l55,0l55,0l0,265l0,265l-55,0l-55,0l0,-265z" id="svg_52"/>
   <path d="m12303,-6662c13,-24 45,-82 71,-130l47,-88l-71,-131c-38,-72 -70,-132 -70,-135c0,-2 30,-4 66,-4l65,0l35,75c19,42 38,74 42,71c4,-2 23,-36 42,-75l34,-71l68,0l68,0l-21,43c-12,23 -44,81 -70,128c-27,48 -49,92 -49,98c0,7 29,64 65,129c36,64 65,120 65,124c0,5 -29,8 -64,8l-63,0l-36,-77l-35,-78l-38,78l-38,77l-69,0l-68,0l24,-42z" id="svg_53"/>
   <path d="m12780,-6885l0,-265l55,0l55,0l0,265l0,265l-55,0l-55,0l0,-265z" id="svg_54"/>
   <path d="m15350,-6885l0,-265l60,0l60,0l0,265l0,265l-60,0l-60,0l0,-265z" id="svg_55"/>
   <path d="m15542,-6632c2,-7 38,-127 79,-265l74,-253l61,0l61,0l42,148c24,81 58,197 77,258c19,62 34,115 34,118c0,3 -27,6 -59,6l-59,0l-26,-107c-14,-60 -33,-142 -42,-183c-9,-41 -20,-79 -24,-83c-4,-5 -17,36 -30,90c-12,54 -32,139 -44,188l-22,90l-63,3c-49,2 -62,0 -59,-10z" id="svg_56"/>
   <path d="m17280,-6885l0,-265l55,0l55,0l0,265l0,265l-55,0l-55,0l0,-265z" id="svg_57"/>
   <path d="m18560,-6885l0,-265l60,0l60,0l0,265l0,265l-60,0l-60,0l0,-265z" id="svg_58"/>
  </g>
  <rect fill="#ffffff" height="0" id="svg_60" stroke="#000000" width="0" x="559" y="229"/>
 </g>
</svg>