<!DOCTYPE svg PUBLIC "-//W3C//DTD SVG 20010904//EN"
 "http://www.w3.org/TR/2001/REC-SVG-20010904/DTD/svg10.dtd">
<svg version="1.0" xmlns="http://www.w3.org/2000/svg"
 width="1920" height="773" viewBox="0 0 1920 773"
 preserveAspectRatio="xMidYMid meet">

<g transform="translate(0.000000,773.000000) scale(0.100000,-0.100000)"
fill="#006284" stroke="none">
<path d="M0 4415 l0 -2255 1955 0 1955 0 0 2255 0 2255 -1955 0 -1955 0 0
-2255z m2257 1340 c19 -69 193 -670 353 -1220 32 -110 90 -312 130 -450 82
-284 163 -564 244 -841 31 -105 56 -198 56 -207 0 -15 -24 -17 -260 -17 l-259
0 -9 33 c-4 17 -37 146 -73 285 l-64 252 -420 -2 -419 -3 -14 -50 c-15 -59
-107 -386 -128 -462 l-15 -53 -255 0 c-239 0 -255 1 -250 18 5 16 57 194 186
637 87 300 190 651 270 925 109 370 195 664 256 875 70 241 92 314 100 326 3
5 119 8 281 7 l276 -3 14 -50z"/>
<path d="M1921 5038 c-18 -68 -53 -199 -77 -293 -25 -93 -64 -240 -86 -325
-21 -85 -50 -193 -64 -240 -13 -46 -24 -88 -24 -92 0 -4 129 -8 286 -8 267 0
285 1 280 18 -5 18 -214 831 -249 967 -11 44 -23 84 -27 88 -4 5 -22 -47 -39
-115z"/>
<path d="M5100 4415 l0 -2255 1955 0 1955 0 0 2255 0 2255 -1955 0 -1955 0 0
-2255z m2373 1367 c112 -31 171 -66 258 -152 160 -158 239 -369 239 -630 -1
-277 -113 -517 -289 -617 l-52 -30 50 -32 c68 -44 138 -121 167 -185 44 -97
54 -179 64 -536 10 -379 17 -429 66 -478 25 -25 34 -43 34 -68 l0 -34 -264 0
c-249 0 -265 1 -271 19 -23 72 -37 219 -45 462 -13 420 -35 508 -140 561 -73
37 -179 48 -482 48 l-238 0 0 -545 0 -545 -237 2 -238 3 -3 1380 c-1 759 0
1386 3 1393 4 10 128 12 652 10 632 -4 650 -4 726 -26z"/>
<path d="M6570 4951 l0 -371 273 0 c401 0 481 14 560 95 61 63 81 129 81 275
1 115 -1 130 -25 181 -35 73 -93 137 -149 163 -42 20 -65 21 -392 24 l-348 3
0 -370z"/>
<path d="M10190 4415 l0 -2255 1955 0 1955 0 0 2255 0 2255 -1955 0 -1955 0 0
-2255z m2200 0 l0 -1395 -240 0 -240 0 0 1395 0 1395 240 0 240 0 0 -1395z"/>
<path d="M15290 4415 l0 -2255 1955 0 1955 0 0 2255 0 2255 -1955 0 -1955 0 0
-2255z m1523 453 c4 -1072 3 -1045 62 -1170 32 -68 113 -148 185 -184 110 -56
300 -42 418 29 59 35 90 71 129 148 60 120 57 65 63 1154 l5 1000 243 3 242 2
0 -997 c0 -837 -3 -1014 -15 -1098 -22 -144 -50 -236 -102 -339 -65 -128 -190
-252 -319 -318 -287 -148 -665 -151 -959 -8 -193 94 -336 277 -395 505 -48
187 -50 241 -50 1281 l0 974 245 0 244 0 4 -982z"/>
<path d="M3648 1260 l-37 -70 42 1 c39 0 46 5 95 64 28 35 52 66 52 69 0 3
-26 6 -57 6 l-58 0 -37 -70z"/>
<path d="M13195 1260 l-35 -70 39 0 c34 0 43 6 82 53 81 95 80 87 10 87 l-61
0 -35 -70z"/>
<path d="M2080 1245 l0 -65 55 0 55 0 0 65 0 65 -55 0 -55 0 0 -65z"/>
<path d="M3230 1245 l0 -65 55 0 55 0 0 65 0 65 -55 0 -55 0 0 -65z"/>
<path d="M12780 1245 l0 -65 55 0 55 0 0 65 0 65 -55 0 -55 0 0 -65z"/>
<path d="M15357 1303 c-4 -3 -7 -33 -7 -65 l0 -58 60 0 60 0 0 65 0 65 -53 0
c-30 0 -57 -3 -60 -7z"/>
<path d="M17280 1245 l0 -65 55 0 55 0 0 65 0 65 -55 0 -55 0 0 -65z"/>
<path d="M18567 1303 c-4 -3 -7 -33 -7 -65 l0 -58 60 0 60 0 0 65 0 65 -53 0
c-30 0 -57 -3 -60 -7z"/>
<path d="M227 1293 c-3 -5 -42 -134 -87 -288 -45 -154 -90 -309 -101 -344 -10
-35 -19 -67 -19 -72 0 -5 29 -9 63 -9 l64 0 13 58 c21 96 16 93 138 90 l107
-3 20 -72 20 -73 63 0 c34 0 62 4 62 9 0 6 -21 81 -46 168 -71 245 -154 536
-154 539 0 8 -139 4 -143 -3z m109 -300 c14 -59 28 -116 30 -125 5 -16 -3 -18
-70 -18 -42 0 -76 3 -76 6 0 4 11 47 24 98 14 50 30 111 36 136 15 57 22 45
56 -97z"/>
<path d="M4710 940 l0 -360 60 0 60 0 0 140 0 140 88 0 c56 0 95 -5 106 -13
23 -17 35 -75 36 -164 0 -102 1 -103 77 -103 58 0 64 2 57 18 -4 9 -11 69 -15
132 -4 63 -8 118 -8 122 -1 4 -15 23 -31 42 -30 34 -31 35 -11 46 81 43 80
243 0 317 -41 37 -74 43 -250 43 l-169 0 0 -360z m306 230 c40 -16 53 -39 54
-93 0 -38 -5 -53 -25 -72 -22 -23 -32 -25 -120 -25 l-95 0 0 100 0 100 79 0
c44 0 92 -5 107 -10z"/>
<path d="M6050 1175 c0 -69 -2 -125 -4 -125 -2 0 -20 16 -39 35 -31 31 -41 35
-87 35 -99 0 -159 -66 -180 -194 -12 -74 -7 -129 17 -216 27 -100 74 -140 160
-140 48 0 113 29 113 50 0 5 5 10 10 10 6 0 10 -11 10 -25 0 -24 3 -25 55 -25
l55 0 0 360 0 360 -55 0 -55 0 0 -125z m-50 -185 c39 -21 62 -160 39 -231 -35
-105 -140 -108 -178 -6 -26 68 -5 203 36 235 20 15 77 16 103 2z"/>
<path d="M7700 1173 l0 -128 -23 27 c-30 35 -58 48 -107 48 -51 0 -92 -21
-123 -62 -39 -53 -52 -104 -51 -213 1 -121 26 -197 80 -244 30 -27 42 -31 94
-31 52 0 64 4 95 31 l35 31 0 -26 c0 -25 2 -26 55 -26 l55 0 0 360 0 360 -55
0 -55 0 0 -127z m-31 -195 c26 -27 36 -75 34 -154 -1 -61 -11 -93 -41 -126
-17 -20 -72 -24 -101 -8 -61 32 -70 231 -14 292 24 27 96 24 122 -4z"/>
<path d="M8610 940 l0 -360 60 0 60 0 0 360 0 360 -60 0 -60 0 0 -360z"/>
<path d="M14253 1018 c5 -311 10 -340 64 -394 92 -92 300 -78 368 25 38 58 44
111 45 389 l0 262 -60 0 -60 0 0 -242 c0 -134 -5 -261 -10 -282 -22 -99 -145
-129 -197 -49 -16 24 -19 59 -23 298 l-5 270 -64 3 -63 3 5 -283z"/>
<path d="M9367 1254 c-4 -4 -7 -38 -7 -76 l0 -68 -31 0 c-30 0 -30 -1 -27 -47
3 -44 5 -48 31 -51 l27 -3 0 -175 c0 -208 8 -237 67 -254 21 -6 56 -10 78 -8
l40 3 0 50 c0 49 -1 50 -32 53 l-33 3 0 165 0 164 35 0 35 0 0 50 0 50 -35 0
-34 0 -3 73 -3 72 -50 3 c-28 2 -54 0 -58 -4z"/>
<path d="M17518 1188 c-3 -71 -4 -73 -30 -76 -26 -3 -28 -6 -28 -53 0 -48 1
-49 30 -49 l30 0 0 -189 c0 -184 1 -191 23 -217 21 -24 31 -27 88 -28 l64 -1
0 50 c0 48 -1 50 -30 55 l-30 5 -3 163 -2 162 35 0 35 0 0 50 0 50 -35 0 -35
0 0 75 0 75 -55 0 -54 0 -3 -72z"/>
<path d="M710 1098 c-48 -33 -70 -81 -70 -155 0 -55 3 -65 30 -91 28 -29 44
-36 169 -79 67 -22 81 -41 58 -77 -15 -22 -25 -26 -63 -26 -57 0 -79 12 -92
50 -10 28 -14 30 -62 30 -60 0 -68 -11 -48 -72 11 -31 27 -52 57 -73 38 -26
53 -30 124 -33 71 -3 88 0 126 20 26 14 51 38 62 58 23 42 25 129 5 168 -17
33 -91 74 -161 91 -67 16 -95 36 -95 66 0 29 26 45 73 45 34 0 58 -18 70 -52
5 -14 18 -18 62 -18 l57 0 -7 33 c-20 92 -81 137 -191 137 -57 0 -77 -4 -104
-22z"/>
<path d="M1230 1109 c-90 -36 -132 -107 -138 -233 -8 -158 26 -239 121 -288
32 -16 54 -19 108 -16 85 5 141 39 178 112 33 64 41 196 17 278 -17 61 -69
122 -122 144 -38 16 -127 17 -164 3z m133 -119 c47 -37 66 -134 43 -215 -21
-71 -45 -95 -94 -95 -50 0 -77 21 -98 75 -19 51 -16 150 7 198 25 55 96 73
142 37z"/>
<path d="M1700 1098 c-75 -51 -104 -126 -104 -268 -1 -86 2 -102 29 -155 41
-82 78 -105 164 -105 45 0 77 6 101 19 41 21 86 90 96 144 l6 37 -55 0 c-49 0
-56 -3 -62 -22 -17 -55 -81 -86 -122 -60 -44 28 -58 193 -24 268 15 32 26 44
50 49 46 10 68 -2 87 -46 18 -38 19 -39 71 -39 51 0 53 1 53 28 -1 44 -35 107
-75 138 -32 24 -49 29 -109 32 -61 3 -76 1 -106 -20z"/>
<path d="M2380 1098 c-50 -26 -78 -66 -82 -118 l-3 -35 50 -3 c48 -2 51 -1 65
30 13 29 20 33 61 36 52 3 79 -14 79 -52 0 -33 -15 -42 -103 -60 -127 -26
-167 -69 -167 -181 0 -98 43 -145 135 -145 48 0 92 17 114 44 16 19 31 12 31
-15 0 -17 7 -19 65 -19 65 0 66 0 53 23 -9 15 -15 87 -18 229 -5 203 -5 207
-30 234 -35 37 -80 54 -148 54 -40 0 -71 -7 -102 -22z m170 -318 c0 -40 -5
-55 -27 -80 -55 -60 -133 -42 -133 30 0 39 28 66 82 80 24 6 48 13 53 15 22 8
25 3 25 -45z"/>
<path d="M2865 1109 c-43 -25 -76 -65 -94 -113 -56 -152 -21 -349 72 -407 43
-26 149 -26 197 0 41 21 88 92 97 144 l6 37 -56 0 c-49 0 -55 -3 -61 -23 -17
-69 -99 -89 -140 -34 -18 24 -21 43 -21 126 0 76 4 103 18 124 41 63 108 61
135 -3 17 -39 18 -40 71 -40 l54 0 -6 39 c-7 55 -26 90 -70 125 -34 27 -47 31
-110 34 -42 1 -80 -2 -92 -9z"/>
<path d="M3559 1100 c-50 -26 -96 -81 -110 -132 -17 -56 -16 -203 0 -251 17
-50 64 -103 114 -129 32 -16 54 -19 107 -16 85 4 135 36 176 111 27 49 29 59
29 162 0 119 -10 150 -64 208 -61 67 -175 88 -252 47z m157 -111 c27 -22 44
-80 44 -146 0 -105 -37 -163 -105 -163 -67 0 -105 58 -105 162 0 74 28 144 62
158 28 12 84 6 104 -11z"/>
<path d="M4110 1080 l-40 -40 0 35 0 35 -55 0 -55 0 0 -265 0 -265 54 0 54 0
4 173 c3 151 5 176 23 207 25 41 72 59 110 42 36 -17 45 -67 45 -254 l0 -168
55 0 55 0 0 208 c0 182 -3 212 -20 249 -25 56 -70 83 -137 83 -48 0 -56 -3
-93 -40z"/>
<path d="M5375 1102 c-77 -49 -109 -123 -109 -252 1 -151 30 -217 117 -261 60
-31 161 -24 211 14 33 26 76 91 76 117 0 6 -25 10 -59 10 -50 0 -61 -3 -66
-19 -3 -10 -18 -24 -34 -31 -58 -24 -119 18 -128 89 l-6 41 153 0 153 0 -7 78
c-7 92 -35 151 -89 196 -34 27 -47 31 -110 34 -57 2 -78 -1 -102 -16z m136
-102 c21 -12 49 -60 49 -85 0 -12 -15 -15 -90 -15 -55 0 -90 4 -90 10 0 23 29
79 47 89 23 13 59 14 84 1z"/>
<path d="M6348 1106 c-78 -41 -113 -126 -113 -271 0 -92 3 -106 30 -160 38
-75 88 -105 177 -105 95 0 157 42 186 128 l11 32 -57 0 c-47 0 -60 -4 -70 -20
-19 -31 -59 -43 -99 -29 -38 12 -63 52 -63 99 l0 30 145 0 145 0 0 58 c0 112
-41 197 -110 232 -47 24 -142 27 -182 6z m137 -112 c20 -13 45 -60 45 -85 0
-5 -41 -9 -91 -9 l-91 0 6 32 c14 68 76 98 131 62z"/>
<path d="M6805 1110 c-47 -19 -95 -100 -95 -160 0 -48 26 -98 62 -120 18 -11
70 -32 115 -46 82 -25 105 -43 95 -74 -8 -26 -35 -40 -77 -40 -48 0 -80 20
-89 55 -6 24 -10 26 -59 23 -50 -3 -52 -4 -55 -33 -4 -43 33 -95 88 -123 38
-20 57 -23 127 -20 74 3 85 6 120 34 46 37 66 91 60 157 -7 77 -48 111 -178
147 -66 18 -99 38 -99 62 0 21 42 48 75 48 37 0 75 -28 75 -55 0 -12 13 -15
55 -15 53 0 55 1 55 28 0 83 -80 142 -189 141 -36 0 -75 -4 -86 -9z"/>
<path d="M8001 1103 c-66 -33 -111 -134 -111 -249 0 -195 65 -283 209 -284 79
0 133 27 167 86 37 63 33 74 -27 74 -42 0 -54 -4 -70 -24 -36 -46 -112 -42
-143 6 -8 13 -18 40 -21 61 l-7 37 151 0 151 0 0 44 c0 169 -75 266 -205 266
-35 0 -74 -7 -94 -17z m138 -109 c22 -16 57 -81 48 -90 -3 -3 -45 -3 -95 -2
l-90 3 14 40 c7 22 21 45 31 52 23 18 64 16 92 -3z"/>
<path d="M8990 1080 l-40 -40 0 35 0 35 -55 0 -55 0 0 -265 0 -265 55 0 55 0
0 153 c0 83 5 170 10 192 17 76 93 110 138 62 21 -22 22 -32 22 -215 l0 -192
61 0 60 0 -3 218 c-3 186 -6 222 -21 250 -26 47 -72 72 -134 72 -48 0 -56 -3
-93 -40z"/>
<path d="M9715 1111 c-26 -11 -74 -59 -90 -91 -50 -98 -42 -300 15 -380 49
-68 184 -92 265 -47 29 16 48 37 68 77 l28 55 -57 3 c-48 3 -59 0 -71 -18 -51
-72 -154 -31 -165 66 l-3 29 149 3 149 3 -5 77 c-5 94 -34 160 -86 200 -29 22
-47 27 -106 29 -39 2 -80 -1 -91 -6z m127 -112 c18 -10 48 -65 48 -89 0 -6
-35 -10 -90 -10 -89 0 -90 0 -90 24 0 14 12 38 26 55 28 33 67 41 106 20z"/>
<path d="M10247 1098 c-12 -13 -30 -34 -39 -48 l-17 -25 0 43 -1 42 -55 0 -55
0 0 -265 0 -265 59 0 60 0 3 174 c3 168 4 175 27 200 16 17 36 26 65 28 l41 3
3 68 3 67 -36 0 c-24 0 -43 -7 -58 -22z"/>
<path d="M10500 1113 c-40 -15 -75 -51 -99 -102 -23 -50 -26 -68 -26 -172 0
-109 2 -119 30 -174 38 -73 75 -95 163 -95 108 0 166 49 191 159 l9 41 -59 0
c-51 0 -59 -3 -59 -19 0 -10 -10 -30 -21 -45 -18 -23 -28 -27 -62 -24 -35 3
-44 8 -62 38 -29 50 -29 190 1 240 38 66 111 64 140 -5 14 -34 16 -35 70 -35
l56 0 -7 33 c-22 109 -89 168 -190 166 -33 0 -67 -3 -75 -6z"/>
<path d="M10951 1099 c-89 -45 -126 -133 -119 -281 5 -115 29 -167 102 -215
42 -29 57 -33 113 -33 95 0 154 36 199 120 16 29 19 57 19 155 0 109 -2 124
-25 165 -14 24 -44 58 -68 74 -59 42 -156 48 -221 15z m143 -100 c74 -34 88
-228 21 -295 -34 -34 -97 -33 -130 2 -29 32 -49 120 -40 177 18 103 76 149
149 116z"/>
<path d="M11509 1081 l-39 -39 0 34 0 34 -55 0 -55 0 0 -265 0 -265 54 0 54 0
4 183 c3 194 8 215 55 236 37 17 62 13 88 -14 25 -24 25 -26 25 -215 l0 -190
60 0 60 0 0 173 c0 235 -8 282 -59 330 -37 34 -45 37 -97 37 -52 0 -59 -3 -95
-39z"/>
<path d="M11945 1101 c-85 -51 -120 -142 -113 -287 9 -165 66 -235 198 -242
101 -6 159 29 198 121 7 15 12 30 12 32 0 3 -25 5 -55 5 -48 0 -59 -4 -79 -27
-24 -27 -68 -36 -109 -20 -21 8 -61 92 -53 113 4 11 34 14 151 14 l145 0 0 63
c0 110 -34 179 -108 224 -48 30 -143 32 -187 4z m150 -117 c14 -15 25 -33 25
-40 0 -7 3 -19 6 -28 5 -14 -6 -16 -85 -16 -90 0 -91 0 -91 24 0 14 12 38 26
55 34 41 84 43 119 5z"/>
<path d="M13109 1100 c-98 -51 -134 -132 -127 -280 7 -159 75 -241 207 -248
80 -5 129 15 179 72 39 45 55 100 56 196 2 131 -40 217 -125 260 -51 26 -141
26 -190 0z m136 -100 c59 -22 85 -169 46 -257 -22 -47 -45 -63 -94 -63 -62 0
-101 64 -101 165 0 127 60 189 149 155z"/>
<path d="M13659 1081 l-39 -39 0 34 0 34 -55 0 -55 0 0 -265 0 -265 55 0 55 0
0 165 c0 178 8 219 51 249 33 23 66 20 94 -9 25 -24 25 -26 25 -215 l0 -190
61 0 61 0 -4 213 c-3 182 -6 217 -22 249 -25 52 -71 78 -136 78 -48 0 -56 -4
-91 -39z"/>
<path d="M15025 1109 c-11 -6 -32 -25 -47 -43 l-27 -31 -1 38 0 37 -55 0 -55
0 0 -265 0 -265 60 0 60 0 0 178 c0 157 2 181 19 209 21 33 64 50 102 38 40
-13 49 -61 49 -250 l0 -175 56 0 55 0 -3 223 c-3 247 -6 258 -71 297 -35 22
-109 26 -142 9z"/>
<path d="M16123 1105 c-36 -15 -87 -88 -103 -145 -5 -19 -10 -71 -10 -116 0
-186 67 -274 211 -274 82 0 138 31 168 93 31 63 29 67 -33 67 -46 0 -56 -4
-70 -24 -30 -46 -108 -42 -141 7 -9 14 -19 41 -22 61 l-6 36 152 0 151 0 0 48
c0 114 -46 208 -122 248 -34 18 -133 17 -175 -1z m142 -117 c14 -13 29 -38 34
-55 l10 -33 -94 0 -94 0 9 29 c11 40 28 68 42 74 30 12 69 5 93 -15z"/>
<path d="M16663 1098 c-11 -13 -27 -34 -36 -48 l-17 -24 0 42 0 42 -55 0 -55
0 0 -265 0 -265 55 0 55 0 0 143 c0 206 20 257 100 257 l40 0 0 70 0 70 -33 0
c-22 0 -40 -8 -54 -22z"/>
<path d="M16885 1105 c-16 -9 -41 -32 -55 -52 -21 -30 -25 -48 -25 -106 0 -68
1 -70 38 -102 20 -18 63 -40 95 -49 117 -35 127 -40 130 -68 5 -38 -22 -58
-78 -58 -41 0 -52 4 -69 26 -12 15 -21 33 -21 41 0 11 -12 13 -52 11 -49 -3
-53 -5 -56 -30 -10 -83 79 -148 202 -148 117 0 179 50 189 150 9 101 -36 153
-160 185 -110 29 -139 59 -95 98 40 36 132 9 132 -38 0 -12 13 -15 55 -15 50
0 55 2 55 23 -1 49 -36 103 -82 126 -53 25 -157 28 -203 6z"/>
<path d="M17850 1098 c-47 -24 -76 -67 -82 -123 -3 -30 -2 -30 49 -33 44 -3
52 0 58 17 11 35 35 51 75 51 44 0 70 -20 70 -54 0 -33 -16 -43 -93 -57 -135
-25 -181 -76 -175 -193 4 -64 6 -70 41 -102 32 -29 44 -34 87 -34 52 0 96 16
119 44 19 23 31 20 31 -9 0 -24 2 -25 65 -25 36 0 65 2 65 4 0 2 -7 17 -15 32
-12 23 -15 70 -15 217 0 213 -4 229 -68 265 -55 31 -151 31 -212 0z m170 -313
c0 -60 -16 -91 -58 -111 -65 -31 -120 16 -96 84 7 22 22 31 74 49 36 12 68 22
73 23 4 0 7 -20 7 -45z"/>
<path d="M18403 1098 c-11 -13 -27 -34 -35 -46 -15 -22 -17 -22 -22 -5 -3 10
-4 28 -1 41 4 21 0 22 -51 22 l-54 0 0 -265 0 -265 54 0 55 0 3 169 c3 154 5
172 24 198 17 23 30 29 68 31 l46 3 0 70 0 69 -33 0 c-22 0 -40 -8 -54 -22z"/>
<path d="M18862 1101 c-32 -15 -47 -31 -62 -63 -11 -24 -20 -55 -20 -70 0 -27
2 -28 50 -28 39 0 52 4 57 18 13 37 36 52 78 52 48 0 68 -16 68 -56 0 -33 -7
-37 -104 -58 -63 -13 -89 -25 -115 -49 -65 -60 -69 -184 -8 -244 29 -30 38
-33 93 -33 53 0 65 4 94 30 41 36 45 36 49 8 3 -21 9 -23 66 -26 62 -3 73 3
50 26 -10 10 -13 65 -14 200 -1 103 -4 202 -8 220 -5 20 -21 42 -44 60 -30 23
-46 27 -111 30 -59 2 -85 -2 -119 -17z m176 -299 c7 -43 -18 -102 -51 -122
-44 -27 -72 -25 -97 7 -23 29 -21 66 6 93 15 16 111 50 129 46 6 -2 11 -12 13
-24z"/>
<path d="M2080 845 l0 -265 55 0 55 0 0 265 0 265 -55 0 -55 0 0 -265z"/>
<path d="M3230 845 l0 -265 55 0 55 0 0 265 0 265 -55 0 -55 0 0 -265z"/>
<path d="M12303 1068 c13 -24 45 -82 71 -130 l47 -88 -71 -131 c-38 -72 -70
-132 -70 -135 0 -2 30 -4 66 -4 l65 0 35 75 c19 42 38 74 42 71 4 -2 23 -36
42 -75 l34 -71 68 0 68 0 -21 43 c-12 23 -44 81 -70 128 -27 48 -49 92 -49 98
0 7 29 64 65 129 36 64 65 120 65 124 0 5 -29 8 -64 8 l-63 0 -36 -77 -35 -78
-38 78 -38 77 -69 0 -68 0 24 -42z"/>
<path d="M12780 845 l0 -265 55 0 55 0 0 265 0 265 -55 0 -55 0 0 -265z"/>
<path d="M15350 845 l0 -265 60 0 60 0 0 265 0 265 -60 0 -60 0 0 -265z"/>
<path d="M15542 1098 c2 -7 38 -127 79 -265 l74 -253 61 0 61 0 42 148 c24 81
58 197 77 258 19 62 34 115 34 118 0 3 -27 6 -59 6 l-59 0 -26 -107 c-14 -60
-33 -142 -42 -183 -9 -41 -20 -79 -24 -83 -4 -5 -17 36 -30 90 -12 54 -32 139
-44 188 l-22 90 -63 3 c-49 2 -62 0 -59 -10z"/>
<path d="M17280 845 l0 -265 55 0 55 0 0 265 0 265 -55 0 -55 0 0 -265z"/>
<path d="M18560 845 l0 -265 60 0 60 0 0 265 0 265 -60 0 -60 0 0 -265z"/>
</g>
</svg>
