<svg id="uuid-a1e5eaa9-50ca-4f80-870b-51226c23d813" data-name="uuid-3ac6753f-8127-48fd-a9a2-16f14a036189" xmlns="http://www.w3.org/2000/svg" width="1920" height="773" viewBox="0 0 1920 773">
  <defs>
    <style>
      .uuid-4c60b2b1-b465-4e7d-8995-922f33d78a84 {
        fill: none;
      }

      .uuid-6ad4ceb8-64d9-4c72-a3cd-084033f7817f {
        fill: #3d2e87;
      }
    </style>
  </defs>
  <rect class="uuid-4c60b2b1-b465-4e7d-8995-922f33d78a84" width="1920" height="773"/>
  <g>
    <path class="uuid-6ad4ceb8-64d9-4c72-a3cd-084033f7817f" d="M482.23,197.77h57.88v312.95c.13,2.34,0,5.03,1.55,6.97,2.08,2.17,5.37,1.95,8.15,2.11h35.57v47.86h-57.42c-12.21-.09-25.32-3.53-33.57-13.08-9.77-11.31-11.85-26.96-12.16-41.4V197.76h0Z"/>
    <path class="uuid-6ad4ceb8-64d9-4c72-a3cd-084033f7817f" d="M50.49,238.04h54.4v60.4h57.89v44.36h-57.88c0,55.97-.08,111.95,0,167.92-.23,4.4,2.9,9.06,7.62,9.06,16.73.25,33.48,0,50.22.1v47.86h-69.51c-11.89-.06-24.28-4.01-32.46-12.94-10.87-11.81-13.66-28.58-13.87-44.06-.04-56-.04-112,0-168H6.74v-44.31h40.22c1.18-20.14,2.36-40.27,3.53-60.4h0Z"/>
    <path class="uuid-6ad4ceb8-64d9-4c72-a3cd-084033f7817f" d="M956.85,316.17c33.34-24.9,78.48-31.16,118.2-20.22,26.22,7.24,49.16,24.58,64.34,46.98,6.78,9.97,12.37,20.7,16.64,31.98-16.12,6.9-32.25,13.8-48.38,20.7-6.93-15.59-16.89-30.41-31.23-40.1-17.9-12.24-41.4-14.57-61.98-8.74-17.31,5.05-32.05,16.49-41.25,31.99-12.13,20.01-15.52,44.29-13.25,67.27,2.13,21.36,10.67,42.69,26.62,57.51,13.84,12.82,32.14,19.72,50.99,19.21,17.28-.06,34.1-5.59,48.04-15.79,11.27-8.16,20.53-18.76,28.61-29.99,13.44,9.06,26.88,18.12,40.32,27.17-10.5,17.79-23.41,34.55-40.1,46.93-14.66,10.8-31.61,18.08-49.53,21.28-32.07,5.89-66.69,3.22-95.56-12.83-18.17-9.99-33.57-24.36-44.78-41.81-12.94-19.82-20.23-42.97-22.44-66.45-2.59-27.17,1.03-55.02,11.81-80.13,9.17-21.81,23.99-40.77,42.92-54.95h.01Z"/>
    <path class="uuid-6ad4ceb8-64d9-4c72-a3cd-084033f7817f" d="M1264.79,304.37c44.53-21.44,100.49-17.3,140.89,11.38,27.53,19.24,46.83,49,55.29,81.32-19.26.06-38.54-.08-57.8.08-7.1-17.22-19.9-32.18-36.49-40.84-26.76-14.02-60.94-13.61-86.98,1.95-14.96,9.13-26.72,22.7-33.63,38.81h-57.41c10.34-40.68,38.24-74.65,76.14-92.7h-.01Z"/>
    <path class="uuid-6ad4ceb8-64d9-4c72-a3cd-084033f7817f" d="M1612.63,297.65c19.61-7.79,41.21-9.03,61.58-3.52,19.68,5.33,36.22,19.6,45.66,37.51,4.12,7.32,6.93,15.31,9.5,23.33.27.84,1.08,1.38,1.96,1.32h0c.73-.06,1.36-.53,1.62-1.22,7.34-19.23,18.96-37.48,36.21-49.2,19.97-13.8,45.52-17.18,69.16-13.87,20.26,2.81,39.51,13.29,52.05,29.56,16.65,21.2,22.61,48.81,22.88,75.27v168.96c0,1.05-.85,1.9-1.9,1.9h-54.16c-1.05,0-1.9-.85-1.9-1.9v-162.48c-.27-14.04-2.34-28.61-9.69-40.84-5.65-9.42-14.81-16.19-25.47-18.83-19.86-4.92-42.43-.35-57.57,13.79-16.55,15.16-23.98,38.15-23.93,60.17v148.16c0,1.05-.85,1.9-1.9,1.9h-54.07c-1.05,0-1.9-.85-1.9-1.9v-159.9c-.1-14.94-1.77-30.59-9.56-43.68-5.61-9.38-14.76-16.1-25.38-18.65-20.49-4.81-43.98-.17-59.08,15.19-15.52,15.67-21.47,38.56-21.11,60.14v146.86c0,1.05-.85,1.9-1.9,1.9h-54.14c-1.05,0-1.9-.85-1.9-1.9v-265.48c0-1.05.85-1.9,1.9-1.9h49.11c1.04,0,1.9-.42,1.9,1.88,0,15.24.32,30.47.44,45.7.02,2.03,2.79,2.63,3.63.79.24-.53.46-1.06.72-1.49,9.61-20.58,25.87-38.83,47.26-47.54h0Z"/>
    <path class="uuid-6ad4ceb8-64d9-4c72-a3cd-084033f7817f" d="M238.94,320.11c23.94-19.15,53.93-29.14,84.58-28.16,25.79.52,51.74,8.78,71.91,25.11,24.51,19.4,39.33,49.16,44.27,79.69,3.52,20.1,2.03,40.58,2.35,60.88-66.61.05-133.22.05-199.84,0,2.27,17.55,11.22,33.56,24.98,44.68,20.89,17.08,49.57,22.99,75.91,18.73,23.28-3.88,43.56-17.66,59.61-34.4,11.46,11.36,22.85,22.81,34.33,34.14-11.26,14.28-25.12,26.3-40.85,35.42-43.92,25.3-101.38,25.46-145.13-.32-21.58-12.53-39.09-31.01-50.45-53.22-13.92-27.3-17.9-59.01-13.87-89.26,4.98-36.07,23.45-70.55,52.2-93.28h0ZM268.51,362.59c-14.78,12.53-24.2,30.24-26.34,49.49,47.81.07,95.62.07,143.42,0-.52-16.97-5.72-34.37-17.36-47.07-11.31-12.64-28.17-19.17-44.88-20.02-19.87-1.45-39.53,4.86-54.85,17.61h0Z"/>
    <path class="uuid-6ad4ceb8-64d9-4c72-a3cd-084033f7817f" d="M664.26,314.42c38.01-26.43,90.8-30.22,131.84-8.59,20.85,11.3,37.67,28.8,48.12,50.09,10.57,21,15.25,44.63,15.39,68.06v33.63h-199.78c2.24,17.66,11.26,33.76,25.16,44.89,20.89,16.95,49.48,22.82,75.75,18.55,23.28-3.88,43.49-17.68,59.58-34.37,11.4,11.44,22.9,22.75,34.28,34.2-11.02,13.99-24.55,25.81-39.89,34.85-44.76,26.25-103.99,26.13-148.25-1.18-20.46-12.45-37.07-30.32-48.01-51.63-13.38-26.07-17.61-56.23-14.5-85.21,4.22-40.86,26.09-80.09,60.29-103.29h.02ZM684.21,364.27c-13.7,12.44-22.36,29.47-24.35,47.86h143.38c-.5-17.83-6.31-36.22-19.16-48.99-11.81-12.03-28.77-17.8-45.38-18.24-20-.91-39.56,6.04-54.5,19.37h0Z"/>
    <path class="uuid-6ad4ceb8-64d9-4c72-a3cd-084033f7817f" d="M1184.56,428.7h55.95c-1.13,22.39,6.24,45.34,21.64,61.83,18.61,20.29,45.73,30.57,73.11,27.7,22.24-2.34,42.52-13.81,55.99-31.67,12.42-16.27,17.26-37.18,16.36-57.38h56.85c2.66,28.99-4.14,58.95-20.34,83.28-24.33,37.31-67.68,60.27-111.84,62.48-43.14,2.66-87.21-15.3-115.57-48.06-23.56-27.03-35.16-62.45-32.16-98.18h.01Z"/>
  </g>
</svg>