<svg
   id="uuid-d837f90e-3a4b-44c2-81ee-d7b8ed5bc69b"
   data-name="C1"
   width="1920"
   height="773"
   viewBox="0 0 1920 773"
   version="1.1"
   xml:space="preserve"
   xmlns="http://www.w3.org/2000/svg"
   xmlns:svg="http://www.w3.org/2000/svg"><defs
     id="defs1"><style
       id="style1">
      .uuid-c90f1ad1-f831-4e7c-956b-467930e03b8f {
        fill: none;
      }

      .uuid-04a06d85-28dc-4ddd-a18a-468519060675 {
        fill: #e2111a;
      }
    </style></defs><rect
     class="uuid-c90f1ad1-f831-4e7c-956b-467930e03b8f"
     width="1920"
     height="773"
     id="rect1"
     x="0"
     y="0" /><style
     type="text/css"
     id="style1-0">
	.st0{fill:#F04E23;}
</style><g
     id="g1"
     transform="matrix(13.648046,0,0,13.648046,18.284826,199.90562)"><polygon
       points="135.964,13.056 135.112,13.056 135.112,15.289 134.762,15.289 134.762,13.056 133.91,13.056 133.91,12.752 135.964,12.752 "
       transform="translate(-1,-1.66)"
       style="fill:#060807"
       id="polygon1" /><polygon
       points="138.415,12.752 139,12.752 139,15.289 138.651,15.289 138.651,13.003 138.642,13.003 137.829,15.289 137.5,15.289 136.688,13.003 136.68,13.003 136.68,15.289 136.332,15.289 136.332,12.752 136.958,12.752 137.689,14.84 137.698,14.84 "
       transform="translate(-1,-1.66)"
       style="fill:#060807"
       id="polygon2" /><path
       d="m 97.03125,7.375 v 12.59375 h 8.15625 V 17.875 h -5.46875 v -10.5 z m 9.71875,0 v 2.25 h 2.78125 v -2.25 z m 16.125,0 v 12.59375 h 2.59375 v -4.75 l 0.0312,-0.03125 2.65625,4.78125 h 3.03125 L 128,14.9375 131,11.125 h -2.90625 L 125.5,14.78125 125.4688,14.75 V 7.375 h -2.59375 z m -5.59375,3.5625 c -1.327,0 -2.1435,0.54075 -2.6875,1.34375 l -0.0312,-0.0625 v -1 h -2.59375 v 8.75 h 2.59375 V 14.6875 c 0.035,-1.272 0.77475,-2 1.59375,-2 1.291,0 1.5465,1.057 1.5625,2 v 5.28125 h 2.625 v -5.6875 c 0,-0.296 -0.0485,-0.86525 -0.1875,-1.40625 -0.315,-1.274 -2.004,-1.9375 -2.875,-1.9375 z m -10.46875,0.28125 v 8.75 h 2.625 v -8.75 z"
       id="polygon3581"
       style="fill:#060807" /><path
       d="m 39.71875,7.125 c -3.627905,0.3057495 -4.8125,3.665625 -4.8125,6.5625 0,3.525 1.4695,6.53125 5.1875,6.53125 2.459,0 4.60925,-1.388 4.78125,-3.5 h -1.84375 c -0.208,1.343 -1.44025,2 -2.78125,2 -2.741,0 -3.53125,-2.43025 -3.53125,-5.03125 0,-2.218 0.5785,-5.0625 3.6875,-5.0625 1.291,0 2.6005,0.794 2.6875,2 h 1.8125 C 44.71825,8.375 42.926,7.194 40.5,7.125 c -0.263875,-0.00762 -0.53939,-0.020383 -0.78125,0 z m 28,1.6875 -1.65625,0.53125 v 1.875 h -1.5 v 1.1875 h 1.5 v 5.53125 c 0,1.172 0.077,1.207 0.375,1.625 0.277,0.387 0.738,0.53975 1,0.59375 0.4,0.068 0.69075,0.0625 1.09375,0.0625 0.381,0 0.743,-0.07375 1.125,-0.09375 v -1.28125 c -0.26,0.069 -0.58275,0.125 -0.84375,0.125 -0.594,0 -1.09375,-0.3115 -1.09375,-0.9375 v -5.625 H 69.75 v -1.1875 H 67.71875 Z M 50.25,10.9375 c -2.775,0 -4.0625,2.15275 -4.0625,4.71875 0,2.582 1.1285,4.5625 3.9375,4.5625 2.095,0 3.611,-0.97975 3.875,-2.96875 h -1.75 c -0.195,1.272 -0.833,1.78125 -2.125,1.78125 -1.691,0 -2.3085,-1.589 -2.1875,-3.125 h 6.1875 v -0.8125 c 0,-2.423 -1.257,-4.10425 -3.875,-4.15625 z m 9.875,0 c -0.872,0 -2.09625,0.4625 -2.65625,1.5625 H 57.4375 v -1.28125 h -1.625 v 8.75 h 1.65625 v -4.75 c 0,-1.709 0.4425,-2.10075 0.6875,-2.34375 0.698,-0.699 1.625,-0.65625 1.625,-0.65625 1.4,0 2,0.801 2,2.25 v 5.5 h 1.65625 v -6.0625 c 0,-2.808 -2.7015,-2.96875 -3.3125,-2.96875 z m 25.03125,0.15625 c -1.207,0 -2.3195,0.6095 -2.5625,1.8125 H 82.5625 v -1.6875 h -1.65625 v 8.75 H 82.5625 V 15.625 c 0,-1.851 0.37375,-2.96325 2.46875,-3.03125 0.227,0 0.4595,0.0068 0.6875,0.09375 V 11.125 c -0.189,0 -0.3535,-0.03125 -0.5625,-0.03125 z m -14,0.125 v 5.84375 c 0,1.763 1.043,3.15625 2.875,3.15625 1.221,0 2.336,-0.43525 3,-1.53125 h 0.03125 v 1.28125 h 1.625 v -8.75 h -1.65625 v 4.5 c 0,0.212 -0.03075,1.2445 -0.34375,2.0625 -0.352,0.908 -1.2575,1.25 -1.9375,1.25 -1.59,0 -1.9375,-1.104 -1.9375,-2.625 v -5.1875 z m 15.46875,0 3.65625,8.71875 -1.34375,3.375 H 90.625 L 95.78125,11.21875 H 94 l -2.78125,6.90625 -2.75,-6.90625 z m -36.5,0.9375 c 1.605,0 2.284,1.12475 2.25,2.59375 h -4.4375 c 0,-1.434 0.8085,-2.59375 2.1875,-2.59375 z"
       id="path3590"
       style="fill:#060807" /><path
       d="M 14.90625,0 V 9.0625 L 19.4375,1.21875 C 18.0355,0.56675 16.51325,0.143 14.90625,0 Z M 5.75,2.4375 C 4.465,3.3435 3.3435,4.466 2.4375,5.75 l 7.84375,4.53125 z m 15.8125,0 -4.5,7.84375 L 24.90625,5.75 C 23.99825,4.466 22.8485,3.3425 21.5625,2.4375 Z M 10.28125,17.03125 2.4375,21.5625 c 0.907,1.285 2.0275,2.43575 3.3125,3.34375 z m 6.75,0 4.53125,7.875 c 1.287,-0.908 2.43575,-2.05875 3.34375,-3.34375 z m -4.59375,1.25 -4.53125,7.84375 c 1.403,0.651 2.92625,1.07375 4.53125,1.21875 z"
       id="path3606"
       style="fill:#8dc643" /><path
       d="M 12.4375,0 C 10.8325,0.142 9.30925,0.56675 7.90625,1.21875 L 12.4375,9.0625 Z M 1.21875,7.90625 C 0.57175,9.30425 0.144,10.8315 0,12.4375 h 9.0625 z m 24.90625,0 -7.84375,4.53125 h 9.0625 C 27.19875,10.8315 26.772,9.30425 26.125,7.90625 Z m -26.125,7 c 0.146,1.609 0.57175,3.13525 1.21875,4.53125 L 9.0625,14.90625 Z m 18.28125,0 7.84375,4.53125 c 0.648,-1.396 1.07575,-2.92225 1.21875,-4.53125 z m -3.375,3.375 v 9.0625 c 1.606,-0.145 3.12825,-0.56675 4.53125,-1.21875 z"
       id="path3618"
       style="fill:#118745" /><polygon
       points="26.303,1.962 25.454,1.962 25.454,4.195 25.104,4.195 25.104,1.962 24.254,1.962 24.254,1.66 26.303,1.66 "
       transform="translate(-1,-1.66)"
       id="polygon3631"
       style="fill:#118745" /><polygon
       points="28.757,1.66 29.344,1.66 29.344,4.195 28.994,4.195 28.994,1.911 28.984,1.911 28.173,4.195 27.844,4.195 27.032,1.911 27.024,1.911 27.024,4.195 26.672,4.195 26.672,1.66 27.302,1.66 28.032,3.749 28.04,3.749 "
       transform="translate(-1,-1.66)"
       id="polygon3633"
       style="fill:#118745" /></g></svg>
