<svg id="uuid-6b42451c-762d-46b9-a219-46908317d6b5" data-name="C1" xmlns="http://www.w3.org/2000/svg" width="1920" height="773" viewBox="0 0 1920 773">
  <defs>
    <style>
      .uuid-9f3267a5-9019-49bc-8d2d-1327c2c1ce81 {
        fill: #be4b96;
      }

      .uuid-1c862b6b-3950-43a0-8c90-16ed16a08ad1 {
        fill: none;
      }

      .uuid-f65d02e9-6be9-4bf7-af0b-ddaeca4704d8 {
        fill: #283371;
      }
    </style>
  </defs>
  <rect class="uuid-1c862b6b-3950-43a0-8c90-16ed16a08ad1" width="1920" height="773"/>
  <path class="uuid-9f3267a5-9019-49bc-8d2d-1327c2c1ce81" d="M1412.27,222.12c-24.45-20.14-57.45-28.63-100.39-31.73,43.95-58.71,100.83-104.25,186.77-136.49l45.67,86.39c-58.65,21.34-100.07,47.12-132.11,81.83h.07ZM1270.08,256.57c-19.94,36.86-37.74,77.58-55.85,122.17-15.01,33.19-34.58,76.13-53.52,110.96-29.83,67.01-86.64,111.91-176.19,144.47l45.85,86.7c162.45-60.93,221.29-169.29,284.43-324.84,13.8-30.4,32.11-69.98,48.95-102.35-1.58-5.45-3.54-10.01-6.07-13.55-11.15-15.52-31.8-23.05-87.66-23.56h.06Z"/>
  <path class="uuid-f65d02e9-6be9-4bf7-af0b-ddaeca4704d8" d="M982.55,193.49h-86.45v388.56h86.45V193.49Z"/>
  <path class="uuid-f65d02e9-6be9-4bf7-af0b-ddaeca4704d8" d="M504.18,193.49h-86.45v388.56h86.45V193.49Z"/>
  <path class="uuid-f65d02e9-6be9-4bf7-af0b-ddaeca4704d8" d="M1885.95,243.21c-32.5-40.79-97.41-49.15-176.45-49.15-94.49,0-168.34,29.89-169.1,30.21v357.84h92.02v-304c0-5,3.42-9.37,8.3-10.51,16.84-3.93,38.25-5.83,68.84-5.83,60.86,0,88.92,7.54,100.51,23.62,11.91,16.59,11.91,54.72,11.91,107.41v189.24h92.02v-189.24c0-66.5,0-114.51-27.99-149.66"/>
  <path class="uuid-f65d02e9-6be9-4bf7-af0b-ddaeca4704d8" d="M210.44,518.27c-60.86,0-94.56-7.54-106.15-23.62-11.91-16.59-11.91-54.72-11.91-107.41s0-90.82,11.91-107.41c11.59-16.15,45.54-23.62,106.15-23.62l109.06,1.84v-61.94c-22.74-3.93-76.32-7.6-109.06-7.6-78.98,0-143.96,8.36-176.45,49.15-27.99,35.02-27.99,83.09-27.99,149.53s0,114.51,27.99,149.66c32.49,40.79,97.41,49.15,176.45,49.15,36.23,0,83.22-1.84,111.97-7.6v-61.94l-111.97,1.84Z"/>
  <path class="uuid-f65d02e9-6be9-4bf7-af0b-ddaeca4704d8" d="M210.44,518.27c-60.86,0-94.56-7.54-106.15-23.62-11.91-16.59-11.91-54.72-11.91-107.41s0-90.82,11.91-107.41c11.59-16.15,45.54-23.62,106.15-23.62l109.06,1.84v-61.94c-22.74-3.93-76.32-7.6-109.06-7.6-78.98,0-143.96,8.36-176.45,49.15-27.99,35.02-27.99,83.09-27.99,149.53s0,114.51,27.99,149.66c32.49,40.79,97.41,49.15,176.45,49.15,36.23,0,83.22-1.84,111.97-7.6v-61.94l-111.97,1.84Z"/>
  <path class="uuid-f65d02e9-6be9-4bf7-af0b-ddaeca4704d8" d="M939.29,144.47c18.37,0,32.18-1.96,39.71-11.4,6.53-8.17,6.53-19.32,6.53-34.77s0-26.6-6.53-34.77c-7.54-9.5-21.34-11.4-39.71-11.4s-32.18,1.96-39.71,11.4c-6.52,8.17-6.52,19.32-6.52,34.77s0,26.6,6.52,34.77c7.54,9.5,21.35,11.4,39.71,11.4Z"/>
  <path class="uuid-f65d02e9-6be9-4bf7-af0b-ddaeca4704d8" d="M460.86,144.47c18.37,0,32.17-1.96,39.71-11.4,6.52-8.17,6.52-19.32,6.52-34.77s0-26.6-6.52-34.77c-7.54-9.5-21.34-11.4-39.71-11.4s-32.17,1.96-39.71,11.4c-6.52,8.17-6.52,19.32-6.52,34.77s0,26.6,6.52,34.77c7.54,9.5,21.34,11.4,39.71,11.4Z"/>
  <path class="uuid-f65d02e9-6be9-4bf7-af0b-ddaeca4704d8" d="M828.01,196.66c-18.3-5.32-81.39-7.6-83.73-7.6-60.67,0-110.52,8.36-135.47,49.15-20.01,32.74-21.41,76.7-21.47,136.3v207.61h80.69v-194.88c0-52.76,0-90.82,11.91-107.41,9.69-13.49,34.77-22.99,78.54-22.99s69.6,1.71,69.6,1.71v-61.81h-.06v-.06Z"/>
  <path class="uuid-f65d02e9-6be9-4bf7-af0b-ddaeca4704d8" d="M939.29,144.47c18.37,0,32.18-1.96,39.71-11.4,6.53-8.17,6.53-19.32,6.53-34.77s0-26.6-6.53-34.77c-7.54-9.5-21.34-11.4-39.71-11.4s-32.18,1.96-39.71,11.4c-6.52,8.17-6.52,19.32-6.52,34.77s0,26.6,6.52,34.77c7.54,9.5,21.35,11.4,39.71,11.4Z"/>
  <path class="uuid-f65d02e9-6be9-4bf7-af0b-ddaeca4704d8" d="M1427.92,238.01c-32.43-40.72-85.44-49.08-164.29-49.08s-131.86,8.36-164.29,49.08c-27.93,35.09-27.93,83.03-27.93,149.41s0,114.32,27.93,149.41c5.38,6.78,11.34,12.6,17.92,17.67,18.24-19,32.67-40.41,43.57-64.79,1.14-2.03,2.21-4.12,3.35-6.27-6.52-19.76-6.52-53.01-6.52-96.08,0-52.63,0-90.69,11.91-107.29,11.52-16.09,33.38-23.56,94.11-23.56s82.59,7.47,94.12,23.62c11.9,16.59,11.9,54.66,11.9,107.29s0,90.69-11.9,107.29c-11.53,16.09-33.38,23.62-94.12,23.62h-4.62c-12.86,23.69-26.6,45.79-41.93,66.31,14.38.95,29.84,1.33,46.49,1.33,78.91,0,131.86-8.36,164.29-49.08,27.93-35.09,27.93-83.03,27.93-149.41s0-114.32-27.93-149.41v-.06Z"/>
</svg>