<?xml version="1.0" encoding="UTF-8" standalone="no"?>
<svg
   id="uuid-d837f90e-3a4b-44c2-81ee-d7b8ed5bc69b"
   data-name="Capa 1"
   width="1920"
   height="773"
   viewBox="0 0 1920 773"
   version="1.1"
   xml:space="preserve"
   xmlns="http://www.w3.org/2000/svg"
   xmlns:svg="http://www.w3.org/2000/svg"><defs
     id="defs1"><style
       id="style1">
      .uuid-c90f1ad1-f831-4e7c-956b-467930e03b8f {
        fill: none;
      }

      .uuid-04a06d85-28dc-4ddd-a18a-468519060675 {
        fill: #e2111a;
      }
    </style></defs><rect
     class="uuid-c90f1ad1-f831-4e7c-956b-467930e03b8f"
     width="1920"
     height="773"
     id="rect1"
     x="0"
     y="0" /><style
     type="text/css"
     id="style1-0">
	.st0{fill:#F04E23;}
</style><path
     d="m 401.21005,203.90879 c 15.61679,-2.43419 32.94068,-2.78193 46.81874,6.03808 20.04266,11.91809 31.4865,33.50972 39.38977,54.6904 22.22386,61.07623 24.34196,127.8744 15.01614,191.70093 -2.08642,16.34388 -8.34586,34.80584 -24.37362,42.2349 -9.48385,3.19291 -21.62324,2.33937 -28.19867,-6.0697 -10.62199,-12.83485 -7.27103,-30.5381 -6.38585,-45.80715 3.44576,-24.12068 4.77353,-48.5891 3.66705,-72.89945 -0.0948,-11.09616 -3.82513,-23.10908 -13.34062,-29.65295 -8.0297,-6.06969 -19.63164,-4.90001 -27.59811,0.66386 -13.49871,8.7568 -22.35034,22.85616 -29.58972,36.89232 -17.76648,36.57618 -27.59811,76.25042 -40.84394,114.5337 -6.6387,17.7981 -17.35551,34.74263 -33.2568,45.58589 -19.06262,13.43551 -43.27814,16.97615 -66.10269,16.15421 -29.14715,-1.39095 -55.3859,-19.69486 -70.68657,-43.91039 -19.06261,-30.82263 -36.03877,-62.90977 -54.65879,-93.9853 -5.91162,-9.0413 -13.878074,-20.61163 -26.207134,-19.28388 -12.961302,1.20128 -17.861308,15.71162 -17.450364,26.90261 0.916802,38.3465 19.473584,73.27881 26.080694,110.6137 2.30775,11.50711 -0.98001,25.95425 -12.581946,31.17037 -7.081316,0.98001 -14.510347,1.86516 -21.528429,0.0317 -10.305808,-3.92 -15.648404,-14.57357 -20.263909,-23.83617 C 23.024304,507.10859 13.002997,466.16982 7.8500805,424.78846 c 0.727098,-21.21228 -1.264508,-42.70908 3.2245235,-63.63685 6.132923,-34.14198 15.521968,-70.2756 40.843942,-95.50273 21.812929,-22.09745 59.369124,-28.67294 85.829164,-11.2542 25.66972,17.79808 41.53942,45.4278 58.38911,70.97105 12.36068,19.66327 23.8994,42.80396 46.59748,52.25621 15.64844,7.61873 35.72265,2.94002 47.22976,-9.86322 8.25097,-8.50389 12.32906,-19.85294 16.69165,-30.63296 9.26259,-23.20391 18.49357,-46.37619 28.64133,-69.20074 11.53873,-29.24198 34.26843,-56.42912 65.91301,-64.01624 z m 1135.09475,73.62657 c 11.8232,-0.91677 23.7095,-0.37935 35.5328,0.0317 0.8851,11.88647 -0.727,23.86776 1.0749,35.69102 12.1076,-0.41097 24.2787,-0.75871 36.3864,0.1898 0.3161,10.5271 1.4542,21.18065 -0.7902,31.58132 -12.0762,-0.22127 -24.1206,-0.15809 -36.1654,0.0632 -0.5689,25.41684 -0.1254,50.89687 -0.2844,76.31368 0.1254,10.78002 -0.031,23.17228 8.1877,31.32843 8.1563,7.80841 20.422,6.60711 30.8542,7.5555 1.4859,10.90646 1.6123,22.03422 -0.4109,32.87745 -19.8213,0.22127 -41.6341,-0.15808 -57.8201,-13.24583 -14.5419,-11.57035 -18.6833,-31.07552 -19.1573,-48.74716 -0.2847,-47.41943 0.1893,-94.87046 -0.1893,-142.28989 0.8218,-3.47741 -1.9286,-10.11613 2.7818,-11.34905 z M 640.86781,326.7251 c 17.92457,-16.09099 43.46785,-18.0826 66.45045,-17.22906 18.71481,-0.0632 37.49296,5.08968 52.25614,16.7865 16.53361,-17.16586 42.17174,-17.22907 64.30075,-16.7865 20.2007,0 41.79235,6.00648 55.41754,21.74972 10.05296,11.79164 11.91809,27.91423 12.23424,42.83554 0.12636,31.51811 0,63.03623 0.0635,94.58596 -0.0635,8.18774 0.88511,16.59679 -1.70709,24.50003 -11.76006,-0.50582 -23.52012,0.53742 -35.21684,-0.60065 l -1.23292,-1.77033 c -1.26451,-41.06522 1.13807,-82.25687 -1.32776,-123.29049 0.22129,-13.18261 -11.98128,-22.85617 -24.37355,-23.74133 -14.13104,-0.88515 -30.56973,-2.59225 -42.10849,7.42903 -8.59867,7.08132 -7.58713,19.18908 -8.12449,29.21039 -0.37941,32.62456 -0.2213,65.28072 -0.12645,97.90528 -0.79032,4.58388 1.48581,11.12776 -2.46575,14.47875 -11.98136,0.41097 -24.12066,0.85354 -36.07042,-0.53742 0,-41.63427 0.98003,-83.26852 -1.01155,-124.87115 -0.0635,-14.03616 -14.06778,-23.45682 -27.06075,-23.83618 -11.91809,-0.60064 -24.87932,-1.54903 -35.62776,4.5839 -6.95483,3.85676 -11.15936,11.50711 -11.34906,19.37873 -2.71872,41.79233 -0.15811,83.71108 -1.73869,125.535 -12.10779,0 -24.21551,-0.0949 -36.29172,0.0949 a 74.353659,74.353659 0 0 1 -1.51739,-17.73486 c 0.411,-34.86909 -0.31615,-69.73816 0.34774,-104.57565 0.18978,-15.90129 3.7936,-33.16198 16.28065,-44.10006 z M 971.1283,313.09992 c 27.81946,-5.50064 58.6737,-6.6387 84.8176,6.03807 24.5949,12.61359 30.791,42.64587 31.8026,67.87302 0.3793,27.69294 2.0548,57.97813 -13.1193,82.47817 -14.0995,22.09745 -42.8356,27.18714 -67.1144,26.61811 -23.26704,0.63227 -49.72713,-2.68711 -66.03945,-21.08584 -17.64001,-22.00263 -17.48198,-52.09814 -17.51357,-78.87431 0.69548,-21.90778 2.65546,-45.87039 16.4071,-63.92138 7.58712,-9.76839 18.99937,-15.8697 30.75942,-19.12584 m 15.83806,31.39167 c -11.00132,2.33936 -19.06255,11.98132 -21.21224,22.72972 a 214.28839,214.28839 0 0 0 -0.12636,70.46526 c 2.18128,9.16774 7.39742,18.74646 16.88127,21.84454 14.16263,4.67871 29.77947,4.42582 44.19497,0.94839 10.4955,-2.1497 17.1658,-11.88647 19.5684,-21.71811 4.2994,-23.89937 4.1097,-48.46264 -0.031,-72.36203 -2.8135,-11.03292 -11.5387,-20.73809 -23.2039,-22.35036 -11.9497,-1.42258 -24.21554,-1.64387 -36.07044,0.44259 z M 1397.4606,318.4109 c 25.8911,-12.92969 56.3027,-9.45227 83.9322,-5.31098 3.5724,1.39097 10.7169,0.12637 11.4124,5.27936 0.4426,8.69356 0.3477,17.45036 0.1586,26.17554 -1.1064,0.44256 -3.3193,1.35934 -4.4259,1.80193 -20.011,-3.47741 -40.5911,-7.0497 -60.8865,-3.82518 -7.9664,1.35937 -18.1142,6.13293 -17.9878,15.55359 -1.8019,8.02967 5.1846,13.62519 11.5071,16.72324 22.2556,10.21098 47.4826,14.95293 67.1459,30.2536 16.4704,12.55033 18.1142,36.10197 12.8666,54.62716 -8.3143,23.52004 -34.0156,34.67941 -57.3458,35.94395 -22.1924,1.0116 -45.4913,0.41094 -66.2292,-8.18777 -3.9516,-9.73678 -1.4543,-21.18068 -1.1066,-31.54973 25.1641,6.06969 52.193,12.70842 77.6416,4.45744 13.0244,-3.44582 17.7979,-22.38198 6.5122,-30.5381 -22.5718,-13.84649 -50.6756,-16.5336 -72.1725,-32.43489 -24.8159,-20.011 -19.3471,-64.71171 8.9781,-78.96916 z m 257.0448,1.92839 c -1.138,-4.58388 3.8885,-7.23937 7.6503,-7.42905 26.0175,-3.50902 52.7622,-5.65872 78.6532,0.0317 16.5651,4.20454 32.7824,14.35229 39.9271,30.4749 9.0413,19.50517 5.5954,41.47619 6.2594,62.24589 -0.4427,20.48518 2.3076,42.29811 -6.7969,61.42395 -8.7884,18.33552 -30.0954,25.95423 -48.9684,28.38842 -23.5517,1.45422 -48.8105,1.73872 -70.0226,-10.08451 -34.9008,-19.53682 -33.5415,-78.96914 2.118,-97.02013 26.3019,-13.8781 57.1246,-9.35744 85.3865,-6.13292 0.7587,-13.27745 -1.3593,-29.84264 -15.1742,-35.81747 -25.3851,-9.83164 -52.7619,-1.61228 -78.9375,-1.83355 -0.064,-8.09294 -0.3794,-16.18584 -0.095,-24.24714 m 25.5748,133.46986 c 10.5588,11.4439 27.5982,10.59034 41.8556,10.08454 9.6419,-0.34773 20.7696,-4.39421 24.6581,-14.00454 3.2878,-11.50712 1.6438,-23.67809 2.1812,-35.50132 -17.9878,-4.67874 -37.2715,-5.81681 -55.5438,-2.24452 -18.209,3.31935 -25.3221,28.42001 -13.1511,41.66584 z M 1834.3834,327.9265 c 20.011,-20.16906 50.9283,-19.66326 77.2937,-17.7981 0.7587,10.6852 0.5374,21.40198 -0.1893,32.08715 -14.5736,2.49742 -31.5183,-2.90838 -44.1317,6.76517 -7.7769,5.65872 -8.5988,16.12261 -8.8518,24.911 -0.727,39.45296 0,78.93752 -0.3793,118.39049 -12.3607,1.61227 -24.8162,0.28452 -37.2083,0.98001 -3.0349,-32.11877 -0.4743,-64.61686 -1.328,-96.89369 0.6007,-23.17229 -3.0663,-50.35943 14.795,-68.44203 z m -725.612,-14.60519 c 13.3407,-0.22127 26.9026,-1.7071 40.0852,0.98 3.1929,48.90525 17.0394,96.98854 38.6626,140.8673 3.6988,-4.77356 6.0065,-10.40066 8.251,-15.96453 16.9446,-39.57941 28.673,-81.81431 31.0123,-124.966 13.1194,-2.52902 26.5865,-1.2329 39.8639,-0.82192 -1.7703,62.21428 -27.8826,120.47694 -55.8917,174.97766 -1.96,5.88002 -8.8832,4.39421 -13.5619,4.71033 -9.8,-0.31612 -19.6633,0.66388 -29.3684,-0.66386 l -3.1613,-3.92002 c -29.2737,-54.05814 -54.2162,-112.8266 -55.8917,-175.19896 z m 189.5196,0.15809 c 12.6452,-0.9484 25.3852,-0.82193 38.062,-0.12638 0.5374,59.40073 0.8851,118.92793 -0.1264,178.29704 -11.6968,3.38258 -24.8794,0.31612 -37.1136,1.4858 -0.6639,-59.84329 -1.6439,-119.78146 -0.8219,-179.65637 z"
     fill="#00abe1"
     id="path1-5"
     style="stroke-width:3.16129" /></svg>
