<svg
   id="uuid-d837f90e-3a4b-44c2-81ee-d7b8ed5bc69b"
   data-name="C1"
   width="1920"
   height="773"
   viewBox="0 0 1920 773"
   version="1.1"
   xml:space="preserve"
   xmlns="http://www.w3.org/2000/svg"
   xmlns:svg="http://www.w3.org/2000/svg"><defs
     id="defs1"><style
       id="style1">
      .uuid-c90f1ad1-f831-4e7c-956b-467930e03b8f {
        fill: none;
      }

      .uuid-04a06d85-28dc-4ddd-a18a-468519060675 {
        fill: #e2111a;
      }
    </style></defs><rect
     class="uuid-c90f1ad1-f831-4e7c-956b-467930e03b8f"
     width="1920"
     height="773"
     id="rect1"
     x="0"
     y="0" /><style
     type="text/css"
     id="style1-0">
	.st0{fill:#F04E23;}
</style><path
     style="fill:#ea184b;stroke:none;stroke-width:1.0871"
     d="m 92.474981,164.01238 c -6.11842,0.87657 -12.15185,2.35828 -17.70468,5.1347 -33.36522,16.68262 -29.77606,52.91301 -29.77606,84.6536 v 196.361 c 0,32.74759 -2.16469,66.32222 0.0721,98.98526 0.71488,10.43927 1.0359,21.70991 5.4818,31.38557 9.11523,19.83771 33.57929,31.27982 54.803039,28.74153 6.1232,-0.73226 12.08375,-1.78787 17.70468,-4.42303 35.02487,-16.42004 32.19033,-54.12102 32.19033,-87.08963 V 320.59562 c 0,-37.20131 2.71086,-75.72734 -1.8399,-112.66615 -3.61327,-29.32918 -32.25264,-48.02571 -60.931239,-43.91709 M 773.30044,512.12807 v -250.2798 c 0,-32.36873 5.40904,-73.9963 -28.16653,-91.83125 -32.39943,-17.2102 -74.99159,1.0425 -80.92786,37.91245 -4.21549,26.18224 -1.96223,54.00809 -1.96223,80.47582 v 138.41841 82.8901 c 0,17.79152 -1.23548,36.52376 3.1346,53.91879 7.92336,31.53882 37.00792,36.65291 64.46509,37.85532 59.88238,2.62239 120.28187,0.77308 180.26584,0.77308 25.24731,0 59.76331,4.31595 75.29141,-20.11895 14.65994,-23.06862 6.1139,-60.52913 -22.9822,-67.25508 -22.0564,-5.0986 -46.70057,-2.75889 -69.20914,-2.75889 H 773.30041 m 370.18889,5.63331 h 161.7564 c 1.1779,7.97586 4.9684,15.70998 7.5111,23.33799 6.2358,18.70738 12.399,42.12396 27.2301,55.97972 26.4304,24.69218 70.844,11.08275 85.3434,-19.76561 7.3634,-15.6662 3.4428,-33.41888 -1.7852,-49.09025 -8.6029,-25.78831 -19.2035,-51.20942 -29.2929,-76.45202 -22.9579,-57.43809 -44.4935,-115.45112 -67.1148,-173.02302 -11.0478,-28.11669 -19.9979,-60.44749 -37.5355,-85.30437 -24.7901,-35.13602 -78.3555,-37.55751 -112.3127,-15.53257 -27.5829,17.8904 -38.8019,61.07056 -49.6387,90.37508 -25.6895,69.46826 -53.2899,138.22808 -79.1631,207.62762 -10.6262,28.5028 -32.5832,65.2979 -23.7577,96.57099 9.0775,32.16616 54.7664,49.67569 81.7407,27.79024 16.6101,-13.47651 22.2165,-35.69243 28.703,-55.15203 2.9466,-8.8399 6.9528,-18.13225 8.3159,-27.36177 m 457.9074,-172.21826 h 0.8048 c 7.0406,14.88395 18.0803,28.85852 27.0847,42.65219 17.2581,26.43741 34.5629,52.91236 51.3183,79.67106 19.5307,31.19116 39.8728,61.93121 60.2835,92.54719 10.6884,16.03249 21.7941,35.49695 39.9697,44.00152 35.7784,16.74117 82.9436,-5.64602 91.401,-44.00152 6.145,-27.86799 2.7557,-59.30288 2.7557,-87.71864 V 313.35279 240.92456 c 0,-15.00396 1.0591,-32.22918 -3.6374,-46.67598 -12.7062,-39.08442 -72.0153,-39.5586 -92.0759,-7.24283 -7.9073,12.73796 -6.7,28.31719 -7.3274,42.65219 -1.1945,27.29861 -0.773,54.721 -0.773,82.08534 v 119.90897 c -29.0169,-43.85176 -57.1716,-88.38642 -85.3473,-132.78511 -19.6393,-30.94752 -38.8034,-62.62609 -59.9725,-92.54718 -9.0203,-12.74961 -18.4342,-28.62271 -32.5318,-36.29424 -35.6923,-19.4228 -85.0537,3.28544 -92.9905,42.7323 -5.5356,27.51238 -2.7757,58.12698 -2.7757,86.10912 v 148.88027 75.64728 c 0,16.411 -0.9082,34.82322 3.799,50.69976 11.9102,40.17077 69.9657,48.48924 92.3963,12.07138 8.0727,-13.1067 7.6185,-30.97151 7.6185,-45.87122 V 463.84258 345.54312 M 355.63091,440.50459 c 44.36809,0 90.56905,3.55309 134.39462,-4.36531 32.847,-5.9348 63.06673,-23.92776 81.66994,-51.96777 32.52164,-49.01877 30.11866,-133.63907 -12.47252,-176.23025 -48.16309,-48.16309 -127.69559,-37.03067 -189.91115,-37.03067 -37.39459,0 -92.67201,-10.73363 -116.12797,25.75226 -11.82572,18.39495 -8.60956,45.04824 -8.60956,65.99018 v 137.61365 c 0,46.71326 -2.45654,94.26148 0.73273,140.83269 1.46536,21.3979 0.37944,41.95656 19.38624,56.41441 27.31796,20.77989 72.13278,13.53 85.74461,-20.2003 5.3803,-13.33239 3.80595,-28.62952 4.41998,-42.65217 1.37075,-31.30473 0.77308,-62.78186 0.77308,-94.15672 m 0,-80.47582 V 251.38641 c 19.07631,0 38.11801,0.32708 57.13784,0.79297 13.94224,0.34152 29.89241,0.55926 42.65218,6.93917 35.4074,17.7037 34.62243,72.11904 1.60951,91.69278 -10.93099,6.48109 -24.63575,7.61676 -37.01887,8.48469 -21.34987,1.49639 -42.95446,0.73275 -64.38066,0.73275 m 869.13889,-82.08534 16.3635,49.89501 35.9458,107.03285 h -104.6185 l 10.9983,-34.60461 21.9968,-65.99018 12.3396,-37.01887 z"
     id="path1" /></svg>
