<svg id="uuid-58b323b6-c741-49d3-ab96-ba7bec0f9c43" data-name="C1" xmlns="http://www.w3.org/2000/svg" width="1920" height="773" xmlns:xlink="http://www.w3.org/1999/xlink" viewBox="0 0 1920 773">
  <defs>
    <style>
      .uuid-bc040e12-b28c-4430-84d4-aed4d61e3202 {
        clip-path: url(#uuid-3769a275-e781-4fd7-bf8e-f5d9aa7b4988);
      }

      .uuid-5650052e-529f-4721-ae29-129be30a4726 {
        clip-path: url(#uuid-b228bd43-9ece-4612-b0e1-e8ccb4f88893);
      }

      .uuid-87181194-82d5-4355-84d4-d62d85c5e739 {
        fill: none;
      }

      .uuid-1f480018-fbcc-4f52-9cb7-2ff5727f17fa {
        clip-path: url(#uuid-27b18f30-2bda-4683-8e8f-e7533873b21f);
      }

      .uuid-fa403684-b717-49f4-957b-86a2cd09cee6 {
        fill: #0c9dd9;
      }

      .uuid-f24326f9-a72c-4f14-adcd-3f89d0f35288 {
        clip-path: url(#uuid-29a6a474-42b9-474e-aef4-e7ba46ab04ab);
      }

      .uuid-be34b975-d138-4d9e-a0da-e0caa9b36146 {
        clip-path: url(#uuid-38d05b9a-4766-4285-9836-c5b3e1fb8f8a);
      }

      .uuid-e65ab259-1203-481e-84b6-b999f23d1266 {
        fill: #010101;
      }

      .uuid-9bed7f0e-6ade-4f94-a48d-7f39812f5df8 {
        clip-path: url(#uuid-f03b0299-0e29-4753-9f26-854849cd09e0);
      }
    </style>
    <clipPath id="uuid-b228bd43-9ece-4612-b0e1-e8ccb4f88893">
      <rect class="uuid-87181194-82d5-4355-84d4-d62d85c5e739" x="4.19" y="248.8" width="1911.62" height="275.4"/>
    </clipPath>
    <clipPath id="uuid-3769a275-e781-4fd7-bf8e-f5d9aa7b4988">
      <rect class="uuid-87181194-82d5-4355-84d4-d62d85c5e739" x="4.19" y="248.8" width="1911.62" height="275.4"/>
    </clipPath>
    <clipPath id="uuid-29a6a474-42b9-474e-aef4-e7ba46ab04ab">
      <rect class="uuid-87181194-82d5-4355-84d4-d62d85c5e739" x="4.19" y="248.8" width="1911.62" height="275.4"/>
    </clipPath>
    <clipPath id="uuid-f03b0299-0e29-4753-9f26-854849cd09e0">
      <rect class="uuid-87181194-82d5-4355-84d4-d62d85c5e739" x="4.19" y="248.8" width="1911.62" height="275.4"/>
    </clipPath>
    <clipPath id="uuid-38d05b9a-4766-4285-9836-c5b3e1fb8f8a">
      <rect class="uuid-87181194-82d5-4355-84d4-d62d85c5e739" x="4.19" y="248.8" width="1911.62" height="275.4"/>
    </clipPath>
    <clipPath id="uuid-27b18f30-2bda-4683-8e8f-e7533873b21f">
      <rect class="uuid-87181194-82d5-4355-84d4-d62d85c5e739" x="4.19" y="248.8" width="1911.62" height="275.4"/>
    </clipPath>
  </defs>
  <rect class="uuid-87181194-82d5-4355-84d4-d62d85c5e739" width="1920" height="773"/>
  <g>
    <g class="uuid-5650052e-529f-4721-ae29-129be30a4726">
      <path class="uuid-e65ab259-1203-481e-84b6-b999f23d1266" d="M4.19,269.05v228.83c0,14.18,8.1,20.25,23.29,20.25h215.66c15.19,0,23.29-6.08,23.29-20.25,0-13.16-9.11-20.25-23.29-20.25H57.85c-7.09,0-10.13-3.04-10.13-10.13v-198.45c0-11.14-9.11-20.25-22.28-20.25-12.15,0-21.26,9.11-21.26,20.25"/>
    </g>
    <g class="uuid-bc040e12-b28c-4430-84d4-aed4d61e3202">
      <path class="uuid-e65ab259-1203-481e-84b6-b999f23d1266" d="M375.78,417.89v-148.84c0-11.14-9.11-20.25-22.28-20.25s-22.28,9.11-22.28,20.25v152.89c0,92.14,57.71,103.28,156.94,103.28s156.94-10.13,156.94-103.28v-152.89c0-11.14-9.11-20.25-22.28-20.25s-22.28,9.11-22.28,20.25v148.84c0,74.93-40.5,64.8-113.4,64.8s-111.38,9.11-111.38-64.8"/>
    </g>
    <g class="uuid-f24326f9-a72c-4f14-adcd-3f89d0f35288">
      <path class="uuid-e65ab259-1203-481e-84b6-b999f23d1266" d="M1071.38,316.64v185.29c0,12.15,9.11,20.25,22.28,20.25s22.28-8.1,22.28-20.25v-222.75c0-16.2-12.15-30.38-27.34-30.38s-21.26,8.1-36.45,22.28l-111.38,110.36h-1.01l-111.38-109.35c-14.18-15.19-25.31-22.28-37.46-22.28-13.16,0-28.35,13.16-28.35,30.38v222.75c0,12.15,9.11,20.25,22.28,20.25s22.28-8.1,22.28-20.25v-187.31h2.02l106.31,101.25c9.11,9.11,17.21,16.2,24.3,16.2,10.13,0,14.18-8.1,25.31-16.2l105.3-100.24s1.01,0,1.01,0Z"/>
    </g>
    <g class="uuid-9bed7f0e-6ade-4f94-a48d-7f39812f5df8">
      <path class="uuid-fa403684-b717-49f4-957b-86a2cd09cee6" d="M1498.66,273.1c0-13.16-8.1-20.25-23.29-20.25h-218.7c-15.19,0-23.29,7.09-23.29,20.25v20.25h243c14.18-1.01,22.28-8.1,22.28-20.25"/>
    </g>
    <g class="uuid-be34b975-d138-4d9e-a0da-e0caa9b36146">
      <path class="uuid-e65ab259-1203-481e-84b6-b999f23d1266" d="M1232.37,366.25v131.63c0,14.18,8.1,20.25,23.29,20.25h220.73c15.19,0,23.29-6.08,23.29-20.25,0-13.16-8.1-20.25-23.29-20.25h-190.35c-7.09,0-10.13-3.04-10.13-10.13v-60.75h143.78c15.19,0,23.29-7.09,23.29-20.25,0-12.15-8.1-20.25-23.29-20.25h-187.31Z"/>
    </g>
    <g class="uuid-1f480018-fbcc-4f52-9cb7-2ff5727f17fa">
      <path class="uuid-e65ab259-1203-481e-84b6-b999f23d1266" d="M1915.81,495.85v-226.8c0-11.14-9.11-20.25-22.28-20.25s-22.28,9.11-22.28,20.25v183.26l-215.66-181.24c-15.19-12.15-23.29-22.28-37.46-22.28-15.19,0-26.33,10.13-26.33,30.38v222.75c0,11.14,9.11,20.25,22.28,20.25s22.28-9.11,22.28-20.25v-188.33l213.64,184.28c14.18,12.15,24.3,23.29,39.49,23.29s26.33-11.14,26.33-25.31"/>
    </g>
  </g>
</svg>