<svg
   id="uuid-19907d1f-9315-477d-b7ba-91ae3e2acc9a"
   data-name="C1"
   viewBox="0 0 256 256"
   version="1.1"
   sodipodi:docname="logo-asterisk-1.svg"
   xml:space="preserve"
   width="256"
   height="256"
   xmlns:inkscape="http://www.inkscape.org/namespaces/inkscape"
   xmlns:sodipodi="http://sodipodi.sourceforge.net/DTD/sodipodi-0.dtd"
   xmlns="http://www.w3.org/2000/svg"
   xmlns:svg="http://www.w3.org/2000/svg"><sodipodi:namedview
     id="namedview7"
     pagecolor="#ffffff"
     bordercolor="#000000"
     borderopacity="0.25"
     inkscape:showpageshadow="2"
     inkscape:pageopacity="0.0"
     inkscape:pagecheckerboard="0"
     inkscape:deskcolor="#d1d1d1"><inkscape:page
       x="0"
       y="0"
       width="256"
       height="256"
       id="page2"
       margin="0"
       bleed="0" /></sodipodi:namedview><defs
     id="defs2"><style
       id="style1">
      .uuid-153302a6-b94e-4ad0-9cfb-43725c5c5610 {
        fill: url(#uuid-af07a271-8980-47e6-b92b-41550c7dc68a);
      }

      .uuid-27fce091-ee3a-4889-9199-28416b94f462 {
        fill: url(#uuid-dc53e15d-e646-4f9b-aab3-d9d8fec05b0e);
      }

      .uuid-5da2c4a3-8db1-41d9-92d6-1ab0c264b0da {
        fill: none;
      }

      .uuid-ed4306aa-b6e6-45eb-bfe3-e4f85f33ea76 {
        fill: url(#uuid-afdc0b81-5c65-49b4-9e34-1cf3c2f4f8f7);
      }

      .uuid-03bde706-b35e-416f-8ae5-693e38f68253 {
        fill: url(#uuid-8e0b3ff5-2b0d-4ede-9e3a-d9af7f50b81e);
      }

      .uuid-aed79b63-67fc-4862-91f2-2516d39da3fa {
        fill: url(#uuid-5be9ed93-6987-4def-8687-537049e4e1cf);
      }

      .uuid-7fb198ab-10f1-4f2d-9a38-66668a795b4d {
        fill: url(#uuid-ebe94990-143f-470c-b744-73e231e6133d);
      }
    </style></defs><rect
     class="uuid-5da2c4a3-8db1-41d9-92d6-1ab0c264b0da"
     width="256"
     height="256"
     id="rect2"
     x="0"
     y="0" /><g
     id="g7"
     transform="matrix(0.90753114,0,0,0.90753114,-82.772923,11.73623)"><path
       style="font-weight:bold;fill:#f68f1e;fill-opacity:1"
       d="m 262,25 c -16.00563,-0.05759 -27.49964,1.596579 -40.40625,5.8125 -4.34442,1.41909 -11.29165,4.146999 -15.4375,6.0625 -4.14585,1.91551 -11.83402,6.336252 -17.09375,9.84375 -5.25973,3.50749 -13.25922,9.60996 -17.78125,13.53125 -4.52202,3.92128 -11.42252,10.821733 -15.34375,15.34375 -3.92124,4.52202 -9.4405,11.69857 -12.25,15.9375 -2.80949,4.23892 -5.26863,7.543873 -5.46875,7.34375 -0.82779,-0.82779 6.861,-15.657102 12.21875,-23.5625 l 5.75,-8.5 -6.1875,6 c -3.39897,3.3 -9.44729,10.346886 -13.46875,15.65625 -4.02148,5.30936 -9.37543,13.40936 -11.875,18 -2.49958,4.59064 -6.0344,12.61875 -7.84375,17.84375 l -3.28125,9.5 v 17 17 l 2.71875,8 c 1.4871,4.4 4.39218,10.91701 6.46875,14.46875 2.07658,3.55174 6.89414,9.72773 10.6875,13.75 3.79337,4.02227 9.86838,9.30702 13.5,11.71875 10.83487,7.19534 21.80616,11.50624 35.59375,13.96875 4.4,0.78585 13.5706,1.45066 20.375,1.5 6.80442,0.0494 17.09582,-0.61061 22.875,-1.46875 5.7792,-0.85813 15.77844,-3.08379 22.21875,-4.9375 6.44032,-1.85372 16.34929,-5.40562 22.03125,-7.90625 l 10.34375,-4.53125 6.5625,1.96875 c 7.46139,2.25834 41.43387,9.96272 41.90625,9.5 0.17001,-0.16653 -3.69496,-8.3346 -8.59375,-18.15625 l -8.90625,-17.875 7.90625,-9.5 c 4.36297,-5.225 10.44892,-13.2871 13.5,-17.90625 3.05108,-4.61915 7.69871,-12.94415 10.34375,-18.5 2.64503,-5.55585 5.73605,-13.46875 6.875,-17.59375 1.13894,-4.125 2.5403,-11.45749 3.09375,-16.3125 0.69455,-6.09278 0.67911,-11.513896 -0.0625,-17.5 -0.59096,-4.76999 -2.13762,-11.756553 -3.4375,-15.5 -1.29987,-3.74344 -4.3369,-10.268789 -6.71875,-14.5 -5.45424,-9.68913 -17.05969,-21.50006 -25.46875,-25.9375 -3.37699,-1.78202 -6.4276,-3.25 -6.8125,-3.25 -0.3849,0 1.57034,1.81431 4.375,4.03125 5.62777,4.4485 12.57018,12.817381 16,19.28125 l 2.25,4.1875 -2.25,-3 c -1.2308,-1.65 -5.6407,-6.424399 -9.8125,-10.59375 C 315.30912,39.43751 311.48237,36.642878 305,33.4375 299.47239,30.70423 293.00306,28.51993 286.5,27.15625 279.11155,25.60689 272.71326,25.03854 262,25 Z m -0.5,11.0625 c 10.95722,0.01723 15.67969,0.498079 21.78125,2.125 4.28775,1.14328 10.81274,3.498951 14.5,5.25 4.74753,2.25459 8.93449,5.40251 14.3125,10.78125 5.8317,5.83251 8.5451,9.566628 11.75,16.09375 2.29549,4.675 4.85071,11.649998 5.65625,15.5 0.80554,3.85 1.45921,10.442135 1.46875,14.65625 0.03,13.25319 -3.66641,28.1885 -10.5,42.34375 -1.85864,3.85 -5.30322,9.92499 -7.65625,13.5 -2.35303,3.575 -7.78974,10.1352 -12.0625,14.59375 -4.27276,4.45854 -7.75,8.39474 -7.75,8.71875 0,0.324 3.6,6.08474 8,12.8125 4.4,6.72776 8,12.6103 8,13.0625 0,0.45219 -0.2337,0.81249 -0.53125,0.8125 -0.29754,0 -6.98622,-2.47501 -14.84375,-5.5 -7.85753,-3.025 -15.44225,-5.50001 -16.84375,-5.5 -1.40149,0 -4.9503,1.06995 -7.90625,2.375 -9.75746,4.30791 -27.95268,9.67939 -37.75,11.15625 -5.30383,0.7995 -13.225,1.40757 -17.625,1.34375 -15.88411,-0.23041 -27.82632,-2.98049 -41.5,-9.5625 -8.01029,-3.85586 -10.84563,-5.92159 -18.09375,-13.1875 -6.55482,-6.57089 -9.47525,-10.406 -12.25,-16.125 -2.00138,-4.125 -4.32299,-10.1907 -5.15625,-13.46875 -2.1477,-8.449 -1.94404,-22.51901 0.46875,-32.125 1.09274,-4.35047 4.25956,-12.50221 7.03125,-18.125 2.77168,-5.6228 7.70472,-13.762048 10.96875,-18.09375 3.26404,-4.3317 9.99384,-11.732974 14.9375,-16.4375 9.60237,-9.13789 21.24519,-17.367409 32.59375,-23.03125 9.82198,-4.90197 22.87648,-9.341051 34.8125,-11.84375 7.6555,-1.60518 13.668,-2.141551 24.1875,-2.125 z"
       id="path2303" /><path
       style="font-weight:bold;fill:#f68f1e;fill-opacity:1"
       d="m 219.8284,163.27996 0.40942,-19.03462 -16.23005,10.09231 c -8.92653,5.55076 -16.36117,9.95384 -16.52142,9.78461 -0.83499,-0.88176 -13.48788,-22.4024 -13.48917,-22.94302 -8.3e-4,-0.34943 7.42108,-4.84943 16.49314,-10 9.07206,-5.15057 16.49465,-9.58967 16.49465,-9.86467 0,-0.275 -7.42259,-4.7141 -16.49465,-9.86467 -9.07206,-5.15057 -16.49397,-9.65057 -16.49314,-10 0.001,-0.53614 12.64897,-22.054647 13.47897,-22.932817 0.15464,-0.16362 6.93483,4.04179 15.06707,9.34537 8.13225,5.30357 15.44152,9.89444 16.24283,10.20193 1.2533,0.48093 1.39934,-2.11802 1.04493,-18.59537 l -0.41199,-19.15444 h 13.93694 13.93694 l -0.70992,19.53275 -0.70992,19.53275 6.81132,-4.37992 c 3.74623,-2.40895 10.63632,-6.84052 15.31132,-9.84794 4.675,-3.00741 9.03327,-5.78468 9.68505,-6.1717 0.77345,-0.45928 3.62652,3.36734 8.21443,11.01743 3.86616,6.44661 6.93289,11.795007 6.81495,11.885337 -0.11794,0.0903 -6.73943,3.87381 -14.71443,8.40774 -7.975,4.53393 -15.56793,8.91571 -16.87317,9.73729 l -2.37317,1.49378 15.87317,8.97221 c 8.73024,4.93473 16.4253,9.28762 17.10013,9.67311 0.86388,0.49347 -0.85443,4.1715 -5.80657,12.42893 -5.95251,9.92548 -7.29924,11.58585 -8.76224,10.80287 -0.95079,-0.50885 -7.78783,-4.69486 -15.19343,-9.30225 -7.40559,-4.60739 -14.05949,-8.73977 -14.78642,-9.18307 -1.08719,-0.66297 -1.19442,2.58368 -0.60436,18.29735 l 0.71734,19.10333 h -13.93398 -13.93398 z"
       id="path2299" /><path
       style="font-weight:bold;fill:#ffffff;fill-opacity:1"
       d="m 137.99566,100.81457 c 0,-0.275 -0.225,-0.5 -0.5,-0.5 -0.275,0 -0.5,0.225 -0.5,0.5 0,0.275 0.225,0.5 0.5,0.5 0.275,0 0.5,-0.225 0.5,-0.5 z"
       id="path2279" /><path
       style="fill:#f68f1e;fill-opacity:1;fill-rule:evenodd;stroke:#f68f1e;stroke-width:1px;stroke-linecap:butt;stroke-linejoin:miter;stroke-opacity:1"
       d="m 116.28481,174.20566 c -3.5292,-9.42778 -4.78033,-15.55049 -4.82631,-24.62224 -0.0118,-8.93132 1.55325,-12.57844 5.69253,-24.56876 z"
       id="path2329"
       sodipodi:nodetypes="ccc" /><path
       style="opacity:1;fill:#f68f1e;fill-opacity:1;fill-rule:evenodd;stroke:none;stroke-width:202;stroke-linecap:round;stroke-linejoin:round;stroke-miterlimit:4;stroke-dasharray:none;stroke-opacity:0.553265"
       d="m 113.24616,162.29055 c -1.37743,-6.4774 -1.63005,-15.14738 -0.60518,-20.76993 0.11411,-0.62602 0.34877,-1.70734 0.52146,-2.40292 l 0.31397,-1.2647 0.0216,6.38673 c 0.0119,3.51269 0.0119,9.25477 0,12.76017 l -0.0216,6.37344 z"
       id="path2339" /></g></svg>
