<?xml version="1.0" encoding="UTF-8" standalone="no"?>
<svg
   data-name="Capa 1"
   viewBox="0 0 256 256"
   version="1.1"
   id="svg8"
   xml:space="preserve"
   width="256"
   height="256"
   xmlns="http://www.w3.org/2000/svg"
   xmlns:svg="http://www.w3.org/2000/svg"><defs
     id="defs2" /><path
     style="fill:none"
     d="M 0,0 H 256 V 256 H 0 Z"
     id="path2" /><ellipse
     style="fill:#ffffff"
     id="path13"
     cx="128"
     cy="128"
     rx="108.76213"
     ry="108.2851" /><path
     d="M 128.00001,17.943 A 110.057,110.057 0 1 0 238.057,128 110.057,110.057 0 0 0 128.00001,17.943 Z M 60.865227,69.050725 c 0.756642,0 0.825428,0.343921 0.825428,0.894202 a 123.81413,123.81413 0 0 0 38.795095,85.569313 123.81413,123.81413 0 0 0 89.42131,34.39285 C 115.34345,220.17277 36.859044,148.63569 60.865227,69.050725 Z M 94.63897,58.664093 c 8.52942,59.086847 40.23959,94.992947 104.89808,97.950727 A 79.722541,79.722541 0 0 1 94.63897,58.664093 Z"
     style="fill:#33a5dd;stroke-width:6.87857"
     id="path1" /></svg>
