<svg
   id="uuid-19907d1f-9315-477d-b7ba-91ae3e2acc9a"
   data-name="C1"
   viewBox="0 0 256 256"
   version="1.1"
   sodipodi:docname="logo-siu-wichi-1.svg"
   xml:space="preserve"
   width="256"
   height="256"
   inkscape:export-filename="logo-siu-wichi-1.svg"
   inkscape:export-xdpi="96"
   inkscape:export-ydpi="96"
   xmlns:inkscape="http://www.inkscape.org/namespaces/inkscape"
   xmlns:sodipodi="http://sodipodi.sourceforge.net/DTD/sodipodi-0.dtd"
   xmlns="http://www.w3.org/2000/svg"
   xmlns:svg="http://www.w3.org/2000/svg"><sodipodi:namedview
     id="namedview7"
     pagecolor="#ffffff"
     bordercolor="#000000"
     borderopacity="0.25"
     inkscape:showpageshadow="2"
     inkscape:pageopacity="0.0"
     inkscape:pagecheckerboard="0"
     inkscape:deskcolor="#d1d1d1"><inkscape:page
       x="0"
       y="0"
       width="256"
       height="256"
       id="page2"
       margin="0"
       bleed="0" /></sodipodi:namedview><defs
     id="defs2"><style
       id="style1">
      .uuid-153302a6-b94e-4ad0-9cfb-43725c5c5610 {
        fill: url(#uuid-af07a271-8980-47e6-b92b-41550c7dc68a);
      }

      .uuid-27fce091-ee3a-4889-9199-28416b94f462 {
        fill: url(#uuid-dc53e15d-e646-4f9b-aab3-d9d8fec05b0e);
      }

      .uuid-5da2c4a3-8db1-41d9-92d6-1ab0c264b0da {
        fill: none;
      }

      .uuid-ed4306aa-b6e6-45eb-bfe3-e4f85f33ea76 {
        fill: url(#uuid-afdc0b81-5c65-49b4-9e34-1cf3c2f4f8f7);
      }

      .uuid-03bde706-b35e-416f-8ae5-693e38f68253 {
        fill: url(#uuid-8e0b3ff5-2b0d-4ede-9e3a-d9af7f50b81e);
      }

      .uuid-aed79b63-67fc-4862-91f2-2516d39da3fa {
        fill: url(#uuid-5be9ed93-6987-4def-8687-537049e4e1cf);
      }

      .uuid-7fb198ab-10f1-4f2d-9a38-66668a795b4d {
        fill: url(#uuid-ebe94990-143f-470c-b744-73e231e6133d);
      }
    </style><style
       id="style1-3">
      .cls-1 {
        fill: none;
      }

      .cls-2 {
        fill: #fff;
      }
    </style><style
       id="style1-8">
      .cls-1 {
        fill: #fff;
      }

      .cls-2 {
        fill: #853385;
      }

      .cls-3 {
        fill: #4e4e4e;
      }
    </style><style
       id="style1-9">
      .cls-1 {
        fill: #fff;
      }

      .cls-2 {
        fill: #8ed7f7;
      }

      .cls-3 {
        fill: #4e4e4e;
      }

      .cls-4 {
        fill: url(#Degradado_sin_nombre);
      }
    </style><style
       id="style1-1">
      .cls-1 {
        fill: #9d5c9d;
      }

      .cls-2 {
        fill: #4e4e4e;
      }
    </style><style
       id="style1-13">
      .cls-1 {
        fill: #fff;
      }

      .cls-2 {
        fill: #fff;
      }

      .cls-3 {
        fill: #4e4e4e;
      }

      .cls-4 {
        fill: url(#Degradado_sin_nombre_2);
      }
    </style><style
       id="style1-19">
      .cls-1 {
        fill: #fff;
      }

      .cls-2 {
        fill: #c00;
      }

      .cls-3 {
        fill: #d51921;
      }

      .cls-4 {
        fill: #4e4e4e;
      }

      .cls-5 {
        fill: url(#Degradado_sin_nombre_3);
      }
    </style><style
       id="style1-0">
      .cls-1 {
        fill: #aa5a23;
      }

      .cls-2 {
        fill: #4e4e4e;
      }
    </style><style
       id="style1-09">
      .cls-1 {
        fill: #fff;
      }

      .cls-2 {
        fill: #fff;
      }

      .cls-3 {
        fill: #4e4e4e;
      }

      .cls-4 {
        fill: url(#Degradado_sin_nombre_6);
      }
    </style><style
       id="style1-93">
      .cls-1 {
        fill: #fff;
      }

      .cls-2 {
        fill: #73122e;
      }

      .cls-3 {
        fill: #4e4e4e;
      }
    </style><style
       id="style1-6">
      .cls-1 {
        fill: #e62264;
      }

      .cls-2 {
        fill: #4e4e4e;
      }
    </style><style
       id="style1-63">
      .cls-1 {
        fill: #690;
      }

      .cls-2 {
        fill: #fff;
      }

      .cls-3 {
        fill: #4e4e4e;
      }

      .cls-4 {
        fill: url(#Degradado_sin_nombre_5);
      }
    </style></defs><rect
     class="uuid-5da2c4a3-8db1-41d9-92d6-1ab0c264b0da"
     width="256"
     height="256"
     id="rect2"
     x="0"
     y="0" /><g
     id="g1"
     transform="matrix(0.72643453,0,0,0.72968761,19.007681,18.648146)"><path
       d="M 0,0 C 0.70081753,-0.023637 1.4016351,-0.04727399 2.1236895,-0.07162726 8.3199973,-0.06260498 13.613735,2.078312 18.042923,6.3792419 c 0.446016,0.6509766 0.892031,1.3019532 1.351562,1.9726563 0.692227,0.9725977 0.692227,0.9725977 1.398438,1.9648438 3.473099,5.939662 3.516796,10.981585 3.500717,17.730026 0.0052,1.083442 0.01047,2.166883 0.01587,3.283156 0.01502,3.637163 0.01571,7.274186 0.01637,10.911378 0.0076,2.605172 0.01605,5.21034 0.02522,7.815506 0.02284,7.082794 0.03077,14.165557 0.03583,21.248383 0.0033,4.424878 0.0098,8.849748 0.017,13.274622 0.01956,12.257797 0.03597,24.515587 0.03888,36.773397 1.88e-4,0.7842 3.75e-4,1.56839 5.68e-4,2.37635 3.67e-4,1.58967 7.3e-4,3.17934 0.0011,4.76901 1.82e-4,0.78909 3.65e-4,1.57817 5.54e-4,2.39117 2.7e-4,1.18508 2.7e-4,1.18508 5.47e-4,2.3941 0.0035,12.79672 0.03055,25.59328 0.06795,38.38995 0.03811,13.14678 0.05745,26.29347 0.05775,39.44031 5.84e-4,7.37799 0.009,14.75577 0.038,22.13371 0.02712,6.94152 0.02839,13.88264 0.01234,20.82419 -0.0018,2.54527 0.0049,5.09056 0.02082,7.63578 0.02045,3.48024 0.0099,6.9591 -0.0082,10.43933 0.0198,1.50368 0.0198,1.50368 0.04,3.03774 -0.08266,6.96966 -1.667303,12.44622 -5.654731,18.22955 -7.843356,7.36127 -15.138375,7.41298 -25.394417,7.12468 -8.760004,-0.41919 -17.468465,-1.66636 -26.16442,-2.75505 -2.324368,-0.28333 -4.648845,-0.56577 -6.97342,-0.8474 -6.2629,-0.76142 -12.524172,-1.53552 -18.785182,-2.31231 -5.903401,-0.73068 -11.80789,-1.45241 -17.712347,-2.17449 -11.691229,-1.43015 -23.381226,-2.87012 -35.070562,-4.31571 -11.32331,-1.40031 -22.64748,-2.79344 -33.97265,-4.17871 -0.69893,-0.0855 -1.39786,-0.17098 -2.11797,-0.25906 -0.69776,-0.0854 -1.39553,-0.1707 -2.11444,-0.25864 -13.58654,-1.66193 -27.17212,-3.33163 -40.75743,-5.00358 -3.90638,-0.48025 -7.81292,-0.95907 -11.7195,-1.43759 -6.13614,-0.75201 -12.27163,-1.50916 -18.40665,-2.27028 -2.24918,-0.27826 -4.49857,-0.55482 -6.74819,-0.82956 -3.07318,-0.37563 -6.14553,-0.75745 -9.21775,-1.14084 -0.88725,-0.10701 -1.77451,-0.21402 -2.68865,-0.32428 -14.63765,-1.84951 -14.63765,-1.84951 -19.40642,-6.01718 -0.62391,-0.51563 -1.24782,-1.03125 -1.89063,-1.5625 -7.34108,-9.6236 -6.42951,-20.64257 -6.37695,-32.14063 -0.005,-1.99508 -0.0126,-3.99016 -0.0212,-5.98523 -0.0182,-5.3967 -0.0112,-10.79309 0.002,-16.1898 0.0102,-5.65944 7.3e-4,-11.31885 -0.006,-16.97829 -0.007,-9.50232 0.002,-19.00453 0.0214,-28.50683 0.0218,-10.97119 0.0147,-21.94207 -0.007,-32.91325 -0.0182,-9.43555 -0.0207,-18.87101 -0.0102,-28.30657 0.006,-5.628476 0.007,-11.256816 -0.006,-16.885286 -0.0116,-5.292667 -0.003,-10.584952 0.0196,-15.877578 0.005,-1.937321 0.004,-3.874674 -0.005,-5.811982 -0.0867,-20.901386 -0.0867,-20.901386 6.42519,-29.279556 0.63293,-0.515625 1.26586,-1.03125 1.91797,-1.5625 0.62519,-0.53625 1.25039,-1.0725 1.89453,-1.625 5.7214,-3.430894 12.51159,-3.934527 19.01106,-4.716461 0.96108,-0.120132 1.92216,-0.240264 2.91237,-0.364036 3.21084,-0.39991 6.4226,-0.791796 9.63443,-1.183663 2.30683,-0.285555 4.6136,-0.571572 6.92032,-0.858017 6.26232,-0.776013 12.52552,-1.544732 18.78897,-2.311554 5.23798,-0.641771 10.47557,-1.286657 15.71318,-1.931402 11.66285,-1.435625 23.32637,-2.86571 34.99038,-4.291816 0.69924,-0.08549 1.39847,-0.170984 2.11889,-0.259066 0.70009,-0.0856 1.40019,-0.171194 2.1215,-0.259385 11.32109,-1.384451 22.64081,-2.779817 33.95995,-4.180228 11.649726,-1.441186 23.300438,-2.8741681 34.952208,-4.2987568 6.530329,-0.7986698 13.060212,-1.6006273 19.589093,-2.4110638 6.150707,-0.7631846 12.302625,-1.5157463 18.455591,-2.2604961 2.245652,-0.2735743 4.490866,-0.55078 6.735563,-0.8320847 C -20.266688,1.3672111 -10.189553,0.18407958 0,0 Z"
       fill="#ff6633"
       transform="translate(270.98051,-0.41439819)"
       id="path1" /><path
       d="m 0,0 c 8.25,0 16.5,0 25,0 0,18.48 0,36.96 0,56 14.85,0 29.7,0 45,0 0,-18.48 0,-36.96 0,-56 12.54,0 25.08,0 38,0 0,45.21 0,90.42 0,137 -30.875,-1.625 -30.875,-1.625 -38,-4 0,-14.52 0,-29.04 0,-44 -14.85,0 -29.7,0 -45,0 0,12.54 0,25.08 0,38 -8.441032,0 -12.331544,-0.014 -18.6875,-5.1875 -5.76111988,-7.00677 -6.89421384,-12.95518 -6.76660156,-21.910156 -5.8411e-4,-1.083815 -0.001168,-2.167629 -0.00177,-3.284287 0.002773,-3.560518 0.0338297,-7.120186 0.0652466,-10.680557 0.007465,-2.477209 0.0131568,-4.954424 0.0171509,-7.431641 0.0152348,-6.503687 0.0544987,-13.007013 0.0988159,-19.510559 0.0409988,-6.642922 0.0592049,-13.285879 0.0793457,-19.928894 C -0.15247948,26.044088 -0.08214659,13.02213 0,0 Z"
       fill="#fffefd"
       transform="translate(8,141)"
       id="path2" /><path
       d="M 0,0 C 0.70081753,-0.023637 1.4016351,-0.04727399 2.1236895,-0.07162726 8.3199973,-0.06260498 13.613735,2.078312 18.042923,6.3792419 c 0.446016,0.6509766 0.892031,1.3019532 1.351562,1.9726563 0.692227,0.9725977 0.692227,0.9725977 1.398438,1.9648438 3.473099,5.939662 3.516796,10.981585 3.500717,17.730026 0.0052,1.083442 0.01047,2.166883 0.01587,3.283156 0.01502,3.637163 0.01571,7.274186 0.01637,10.911378 0.0076,2.605172 0.01605,5.21034 0.02522,7.815506 0.02284,7.082794 0.03077,14.165557 0.03583,21.248383 0.0033,4.424878 0.0098,8.849748 0.017,13.274622 0.01956,12.257797 0.03597,24.515587 0.03888,36.773397 1.88e-4,0.7842 3.75e-4,1.56839 5.68e-4,2.37635 3.67e-4,1.58967 7.3e-4,3.17934 0.0011,4.76901 1.82e-4,0.78909 3.65e-4,1.57817 5.54e-4,2.39117 2.7e-4,1.18508 2.7e-4,1.18508 5.47e-4,2.3941 0.0035,12.79672 0.03055,25.59328 0.06795,38.38995 0.03811,13.14678 0.05745,26.29347 0.05775,39.44031 5.84e-4,7.37799 0.009,14.75577 0.038,22.13371 0.02712,6.94152 0.02839,13.88264 0.01234,20.82419 -0.0018,2.54527 0.0049,5.09056 0.02082,7.63578 0.02045,3.48024 0.0099,6.9591 -0.0082,10.43933 0.0198,1.50368 0.0198,1.50368 0.04,3.03774 -0.08266,6.96966 -1.667303,12.44622 -5.654731,18.22955 -7.843356,7.36127 -15.138375,7.41298 -25.394417,7.12468 -8.760004,-0.41919 -17.468465,-1.66636 -26.16442,-2.75505 -2.324368,-0.28333 -4.648845,-0.56577 -6.97342,-0.8474 -6.2629,-0.76142 -12.524172,-1.53552 -18.785182,-2.31231 -5.903401,-0.73068 -11.80789,-1.45241 -17.712347,-2.17449 -11.691229,-1.43015 -23.381226,-2.87012 -35.070562,-4.31571 -11.32331,-1.40031 -22.64748,-2.79344 -33.97265,-4.17871 -0.69893,-0.0855 -1.39786,-0.17098 -2.11797,-0.25906 -0.69776,-0.0854 -1.39553,-0.1707 -2.11444,-0.25864 -13.58654,-1.66193 -27.17212,-3.33163 -40.75743,-5.00358 -3.90638,-0.48025 -7.81292,-0.95907 -11.7195,-1.43759 -6.13614,-0.75201 -12.27163,-1.50916 -18.40665,-2.27028 -2.24918,-0.27826 -4.49857,-0.55482 -6.74819,-0.82956 -3.07318,-0.37563 -6.14553,-0.75745 -9.21775,-1.14084 -0.88725,-0.10701 -1.77451,-0.21402 -2.68865,-0.32428 -14.63765,-1.84951 -14.63765,-1.84951 -19.40642,-6.01718 -0.62391,-0.51563 -1.24782,-1.03125 -1.89063,-1.5625 -7.34108,-9.6236 -6.42951,-20.64257 -6.37695,-32.14063 -0.005,-1.99508 -0.0126,-3.99016 -0.0212,-5.98523 -0.0182,-5.3967 -0.0112,-10.79309 0.002,-16.1898 0.0102,-5.65944 7.3e-4,-11.31885 -0.006,-16.97829 -0.007,-9.50232 0.002,-19.00453 0.0214,-28.50683 0.0218,-10.97119 0.0147,-21.94207 -0.007,-32.91325 -0.0182,-9.43555 -0.0207,-18.87101 -0.0102,-28.30657 0.006,-5.628476 0.007,-11.256816 -0.006,-16.885286 -0.0116,-5.292667 -0.003,-10.584952 0.0196,-15.877578 0.005,-1.937321 0.004,-3.874674 -0.005,-5.811982 -0.0867,-20.901386 -0.0867,-20.901386 6.42519,-29.279556 0.63293,-0.515625 1.26586,-1.03125 1.91797,-1.5625 0.62519,-0.53625 1.25039,-1.0725 1.89453,-1.625 5.7214,-3.430894 12.51159,-3.934527 19.01106,-4.716461 0.96108,-0.120132 1.92216,-0.240264 2.91237,-0.364036 3.21084,-0.39991 6.4226,-0.791796 9.63443,-1.183663 2.30683,-0.285555 4.6136,-0.571572 6.92032,-0.858017 6.26232,-0.776013 12.52552,-1.544732 18.78897,-2.311554 5.23798,-0.641771 10.47557,-1.286657 15.71318,-1.931402 11.66285,-1.435625 23.32637,-2.86571 34.99038,-4.291816 0.69924,-0.08549 1.39847,-0.170984 2.11889,-0.259066 0.70009,-0.0856 1.40019,-0.171194 2.1215,-0.259385 11.32109,-1.384451 22.64081,-2.779817 33.95995,-4.180228 11.649726,-1.441186 23.300438,-2.8741681 34.952208,-4.2987568 6.530329,-0.7986698 13.060212,-1.6006273 19.589093,-2.4110638 6.150707,-0.7631846 12.302625,-1.5157463 18.455591,-2.2604961 2.245652,-0.2735743 4.490866,-0.55078 6.735563,-0.8320847 C -20.266688,1.3672111 -10.189553,0.18407958 0,0 Z m -16.793015,4.5691834 c -1.017417,0.1240986 -2.034834,0.2481973 -3.083082,0.3760566 -3.369013,0.4126219 -6.736663,0.8354596 -10.104418,1.2582207 -2.425301,0.2988598 -4.850688,0.5970291 -7.276153,0.8945618 -5.195439,0.6386819 -10.390337,1.2815749 -15.584747,1.9285583 -8.197806,1.0210462 -16.396589,2.0340772 -24.595642,3.0450442 -1.034391,0.127548 -1.034391,0.127548 -2.089679,0.257673 -2.80992,0.346466 -5.619842,0.692912 -8.429778,1.03924 -3.564204,0.439323 -7.128361,0.879022 -10.692423,1.319496 -19.946643,2.465128 -39.898433,4.882131 -59.857193,7.247234 -4.06669,0.481956 -8.1332,0.965493 -12.19967,1.449376 -2.64886,0.31511 -5.29772,0.630194 -7.94659,0.945282 -1.29066,0.153542 -2.58132,0.307085 -3.91109,0.46528 -6.39139,0.759648 -12.78316,1.515687 -19.17582,2.264517 -5.99397,0.702166 -11.98685,1.412997 -17.97903,2.130245 -2.19037,0.260481 -4.38113,0.517634 -6.57231,0.771156 -2.99165,0.346472 -5.98168,0.704631 -8.97161,1.065579 -0.85937,0.09659 -1.71874,0.193184 -2.60414,0.292704 -6.76681,0.836779 -13.45697,2.028316 -18.92662,6.282491 -4.84457,6.228732 -6.7871,11.607314 -6.69544,19.465332 -0.006,0.834236 -0.0125,1.668471 -0.0189,2.527987 -0.0159,2.775958 -0.003,5.55103 0.009,8.326994 -0.005,1.998031 -0.0126,3.996059 -0.0212,5.994079 -0.0182,5.413214 -0.0112,10.826123 0.002,16.239342 0.0101,5.671062 7.3e-4,11.342098 -0.006,17.013158 -0.007,9.52267 0.002,19.04522 0.0214,28.56787 0.0218,11.00186 0.0147,22.00342 -0.007,33.00526 -0.0182,9.45416 -0.0207,18.90824 -0.0102,28.36241 0.006,5.64298 0.007,11.28581 -0.006,16.92878 -0.0116,5.30577 -0.004,10.61115 0.0196,15.91688 0.005,1.94461 0.004,3.88925 -0.005,5.83385 -0.011,2.65967 0.003,5.31813 0.0227,7.97773 -0.009,0.76499 -0.0178,1.52998 -0.027,2.31816 0.0993,6.86811 2.5156,11.87867 6.84748,17.14717 6.35595,5.17345 10.24646,5.1875 18.6875,5.1875 0,-12.54 0,-25.08 0,-38 14.85,0 29.7,0 45,0 0,14.52 0,29.04 0,44 7.14104,1.29837 14.05853,2.44382 21.25,3.125 1.26843,0.12955 1.26843,0.12955 2.5625,0.26172 3.72581,0.36448 7.29672,0.61129 11.04687,0.54297 3.14063,0.0703 3.14063,0.0703 4.79663,1.00512 3.51812,1.59875 7.18484,1.79173 10.98853,2.17847 0.86437,0.0945 1.72875,0.18896 2.61932,0.2863 1.86931,0.20382 3.73899,0.40432 5.60898,0.60188 5.01818,0.53096 10.0335,1.08774 15.04904,1.64307 1.02151,0.1126 2.04301,0.2252 3.09547,0.34122 9.5304,1.05812 19.038129,2.26574 28.545155,3.51425 18.387026,2.40543 36.799318,4.56804 55.223328,6.66975 3.989187,0.4557 7.977044,0.91964 11.962952,1.40325 0.759872,0.0916 1.519744,0.18325 2.302643,0.27766 2.050245,0.2481 4.100134,0.49914 6.149993,0.75041 13.3245478,1.70867 13.3245478,1.70867 25.286866,-3.1831 4.892531,-4.58912 7.170692,-9.08158 7.695738,-15.75791 0.07638,-2.77473 0.08732,-5.54285 0.07668,-8.31862 0.0038,-1.06206 0.0077,-2.12412 0.01159,-3.21836 0.0103,-3.55272 0.0063,-7.10527 0.0024,-10.65799 0.0043,-2.5496 0.0095,-5.0992 0.01549,-7.64879 0.012,-6.20277 0.01454,-12.40547 0.0122,-18.60824 -0.0018,-5.04268 -3e-5,-10.08534 0.0042,-15.12802 8.92e-4,-1.0775 8.92e-4,-1.0775 0.0018,-2.17677 0.0012,-1.4594 0.0024,-2.91881 0.0036,-4.37821 0.01087,-13.67853 0.0087,-27.35703 0.0026,-41.03556 -0.0052,-12.50691 0.0061,-25.01374 0.0251,-37.52063 0.01938,-12.85077 0.02763,-25.7015 0.02388,-38.552288 -0.0019,-7.211279 5.68e-4,-14.422493 0.01471,-21.63376 0.01317,-6.780605 0.01065,-13.561028 -0.0024,-20.341641 -0.0024,-2.488047 3.79e-4,-4.976105 0.0086,-7.46414 0.01045,-3.39735 0.0024,-6.794174 -0.01031,-10.191505 0.0074,-0.983569 0.01475,-1.967138 0.02235,-2.980512 C 21.360251,21.116566 20.099849,15.804621 16.331985,9.6643982 11.542405,5.004266 7.1304778,3.1729509 0.41401672,3.2367554 -5.3817792,3.3233322 -11.047624,3.8344173 -16.793015,4.5691834 Z"
       fill="#ff6633"
       transform="translate(270.98051,-0.41439819)"
       id="path3" /></g></svg>
