<svg id="uuid-17594bce-3133-4b20-8b7c-09f419fa82d1" data-name="uuid-19907d1f-9315-477d-b7ba-91ae3e2acc9a" xmlns="http://www.w3.org/2000/svg" width="256" height="256" viewBox="0 0 256 256">
  <defs>
    <style>
      .uuid-682483ec-b555-4b40-b71b-8d1ad49b14e0 {
        fill: #fff;
      }

      .uuid-f072c044-b63e-4fc0-a8b0-7e61fdd6b9ef {
        fill: none;
      }

      .uuid-8b90707a-6fff-48d1-bfcd-a4b54ca00bf9 {
        fill: #1d1d1b;
      }
    </style>
  </defs>
  <rect class="uuid-f072c044-b63e-4fc0-a8b0-7e61fdd6b9ef" width="256" height="256"/>
  <circle class="uuid-682483ec-b555-4b40-b71b-8d1ad49b14e0" cx="128" cy="128" r="110"/>
  <path class="uuid-8b90707a-6fff-48d1-bfcd-a4b54ca00bf9" d="M128,18c-60.76,0-110,49.24-110,110,0,40.67,22.13,76.08,54.94,95.13l24.77-42.82c-18.05-10.46-30.21-29.95-30.21-52.31,0-33.41,27.09-60.5,60.5-60.5s60.5,27.09,60.5,60.5c0,22.37-12.16,41.85-30.21,52.31l24.77,42.82c32.81-19.06,54.94-54.46,54.94-95.13,0-60.76-49.24-110-110-110Z"/>
  <path class="uuid-8b90707a-6fff-48d1-bfcd-a4b54ca00bf9" d="M161,128c0-18.22-14.78-33-33-33s-33,14.78-33,33c0,14.05,8.81,26.04,21.18,30.79l-14.07,76.01c8.31,2.02,16.95,3.2,25.89,3.2s17.57-1.18,25.89-3.18l-14.07-76.03c12.38-4.75,21.18-16.74,21.18-30.79Z"/>
</svg>