<svg id="uuid-69add521-6087-416e-8d21-7c42063a77a9" data-name="uuid-19907d1f-9315-477d-b7ba-91ae3e2acc9a" xmlns="http://www.w3.org/2000/svg" width="256" height="256" viewBox="0 0 256 256">
  <defs>
    <style>
      .uuid-bde4f7de-39c6-4c52-859e-87d3caf494ee {
        fill: none;
      }

      .uuid-5eec1059-d33e-4c34-b7f3-3278188c81a9 {
        fill: #ea7e20;
      }

      .uuid-d4e4b992-c42f-46d6-8783-adf779c86bcd {
        fill: #036;
      }
    </style>
  </defs>
  <rect class="uuid-bde4f7de-39c6-4c52-859e-87d3caf494ee" width="256" height="256"/>
  <path class="uuid-d4e4b992-c42f-46d6-8783-adf779c86bcd" d="M162.32,127.54c0-19.25-15.47-34.78-34.78-34.78-19.17-.18-34.86,15.22-35.04,34.4-.13,14.69,8.99,27.87,22.78,32.92l-13.58,71.44h51.68l-13.18-71.44c13.34-5.27,22.11-18.14,22.11-32.48"/>
  <path class="uuid-5eec1059-d33e-4c34-b7f3-3278188c81a9" d="M238,127.08c0-60.16-49.39-109.08-110-109.08S18,66.87,18,127.08c0,39.93,21.6,74.71,54.08,93.5l7.05-46.52c-10.83-11.79-16.9-27.19-17.02-43.2,0-35.69,29.22-64.85,65.31-64.85s65.37,29.16,65.37,64.85c0,16.96-6.59,31.97-16.9,43.71l7.05,46.58c32.89-18.85,55-54.08,55-94.02"/>
</svg>