<?xml version="1.0" encoding="UTF-8" standalone="no"?>
<svg
   id="uuid-d837f90e-3a4b-44c2-81ee-d7b8ed5bc69b"
   data-name="Capa 1"
   width="1920"
   height="773"
   viewBox="0 0 1920 773"
   version="1.1"
   xml:space="preserve"
   xmlns="http://www.w3.org/2000/svg"
   xmlns:svg="http://www.w3.org/2000/svg"><defs
     id="defs1"><style
       id="style1">
      .uuid-c90f1ad1-f831-4e7c-956b-467930e03b8f {
        fill: none;
      }

      .uuid-04a06d85-28dc-4ddd-a18a-468519060675 {
        fill: #e2111a;
      }
    </style><clipPath
       id="b"><path
         d="M 118.17,73.02 H 279.85 V 27.62 H 118.17 V 73 Z"
         id="path2" /></clipPath><clipPath
       id="c"><path
         d="m 283.72,73.35 h 154.62 v -46 H 283.72 Z"
         id="path3" /></clipPath></defs><rect
     class="uuid-c90f1ad1-f831-4e7c-956b-467930e03b8f"
     width="1920"
     height="773"
     id="rect1"
     x="0"
     y="0" /><g
     id="g1"
     transform="matrix(11.234566,0,0,11.234566,5.0681241,205.23028)"><g
       clip-path="url(#b)"
       transform="matrix(0.41103,0,0,-0.42925,-10.172,37.96)"
       id="g4"><path
         d="m 273.7,48.47 v 4.4 c 0,2.68 -4.25,4.02 -12.78,4.02 -1.05,0 -2.15,-0.1 -3.3,-0.1 l -1.5,-0.1 c -6.33,0 -9.5,-1.4 -9.5,-4.2 v -4.1 h 27.1 z m 6.15,5.03 v -8.6 c 0,-2.17 -0.6,-3.25 -1.76,-3.25 h -31.3 c -0.2,-4.06 1.9,-6.47 6.2,-7.23 h 24.4 c 1,0 1.6,-0.37 2,-1.1 0.2,-0.54 0.3,-1.45 0.3,-2.77 0,-1.96 -0.8,-2.94 -2.4,-2.94 h -20.8 l -0.2,0.1 c -2.4,0.1 -4.1,0.1 -5.1,0.3 -3.5,0.4 -6.1,1.5 -7.7,3.1 -2.3,2.3 -3.5,5 -3.5,8 v 13.1 c 0,4.2 1.8,7.2 5.4,9.2 2.64,1.5 5.86,2.2 9.65,2.2 H 267 c 3.1,0 5.82,-0.7 8.15,-2 3.03,-1.8 4.54,-4.4 4.54,-7.9 M 235,63.4 c 1.5,0 2.3,-1.25 2.3,-3.74 0,-1.93 -0.8,-2.9 -2.38,-2.9 h -2.7 c -4.84,0 -7.25,-1.5 -7.25,-4.5 V 30.5 c 0,-1.45 -0.43,-2.35 -1.28,-2.7 -0.4,-0.15 -1.3,-0.22 -2.8,-0.22 -1.6,0 -2.4,1 -2.4,3 l 0.1,21.7 c 0,7.4 5.4,11.1 16.2,11.1 M 208.6,39.1 v 12.77 c 0,3.1 -2.82,4.63 -8.5,4.63 H 181.3 V 38.7 c 0,-1.6 1.36,-2.8 4.08,-3.62 1.9,-0.6 3.82,-0.9 5.75,-0.9 h 8.96 c 2.8,0 4.6,0.13 5.4,0.37 2.1,0.65 3.2,2.17 3.2,4.56 M 215,52 V 38.86 c 0,-7.5 -4.96,-11.26 -14.87,-11.26 h -9.66 c -3.48,0 -6.7,0.8 -9.66,2.4 -3.8,2.03 -5.7,4.93 -5.7,8.68 v 31.36 c 0,1.46 0.5,2.38 1.3,2.75 0.4,0.1 1.3,0.1 2.7,0.1 1.6,0 2.3,-1 2.3,-3 V 63 h 18.8 c 9.9,0 14.9,-3.7 14.9,-11.07 M 169.7,57.6 V 30.54 c 0,-1.96 -0.8,-2.94 -2.36,-2.94 -1.43,0 -2.32,0.1 -2.68,0.27 -0.8,0.37 -1.22,1.27 -1.22,2.68 V 57.6 c 0,1.93 0.78,2.9 2.35,2.9 1.4,0 2.3,-0.07 2.6,-0.22 0.8,-0.38 1.2,-1.27 1.2,-2.7 m -0.4,13.25 c 0.8,-0.74 1.3,-1.75 1.3,-3.02 0,-1.2 -0.4,-2.2 -1.3,-3 -0.8,-0.6 -1.7,-1 -2.8,-1 -1.1,0 -2.1,0.4 -2.8,1 -0.9,0.8 -1.3,1.8 -1.3,3 0,1.3 0.4,2.3 1.2,3.1 0.7,0.7 1.7,1 2.8,1 1.1,0 2,-0.3 2.8,-1 M 159,33.3 c 0.24,-0.5 0.36,-1.43 0.36,-2.75 0,-1.96 -0.78,-2.94 -2.33,-2.94 h -20.8 c -3.64,0 -6.35,0.2 -8.14,0.6 -3.3,0.6 -5.8,1.9 -7.4,3.8 -1.7,2 -2.6,4.5 -2.6,7.7 v 30.5 c 0,2 0.8,3 2.3,3 1.6,0 2.6,0 2.9,-0.1 0.9,-0.3 1.4,-1.2 1.4,-2.7 V 39.6 c 0,-2.44 1.5,-4 4.6,-4.7 1.2,-0.3 3.5,-0.45 6.7,-0.45 h 21 c 1,0 1.6,-0.37 1.9,-1.1"
         fill="#e30613"
         id="path4" /></g><g
       clip-path="url(#c)"
       transform="matrix(0.41103,0,0,-0.42925,-10.172,37.96)"
       fill="#ffffff"
       id="g5"><path
         d="m 438.34,42.94 v -4.07 c 0,-2.4 -0.3,-4.3 -0.93,-5.7 -1.6,-3.7 -6.6,-5.56 -14.9,-5.56 h -22.9 c -1.5,0 -2.3,1 -2.3,3 0,1.3 0.1,2.3 0.3,2.8 0.4,0.8 1,1.1 2,1.1 h 22.9 c 6.2,0 9.3,1.5 9.3,4.3 v 3.9 c 0,2.9 -3,4.4 -8.9,4.6 -10.2,0.4 -15.7,0.7 -16.6,0.9 -5.9,1.3 -8.9,4.6 -8.9,10 v 3.5 c 0,5.4 2.4,8.9 7.1,10.5 2,0.7 5.6,1 10.9,1.1 H 436 c 1.53,0 2.3,-1 2.3,-2.9 0,-1.3 -0.1,-2.2 -0.35,-2.72 -0.34,-0.77 -1,-1.14 -1.97,-1.14 h -24.72 c -5,-0.33 -7.48,-1.9 -7.48,-4.66 v -3.2 c 0,-2 1.36,-3.3 4.08,-3.9 1.1,-0.2 3.04,-0.35 5.84,-0.35 h 8.83 c 3.94,0 7.27,-0.7 10.02,-2.06 3.85,-1.95 5.78,-5 5.78,-9.2 M 393.6,68.4 V 30.6 c 0,-1.5 -0.46,-2.4 -1.4,-2.76 -0.3,-0.2 -1.26,-0.2 -2.9,-0.2 -1.54,0 -2.3,1 -2.3,2.9 v 29.4 l -19.53,-30.1 c -1.04,-1.6 -2.44,-2.4 -4.2,-2.4 -1.77,0 -3.18,0.8 -4.24,2.4 L 339.16,60 V 30.5 c 0,-1.96 -0.78,-2.94 -2.33,-2.94 -1.63,0 -2.6,0.06 -2.9,0.2 -0.92,0.33 -1.4,1.25 -1.4,2.75 v 38.2 c 0,1.4 0.4,2.4 1.14,3.2 0.68,0.7 1.53,1.1 2.57,1.1 1.6,0 2.88,-0.7 3.88,-2.1 l 23.24,-34.4 22.7,34.4 c 0.93,1.5 2.2,2.2 3.76,2.2 1.07,0 1.94,-0.3 2.62,-1.1 0.77,-0.8 1.16,-2 1.16,-3.4 m -64.94,1.8 V 32.6 c 0,-3.45 -1.2,-5.17 -3.64,-5.17 -0.24,0 -0.48,0.02 -0.74,0.07 -0.8,0.1 -1.8,0.8 -3.05,2.1 l -30.9,32.83 V 30.6 c 0,-1.5 -0.45,-2.43 -1.36,-2.78 -0.32,-0.1 -1.3,-0.2 -2.92,-0.2 -1.55,0 -2.33,1 -2.33,2.98 v 37.88 c 0,1.32 0.07,2.18 0.2,2.57 0.2,0.64 0.7,1.24 1.5,1.84 0.5,0.3 1.06,0.5 1.7,0.5 1.45,0 2.92,-0.8 4.4,-2.4 l 30.5,-32.5 v 31.6 c 0,1.5 0.47,2.4 1.4,2.7 0.32,0.1 1.28,0.1 2.9,0.1 1.56,0 2.34,-1 2.34,-2.9"
         id="path5" /></g><path
       d="m 18.03,11.14 3.1,3.1 -1.22,1.24 -3.1,-3.1 z m 5.67,-5.66 3.1,3.1 -1.23,1.24 -3.1,-3.1 z m -0.2,11.14 3.12,3.1 -1.23,1.24 -3.2,-3.1 z m 5.67,-5.66 3.1,3.1 -1.22,1.24 -3.1,-3.1 z m -12.27,-2.3 3.12,-3.1 1.23,1.23 -3.1,3.1 z m 5.48,5.48 3.1,-3.1 1.24,1.22 -3.1,3.1 z m 5.47,5.48 3.1,-3.12 1.24,1.23 -3.2,3.1 z m -16.62,-5.27 3.1,-3.1 1.24,1.22 -3.1,3.1 z m 5.47,5.47 3.12,-3.1 1.22,1.22 -3.1,3.1 z m 5.48,5.48 3.1,-3.12 1.24,1.23 -3.12,3.2 z"
       fill="#ffffff"
       id="path6" /><path
       d="M 6.7,22.46 9.82,25.56 8.6,26.8 5.48,23.68 Z m 5.67,-5.66 3.1,3.1 -1.22,1.23 -3.1,-3.1 z m -0.17,11.14 3.1,3.1 -1.23,1.23 -3.1,-3.1 z m 5.65,-5.66 3.1,3.1 -1.22,1.23 -3.1,-3.1 z M 1.23,16.98 4.33,20.08 3.1,21.3 0,18.2 Z m 5.67,-5.66 3.1,3.1 -1.23,1.23 -3.1,-3.1 z m 5.65,-5.66 3.1,3.1 -1.2,1.24 -3.1,-3.1 z M 18.2,0 l 3.12,3.1 -1.23,1.23 -3.2,-3.1 z m -6.77,3.2 3.1,-3.1 1.23,1.22 -3.1,3.1 z M 5.76,8.87 8.86,5.77 10.1,7 7,10.1 Z m -5.66,5.67 3.1,-3.1 1.23,1.2 -3.1,3.12 z m 5.46,5.46 3.1,-3.1 1.24,1.23 -3.1,3.1 z m 5.48,5.48 3.1,-3.1 1.23,1.22 -3.1,3.1 z m 5.46,5.48 3.12,-3.1 1.23,1.2 -3.1,3.12 z"
       fill="#db202e"
       id="path7" /></g></svg>
