<svg id="uuid-6d44d617-b11f-434e-ad52-5b1d645ec55a" data-name="uuid-19907d1f-9315-477d-b7ba-91ae3e2acc9a" xmlns="http://www.w3.org/2000/svg" width="256" height="256" viewBox="0 0 256 256">
  <defs>
    <style>
      .uuid-abe0cf21-eaf9-422f-ba85-e94cde7b2e4e {
        fill: #fff;
      }

      .uuid-c4e46c56-2ca2-4d68-99e9-2d6c7026d6f9 {
        fill: #263037;
        fill-rule: evenodd;
      }

      .uuid-c4db090d-e6c3-4a5b-b8cb-e75ba04a4623 {
        fill: none;
      }
    </style>
  </defs>
  <rect class="uuid-c4db090d-e6c3-4a5b-b8cb-e75ba04a4623" width="256" height="256"/>
  <ellipse class="uuid-abe0cf21-eaf9-422f-ba85-e94cde7b2e4e" cx="130.52" cy="131.7" rx="82.57" ry="81.39"/>
  <path class="uuid-c4e46c56-2ca2-4d68-99e9-2d6c7026d6f9" d="M233.02,87.24v81.47c0,5.05-.62,9.37-2.01,12.56-.26.59-.55,1.17-.84,1.72-2.01,3.26-6.08,6.48-11.57,9.48l-74.33,40.72c-4.61,2.53-8.86,4.17-12.45,4.65-.68.1-1.34.15-1.98.15s-1.33-.05-2.01-.15c-3.59-.48-7.84-2.12-12.45-4.65l-37.17-20.36-37.13-20.36c-5.53-3-9.59-6.23-11.57-9.48-2.01-3.3-2.89-8.24-2.89-14.28v-81.47c0-5.05.62-9.34,2.01-12.52.26-.62.55-1.21.88-1.72.32-.54.68-1.06,1.1-1.57,2.23-2.75,5.86-5.38,10.47-7.95l37.13-20.36,37.17-20.36c5.49-3,10.47-4.76,14.46-4.76.63,0,1.29.05,1.98.15,3.59.44,7.84,2.09,12.45,4.61l37.17,20.36,37.17,20.36c4.61,2.56,8.2,5.2,10.44,7.95.44.51.82,1.04,1.14,1.57.29.51.59,1.1.84,1.72,1.39,3.19,2.01,7.47,2.01,12.52h0ZM195.49,99.4c0-3.59-1.94-6.88-5.05-8.57l-55.92-30.65c-2.93-1.61-6.48-1.61-9.41,0l-14.24,7.8c-1.68.95-1.68,3.37,0,4.28l42.62,23.36c1.68.95,1.68,3.37,0,4.28l-18.97,10.4c-2.93,1.61-6.48,1.61-9.41,0l-41.01-22.48c-2.93-1.61-6.48-1.61-9.41,0l-5.46,3c-3.15,1.72-5.09,4.98-5.09,8.57v2.56l49.62,27.21c3.15,1.68,5.09,4.98,5.09,8.53v51.78c0,1.76.95,3.41,2.53,4.28l3.74,2.05c2.93,1.61,6.48,1.61,9.41,0l3.77-2.05c1.54-.88,2.53-2.53,2.53-4.28v-51.78c0-3.55,1.94-6.85,5.09-8.53l23.98-13.18c1.65-.88,3.63.29,3.63,2.16v52.14c0,1.87,1.98,3.04,3.63,2.16l13.29-7.29c3.11-1.72,5.05-5.02,5.05-8.57v-57.2ZM86.11,128.04c0-1.76-.95-3.41-2.53-4.28l-15.82-8.68c-1.65-.88-3.63.29-3.63,2.16v39.36c0,3.55,1.94,6.85,5.09,8.57l13.29,7.29c1.61.88,3.59-.29,3.59-2.16v-42.26Z"/>
</svg>