<svg
   id="uuid-d837f90e-3a4b-44c2-81ee-d7b8ed5bc69b"
   data-name="C1"
   width="1920"
   height="773"
   viewBox="0 0 1920 773"
   version="1.1"
   xml:space="preserve"
   xmlns="http://www.w3.org/2000/svg"
   xmlns:svg="http://www.w3.org/2000/svg"><defs
     id="defs1"><style
       id="style1">
      .uuid-c90f1ad1-f831-4e7c-956b-467930e03b8f {
        fill: none;
      }

      .uuid-04a06d85-28dc-4ddd-a18a-468519060675 {
        fill: #e2111a;
      }
    </style></defs><rect
     class="uuid-c90f1ad1-f831-4e7c-956b-467930e03b8f"
     width="1920"
     height="773"
     id="rect1"
     x="0"
     y="0" /><g
     id="g2"
     transform="matrix(4.5528138,0,0,4.5528138,3.9079638,22.271254)"><path
       d="m 0,111.36 c 0,4.1599 3.4759,8.3198 8.2158,8.3198 h 31.615 v 32.003 c 0,4.1599 3.4759,8.3198 8.2158,8.3198 h 27.031 V 84.0006 H -4e-4 Z M 100.21,0 C 67.175,0 40.783,26.559 40.783,59.355 V 71.999 H 73.97 V 59.355 c 0,-14.236 11.54,-25.755 26.239,-25.755 14.54,0 24.659,10.236 24.659,25.435 0,15.044 -10.908,26.083 -25.455,26.083 H 86.929 v 33.591 h 12.484 c 32.411,0 58.651,-26.711 58.651,-59.679 0,-34.231 -24.499,-59.031 -57.855,-59.031"
       fill="#4acbd6"
       id="path1" /><path
       d="M 420,119.68 399.289,96.005 417.785,74.722 h -11.548 l -16.588,19.84 V 54.411 l -9.8038,4.9559 v 57.759 c 0,1.436 1.104,2.5599 2.3719,2.5599 h 7.4318 v -22.399 l 18.332,22.399 h 12.02 z M 349.182,73.437 c -7.9078,0 -16.128,4.1679 -20.236,10.244 v 33.599 c 0,1.276 1.112,2.4 2.3719,2.4 h 7.4318 V 87.681 c 2.3639,-3.0359 6.1638,-4.9559 10.432,-4.9559 6.7958,0 11.692,5.4359 11.692,12.636 v 24.319 h 9.6438 v -24.639 c 0.004,-12.316 -9.1678,-21.603 -21.335,-21.603 m -35.091,-19.992 c -3.6319,0 -6.6398,2.8839 -6.6398,6.5598 0,1.76 0.62799,3.1959 1.736,4.3199 h 9.8038 c 1.104,-1.124 1.736,-2.5599 1.736,-4.3199 0.004,-3.6799 -2.9999,-6.5598 -6.6358,-6.5598 m 4.9039,66.234 v -44.959 h -9.8038 v 42.559 c 0,1.276 1.112,2.4 2.3719,2.4 z m -29.563,-2.4 c 0,1.276 1.112,2.4 2.372,2.4 h 7.4318 v -65.27 l -9.8038,4.9559 z m -21.971,-15.196 h 13.28 v -9.9237 h -18.024 z m -34.615,-28.159 c -8.3758,0 -17.228,4.4799 -21.655,11.04 v 49.271 c 0,1.284 1.104,2.4 2.3719,2.4 h 7.4238 v -47.671 c 2.3719,-3.5239 6.7998,-5.7639 11.7,-5.7639 7.5838,0 13.12,5.7639 13.12,13.92 0,8.0038 -5.5359,14.084 -13.12,14.084 h -6.9558 v 8.4798 h 7.1158 c 13.12,0 22.759,-9.4398 22.759,-22.559 -0.004,-13.284 -9.7998,-23.199 -22.759,-23.199 m -43.943,30.711 V 83.523 h 12.644 v -8.7998 h -12.644 v -13.592 l -9.8038,4.9559 v 40.643 c 0,8.3158 4.8999,12.96 13.596,12.96 h 12.644 v -8.4798 h -10.112 c -4.7479,-0.004 -6.3238,-1.772 -6.3238,-6.5718"
       id="path2" /></g></svg>
