<?xml version="1.0" encoding="UTF-8" standalone="no"?>
<svg
   id="uuid-19907d1f-9315-477d-b7ba-91ae3e2acc9a"
   data-name="Capa 1"
   viewBox="0 0 256 256"
   version="1.1"
   sodipodi:docname="logo-salesforce-1.svg"
   xml:space="preserve"
   inkscape:export-filename="logo-salesforce-1.svg"
   inkscape:export-xdpi="96"
   inkscape:export-ydpi="96"
   width="256"
   height="256"
   xmlns:inkscape="http://www.inkscape.org/namespaces/inkscape"
   xmlns:sodipodi="http://sodipodi.sourceforge.net/DTD/sodipodi-0.dtd"
   xmlns="http://www.w3.org/2000/svg"
   xmlns:svg="http://www.w3.org/2000/svg"><sodipodi:namedview
     id="namedview7"
     pagecolor="#ffffff"
     bordercolor="#000000"
     borderopacity="0.25"
     inkscape:showpageshadow="2"
     inkscape:pageopacity="0.0"
     inkscape:pagecheckerboard="0"
     inkscape:deskcolor="#d1d1d1"><inkscape:page
       x="0"
       y="0"
       width="256"
       height="256"
       id="page2"
       margin="0"
       bleed="0" /></sodipodi:namedview><defs
     id="defs2"><style
       id="style1">
      .uuid-153302a6-b94e-4ad0-9cfb-43725c5c5610 {
        fill: url(#uuid-af07a271-8980-47e6-b92b-41550c7dc68a);
      }

      .uuid-27fce091-ee3a-4889-9199-28416b94f462 {
        fill: url(#uuid-dc53e15d-e646-4f9b-aab3-d9d8fec05b0e);
      }

      .uuid-5da2c4a3-8db1-41d9-92d6-1ab0c264b0da {
        fill: none;
      }

      .uuid-ed4306aa-b6e6-45eb-bfe3-e4f85f33ea76 {
        fill: url(#uuid-afdc0b81-5c65-49b4-9e34-1cf3c2f4f8f7);
      }

      .uuid-03bde706-b35e-416f-8ae5-693e38f68253 {
        fill: url(#uuid-8e0b3ff5-2b0d-4ede-9e3a-d9af7f50b81e);
      }

      .uuid-aed79b63-67fc-4862-91f2-2516d39da3fa {
        fill: url(#uuid-5be9ed93-6987-4def-8687-537049e4e1cf);
      }

      .uuid-7fb198ab-10f1-4f2d-9a38-66668a795b4d {
        fill: url(#uuid-ebe94990-143f-470c-b744-73e231e6133d);
      }
    </style></defs><rect
     class="uuid-5da2c4a3-8db1-41d9-92d6-1ab0c264b0da"
     width="256"
     height="256"
     id="rect2"
     x="0"
     y="0" /><g
     id="g8"
     transform="matrix(2.9721243,0,0,2.9721243,-50.324486,38.837787)"><path
       d="m 53.782,9.765 c 2.39,-2.476 5.72,-4.04 9.392,-4.04 4.895,0 9.136,2.732 11.412,6.773 1.964,-0.882 4.155,-1.366 6.46,-1.366 8.823,0 15.937,7.2 15.937,16.08 0,8.88 -7.143,16.078 -15.937,16.078 -1.08,0 -2.134,-0.114 -3.13,-0.313 -1.992,3.557 -5.806,5.977 -10.19,5.977 -1.82,0 -3.557,-0.427 -5.094,-1.167 -2.02,4.753 -6.745,8.11 -12.238,8.11 -5.72,0 -10.615,-3.614 -12.494,-8.71 a 12.54,12.54 0 0 1 -2.533,0.256 c -6.83,0 -12.352,-5.578 -12.352,-12.494 0,-4.6 2.476,-8.652 6.176,-10.815 -0.768,-1.736 -1.195,-3.67 -1.195,-5.72 C 27.97,10.534 34.43,4.102 42.34,4.102 a 14.34,14.34 0 0 1 11.441,5.663"
       fill="#00a1e0"
       id="path1-1" /><path
       d="m 33.717,30.968 0.313,-0.825 c 0.057,-0.142 0.142,-0.085 0.2,-0.057 l 0.256,0.17 c 0.882,0.57 1.708,0.57 1.964,0.57 0.655,0 1.08,-0.342 1.08,-0.825 v -0.028 c 0,-0.512 -0.626,-0.71 -1.366,-0.94 l -0.17,-0.057 c -0.996,-0.285 -2.078,-0.71 -2.078,-1.964 v -0.028 c 0,-1.195 0.968,-2.05 2.362,-2.05 h 0.142 c 0.825,0 1.594,0.228 2.163,0.598 0.057,0.028 0.114,0.085 0.085,0.17 l -0.313,0.825 c -0.057,0.142 -0.2,0.057 -0.2,0.057 -0.512,-0.285 -1.28,-0.484 -1.935,-0.484 -0.598,0 -0.968,0.313 -0.968,0.74 v 0.028 c 0,0.484 0.655,0.71 1.395,0.94 l 0.142,0.028 c 0.996,0.313 2.05,0.74 2.05,1.964 v 0.028 c 0,1.31 -0.94,2.106 -2.448,2.106 -0.74,0 -1.45,-0.114 -2.22,-0.512 -0.142,-0.085 -0.285,-0.142 -0.427,-0.256 -0.028,-0.057 -0.085,-0.085 -0.028,-0.2 z m 22.2,0 0.313,-0.825 c 0.057,-0.142 0.17,-0.085 0.2,-0.057 l 0.256,0.17 c 0.882,0.57 1.708,0.57 1.964,0.57 0.655,0 1.08,-0.342 1.08,-0.825 v -0.028 c 0,-0.512 -0.626,-0.71 -1.366,-0.94 l -0.17,-0.057 c -0.996,-0.285 -2.078,-0.71 -2.078,-1.964 v -0.028 c 0,-1.195 0.968,-2.05 2.362,-2.05 h 0.142 c 0.825,0 1.594,0.228 2.163,0.598 0.057,0.028 0.114,0.085 0.085,0.17 l -0.313,0.825 c -0.057,0.142 -0.2,0.057 -0.2,0.057 -0.512,-0.285 -1.28,-0.484 -1.935,-0.484 -0.598,0 -0.968,0.313 -0.968,0.74 v 0.028 c 0,0.484 0.655,0.71 1.395,0.94 l 0.142,0.028 c 0.996,0.313 2.05,0.74 2.05,1.964 v 0.028 c 0,1.31 -0.94,2.106 -2.448,2.106 -0.74,0 -1.45,-0.114 -2.22,-0.512 -0.142,-0.085 -0.285,-0.142 -0.427,-0.256 0,-0.057 -0.057,-0.085 -0.028,-0.2 z m 16.45,-3.9 c 0.114,0.427 0.2,0.882 0.2,1.366 0,0.484 -0.057,0.94 -0.2,1.366 -0.114,0.427 -0.313,0.797 -0.57,1.1 a 2.75,2.75 0 0 1 -0.968,0.74 c -0.398,0.17 -0.854,0.256 -1.366,0.256 -0.512,0 -0.968,-0.085 -1.366,-0.256 -0.398,-0.171 -0.71,-0.427 -0.968,-0.74 -0.258,-0.313 -0.455,-0.683 -0.57,-1.1 -0.115,-0.417 -0.2,-0.882 -0.2,-1.366 0,-0.484 0.057,-0.94 0.2,-1.366 0.114,-0.427 0.313,-0.797 0.57,-1.1 a 2.75,2.75 0 0 1 0.968,-0.74 3.44,3.44 0 0 1 1.366,-0.285 c 0.512,0 0.968,0.085 1.366,0.285 0.398,0.17 0.71,0.427 0.968,0.74 0.258,0.313 0.455,0.683 0.57,1.1 z m -1.28,1.338 c 0,-0.74 -0.142,-1.31 -0.398,-1.708 C 70.433,26.3 70.006,26.1 69.465,26.1 c -0.57,0 -0.968,0.2 -1.224,0.598 -0.256,0.398 -0.398,0.968 -0.398,1.708 0,0.74 0.142,1.31 0.398,1.736 0.256,0.398 0.655,0.598 1.224,0.598 0.569,0 0.968,-0.2 1.224,-0.598 0.285,-0.398 0.398,-0.996 0.398,-1.736 z m 11.697,2.134 0.313,0.854 c 0.028,0.114 -0.057,0.142 -0.057,0.142 -0.484,0.2 -1.138,0.313 -1.793,0.313 -1.1,0 -1.935,-0.313 -2.504,-0.94 -0.569,-0.627 -0.854,-1.48 -0.854,-2.533 0,-0.484 0.057,-0.94 0.2,-1.366 0.143,-0.426 0.342,-0.797 0.626,-1.1 a 2.96,2.96 0 0 1 1.025,-0.74 3.62,3.62 0 0 1 1.423,-0.285 8.3,8.3 0 0 1 0.939,0.057 c 0.285,0.057 0.683,0.142 0.854,0.228 0.028,0 0.114,0.057 0.085,0.142 l -0.313,0.854 c -0.057,0.142 -0.142,0.085 -0.142,0.085 -0.427,-0.142 -0.825,-0.2 -1.338,-0.2 -0.626,0 -1.1,0.2 -1.395,0.626 -0.313,0.398 -0.484,0.94 -0.484,1.68 0,0.797 0.2,1.366 0.54,1.736 0.34,0.37 0.825,0.54 1.45,0.54 0.256,0 0.484,-0.028 0.683,-0.057 0.199,-0.029 0.398,-0.085 0.598,-0.17 -0.028,0.057 0.085,0.028 0.142,0.142 z m 6.46,-3.728 c 0.285,0.968 0.142,1.793 0.114,1.85 0,0.114 -0.114,0.114 -0.114,0.114 h -4.297 c 0.028,0.655 0.17,1.1 0.512,1.423 0.313,0.313 0.797,0.512 1.48,0.512 1.025,0 1.45,-0.2 1.765,-0.313 0,0 0.114,-0.028 0.17,0.085 l 0.285,0.797 c 0.057,0.142 0,0.17 -0.028,0.2 -0.256,0.142 -0.91,0.427 -2.163,0.427 -0.598,0 -1.138,-0.085 -1.565,-0.256 -0.427,-0.171 -0.797,-0.398 -1.08,-0.71 -0.283,-0.312 -0.484,-0.683 -0.626,-1.08 -0.142,-0.427 -0.2,-0.882 -0.2,-1.366 0,-0.484 0.057,-0.94 0.2,-1.366 0.114,-0.427 0.313,-0.797 0.57,-1.1 0.257,-0.303 0.598,-0.57 0.996,-0.74 0.398,-0.2 0.882,-0.285 1.423,-0.285 0.455,0 0.882,0.085 1.224,0.256 0.256,0.114 0.54,0.313 0.825,0.626 0.142,0.114 0.398,0.54 0.512,0.94 z m -4.27,0.91 h 3.045 c -0.028,-0.398 -0.114,-0.74 -0.285,-1.025 -0.256,-0.398 -0.626,-0.626 -1.195,-0.626 -0.569,0 -0.968,0.228 -1.224,0.626 -0.17,0.256 -0.256,0.598 -0.342,1.025 z m -30.082,-0.91 c 0.285,0.968 0.142,1.793 0.142,1.85 0,0.114 -0.114,0.114 -0.114,0.114 h -4.297 c 0.028,0.655 0.17,1.1 0.512,1.423 0.313,0.313 0.797,0.512 1.48,0.512 1.025,0 1.45,-0.2 1.765,-0.313 0,0 0.114,-0.028 0.17,0.085 l 0.285,0.797 c 0.057,0.142 0,0.17 -0.028,0.2 -0.256,0.142 -0.91,0.427 -2.163,0.427 -0.598,0 -1.138,-0.085 -1.565,-0.256 -0.427,-0.171 -0.797,-0.398 -1.08,-0.71 -0.283,-0.312 -0.484,-0.683 -0.626,-1.08 -0.142,-0.427 -0.2,-0.882 -0.2,-1.366 0,-0.484 0.057,-0.94 0.2,-1.366 0.114,-0.427 0.313,-0.797 0.57,-1.1 0.257,-0.303 0.598,-0.57 0.996,-0.74 0.398,-0.2 0.882,-0.285 1.423,-0.285 0.455,0 0.882,0.085 1.224,0.256 0.256,0.114 0.54,0.313 0.825,0.626 0.114,0.114 0.398,0.54 0.484,0.94 z m -4.27,0.91 h 3.074 c -0.028,-0.398 -0.114,-0.74 -0.285,-1.025 -0.256,-0.398 -0.626,-0.626 -1.195,-0.626 -0.569,0 -0.968,0.228 -1.224,0.626 -0.2,0.256 -0.285,0.598 -0.37,1.025 z m -7.542,-0.228 0.71,0.085 v -0.17 c 0,-0.57 -0.114,-0.854 -0.342,-1.025 -0.228,-0.171 -0.598,-0.285 -1.053,-0.285 0,0 -1.053,0 -1.878,0.427 -0.028,0.028 -0.057,0.028 -0.057,0.028 0,0 -0.114,0.028 -0.142,-0.057 l -0.313,-0.825 c -0.057,-0.114 0.028,-0.17 0.028,-0.17 0.398,-0.313 1.31,-0.484 1.31,-0.484 0.313,-0.057 0.825,-0.114 1.138,-0.114 0.854,0 1.508,0.2 1.964,0.598 0.456,0.398 0.683,1.025 0.683,1.907 v 3.927 c 0,0 0,0.114 -0.085,0.142 0,0 -0.17,0.057 -0.313,0.085 l -1.08,0.2 c -0.427,0.085 -0.854,0.114 -1.31,0.114 -0.427,0 -0.797,-0.028 -1.138,-0.114 -0.341,-0.086 -0.626,-0.2 -0.882,-0.37 -0.228,-0.17 -0.427,-0.398 -0.57,-0.683 -0.142,-0.256 -0.2,-0.598 -0.2,-0.968 0,-0.37 0.085,-0.71 0.228,-0.996 0.143,-0.286 0.37,-0.512 0.626,-0.71 0.256,-0.198 0.57,-0.313 0.882,-0.427 0.342,-0.085 0.683,-0.142 1.053,-0.142 l 0.74,0.028 z m -1.708,3.017 c 0,0 0.398,0.313 1.252,0.256 0.626,-0.028 1.167,-0.142 1.167,-0.142 v -1.964 c 0,0 -0.54,-0.085 -1.167,-0.085 -0.882,0 -1.252,0.313 -1.252,0.313 -0.256,0.17 -0.37,0.455 -0.37,0.825 a 1.12,1.12 0 0 0 0.142,0.569 c 0.028,0.057 0.057,0.114 0.228,0.228 z m 36.286,-5.208 c -0.028,0.114 -0.256,0.71 -0.313,0.91 -0.028,0.085 -0.085,0.114 -0.17,0.114 0,0 -0.256,-0.057 -0.484,-0.057 a 2.3,2.3 0 0 0 -0.569,0.085 c -0.2,0.057 -0.37,0.17 -0.54,0.313 -0.17,0.143 -0.285,0.37 -0.37,0.626 -0.085,0.256 -0.142,0.683 -0.142,1.138 v 3.187 c 0,0.085 -0.057,0.142 -0.142,0.142 H 73.79 c -0.085,0 -0.142,-0.057 -0.142,-0.142 V 25.22 c 0,-0.085 0.057,-0.142 0.114,-0.142 h 1.1 c 0.085,0 0.114,0.057 0.114,0.142 v 0.512 c 0.17,-0.228 0.455,-0.427 0.71,-0.54 0.255,-0.113 0.57,-0.2 1.1,-0.17 0.285,0.028 0.655,0.085 0.71,0.114 0.114,0.028 0.17,0.057 0.142,0.17 z m -10.56,-2.96 c 0.028,0 0.114,0.057 0.085,0.142 l -0.342,0.91 c -0.028,0.057 -0.057,0.114 -0.2,0.057 -0.028,0 -0.085,-0.028 -0.228,-0.057 -0.085,-0.028 -0.228,-0.028 -0.342,-0.028 -0.17,0 -0.313,0.028 -0.455,0.057 -0.142,0.029 -0.256,0.114 -0.37,0.228 -0.114,0.114 -0.228,0.256 -0.313,0.455 -0.17,0.455 -0.228,0.94 -0.228,0.968 h 1.366 c 0.114,0 0.142,0.057 0.142,0.142 l -0.17,0.882 c -0.028,0.142 -0.142,0.114 -0.142,0.114 h -1.423 l -0.91,5.493 c -0.114,0.57 -0.228,1.053 -0.37,1.45 -0.142,0.397 -0.313,0.683 -0.57,0.968 -0.228,0.256 -0.484,0.455 -0.797,0.54 -0.285,0.114 -0.655,0.17 -1.053,0.17 -0.2,0 -0.398,0 -0.626,-0.057 a 1.63,1.63 0 0 1 -0.398,-0.114 c -0.057,-0.028 -0.085,-0.085 -0.057,-0.17 l 0.313,-0.882 c 0.057,-0.114 0.142,-0.057 0.142,-0.057 l 0.228,0.085 c 0.114,0.028 0.228,0.028 0.342,0.028 0.2,0 0.37,-0.028 0.512,-0.085 0.17,-0.057 0.285,-0.17 0.398,-0.313 0.113,-0.143 0.2,-0.342 0.313,-0.598 a 9.58,9.58 0 0 0 0.256,-1.053 l 0.968,-5.38 h -0.94 c -0.114,0 -0.142,-0.057 -0.142,-0.142 l 0.17,-0.882 C 62.285,25.072 62.399,25.1 62.399,25.1 h 0.968 l 0.057,-0.285 c 0.142,-0.854 0.427,-1.508 0.854,-1.935 0.427,-0.427 1.053,-0.655 1.82,-0.655 0.228,0 0.427,0.028 0.598,0.057 0.114,-0.028 0.256,0 0.398,0.057 z m -19.182,9.25 c 0,0.085 -0.057,0.142 -0.114,0.142 h -1.138 c -0.085,0 -0.114,-0.057 -0.114,-0.142 v -9.136 c 0,-0.057 0.057,-0.142 0.114,-0.142 h 1.138 c 0.085,0 0.114,0.057 0.114,0.142 z"
       fill="#ffffff"
       id="path2" /></g></svg>
