<?xml version="1.0" encoding="UTF-8" standalone="no"?>
<svg
   data-name="Capa 1"
   viewBox="0 0 256 256"
   version="1.1"
   id="svg8"
   xml:space="preserve"
   width="256"
   height="256"
   xmlns="http://www.w3.org/2000/svg"
   xmlns:svg="http://www.w3.org/2000/svg"><defs
     id="defs2"><linearGradient
       id="a-5"
       x1="55.877998"
       x2="35.084"
       y1="30.409"
       y2="50.474998"
       gradientUnits="userSpaceOnUse"><stop
         stop-color="#F04C1C"
         id="stop12" /><stop
         offset=".355"
         stop-color="#F47421"
         stop-opacity="0"
         id="stop13" /></linearGradient><linearGradient
       id="c-5"
       x1="55.877998"
       x2="35.084"
       y1="30.409"
       y2="50.474998"
       gradientUnits="userSpaceOnUse"><stop
         offset=".5"
         stop-color="#F47421"
         stop-opacity="0"
         id="stop14" /><stop
         offset=".98"
         stop-color="#FFB000"
         id="stop15" /></linearGradient><linearGradient
       id="d-1"
       x1="16.416"
       x2="16.416"
       y1="76.347"
       y2="1.2359999"
       gradientUnits="userSpaceOnUse"><stop
         offset=".534"
         stop-color="#ED3118"
         id="stop16" /><stop
         offset="1"
         stop-color="#F47421"
         id="stop17" /></linearGradient><linearGradient
       id="e-7"
       x1="59.417999"
       x2="70.036003"
       y1="25.294001"
       y2="15.085"
       gradientUnits="userSpaceOnUse"><stop
         stop-color="#F04C1C"
         id="stop18" /><stop
         offset=".355"
         stop-color="#F47421"
         stop-opacity="0"
         id="stop19" /></linearGradient><linearGradient
       id="g"
       x1="59.417999"
       x2="70.036003"
       y1="25.294001"
       y2="15.085"
       gradientUnits="userSpaceOnUse"><stop
         offset=".5"
         stop-color="#F47421"
         stop-opacity="0"
         id="stop20" /><stop
         offset=".98"
         stop-color="#FFB000"
         id="stop21" /></linearGradient><linearGradient
       id="h"
       x1="79.473999"
       x2="79.473999"
       y1="2.063"
       y2="40.411999"
       gradientUnits="userSpaceOnUse"><stop
         offset=".534"
         stop-color="#ED3118"
         id="stop22" /><stop
         offset="1"
         stop-color="#F47421"
         id="stop23" /></linearGradient><radialGradient
       id="b-1"
       cx="0"
       cy="0"
       r="1"
       gradientTransform="matrix(60.1775,0,0,60.3641,44.154,40.458)"
       gradientUnits="userSpaceOnUse"><stop
         offset=".328"
         stop-color="#F47421"
         stop-opacity="0"
         id="stop24" /><stop
         offset="1"
         stop-color="#FFB000"
         id="stop25" /></radialGradient><radialGradient
       id="f-1"
       cx="0"
       cy="0"
       r="1"
       gradientTransform="matrix(-30.8437,0,0,-30.9393,65.31,20.355)"
       gradientUnits="userSpaceOnUse"><stop
         offset=".328"
         stop-color="#F47421"
         stop-opacity="0"
         id="stop26" /><stop
         offset="1"
         stop-color="#FFB000"
         id="stop27" /></radialGradient></defs><path
     style="fill:none"
     d="M 0,0 H 256 V 256 H 0 Z"
     id="path2" /><g
     style="fill:none"
     id="g8"
     transform="matrix(2.5106602,0,0,2.5106602,17.535936,27.573252)"><path
       fill="#f47421"
       d="m 83.82,74.722 c -5.98,6.398 -16.344,7.197 -22.722,1.2 L 5.69,27.537 C -1.087,21.54 -1.486,11.943 4.493,5.146 c 5.98,-6.398 15.945,-6.798 22.722,-1.2 l 55.41,48.783 c 6.377,5.598 7.174,15.595 1.195,21.993 z"
       id="path1" /><path
       fill="url(#a)"
       d="m 83.82,74.722 c -5.98,6.398 -16.344,7.197 -22.722,1.2 L 5.69,27.537 C -1.087,21.54 -1.486,11.943 4.493,5.146 c 5.98,-6.398 15.945,-6.798 22.722,-1.2 l 55.41,48.783 c 6.377,5.598 7.174,15.595 1.195,21.993 z"
       id="path2-0"
       style="fill:url(#a-5)" /><path
       fill="url(#b)"
       d="m 83.82,74.722 c -5.98,6.398 -16.344,7.197 -22.722,1.2 L 5.69,27.537 C -1.087,21.54 -1.486,11.943 4.493,5.146 c 5.98,-6.398 15.945,-6.798 22.722,-1.2 l 55.41,48.783 c 6.377,5.598 7.174,15.595 1.195,21.993 z"
       id="path3-9"
       style="fill:url(#b-1)" /><path
       fill="url(#c)"
       d="m 83.82,74.722 c -5.98,6.398 -16.344,7.197 -22.722,1.2 L 5.69,27.537 C -1.087,21.54 -1.486,11.943 4.493,5.146 c 5.98,-6.398 15.945,-6.798 22.722,-1.2 l 55.41,48.783 c 6.377,5.598 7.174,15.595 1.195,21.993 z"
       id="path4-4"
       style="fill:url(#c-5)" /><path
       fill="#f47421"
       d="M 16.453,79.972 C 7.285,79.972 0.11,72.775 0.11,64.379 V 15.995 C 0.11,7.198 7.285,0 16.453,0 c 8.77,0 16.344,7.198 16.344,15.995 v 48.383 c 0,8.397 -7.574,15.594 -16.344,15.594 z"
       id="path5-8" /><path
       fill="url(#d)"
       d="M 16.453,79.972 C 7.285,79.972 0.11,72.775 0.11,64.379 V 15.995 C 0.11,7.198 7.285,0 16.453,0 c 8.77,0 16.344,7.198 16.344,15.995 v 48.383 c 0,8.397 -7.574,15.594 -16.344,15.594 z"
       id="path6-8"
       style="fill:url(#d-1)" /><path
       fill="#f47421"
       d="m 44.838,2.877 c 3.19,-3.2 8.372,-3.6 11.56,-0.8 l 28.303,24.791 c 3.19,2.8 3.588,7.998 0.797,11.197 -3.189,3.198 -8.37,3.598 -11.56,0.4 L 45.636,14.072 C 42.048,11.272 42.048,6.075 44.838,2.876 Z"
       id="path7-2" /><path
       fill="url(#e)"
       d="m 44.838,2.877 c 3.19,-3.2 8.372,-3.6 11.56,-0.8 l 28.303,24.791 c 3.19,2.8 3.588,7.998 0.797,11.197 -3.189,3.198 -8.37,3.598 -11.56,0.4 L 45.636,14.072 C 42.048,11.272 42.048,6.075 44.838,2.876 Z"
       id="path8-4"
       style="fill:url(#e-7)" /><path
       fill="url(#f)"
       d="m 44.838,2.877 c 3.19,-3.2 8.372,-3.6 11.56,-0.8 l 28.303,24.791 c 3.19,2.8 3.588,7.998 0.797,11.197 -3.189,3.198 -8.37,3.598 -11.56,0.4 L 45.636,14.072 C 42.048,11.272 42.048,6.075 44.838,2.876 Z"
       id="path9"
       style="fill:url(#f-1)" /><path
       fill="url(#g)"
       d="m 44.838,2.877 c 3.19,-3.2 8.372,-3.6 11.56,-0.8 l 28.303,24.791 c 3.19,2.8 3.588,7.998 0.797,11.197 -3.189,3.198 -8.37,3.598 -11.56,0.4 L 45.636,14.072 C 42.048,11.272 42.048,6.075 44.838,2.876 Z"
       id="path10"
       style="fill:url(#g)" /><path
       fill="#f47421"
       d="m 79.504,0.078 c 4.783,0 8.371,3.598 8.371,7.997 v 24.791 c 0,4.399 -3.588,7.998 -8.371,7.998 -4.385,0 -8.371,-3.6 -8.371,-7.998 V 8.075 c 0,-4.399 3.986,-7.997 8.371,-7.997 z"
       id="path11" /><path
       fill="url(#h)"
       d="m 79.504,0.078 c 4.783,0 8.371,3.598 8.371,7.997 v 24.791 c 0,4.399 -3.588,7.998 -8.371,7.998 -4.385,0 -8.371,-3.6 -8.371,-7.998 V 8.075 c 0,-4.399 3.986,-7.997 8.371,-7.997 z"
       id="path12"
       style="fill:url(#h)" /></g></svg>
