<?xml version="1.0" encoding="UTF-8" standalone="no"?>
<svg
   id="uuid-d837f90e-3a4b-44c2-81ee-d7b8ed5bc69b"
   data-name="Capa 1"
   width="1920"
   height="773"
   viewBox="0 0 1920 773"
   version="1.1"
   xml:space="preserve"
   xmlns="http://www.w3.org/2000/svg"
   xmlns:svg="http://www.w3.org/2000/svg"><defs
     id="defs1"><style
       id="style1">
      .uuid-c90f1ad1-f831-4e7c-956b-467930e03b8f {
        fill: none;
      }

      .uuid-04a06d85-28dc-4ddd-a18a-468519060675 {
        fill: #e2111a;
      }
    </style></defs><rect
     class="uuid-c90f1ad1-f831-4e7c-956b-467930e03b8f"
     width="1920"
     height="773"
     id="rect1"
     x="0"
     y="0" /><style
     type="text/css"
     id="style1-0">
	.st0{fill:#F04E23;}
</style><g
     transform="matrix(1.4096512,0,0,1.4155452,5.2546474,211.15642)"
     id="g14"><path
       d="m 575.7,45.45 c -17.5,0 -35.68,4.77 -58.18,16.82 l 12.5,30.91 c 19.54,-10.91 35.68,-15.68 47.5,-15.68 13.41,0 19.32,5 19.32,11.59 v 0.45 c 0,4.55 -3.64,7.05 -12.5,7.96 l -15.45,1.59 c -38.64,4.09 -54.55,20.91 -54.55,44.09 v 1.59 c 0,22.05 18.18,39.32 43.86,39.32 16.91,0 31.6,-7.14 40.53,-19.74 l 2.88,17.47 h 35 V 102.5 C 636.61,65 615.02,45.45 575.7,45.45 m -3.41,108.4 c -12.95,0 -19.09,-5 -19.09,-12.73 v -0.45 c 0,-6.82 3.86,-11.82 17.95,-13.86 l 6.14,-0.91 c 8.97,-1.25 14.48,-2.9 19.55,-5.97 v 10.06 c 0,15.23 -9.55,23.86 -24.55,23.86"
       id="path1-9" /><polygon
       class="st0"
       points="156.6,180.9 134.3,158.6 246.6,46.36 201.8,1.59 157,46.36 179.3,68.64 67.05,180.9 111.8,225.7 "
       id="polygon1" /><rect
       class="st0"
       transform="matrix(0.7071,-0.7071,0.7071,0.7071,-33.65,78.99)"
       x="-0.87"
       y="48.450001"
       width="158.8"
       height="63.32"
       id="rect1-4" /><rect
       class="st0"
       transform="matrix(0.7071,-0.7071,0.7071,0.7071,-35.19,209.4)"
       x="155.7"
       y="115.5"
       width="158.8"
       height="63.32"
       id="rect2" /><rect
       x="659.29999"
       width="39.77"
       height="181.8"
       id="rect3"
       y="0" /><path
       d="m 447.5,45.45 c -18.08,0 -32.6,8 -40.59,20.53 l -3.04,-18.26 h -35 v 179.5 h 39.77 v -62.23 c 7.57,11.67 21.89,19.05 38.86,19.05 31.82,0 57.73,-28.18 57.73,-67.05 v -4.55 c 0,-38.84 -25.91,-67.03 -57.73,-67.03 m 16.82,70.46 c 0,20.45 -10.68,35.23 -28.41,35.23 -17.73,0 -28.41,-14.77 -28.41,-35.23 v -2.27 c 0,-20.46 10.68,-35.23 28.41,-35.23 17.73,0 28.41,14.77 28.41,35.23 z"
       id="path3" /><path
       d="m 1236,45.45 c -40.68,0 -69.32,28.18 -69.32,67.05 v 4.55 c 0,38.86 28.64,67.05 69.32,67.05 40.68,0 69.32,-28.18 69.32,-67.05 v -4.55 c 0,-38.86 -28.64,-67.05 -69.32,-67.05 m 28.41,70.46 c 0,20.45 -10.68,35.23 -28.41,35.23 -17.73,0 -28.41,-14.77 -28.41,-35.23 v -2.27 c 0,-20.46 10.68,-35.23 28.41,-35.23 17.73,0 28.41,14.77 28.41,35.23 z"
       id="path4" /><path
       d="m 1342,53.64 v -0.68 c 0,-3.86 -2.95,-6.59 -8.18,-6.59 h -9.09 v 20.91 h 4.32 v -7.05 h 4.8 l 3.61,7.05 h 4.77 l -4.44,-8.27 c 2.7,-0.83 4.21,-2.85 4.21,-5.37 m -12.96,-3.41 h 4.77 c 2.73,0 3.86,0.91 3.86,2.96 v 0.23 c 0,1.82 -1.14,2.95 -3.86,2.95 h -4.77 z"
       id="path5" /><path
       d="m 1333,35.23 c -12.27,0 -21.59,9.32 -21.59,21.59 0,12.27 9.32,21.59 21.59,21.59 12.27,0 21.59,-9.32 21.59,-21.59 0,-12.27 -9.32,-21.59 -21.59,-21.59 m 0,40.22 c -10.68,0 -18.41,-7.73 -18.41,-18.64 0,-10.91 7.73,-18.64 18.41,-18.64 10.68,0 18.41,7.73 18.41,18.64 0,10.91 -7.73,18.64 -18.41,18.64"
       id="path6" /><rect
       x="1010"
       width="39.77"
       height="181.8"
       id="rect6"
       y="0" /><path
       d="m 1128,151.1 c -11.59,0 -15.91,-5.68 -15.91,-17.95 V 78.37 h 46.82 V 47.69 h -46.82 V 17 l -39.77,5.91 v 114.1 c 0,31.14 15.91,47.05 47.73,47.05 14.09,0 30.68,-4.32 44.32,-12.05 l -11.36,-28.18 c -7.97,4.32 -19.1,7.28 -25.01,7.28"
       id="path7" /><path
       d="m 925.9,45.45 c -17.5,0 -35.68,4.77 -58.18,16.82 l 12.5,30.91 c 19.54,-10.91 35.68,-15.68 47.5,-15.68 13.41,0 19.32,5 19.32,11.59 v 0.45 c 0,4.55 -3.64,7.05 -12.5,7.96 l -15.45,1.59 c -38.64,4.09 -54.55,20.91 -54.55,44.09 v 1.59 c 0,22.05 18.18,39.32 43.86,39.32 16.9,0 31.6,-7.14 40.53,-19.74 l 2.88,17.47 h 35 V 102.5 C 986.81,65 965.22,45.45 925.9,45.45 m -3.41,108.4 c -12.96,0 -19.09,-5 -19.09,-12.73 v -0.45 c 0,-6.82 3.86,-11.82 17.95,-13.86 l 6.14,-0.91 c 8.97,-1.25 14.48,-2.9 19.54,-5.97 v 10.06 c 0,15.23 -9.54,23.86 -24.54,23.86"
       id="path8" /><path
       d="m 786.1,45.45 c -40.68,0 -69.32,28.18 -69.32,67.05 v 4.55 c 0,38.86 28.64,67.05 69.32,67.05 40.68,0 69.32,-28.18 69.32,-67.05 V 112.5 C 855.41,73.64 826.78,45.45 786.1,45.45 m 28.4,70.46 c 0,20.45 -10.68,35.23 -28.41,35.23 -17.73,0 -28.41,-14.77 -28.41,-35.23 v -2.27 c 0,-20.46 10.68,-35.23 28.41,-35.23 17.73,0 28.41,14.77 28.41,35.23 z"
       id="path9" /><polygon
       points="958.3,246.8 948.9,246.8 948.9,214.1 959.1,214.1 973.2,232.6 973.3,232.6 973.3,214.1 982.7,214.1 982.7,246.8 972.8,246.8 958.4,227.8 958.3,227.8 "
       id="polygon9" /><polygon
       points="1024,246.8 995.1,246.8 995.1,214.1 1024,214.1 1024,222 1005,222 1005,226.5 1020,226.5 1020,233.7 1005,233.7 1005,238.8 1025,238.8 "
       id="polygon10" /><polygon
       points="1054,246.8 1045,246.8 1045,222.5 1033,222.5 1033,214.1 1065,214.1 1066,222.5 1054,222.5 "
       id="polygon11" /><polygon
       points="1113,236.8 1114,236.8 1119,214.1 1129,214.1 1120,246.8 1108,246.8 1102,227 1101,227 1095,246.8 1082,246.8 1074,214.1 1084,214.1 1090,236.8 1097,214.1 1107,214.1 "
       id="polygon12" /><path
       d="m 1136,230.4 c 0,-10.66 7.24,-17.34 18.69,-17.34 11.45,0 18.7,6.68 18.7,17.34 0,10.66 -7.24,17.34 -18.7,17.34 -11.45,0 -18.69,-6.69 -18.69,-17.34 m 27.62,0 c 0,-5.65 -3.27,-9.02 -8.93,-9.02 -5.66,0 -8.93,3.37 -8.93,9.02 0,5.66 3.27,9.02 8.88,9.02 5.66,0 8.98,-3.37 8.98,-9.02"
       id="path12" /><path
       d="m 1184,214.1 h 19.07 c 8.69,0 12.95,4.11 12.95,11.73 0,5.23 -2.15,8.79 -6.36,10.47 l 7.76,10.52 h -11.12 l -6.03,-8.6 h -6.45 v 8.6 H 1184 Z m 17.8,16.45 c 3.27,0 4.44,-1.82 4.44,-4.3 0,-2.48 -1.17,-4.25 -4.44,-4.25 h -7.99 v 8.55 z"
       id="path13" /><polygon
       points="1251,229.8 1264,246.7 1264,246.8 1253,246.8 1243,234.2 1239,234.2 1239,246.8 1229,246.8 1229,214.1 1239,214.1 1239,226.1 1243,226.1 1252,214.1 1264,214.1 "
       id="polygon13" /><path
       d="m 1272,244.6 v -8.97 h 0.05 c 5.47,2.76 10.8,4.11 15.42,4.11 3.51,0 5.28,-0.84 5.28,-2.48 0,-1.64 -1.17,-2.06 -8.18,-3.18 -7.66,-1.21 -12.76,-3.51 -12.76,-10.1 0,-6.12 5.38,-10.84 15.89,-10.84 4.21,0 8.6,0.89 12.67,2.62 v 8.88 l -0.05,0.05 c -3.88,-2.24 -9.11,-3.65 -13.32,-3.65 -3.74,0 -5.23,0.89 -5.23,2.38 0,1.92 2.29,2.1 8.04,3.09 7.66,1.31 12.76,3.46 12.76,10.38 0,5.37 -4.02,10.75 -15.56,10.75 -5.7,0 -10.24,-1.17 -15.01,-3.04"
       id="path14" /></g></svg>
