<svg
   id="uuid-19907d1f-9315-477d-b7ba-91ae3e2acc9a"
   data-name="C1"
   viewBox="0 0 256 256"
   version="1.1"
   sodipodi:docname="logo-siu-sudocu-1.svg"
   xml:space="preserve"
   width="256"
   height="256"
   xmlns:inkscape="http://www.inkscape.org/namespaces/inkscape"
   xmlns:sodipodi="http://sodipodi.sourceforge.net/DTD/sodipodi-0.dtd"
   xmlns="http://www.w3.org/2000/svg"
   xmlns:svg="http://www.w3.org/2000/svg"><sodipodi:namedview
     id="namedview7"
     pagecolor="#ffffff"
     bordercolor="#000000"
     borderopacity="0.25"
     inkscape:showpageshadow="2"
     inkscape:pageopacity="0.0"
     inkscape:pagecheckerboard="0"
     inkscape:deskcolor="#d1d1d1"><inkscape:page
       x="0"
       y="0"
       width="256"
       height="256"
       id="page2"
       margin="0"
       bleed="0" /></sodipodi:namedview><defs
     id="defs2"><style
       id="style1">
      .uuid-153302a6-b94e-4ad0-9cfb-43725c5c5610 {
        fill: url(#uuid-af07a271-8980-47e6-b92b-41550c7dc68a);
      }

      .uuid-27fce091-ee3a-4889-9199-28416b94f462 {
        fill: url(#uuid-dc53e15d-e646-4f9b-aab3-d9d8fec05b0e);
      }

      .uuid-5da2c4a3-8db1-41d9-92d6-1ab0c264b0da {
        fill: none;
      }

      .uuid-ed4306aa-b6e6-45eb-bfe3-e4f85f33ea76 {
        fill: url(#uuid-afdc0b81-5c65-49b4-9e34-1cf3c2f4f8f7);
      }

      .uuid-03bde706-b35e-416f-8ae5-693e38f68253 {
        fill: url(#uuid-8e0b3ff5-2b0d-4ede-9e3a-d9af7f50b81e);
      }

      .uuid-aed79b63-67fc-4862-91f2-2516d39da3fa {
        fill: url(#uuid-5be9ed93-6987-4def-8687-537049e4e1cf);
      }

      .uuid-7fb198ab-10f1-4f2d-9a38-66668a795b4d {
        fill: url(#uuid-ebe94990-143f-470c-b744-73e231e6133d);
      }
    </style></defs><rect
     class="uuid-5da2c4a3-8db1-41d9-92d6-1ab0c264b0da"
     width="256"
     height="256"
     id="rect2"
     x="0"
     y="0" /><g
     id="g7"
     transform="matrix(0.24108635,0,0,0.24108635,-88.761609,-9.274027)"><path
       fill="#178cf1"
       opacity="1"
       stroke="none"
       d="m 1186,582.68897 c 56.7859,-1.3e-4 113.0719,-1.3e-4 169.6879,-1.3e-4 0,147.82758 0,295.18341 0,442.83836 -147.4137,0 -294.6385,0 -442.28128,0 0,-147.35337 0,-294.69779 0,-442.83805 90.65428,0 181.37378,0 272.59338,-1.8e-4 m -143.5,58.61932 c -28.7585,0 -57.51691,0 -86.26801,0 0,18.13245 0,35.52148 0,53.38898 2.87452,0 5.34644,0 7.81836,0 28.15747,4.2e-4 56.31505,-0.014 84.47245,0.0136 5.829,0.006 11.6703,-0.0426 17.4842,0.30114 12.4281,0.73468 22.8878,8.59467 26.4336,19.55909 3.8399,11.87365 0.1428,24.10913 -9.8897,32.23083 -7.134,5.77527 -15.6945,6.96625 -24.4661,6.98456 -32.156,0.0669 -64.31234,0.0277 -96.46853,0.0284 -1.76697,0 -3.53393,0 -5.42462,0 0,18.06531 0,35.43976 0,52.70258 0.68329,0.21539 0.99091,0.39715 1.29852,0.39721 36.48658,0.005 73.00753,0.97046 109.44933,-0.31164 30.6208,-1.07733 53.0083,-16.70545 64.5537,-45.54419 8.9493,-22.35462 9.2752,-45.5744 2.182,-68.51172 -8.0664,-26.08423 -25.6009,-43.19788 -52.437,-48.77655 -12.2218,-2.54065 -25.1374,-1.74457 -38.7382,-2.46228 m 78.9089,309.58069 c 31.7026,-46.49927 14.596,-103.76905 -18.3999,-131.46448 -10.7382,10.08252 -21.495,20.18243 -31.5346,29.60901 5.1683,7.80633 10.618,14.60876 14.5168,22.20703 9.8733,19.2417 6.6696,38.36249 -8.6636,51.73444 -11.8527,10.33667 -26.0606,13.14862 -41.544,11.15057 -32.9487,-4.25195 -49.09048,-37.02442 -31.5778,-65.203 4.4082,-7.09284 10.5323,-13.1192 16.0701,-19.88282 -11.5629,-9.6986 -23.6011,-19.79577 -35.87105,-30.08734 -2.78644,2.98542 -5.33619,5.3924 -7.51215,8.09986 -17.98236,22.37451 -26.39471,47.7633 -23.89575,76.54876 1.92151,22.13361 10.08148,41.58399 25.2478,57.89405 38.21525,41.09723 110.63965,35.99914 143.16415,-10.60608 z"
       id="path2-0" /><path
       fill="#178cf1"
       opacity="1"
       stroke="none"
       d="m 442.68872,448.99994 c -1.5e-4,-112.09696 -1.5e-4,-223.69393 -1.5e-4,-335.57216 147.69278,0 294.7565,0 442.33651,0 0.10047,1.85104 0.27942,3.61104 0.27955,5.37106 0.0112,143.97768 -0.0247,287.95543 0.13647,431.93297 0.006,5.39728 -2.17816,5.69806 -6.45422,5.6955 -141.81134,-0.0854 -283.62274,-0.0704 -425.43411,-0.07 -10.88877,6e-5 -10.8747,10e-4 -10.87159,-10.87299 0.009,-31.99481 0.006,-63.98959 0.008,-96.48443 m 317.43744,17.76822 c -15.63214,9.29266 -35.07025,3.94989 -42.18359,-12.36411 -2.50568,-5.74661 -3.53107,-12.54373 -3.60071,-18.87915 -0.34986,-31.82452 -0.15949,-63.65494 -0.15882,-95.48331 6e-5,-2.09045 0,-4.1809 0,-6.33077 -18.15222,0 -35.52453,0 -52.79315,0 -0.17907,0.74569 -0.32446,1.06854 -0.3244,1.39141 0.008,36.49356 -0.69623,73.00675 0.29663,109.47379 0.66712,24.5022 11.53711,44.66739 32.82471,57.92587 21.5448,13.41864 45.21893,15.57312 69.77283,11.51325 37.16094,-6.14444 62.04241,-34.10141 62.62951,-71.61588 0.54498,-34.81933 0.0566,-69.65414 0.18134,-104.4816 0.0138,-3.86371 -1.35248,-4.74646 -4.95905,-4.69784 -13.9953,0.18866 -27.99456,0.078 -41.99231,0.0978 -6.50073,0.009 -6.5039,0.0291 -6.51886,6.52862 -0.0782,33.99219 -0.0624,67.98499 -0.28875,101.9762 -0.0668,10.02792 -4.16816,18.36465 -12.88538,24.94571 M 573.47601,445.97818 c 3.65863,1.56732 7.44062,2.90195 10.94532,4.75961 4.59198,2.43399 6.37194,6.53723 5.86865,11.70414 -0.48529,4.98187 -3.56824,8.43164 -7.95661,9.13055 -6.45501,1.02807 -13.31927,1.77621 -19.67785,0.6951 -19.84229,-3.37381 -37.6073,-11.89636 -53.6088,-24.09256 -1.00043,-0.76251 -2.07907,-1.42237 -3.40429,-2.32208 -6.7031,13.62121 -13.21506,26.85403 -19.77799,40.1904 1.87531,1.46646 3.37018,2.78836 5.01016,3.8952 30.19541,20.37942 63.39164,28.66589 99.5358,23.8681 15.61755,-2.07312 29.85565,-7.84439 41.29266,-19.2774 20.35651,-20.3494 22.64197,-67.05051 -18.05572,-83.46189 -11.67719,-4.70883 -23.9306,-7.97165 -35.82764,-12.15921 -6.71875,-2.3649 -13.4107,-4.93054 -19.81262,-8.02981 -4.74402,-2.2966 -6.05664,-6.88187 -5.06158,-11.94843 0.85668,-4.36157 4.14434,-6.42212 8.11096,-6.98486 3.89935,-0.55325 8.06433,-1.11679 11.8327,-0.33176 8.75061,1.82291 17.53711,3.88782 25.92816,6.91171 9.44727,3.40451 18.47638,7.9694 27.94025,12.14099 6.41791,-13.33425 12.87451,-26.74899 19.39789,-40.30242 -1.51166,-0.9989 -2.56903,-1.78214 -3.70215,-2.43381 -16.95789,-9.75272 -35.30054,-15.36545 -54.61719,-17.77112 -18.91504,-2.35565 -37.52624,-1.11169 -55.46625,5.95538 -25.82239,10.17221 -39.28524,33.96906 -34.0657,61.16776 3.55847,18.54291 16.25925,29.39685 33.08352,35.52841 13.55018,4.93826 27.54163,8.66568 42.08832,13.168 z"
       id="path3-9" /><path
       fill="#178cf1"
       opacity="1"
       stroke="none"
       d="m 522,1025.8235 c -26.46869,-10e-5 -52.43738,-10e-5 -78.85846,-10e-5 0,-147.79825 0,-295.1359 0,-442.8776 1.66385,-0.0938 3.27469,-0.26416 4.88553,-0.26422 143.81662,-0.007 287.63327,0.0173 431.44986,-0.0781 4.36352,-0.003 5.93835,0.79486 5.93353,5.66864 -0.14227,143.48321 -0.10742,286.96655 -0.10077,430.44988 1.2e-4,2.132 6e-5,4.264 6e-5,7.1015 -121.28863,0 -242.04919,0 -363.30975,0 M 692.45325,634.93805 c -28.81757,16.91388 -44.04901,42.05231 -45.59253,75.43664 -1.95294,42.23749 21.65655,74.00501 53.33002,88.31354 18.83831,8.5102 38.68066,10.9018 59.01696,8.1225 23.87775,-3.26312 44.48407,-13.22772 60.44159,-31.73871 13.38416,-15.52582 20.3963,-33.56744 21.625,-54.05939 1.5705,-26.19464 -5.33148,-49.51587 -23.49823,-68.70513 -30.92212,-32.66254 -84.53595,-40.08295 -125.32281,-17.36945 M 502.5,803.97613 c 18.30859,-0.30895 36.72443,0.53302 54.90387,-1.16162 40.33405,-3.76001 74.65472,-30.09741 80.12945,-75.09552 2.89313,-23.77923 -0.66455,-46.58959 -15.45471,-66.42529 -18.96789,-25.43835 -45.68737,-35.12176 -76.14953,-35.86493 -25.31415,-0.61755 -50.65546,-0.12164 -75.98474,-0.11902 -1.79059,1.9e-4 -3.58115,0 -5.62153,0 0,59.75244 0,118.96533 0,178.66632 12.59555,0 24.88636,0 38.17719,6e-5 z"
       id="path4-4" /><path
       fill="#298fe6"
       opacity="1"
       stroke="none"
       d="M 1215.0129,419.98627 C 1113.4276,318.45306 1012.0941,217.16801 910.23822,115.36087 c 1.73865,-1.56773 3.06714,-2.76561 3.90753,-3.52334 147.83155,147.84054 295.38895,295.40688 443.20555,443.23254 -0.5459,0.57733 -1.7624,1.86413 -3.5013,3.70331 -46.3235,-46.30805 -92.4542,-92.42353 -138.8371,-138.78711 z"
       id="path5-8" /><path
       fill="#fcfeff"
       opacity="1"
       stroke="none"
       d="m 1043,641.30847 c 13.1008,0.71753 26.0164,-0.0786 38.2382,2.4621 26.8361,5.57867 44.3706,22.69232 52.437,48.77655 7.0932,22.93732 6.7673,46.1571 -2.182,68.51172 -11.5454,28.83874 -33.9329,44.46686 -64.5537,45.54419 -36.4418,1.2821 -72.96275,0.31653 -109.44933,0.31164 -0.30761,-6e-5 -0.61523,-0.18182 -1.29852,-0.39721 0,-17.26282 0,-34.63727 0,-52.70258 1.89069,0 3.65765,0 5.42462,0 32.15619,-7.3e-4 64.31253,0.0385 96.46853,-0.0284 8.7716,-0.0183 17.3321,-1.20929 24.4661,-6.98456 10.0325,-8.1217 13.7296,-20.35718 9.8897,-32.23083 -3.5458,-10.96442 -14.0055,-18.82441 -26.4336,-19.55909 -5.8139,-0.34375 -11.6552,-0.29547 -17.4842,-0.30114 -28.1574,-0.0276 -56.31498,-0.0131 -84.47245,-0.0136 -2.47192,0 -4.94384,0 -7.81836,0 0,-17.8675 0,-35.25653 0,-53.38898 28.7511,0 57.50951,0 86.76801,1.8e-4 z"
       id="path6-8" /><path
       fill="#fcfefe"
       opacity="1"
       stroke="none"
       d="m 1121.212,951.18872 c -32.3276,46.30548 -104.752,51.40358 -142.96725,10.30634 -15.16632,-16.31006 -23.32629,-35.76044 -25.2478,-57.89405 -2.49896,-28.78546 5.91339,-54.17425 23.89575,-76.54876 2.17596,-2.70746 4.72571,-5.11444 7.51215,-8.09986 12.26995,10.29157 24.30815,20.38874 35.87105,30.08734 -5.5378,6.76362 -11.6619,12.78998 -16.0701,19.88282 -17.51268,28.17858 -1.3709,60.95105 31.5778,65.203 15.4834,1.99805 29.6913,-0.8139 41.544,-11.15057 15.3332,-13.37195 18.5369,-32.49274 8.6636,-51.73444 -3.8988,-7.59827 -9.3485,-14.4007 -14.5168,-22.20703 10.0396,-9.42658 20.7964,-19.52649 31.5346,-29.60901 32.9959,27.69543 50.1025,84.96521 18.203,131.76422 z"
       id="path7-2" /><path
       fill="#fcfeff"
       opacity="1"
       stroke="none"
       d="m 760.42676,466.55829 c 8.41662,-6.37119 12.518,-14.70792 12.58478,-24.73584 0.22638,-33.99121 0.21057,-67.98401 0.28875,-101.9762 0.015,-6.49954 0.0181,-6.51938 6.51886,-6.52862 13.99775,-0.0198 27.99701,0.0908 41.99231,-0.0978 3.60657,-0.0486 4.97284,0.83413 4.95905,4.69784 -0.12476,34.82746 0.36364,69.66227 -0.18134,104.4816 -0.5871,37.51447 -25.46857,65.47144 -62.62951,71.61588 -24.5539,4.05987 -48.22803,1.90539 -69.77283,-11.51325 -21.2876,-13.25848 -32.15759,-33.42367 -32.82471,-57.92587 -0.99286,-36.46704 -0.289,-72.98023 -0.29663,-109.47379 -6e-5,-0.32287 0.14533,-0.64572 0.3244,-1.39141 17.26862,0 34.64093,0 52.79315,0 0,2.14987 6e-5,4.24032 0,6.33077 -6.7e-4,31.82837 -0.19104,63.65879 0.15882,95.48331 0.0696,6.33542 1.09503,13.13254 3.60071,18.87915 7.11334,16.314 26.55145,21.65677 42.48419,12.15424 z"
       id="path8" /><path
       fill="#fcfefe"
       opacity="1"
       stroke="none"
       d="m 573.10046,445.85934 c -14.17114,-4.38348 -28.16259,-8.1109 -41.71277,-13.04916 -16.82427,-6.13156 -29.52505,-16.9855 -33.08352,-35.52841 -5.21954,-27.1987 8.24331,-50.99555 34.0657,-61.16776 17.94001,-7.06707 36.55121,-8.31103 55.46625,-5.95538 19.31665,2.40567 37.6593,8.0184 54.61719,17.77112 1.13312,0.65167 2.19049,1.43491 3.70215,2.43381 -6.52338,13.55343 -12.97998,26.96817 -19.39789,40.30242 -9.46387,-4.17159 -18.49298,-8.73648 -27.94025,-12.14099 -8.39105,-3.02389 -17.17755,-5.0888 -25.92816,-6.91171 -3.76837,-0.78503 -7.93335,-0.22149 -11.8327,0.33176 -3.96662,0.56274 -7.25428,2.62329 -8.11096,6.98486 -0.99506,5.06656 0.31756,9.65183 5.06158,11.94843 6.40192,3.09927 13.09387,5.66491 19.81262,8.02981 11.89704,4.18756 24.15045,7.45038 35.82764,12.15921 40.69769,16.41138 38.41223,63.11249 18.05572,83.46189 -11.43701,11.43301 -25.67511,17.20428 -41.29266,19.2774 -36.14416,4.79779 -69.34039,-3.48868 -99.5358,-23.8681 -1.63998,-1.10684 -3.13485,-2.42874 -5.01016,-3.8952 6.56293,-13.33637 13.07489,-26.56919 19.77799,-40.1904 1.32522,0.89971 2.40386,1.55957 3.40429,2.32208 16.0015,12.1962 33.76651,20.71875 53.6088,24.09256 6.35858,1.08111 13.22284,0.33297 19.67785,-0.6951 4.38837,-0.69891 7.47132,-4.14868 7.95661,-9.13055 0.50329,-5.16691 -1.27667,-9.27015 -5.86865,-11.70414 -3.5047,-1.85766 -7.28669,-3.19229 -11.32087,-4.87845 z"
       id="path9" /><path
       fill="#fdfeff"
       opacity="1"
       stroke="none"
       d="m 692.77502,634.75757 c 40.46509,-22.53302 94.07892,-15.11261 125.00104,17.54993 18.16675,19.18926 25.06873,42.51049 23.49823,68.70513 -1.2287,20.49195 -8.24084,38.53357 -21.625,54.05939 -15.95752,18.51099 -36.56384,28.47559 -60.44159,31.73871 -20.3363,2.7793 -40.17865,0.3877 -59.01696,-8.1225 -31.67347,-14.30853 -55.28296,-46.07605 -53.33002,-88.31354 1.54352,-33.38433 16.77496,-58.52276 45.9143,-75.61712 m 16.05542,52.6604 c -10.02703,17.41748 -10.50067,35.16492 -0.93914,52.77014 15.48773,28.51685 51.84393,31.0766 69.94439,5.15595 12.29138,-17.60181 12.39154,-43.51246 -0.0829,-61.11463 -9.05701,-12.77985 -21.39356,-19.07837 -37.29773,-17.43829 -13.76514,1.41955 -23.63648,8.99591 -31.62464,20.62683 z"
       id="path10" /><path
       fill="#fcfeff"
       opacity="1"
       stroke="none"
       d="m 502,803.97607 c -12.79083,0 -25.08164,0 -37.67719,0 0,-59.70099 0,-118.91388 0,-178.66632 2.04038,0 3.83094,1.9e-4 5.62153,0 25.32928,-0.003 50.67059,-0.49853 75.98474,0.11902 30.46216,0.74317 57.18164,10.42658 76.14953,35.86493 14.79016,19.8357 18.34784,42.64606 15.45471,66.42529 -5.47473,44.99811 -39.7954,71.33551 -80.12945,75.09552 -18.17944,1.69464 -36.59528,0.85267 -55.40387,1.16156 m 14.98914,-53.49224 c 0,3.78265 0,7.56536 0,11.62915 10.35235,0 20.13165,0.24176 29.89373,-0.0638 11.10089,-0.34753 20.19263,-5.17382 26.96936,-13.94909 12.68152,-16.42133 13.83875,-44.14533 2.66266,-61.66242 -5.37799,-8.42932 -12.61957,-15.34442 -22.46649,-17.02411 -11.97656,-2.04297 -24.28619,-2.13409 -37.05933,-3.11627 0,28.69355 0,55.94299 7e-5,84.18653 z"
       id="path11" /><path
       fill="#188cf0"
       opacity="1"
       stroke="none"
       d="m 708.97247,687.0824 c 7.84613,-11.29535 17.71747,-18.87171 31.48261,-20.29126 15.90417,-1.64008 28.24072,4.65844 37.29773,17.43829 12.47442,17.60217 12.37426,43.51282 0.0829,61.11463 -18.10046,25.92065 -54.45666,23.3609 -69.94439,-5.15595 -9.56153,-17.60522 -9.08789,-35.35266 1.08117,-53.10571 z"
       id="path12" /><path
       fill="#188cf0"
       opacity="1"
       stroke="none"
       d="m 516.98914,749.98682 c -7e-5,-27.74653 -7e-5,-54.99597 -7e-5,-83.68952 12.77314,0.98218 25.08277,1.0733 37.05933,3.11627 9.84692,1.67969 17.0885,8.59479 22.46649,17.02411 11.17609,17.51709 10.01886,45.24109 -2.66266,61.66242 -6.77673,8.77527 -15.86847,13.60156 -26.96936,13.94909 -9.76208,0.30555 -19.54138,0.0638 -29.89373,0.0638 0,-4.06379 0,-7.8465 0,-12.12616 z"
       id="path13" /></g></svg>
