<svg
   data-name="C1"
   viewBox="0 0 256 256"
   version="1.1"
   id="svg8"
   xml:space="preserve"
   width="256"
   height="256"
   xmlns="http://www.w3.org/2000/svg"
   xmlns:svg="http://www.w3.org/2000/svg"><defs
     id="defs2" /><path
     style="fill:none"
     d="M 0,0 H 256 V 256 H 0 Z"
     id="path2" /><style
     type="text/css"
     id="style1">
	.st0{fill:#FFFFFF;}
</style><g
     id="g8"
     transform="matrix(1.0282175,0,0,1.0282175,18.186371,18.186371)"><path
       d="m 213.6,106.8 c 0,59 -47.8,106.8 -106.8,106.8 C 47.8,213.6 0,165.8 0,106.8 0,47.8 47.8,0 106.8,0 c 0,0 0,0 0,0 59,0 106.8,47.8 106.8,106.8 0,0 0,0 0,0"
       id="path1" /><path
       class="st0"
       d="M 108.6,66.8 136.2,135 94.5,102.1 Z m 49.1,83.9 -42.5,-102.3 c -1,-2.8 -3.7,-4.6 -6.6,-4.5 -3,-0.1 -5.7,1.7 -6.8,4.5 L 55.1,160.6 h 16 l 18.5,-46.3 55.1,44.5 c 2.2,1.8 3.8,2.6 5.9,2.6 4.2,0.1 7.7,-3.2 7.8,-7.4 0,-0.1 0,-0.1 0,-0.2 0,-1 -0.3,-2.1 -0.7,-3.1"
       id="path2-9" /></g></svg>
