<svg
   id="uuid-d837f90e-3a4b-44c2-81ee-d7b8ed5bc69b"
   data-name="C1"
   width="1920"
   height="773"
   viewBox="0 0 1920 773"
   version="1.1"
   xml:space="preserve"
   xmlns="http://www.w3.org/2000/svg"
   xmlns:svg="http://www.w3.org/2000/svg"><defs
     id="defs1"><style
       id="style1">
      .uuid-c90f1ad1-f831-4e7c-956b-467930e03b8f {
        fill: none;
      }

      .uuid-04a06d85-28dc-4ddd-a18a-468519060675 {
        fill: #e2111a;
      }
    </style></defs><rect
     class="uuid-c90f1ad1-f831-4e7c-956b-467930e03b8f"
     width="1920"
     height="773"
     id="rect1"
     x="0"
     y="0" /><style
     id="style1-4"> .s0 { fill: #e30518 } .s1 { fill: #013e28 } </style><g
     id="g7"
     transform="matrix(2.8080731,0,0,2.8080731,-30.076212,137.01541)"><path
       id="Layer"
       fill-rule="evenodd"
       class="s0"
       d="m 182.2,90.3 c 0,28.3 -18.3,52.3 -43.5,61.8 -5.8,5.7 -18,12.9 -43.3,14.4 C 43.4,168.1 15.8,117.4 13.2,87.6 10.9,61 26.1,42.1 29.3,38.4 q 0.6,-0.6 1.5,-0.6 c 0.5,0 0.9,0.3 1.2,0.6 l 0.2,0.2 q 0.1,0.1 0.3,0 c 4.1,-6.3 8.2,-10.6 9.9,-11.8 0.3,-0.3 0.8,-0.3 1.2,0 0.3,0.2 0.5,0.6 0.4,1 v 0.1 c 0.5,0 1,-0.3 1.3,-0.7 1.5,-2.3 3.9,-5 4.9,-6.2 0.3,-0.3 0.8,-0.5 1.2,-0.4 0.5,0.1 0.9,0.5 1,0.9 l 0.3,1 1.4,-1.7 c 0.4,-0.4 0.9,-0.6 1.4,-0.5 0.6,0.1 1,0.5 1.1,1.1 l 0.3,1.6 3,-3.8 c 0.6,-0.7 1.7,-0.9 2.4,-0.3 0.8,0.6 0.9,1.9 0.1,2.6 l -0.2,0.2 c 0,0 -36.4,36.6 -22.6,86.9 16.3,51.6 52,49.3 63.8,47 C 71.9,150.5 48,123.8 48,90.8 48,62.6 63.9,37.8 90.6,28.4 92,22.9 96.9,12 116.6,11.2 140.8,10.1 152.5,29 155,37.5 c 16.7,11.7 27.1,30.9 27.2,52.8 z M 31.1,75.8 c -3.4,24.7 8.1,42.3 8.4,42.8 -21,-46.2 12.6,-90.1 16.5,-95 -2.9,3.5 -21.7,27 -24.9,52.2 z m -4.8,-1.9 c -4.5,34.4 16.4,56 17,56.6 C 18.7,96.7 28.6,64.7 38,46.1 42.9,36.5 47,30.3 47.5,29.6 46.3,30.9 28.9,51.9 26.3,73.9 Z m 93.8,80.2 c 33.8,-20.4 -18,-78.9 -18,-108.3 -1.4,-26.1 14.3,-28.5 16.1,-28.7 -16.7,0.8 -24.7,19.4 -16.4,48.1 3.3,11.4 19.5,40.9 25,63.2 4.3,17.6 -5.2,24.6 -6.7,25.7 z M 110.8,53.8 c -7.7,-30 9.7,-34.1 10.6,-34.3 -14.5,1.1 -16.8,15.5 -16.1,28.7 0.6,10.8 9.7,29 18.4,47.4 4.8,10 8,20 10,27.3 5.5,20.1 -8.3,31.4 -9,32 34,-18.4 -4.8,-70.8 -13.9,-101.1 z m 33.9,59.3 C 140.4,89 122.2,61.6 116.8,44.6 112,29.5 120.2,23.4 120.6,23.1 110,28.4 111.7,41 113.9,52.5 c 2.8,14.7 19.7,38.5 25.9,64.8 5.8,24.7 -4.8,33.9 -6.1,35 6.6,-4.7 15.1,-15.2 11,-39.2 z m -20.5,-87.4 5.3,0.9 h 0.1 c 0,0.1 0.2,0.1 0.3,0.1 0.1,0 -0.1,-0.3 -0.9,-1 -1.6,-1.4 -4.7,-0.1 -4.8,0 z m 0.5,113.8 C 126.5,118 96,72.4 95.2,47.3 94.4,23 108.1,16 108.9,15.6 100.6,18.5 96,23.9 93.2,30.2 c -10,23.3 8,54.9 18.7,81.7 15.9,35.5 1.3,42.4 0.4,42.8 0.7,-0.2 11.1,-3.4 12.4,-15.2 z m 19.4,-107.9 1.2,0.6 c 0.1,0 0.2,0 0,-0.6 -0.3,-0.7 -1.2,0 -1.2,0 z m -5.1,-2.2 1.8,0.7 c 0,0 0.2,-0.3 -0.4,-0.9 -0.6,-0.5 -1.3,0.2 -1.4,0.2 z m 0,0 z m -4.7,-1.5 1.6,0.5 c 0,0 -0.2,-1.1 -0.7,-1.2 -0.4,-0.1 -0.9,0.7 -0.9,0.7 z m 15.8,6 c -0.3,-0.5 -1.1,0.2 -1.1,0.2 l 1.3,0.8 c 0,0 0,-0.5 -0.2,-1 z" /><g
       id="g6"><g
         id="g5"><path
           id="path1"
           class="s1"
           d="m 266.1,99.7 c 1.6,3.9 3.3,8.1 5.1,12.4 l -3.9,2.5 -3.8,-8.9 -5.2,-12.2 -21.7,-51.2 h -31.8 l 44.7,94.3 h 27.2 l -9.1,-21.5 3.9,-2.5 c 2.8,6.9 5.7,13.9 8.1,19.7 l 42.7,-90.1 h -31.9 z" /><path
           id="path2"
           class="s1"
           d="m 335.3,104.1 c -6.7,0 -12.1,-5.4 -12.1,-12.1 0,-6.7 5.4,-12.1 12.1,-12.1 6.7,0 12.1,5.4 12.1,12.1 0,6.7 -5.4,12.1 -12.1,12.1 z" /><path
           id="path3"
           class="s1"
           d="m 461,86.3 c -9.8,-5.1 -23.1,-6.6 -34.7,-8.2 -1.9,-0.3 -3.7,-0.5 -5.5,-0.8 -8.1,-1.2 -14.7,-2.8 -17.8,-6.3 -3,-3.3 -1.9,-8.4 1.9,-10.6 3.7,-2.1 9.7,-3.3 16,-3.3 v -7 h 5.5 v 7.3 c 10.6,1.1 20.2,5.5 18.9,14.3 l 28.9,-1.8 c 0,0 2.2,-26.9 -47.8,-29.3 v 9 h -5.5 v -9.2 q -0.9,0 -1.8,0 c -57.5,0 -45.6,36.3 -45.6,36.3 0,0 5.3,15.1 33.5,18.7 5.2,0.7 9.8,1.4 14,2.1 2,0.4 3.8,0.7 5.5,1.1 14.4,3.1 20.9,7 20.8,12.6 0,6.5 -9.9,9.6 -20.8,10 v 7.1 H 421 v -7 c -13.7,-0.2 -19.6,-2.6 -24.2,-15.4 l -28.8,1 c 0,0 -2.7,33.1 53,32.1 v -10 h 5.5 v 9.9 q 0.3,0 0.6,0 c 12,-0.7 21.6,-1.4 28.9,-4.2 30.1,-11.9 22.8,-39.1 5,-48.4 z" /><path
           id="path4"
           fill-rule="evenodd"
           class="s1"
           d="m 605.8,88.3 q 0,0.5 0,1.8 c -0.4,9.4 -5.2,47.8 -60.9,48.4 v -9.8 h -4.7 v 9.7 C 486.4,137 479.5,99.7 479.4,90.2 c 0,-0.4 0,-0.7 0,-1 q 0,-0.3 0,-0.6 c 0.4,-9.1 5,-47.8 60.8,-48.5 v 8.1 h 4.7 v -8 c 56.6,1.4 60.7,38.5 60.9,48.1 z m -30.5,0.8 c 0,-21.9 -12.5,-30.2 -30.4,-31 v -9.2 h -4.7 v 9.2 c -17.5,0.6 -30.2,11.8 -30.2,31 0,20.3 12.8,30.2 30.2,30.9 v 8.2 h 4.7 V 120 c 14,-0.5 30.4,-5.5 30.4,-30.9 z" /><path
           id="path5"
           class="s1"
           d="m 644.9,119.1 v 8 h -5.7 V 41.9 h -29.3 v 94.5 h 29.3 v -8.6 h 5.7 v 8.6 h 47.3 v -17.3 z" /></g></g></g></svg>
