<?xml version="1.0" encoding="UTF-8" standalone="no"?>
<svg
   data-name="Dude"
   viewBox="0 0 256 256"
   version="1.1"
   id="svg8"
   width="256"
   height="256"
   xmlns="http://www.w3.org/2000/svg"
   xmlns:svg="http://www.w3.org/2000/svg">

  <title property="dc:title">The Dude - Mikrotik</title>
  <desc property="dc:creator">danielcshn</desc>

  <defs
     id="defs2" />
  <path
     style="fill:none"
     d="M 0,0 H 256 V 256 H 0 Z"
     id="path2" />
  <path
     style="fill:#999999;stroke-width:0.839529"
     d="m 23.12081,99.797685 8.466324,-1.167766 c 0,0 15.76487,-49.92209 58.096467,-64.227237 l -2.919415,9.050202 39.120214,-15.764867 -43.207405,-9.342152 6.130782,7.590483 c 0,0 -51.673751,13.721246 -65.686967,73.861337 z"
     id="path1" />
  <path
     style="fill:#999999;stroke-width:0.839529"
     d="m 100.5996,234.17673 -1.167769,-8.46629 c 0,0 -49.922089,-15.76487 -64.227236,-58.09648 l 9.050202,2.91941 -15.764867,-39.12021 -9.342153,43.20741 7.590484,-6.13079 c 0,0 13.721246,51.67376 73.861339,65.68695 z"
     id="path1-4" />
  <path
     style="fill:#999999;stroke-width:0.839529"
     d="m 156.3211,25.444497 1.16776,8.466302 c 0,0 49.92209,15.764867 64.22725,58.096473 l -9.05021,-2.919407 15.76486,39.120225 9.34216,-43.207435 -7.59049,6.130794 c 0,0 -13.72124,-51.673755 -73.86133,-65.686952 z"
     id="path1-7" />
  <path
     style="fill:#999999;stroke-width:0.839529"
     d="m 232.47063,157.51749 -8.4663,1.16776 c 0,0 -15.76487,49.92209 -58.09644,64.22724 l 2.91941,-9.0502 -39.12022,15.76486 43.20743,9.34216 -6.1308,-7.59049 c 0,0 51.67373,-13.72124 65.68692,-73.86133 z"
     id="path1-7-2" />
  <g
     id="g2"
     transform="matrix(0.80645846,0,0,0.80645846,24.413076,25.148581)">
    <path
       style="fill:none"
       d="M 0,0 H 256 V 256 H 0 Z"
       id="path2-1" />
    <ellipse
       style="fill:#ffffff"
       id="path13"
       cx="128"
       cy="128"
       rx="108.76213"
       ry="108.2851" />
    <path
       d="M 128.00001,17.943 A 110.057,110.057 0 1 0 238.057,128 110.057,110.057 0 0 0 128.00001,17.943 Z M 60.865227,69.050725 c 0.756642,0 0.825428,0.343921 0.825428,0.894202 a 123.81413,123.81413 0 0 0 38.795095,85.569313 123.81413,123.81413 0 0 0 89.42131,34.39285 C 115.34345,220.17277 36.859044,148.63569 60.865227,69.050725 Z M 94.63897,58.664093 c 8.52942,59.086847 40.23959,94.992947 104.89808,97.950727 A 79.722541,79.722541 0 0 1 94.63897,58.664093 Z"
       style="fill:#ce0405;fill-opacity:1;stroke-width:6.87857"
       id="path1-6" />
  </g>
</svg>
