<?xml version="1.0" encoding="UTF-8" standalone="no"?>
<svg
   id="uuid-19907d1f-9315-477d-b7ba-91ae3e2acc9a"
   data-name="Capa 1"
   viewBox="0 0 256 256"
   version="1.1"
   sodipodi:docname="logo-vmware-1.svg"
   xml:space="preserve"
   width="256"
   height="256"
   xmlns:inkscape="http://www.inkscape.org/namespaces/inkscape"
   xmlns:sodipodi="http://sodipodi.sourceforge.net/DTD/sodipodi-0.dtd"
   xmlns="http://www.w3.org/2000/svg"
   xmlns:svg="http://www.w3.org/2000/svg"><sodipodi:namedview
     id="namedview7"
     pagecolor="#ffffff"
     bordercolor="#000000"
     borderopacity="0.25"
     inkscape:showpageshadow="2"
     inkscape:pageopacity="0.0"
     inkscape:pagecheckerboard="0"
     inkscape:deskcolor="#d1d1d1"><inkscape:page
       x="0"
       y="0"
       width="256"
       height="256"
       id="page2"
       margin="0"
       bleed="0" /></sodipodi:namedview><defs
     id="defs2"><style
       id="style1">
      .uuid-153302a6-b94e-4ad0-9cfb-43725c5c5610 {
        fill: url(#uuid-af07a271-8980-47e6-b92b-41550c7dc68a);
      }

      .uuid-27fce091-ee3a-4889-9199-28416b94f462 {
        fill: url(#uuid-dc53e15d-e646-4f9b-aab3-d9d8fec05b0e);
      }

      .uuid-5da2c4a3-8db1-41d9-92d6-1ab0c264b0da {
        fill: none;
      }

      .uuid-ed4306aa-b6e6-45eb-bfe3-e4f85f33ea76 {
        fill: url(#uuid-afdc0b81-5c65-49b4-9e34-1cf3c2f4f8f7);
      }

      .uuid-03bde706-b35e-416f-8ae5-693e38f68253 {
        fill: url(#uuid-8e0b3ff5-2b0d-4ede-9e3a-d9af7f50b81e);
      }

      .uuid-aed79b63-67fc-4862-91f2-2516d39da3fa {
        fill: url(#uuid-5be9ed93-6987-4def-8687-537049e4e1cf);
      }

      .uuid-7fb198ab-10f1-4f2d-9a38-66668a795b4d {
        fill: url(#uuid-ebe94990-143f-470c-b744-73e231e6133d);
      }
    </style></defs><rect
     class="uuid-5da2c4a3-8db1-41d9-92d6-1ab0c264b0da"
     width="256"
     height="256"
     id="rect2"
     x="0"
     y="0" /><g
     id="g7"
     transform="matrix(0.21601613,0,0,0.21601613,16.085823,16.085823)"><path
       d="M 385.065,23.388 A 120.013,120.013 0 0 0 265.052,143.401 V 671.457 A 120.013,120.013 0 0 0 385.065,791.47 h 522.65 A 120.013,120.013 0 0 0 1027.768,671.457 V 143.36 A 120.013,120.013 0 0 0 907.756,23.347 h -522.65 z m 509.501,561.275 c 0,38.298 -31.047,69.345 -69.345,69.345 H 467.641 A 69.345,69.345 0 0 1 398.254,584.663 V 230.154 c 0,-38.256 31.048,-69.304 69.345,-69.304 H 825.18 c 38.298,0 69.345,31.048 69.345,69.304 v 354.509 z"
       fill="#068bef"
       id="path1" /><path
       d="M 653.722,247.398 H 128.41 A 120.013,120.013 0 0 0 8.397,367.411 V 892.805 A 120.013,120.013 0 0 0 128.41,1012.818 H 653.804 A 120.013,120.013 0 0 0 773.816,892.805 V 367.411 A 120.013,120.013 0 0 0 653.804,247.398 Z m -14.5,559.924 c 0,38.297 -31.048,69.386 -69.346,69.386 H 212.296 A 69.345,69.345 0 0 1 142.95,807.322 V 452.854 c 0,-38.298 31.048,-69.346 69.346,-69.346 h 357.58 c 38.298,0 69.346,31.007 69.346,69.305 z"
       fill="#ff8b02"
       id="path2-4" /><path
       d="M 633.242,654.008 H 777.134 V 791.43 H 633.201 Z"
       fill="#068bef"
       id="path3-5" /><path
       d="M 398.254,383.508 265.052,460.39 v -76.882 z"
       fill="#057eaf"
       id="path4-5" /><path
       d="m 639.222,791.43 134.553,72.744 V 791.43 Z"
       fill="#d77d06"
       id="path5-1" /></g></svg>
