<?xml version="1.0" encoding="UTF-8"?>
<svg id="uuid-9831b2e2-4239-421e-8d85-47c3968aef6b" data-name="uuid-19907d1f-9315-477d-b7ba-91ae3e2acc9a" xmlns="http://www.w3.org/2000/svg" width="256" height="256" viewBox="0 0 256 256">
  <defs>
    <style>
      .uuid-8546d29d-a3c0-49d9-82b9-f360d1c29c25 {
        fill: none;
      }

      .uuid-d71e0053-7e30-457d-bd9c-605e54bf7a2e {
        fill-rule: evenodd;
      }
    </style>
  </defs>
  <rect class="uuid-8546d29d-a3c0-49d9-82b9-f360d1c29c25" width="256" height="256"/>
  <rect x="31.41" y="18" width="10.74" height="10.73"/>
  <rect x="31.41" y="50.17" width="10.74" height="69.76"/>
  <rect x="52.88" y="82.38" width="10.74" height="10.73"/>
  <rect x="52.88" y="44.82" width="10.74" height="10.73"/>
  <rect x="63.61" y="34.09" width="10.74" height="10.73"/>
  <rect x="63.62" y="60.92" width="10.74" height="10.73"/>
  <rect x="74.34" y="50.19" width="10.74" height="10.73"/>
  <rect x="52.88" y="103.85" width="10.74" height="16.1"/>
  <rect x="74.35" y="87.75" width="10.74" height="32.2"/>
  <path class="uuid-d71e0053-7e30-457d-bd9c-605e54bf7a2e" d="M170.93,185.08V60.93c0-22.9,21.46-42.93,53.66-42.93v104.22l-9.66,19.88c-11.13,22.91-26.57,36.51-44,42.98Z" marker-end="none" marker-start="none"/>
  <path class="uuid-d71e0053-7e30-457d-bd9c-605e54bf7a2e" d="M145.26,236.91l-11.16-7.73c-16.84-11.65-29.88-25.56-35.41-40.31,13.22,7.47,29.28,11.57,45.41,11.57,32.24,0,62.12-15.86,80.49-53.66,0,45.16-27.23,83.28-79.32,90.12Z" marker-end="none" marker-start="none"/>
  <path class="uuid-d71e0053-7e30-457d-bd9c-605e54bf7a2e" d="M85.07,173.61v-53.66l-5.37-5.37-5.37,5.37v10.73h-10.73v-10.73l-5.37-5.37-5.37,5.37h-10.73l-5.37-5.37-5.37,5.37v32.2c0,43.07,32.3,85.85,96.59,85.85-23.33-16.14-42.93-38.6-42.93-64.39Z" marker-end="none" marker-start="none"/>
</svg>