<?xml version="1.0" encoding="UTF-8" standalone="no"?>
<svg
   id="uuid-19907d1f-9315-477d-b7ba-91ae3e2acc9a"
   data-name="Capa 1"
   viewBox="0 0 256 256"
   version="1.1"
   sodipodi:docname="logo-siu-wichi-1.svg"
   xml:space="preserve"
   width="256"
   height="256"
   inkscape:export-filename="logo-siu-wichi-1.svg"
   inkscape:export-xdpi="96"
   inkscape:export-ydpi="96"
   xmlns:inkscape="http://www.inkscape.org/namespaces/inkscape"
   xmlns:sodipodi="http://sodipodi.sourceforge.net/DTD/sodipodi-0.dtd"
   xmlns="http://www.w3.org/2000/svg"
   xmlns:svg="http://www.w3.org/2000/svg"><sodipodi:namedview
     id="namedview7"
     pagecolor="#ffffff"
     bordercolor="#000000"
     borderopacity="0.25"
     inkscape:showpageshadow="2"
     inkscape:pageopacity="0.0"
     inkscape:pagecheckerboard="0"
     inkscape:deskcolor="#d1d1d1"><inkscape:page
       x="0"
       y="0"
       width="256"
       height="256"
       id="page2"
       margin="0"
       bleed="0" /></sodipodi:namedview><defs
     id="defs2"><style
       id="style1">
      .uuid-153302a6-b94e-4ad0-9cfb-43725c5c5610 {
        fill: url(#uuid-af07a271-8980-47e6-b92b-41550c7dc68a);
      }

      .uuid-27fce091-ee3a-4889-9199-28416b94f462 {
        fill: url(#uuid-dc53e15d-e646-4f9b-aab3-d9d8fec05b0e);
      }

      .uuid-5da2c4a3-8db1-41d9-92d6-1ab0c264b0da {
        fill: none;
      }

      .uuid-ed4306aa-b6e6-45eb-bfe3-e4f85f33ea76 {
        fill: url(#uuid-afdc0b81-5c65-49b4-9e34-1cf3c2f4f8f7);
      }

      .uuid-03bde706-b35e-416f-8ae5-693e38f68253 {
        fill: url(#uuid-8e0b3ff5-2b0d-4ede-9e3a-d9af7f50b81e);
      }

      .uuid-aed79b63-67fc-4862-91f2-2516d39da3fa {
        fill: url(#uuid-5be9ed93-6987-4def-8687-537049e4e1cf);
      }

      .uuid-7fb198ab-10f1-4f2d-9a38-66668a795b4d {
        fill: url(#uuid-ebe94990-143f-470c-b744-73e231e6133d);
      }
    </style><style
       id="style1-3">
      .cls-1 {
        fill: none;
      }

      .cls-2 {
        fill: #fff;
      }
    </style><style
       id="style1-8">
      .cls-1 {
        fill: #fff;
      }

      .cls-2 {
        fill: #853385;
      }

      .cls-3 {
        fill: #4e4e4e;
      }
    </style><style
       id="style1-9">
      .cls-1 {
        fill: #fff;
      }

      .cls-2 {
        fill: #8ed7f7;
      }

      .cls-3 {
        fill: #4e4e4e;
      }

      .cls-4 {
        fill: url(#Degradado_sin_nombre);
      }
    </style><style
       id="style1-1">
      .cls-1 {
        fill: #9d5c9d;
      }

      .cls-2 {
        fill: #4e4e4e;
      }
    </style><style
       id="style1-13">
      .cls-1 {
        fill: #fff;
      }

      .cls-2 {
        fill: #fff;
      }

      .cls-3 {
        fill: #4e4e4e;
      }

      .cls-4 {
        fill: url(#Degradado_sin_nombre_2);
      }
    </style><style
       id="style1-19">
      .cls-1 {
        fill: #fff;
      }

      .cls-2 {
        fill: #c00;
      }

      .cls-3 {
        fill: #d51921;
      }

      .cls-4 {
        fill: #4e4e4e;
      }

      .cls-5 {
        fill: url(#Degradado_sin_nombre_3);
      }
    </style><style
       id="style1-0">
      .cls-1 {
        fill: #aa5a23;
      }

      .cls-2 {
        fill: #4e4e4e;
      }
    </style><style
       id="style1-09">
      .cls-1 {
        fill: #fff;
      }

      .cls-2 {
        fill: #fff;
      }

      .cls-3 {
        fill: #4e4e4e;
      }

      .cls-4 {
        fill: url(#Degradado_sin_nombre_6);
      }
    </style><style
       id="style1-93">
      .cls-1 {
        fill: #fff;
      }

      .cls-2 {
        fill: #73122e;
      }

      .cls-3 {
        fill: #4e4e4e;
      }
    </style><style
       id="style1-6">
      .cls-1 {
        fill: #e62264;
      }

      .cls-2 {
        fill: #4e4e4e;
      }
    </style><style
       id="style1-63">
      .cls-1 {
        fill: #690;
      }

      .cls-2 {
        fill: #fff;
      }

      .cls-3 {
        fill: #4e4e4e;
      }

      .cls-4 {
        fill: url(#Degradado_sin_nombre_5);
      }
    </style></defs><rect
     class="uuid-5da2c4a3-8db1-41d9-92d6-1ab0c264b0da"
     width="256"
     height="256"
     id="rect2"
     x="0"
     y="0" /><g
     id="g14"
     transform="translate(23.5,129.1281)"><g
       id="g5"
       transform="matrix(4.7973495,0,0,4.7973495,-1.2815565,-110.85261)"><path
         class="cls-1"
         d="m 8.2,30.84 -2.5,10.5 5.1,0.6 -2.5,-11.1 z"
         id="path2-8"
         style="fill:#659900;fill-opacity:1" /><path
         class="cls-1"
         d="M 40.2,0.34 2.8,4.94 c -1.4,0.2 -2.5,1.7 -2.5,3.4 v 12.2 H 0.4 L 3,34.24 h 0.2 l 2.4,-12 h 5.6 l 2.3,12 h 0.2 l 2.1,-13.7 h 5.7 l -4.4,22.1 h -1.6 l 24.8,3 c 2.1,0.3 3.8,-1.3 3.8,-3.4 V 3.74 c -0.2,-2.2 -1.9,-3.7 -3.9,-3.4 z"
         id="path3-2"
         style="fill:#659900;fill-opacity:1" /><path
         class="cls-2"
         d="m 21.4,20.44 h -5.7 l -2.1,13.7 h -0.2 l -2.3,-12 H 5.5 l -2.4,12 H 2.9 L 0.3,20.44 H 0.2 v 17.2 c 0,1.7 1.1,3.2 2.5,3.4 l 2.9,0.4 2.5,-10.5 h 0.1 l 2.5,11.1 4.6,0.6 h 1.6 z"
         id="path4-9" /><path
         class="cls-4"
         d="M 40.6,45.74 H 40.1 L 2.7,41.14 C 1.2,40.94 0,39.34 0,37.54 V 8.24 c 0,-1.8 1.2,-3.4 2.7,-3.6 l 37.4,-4.6 c 2.2,-0.3 3.9,1.3 3.9,3.5 v 38.5 c 0.1,2.2 -1.4,3.7 -3.4,3.7 z m 0,-45.3 H 40.2 L 2.8,5.04 c -1.3,0.2 -2.4,1.6 -2.4,3.2 v 29.3 c 0,1.6 1.1,3.1 2.4,3.2 l 37.4,4.6 c 2,0.2 3.6,-1.2 3.6,-3.2 V 3.64 c 0,-1.8 -1.4,-3.2 -3.2,-3.2 z"
         id="path5-1"
         style="fill:#659900;fill-opacity:1" /></g></g></svg>
