<svg id="uuid-f9ddb177-feec-4342-a67e-8128ff59d209" data-name="uuid-19907d1f-9315-477d-b7ba-91ae3e2acc9a" xmlns="http://www.w3.org/2000/svg" width="256" height="256" viewBox="0 0 256 256">
  <defs>
    <style>
      .uuid-3ac3ab10-24c9-418e-93e7-f3e01c376e48 {
        fill: #ff9100;
      }

      .uuid-5ac2e8a2-2830-4a77-9dd5-7388eda7a233 {
        fill: #fff;
      }

      .uuid-be63f007-9252-46c5-a2fc-39108d21e03a {
        fill: none;
      }

      .uuid-0c6fcfba-99c3-45ff-9c95-f14c9b45ac6e {
        fill: #1a237e;
      }
    </style>
  </defs>
  <rect class="uuid-be63f007-9252-46c5-a2fc-39108d21e03a" width="256" height="256"/>
  <circle class="uuid-5ac2e8a2-2830-4a77-9dd5-7388eda7a233" cx="128" cy="128" r="110"/>
  <path class="uuid-3ac3ab10-24c9-418e-93e7-f3e01c376e48" d="M128,18c-60.76,0-110,49.24-110,110,0,40.67,22.13,76.08,54.94,95.13l24.77-42.82c-18.05-10.46-30.21-29.95-30.21-52.31,0-33.41,27.09-60.5,60.5-60.5s60.5,27.09,60.5,60.5c0,22.37-12.16,41.85-30.21,52.31l24.77,42.82c32.81-19.06,54.94-54.46,54.94-95.13,0-60.76-49.24-110-110-110Z"/>
  <path class="uuid-0c6fcfba-99c3-45ff-9c95-f14c9b45ac6e" d="M161,128c0-18.22-14.78-33-33-33s-33,14.78-33,33c0,14.05,8.81,26.04,21.18,30.79l-14.07,76.01c8.31,2.02,16.95,3.2,25.89,3.2s17.57-1.18,25.89-3.18l-14.07-76.03c12.38-4.75,21.18-16.74,21.18-30.79Z"/>
</svg>