<?xml version="1.0" encoding="UTF-8" standalone="no"?>
<svg
   id="uuid-19907d1f-9315-477d-b7ba-91ae3e2acc9a"
   data-name="Capa 1"
   viewBox="0 0 256 256"
   version="1.1"
   sodipodi:docname="logo-fortinet-2.svg"
   xml:space="preserve"
   inkscape:export-filename="logo-fortinet-2.svg"
   inkscape:export-xdpi="96"
   inkscape:export-ydpi="96"
   width="256"
   height="256"
   xmlns:inkscape="http://www.inkscape.org/namespaces/inkscape"
   xmlns:sodipodi="http://sodipodi.sourceforge.net/DTD/sodipodi-0.dtd"
   xmlns="http://www.w3.org/2000/svg"
   xmlns:svg="http://www.w3.org/2000/svg"><sodipodi:namedview
     id="namedview7"
     pagecolor="#ffffff"
     bordercolor="#000000"
     borderopacity="0.25"
     inkscape:showpageshadow="2"
     inkscape:pageopacity="0.0"
     inkscape:pagecheckerboard="0"
     inkscape:deskcolor="#d1d1d1"><inkscape:page
       x="0"
       y="0"
       width="256"
       height="256"
       id="page2"
       margin="0"
       bleed="0" /></sodipodi:namedview><defs
     id="defs2"><style
       id="style1">
      .uuid-153302a6-b94e-4ad0-9cfb-43725c5c5610 {
        fill: url(#uuid-af07a271-8980-47e6-b92b-41550c7dc68a);
      }

      .uuid-27fce091-ee3a-4889-9199-28416b94f462 {
        fill: url(#uuid-dc53e15d-e646-4f9b-aab3-d9d8fec05b0e);
      }

      .uuid-5da2c4a3-8db1-41d9-92d6-1ab0c264b0da {
        fill: none;
      }

      .uuid-ed4306aa-b6e6-45eb-bfe3-e4f85f33ea76 {
        fill: url(#uuid-afdc0b81-5c65-49b4-9e34-1cf3c2f4f8f7);
      }

      .uuid-03bde706-b35e-416f-8ae5-693e38f68253 {
        fill: url(#uuid-8e0b3ff5-2b0d-4ede-9e3a-d9af7f50b81e);
      }

      .uuid-aed79b63-67fc-4862-91f2-2516d39da3fa {
        fill: url(#uuid-5be9ed93-6987-4def-8687-537049e4e1cf);
      }

      .uuid-7fb198ab-10f1-4f2d-9a38-66668a795b4d {
        fill: url(#uuid-ebe94990-143f-470c-b744-73e231e6133d);
      }
    </style></defs><rect
     class="uuid-5da2c4a3-8db1-41d9-92d6-1ab0c264b0da"
     width="256"
     height="256"
     id="rect2"
     x="0"
     y="0" /><path
     d="m 18.062248,107.7119 h 62.188127 v 40.80522 H 18.062248 Z M 97.455635,49.719736 H 158.54437 V 90.515823 H 97.455635 Z m 0,115.773604 h 61.088735 v 40.80524 H 97.455635 Z M 175.52974,107.7119 h 62.40801 v 40.80522 H 175.52974 Z M 43.641092,49.719736 C 30.631797,53.00872 20.49004,67.575469 18.062248,86.090813 v 4.635721 H 80.250375 V 49.710582 Z M 18.062248,165.48419 v 5.07546 c 2.198755,17.64501 11.690047,31.75369 24.039725,35.72976 H 80.470239 V 165.48419 Z M 237.93775,90.506653 v -4.63571 C 235.50995,67.566315 225.36819,53.00872 212.35888,49.481546 h -36.82914 v 40.805217 h 62.40801 z M 213.89802,206.51845 c 12.12979,-4.19596 21.6211,-18.08475 24.03973,-35.72976 v -5.07546 h -62.40801 v 40.80522 z"
     id="path1"
     style="fill:#000000;fill-opacity:1;stroke-width:9.16148" /></svg>
