<?xml version="1.0" encoding="UTF-8" standalone="no"?>
<svg
   id="uuid-d837f90e-3a4b-44c2-81ee-d7b8ed5bc69b"
   data-name="Capa 1"
   width="1920"
   height="773"
   viewBox="0 0 1920 773"
   version="1.1"
   xml:space="preserve"
   sodipodi:docname="logo-hybridnetworks-1.svg"
   inkscape:version="1.4 (86a8ad7, 2024-10-11)"
   xmlns:inkscape="http://www.inkscape.org/namespaces/inkscape"
   xmlns:sodipodi="http://sodipodi.sourceforge.net/DTD/sodipodi-0.dtd"
   xmlns="http://www.w3.org/2000/svg"
   xmlns:svg="http://www.w3.org/2000/svg"><sodipodi:namedview
     id="namedview1"
     pagecolor="#ffffff"
     bordercolor="#000000"
     borderopacity="0.25"
     inkscape:showpageshadow="2"
     inkscape:pageopacity="0.0"
     inkscape:pagecheckerboard="0"
     inkscape:deskcolor="#d1d1d1"
     inkscape:zoom="0.4625"
     inkscape:cx="909.18919"
     inkscape:cy="316.75676"
     inkscape:window-width="1920"
     inkscape:window-height="1009"
     inkscape:window-x="1912"
     inkscape:window-y="-8"
     inkscape:window-maximized="1"
     inkscape:current-layer="g1" /><defs
     id="defs1"><style
       id="style1">
      .uuid-c90f1ad1-f831-4e7c-956b-467930e03b8f {
        fill: none;
      }

      .uuid-04a06d85-28dc-4ddd-a18a-468519060675 {
        fill: #e2111a;
      }
    </style><style
       id="style1-4">
      .cls-1 {
        font-size: 95px;
        fill: #292d38;
      }

      .cls-1, .cls-3 {
        font-family: &quot;Foobar Pro&quot;;
      }

      .cls-2 {
        fill: #0188cc;
      }

      .cls-3 {
        font-size: 37px;
      }
    </style><style
       id="style1-48">
      .cls-1 {
        fill: #292d38;
      }

      .cls-1, .cls-2 {
        fill-rule: evenodd;
      }
    </style></defs><rect
     class="uuid-c90f1ad1-f831-4e7c-956b-467930e03b8f"
     width="1920"
     height="773"
     id="rect1"
     x="0"
     y="0" /><g
     id="g1"
     transform="matrix(2.8756439,0,0,2.8756439,-60.964297,134.69568)"><path
       id="Networking_Corporativo"
       data-name="Networking Corporativo"
       class="cls-2"
       d="M 304.4,139 V 117.983 L 317.833,139 h 4 v -26.531 h -3.553 v 21.055 l -13.321,-21.055 h -4.107 V 139 Z m 30.969,-2.331 c -4.4,0 -5.772,-1.813 -5.772,-7.142 0,-5.994 1.554,-7.511 5.624,-7.511 4.07,0 4.922,2.146 5.181,5.587 h -8.215 v 2.738 h 11.545 c 0,-7.548 -2.146,-11.137 -8.474,-11.137 -6.586,0 -9.065,3.848 -9.065,10.471 0,6.55 2.442,9.806 8.917,9.806 6.661,0 8.178,-3.441 8.474,-6.438 h -3.293 c -0.37,2.849 -1.961,3.626 -4.921,3.626 z m 16.243,-14.209 h 3.145 v -2.738 h -3.145 v -5.181 h -3.256 v 5.181 H 345.8 v 2.738 h 2.554 V 135 c 0,3.145 0.74,4.292 3.811,4.292 a 13.075,13.075 0 0 0 2.59,-0.259 V 136.3 a 10.612,10.612 0 0 1 -1.258,0.148 c -1.406,0 -1.887,-0.148 -1.887,-1.406 V 122.46 Z m 13.432,16.54 3.774,-14.875 3.923,14.875 h 3.367 a 117.028,117.028 0 0 0 5.772,-19.278 h -3.219 a 84.464,84.464 0 0 1 -4.107,15.06 l -3.812,-15.06 h -3.552 l -3.848,15.208 a 85.039,85.039 0 0 1 -3.885,-15.208 h -3.516 A 118.934,118.934 0 0 0 361.64,139 h 3.4 z m 18.536,-9.621 c 0,6.032 2.294,10.065 8.955,10.065 6.549,0 9.028,-3.885 9.028,-10.065 0,-5.957 -2.331,-10.175 -9.028,-10.175 -6.513,-0.004 -8.955,3.996 -8.955,10.175 z m 3.4,-0.037 c 0,-4.81 1.369,-7.326 5.588,-7.326 4.219,0 5.587,2.553 5.587,7.289 0,4.811 -1.406,7.327 -5.587,7.327 -4.252,0 -5.584,-2.553 -5.584,-7.29 z m 21.571,-9.62 h -3.034 V 139 h 3.256 v -10.842 c 0,-3.737 1.184,-5.513 4.367,-5.513 a 5.841,5.841 0 0 1 1.776,0.222 v -3.4 a 4.691,4.691 0 0 0 -1.443,-0.185 5.106,5.106 0 0 0 -4.922,2.812 v -2.368 z m 12.247,-7.253 h -3.256 V 139 h 3.258 v -26.531 z m 1.11,16.54 7.553,9.991 h 4.181 l -7.586,-9.991 7.031,-9.287 h -4.181 z m 17.5,9.991 v -19.278 h -3.256 V 139 Z m -3.7,-24.681 c 0,1.554 0.518,2.072 2.072,2.072 1.554,0 2.109,-0.518 2.109,-2.072 0,-1.554 -0.555,-2.109 -2.109,-2.109 -1.554,0 -2.067,0.555 -2.067,2.109 z m 11.617,5.4 h -3 V 139 h 3.256 v -10.509 c 0,-5.476 2.11,-6.475 5.144,-6.475 3.626,0 4.033,1.406 4.033,5.18 V 139 h 3.256 v -12.692 c 0,-5.069 -2.035,-7.1 -6.364,-7.1 -3.552,0 -5.218,1.369 -6.328,2.886 v -2.368 z m 19.869,9.509 c 0,-4.625 0.925,-7.215 5.218,-7.215 3.922,0 5.143,2.146 5.143,7.252 v 8.326 c 0,4.255 -0.111,6.586 -5.624,6.586 -2.443,0 -3.775,-0.444 -4.219,-3 h -3.256 c 0.407,4.292 2.923,5.81 7.586,5.81 7.733,0 8.769,-4 8.769,-9.917 v -17.348 h -3.251 v 2.22 a 6.362,6.362 0 0 0 -5.772,-2.738 c -5.551,0 -7.993,3.552 -7.993,9.842 0,5.366 1.776,10.287 8.363,10.287 a 10.16,10.16 0 0 0 2.812,-0.37 v -2.775 a 6.792,6.792 0 0 1 -2.368,0.333 c -4.256,0 -5.402,-2.109 -5.402,-7.29 z m 51.247,-8.991 c -0.666,-5.4 -4.33,-8.363 -11.212,-8.363 -8.437,0 -12.211,4.477 -12.211,13.95 0,10.287 4.44,13.765 12.211,13.765 3.589,0 10.1,-0.74 11.212,-9.88 h -3.553 c -0.925,5.81 -3.885,6.7 -7.548,6.7 -6.883,0 -8.659,-3.367 -8.659,-10.435 0,-8.325 2.443,-10.916 8.844,-10.916 3.626,0 6.512,0.777 7.363,5.181 h 3.553 z m 2.884,9.139 c 0,6.032 2.294,10.065 8.954,10.065 6.55,0 9.029,-3.885 9.029,-10.065 0,-5.957 -2.331,-10.175 -9.029,-10.175 -6.507,-10e-4 -8.949,3.999 -8.949,10.178 z m 3.4,-0.037 c 0,-4.81 1.369,-7.326 5.587,-7.326 4.218,0 5.588,2.553 5.588,7.289 0,4.811 -1.407,7.327 -5.588,7.327 -4.246,0.003 -5.578,-2.55 -5.578,-7.287 z m 21.571,-9.62 h -3.034 V 139 h 3.256 v -10.842 c 0,-3.737 1.184,-5.513 4.366,-5.513 a 5.841,5.841 0 0 1 1.776,0.222 v -3.4 a 4.691,4.691 0 0 0 -1.443,-0.185 5.1,5.1 0 0 0 -4.921,2.812 v -2.368 z m 12.136,9.879 c 0,-4.958 1.11,-7.585 5.18,-7.585 4.181,0 5.106,2.738 5.106,7.252 0,5.329 -1.258,7.4 -5.4,7.4 a 6.127,6.127 0 0 1 -2.294,-0.333 v 2.812 a 9.542,9.542 0 0 0 2.59,0.333 c 6.512,0 8.51,-4.662 8.51,-10.4 0,-6.4 -2.442,-9.879 -7.992,-9.879 -3.552,0 -4.625,1.443 -5.7,2.812 v -2.294 h -3.257 v 26.827 h 3.257 V 129.6 Z m 16.353,-0.222 c 0,6.032 2.294,10.065 8.955,10.065 6.549,0 9.028,-3.885 9.028,-10.065 0,-5.957 -2.331,-10.175 -9.028,-10.175 -6.504,-10e-4 -8.946,3.999 -8.946,10.178 z m 3.4,-0.037 c 0,-4.81 1.37,-7.326 5.588,-7.326 4.218,0 5.587,2.553 5.587,7.289 0,4.811 -1.406,7.327 -5.587,7.327 -4.242,0.003 -5.573,-2.55 -5.573,-7.287 z m 21.572,-9.62 h -3.035 V 139 h 3.257 v -10.842 c 0,-3.737 1.184,-5.513 4.366,-5.513 a 5.841,5.841 0 0 1 1.776,0.222 v -3.4 a 4.691,4.691 0 0 0 -1.443,-0.185 5.1,5.1 0 0 0 -4.921,2.812 v -2.368 z m 20.646,12.025 c 0,3.59 -2.22,5 -5.92,5 -2.479,0 -3.737,-0.629 -3.737,-2.886 0,-2.184 1.147,-2.961 4.144,-3.368 l 2.923,-0.407 v -2.664 l -4.514,0.592 c -4.848,0.629 -5.958,3.7 -5.958,6.254 0,3.552 2.147,5.217 6.291,5.217 a 8.879,8.879 0 0 0 6.771,-2.59 V 139 h 3.256 v -14.431 c 0,-4.366 -3.219,-5.365 -7.511,-5.365 -5.254,0 -7.734,1.48 -8.1,6.253 h 3.257 c 0.444,-2.257 0.814,-3.515 4.7,-3.515 3.737,0 4.4,1.184 4.4,3.441 v 6.364 z m 12.136,-9.287 h 3.161 v -2.738 h -3.145 v -5.181 h -3.257 v 5.181 h -2.553 v 2.738 h 2.553 V 135 c 0,3.145 0.741,4.292 3.812,4.292 a 13.075,13.075 0 0 0 2.59,-0.259 V 136.3 a 10.612,10.612 0 0 1 -1.258,0.148 c -1.406,0 -1.887,-0.148 -1.887,-1.406 V 122.46 Z M 642.246,139 v -19.278 h -3.257 V 139 Z m -3.7,-24.681 c 0,1.554 0.518,2.072 2.072,2.072 1.554,0 2.11,-0.518 2.11,-2.072 0,-1.554 -0.555,-2.109 -2.11,-2.109 -1.555,0 -2.073,0.555 -2.073,2.109 z M 655.565,139 a 127.926,127.926 0 0 0 7.29,-19.278 h -3.478 a 96.8,96.8 0 0 1 -5.44,15.615 95.543,95.543 0 0 1 -5.217,-15.615 h -3.663 A 127.066,127.066 0 0 0 652.2,139 h 3.367 z m 8.954,-9.621 c 0,6.032 2.294,10.065 8.954,10.065 6.55,0 9.029,-3.885 9.029,-10.065 0,-5.957 -2.331,-10.175 -9.029,-10.175 -6.512,-0.004 -8.954,3.996 -8.954,10.175 z m 3.4,-0.037 c 0,-4.81 1.369,-7.326 5.587,-7.326 4.218,0 5.588,2.553 5.588,7.289 0,4.811 -1.406,7.327 -5.588,7.327 -4.251,0 -5.583,-2.553 -5.583,-7.29 z"
       style="fill:#000000;fill-opacity:1" /><path
       id="HybridNetworks"
       class="cls-1"
       d="M 309.205,96.927 V 42.963 l 34.485,53.96 h 10.261 V 28.807 h -9.121 v 54.056 l -34.2,-54.056 h -10.545 v 68.116 h 9.12 z m 79.514,-5.985 c -11.306,0 -14.821,-4.655 -14.821,-18.335 0,-15.39 3.99,-19.285 14.441,-19.285 10.451,0 12.635,5.51 13.3,14.345 h -21.09 v 7.03 h 29.64 c 0,-19.38 -5.51,-28.6 -21.755,-28.6 -16.911,0 -23.276,9.88 -23.276,26.885 0,16.815 6.27,25.175 22.9,25.175 17.1,0 21,-8.835 21.755,-16.53 h -8.455 c -0.958,7.316 -5.039,9.311 -12.639,9.311 z m 41.7,-36.481 h 8.081 v -7.03 h -8.076 v -13.3 h -8.36 v 13.3 h -6.555 v 7.03 h 6.555 v 32.202 c 0,8.075 1.9,11.02 9.785,11.02 2.2336,1.23e-4 4.46164,-0.222647 6.651,-0.665 v -7.03 c -1.06814,0.190866 -2.14673,0.317758 -3.23,0.38 -3.611,0 -4.846,-0.38 -4.846,-3.61 v -32.3 z m 34.486,42.466 9.69,-38.19 10.07,38.19 h 8.645 c 6.35226,-16.043821 11.31059,-32.605047 14.82,-49.5 h -8.265 c -2.31351,13.18663 -5.84359,26.130597 -10.545,38.666 l -9.785,-38.665 h -9.12 l -9.88,39.046 c -4.52274,-12.679373 -7.86232,-25.750112 -9.976,-39.045 h -9.025 c 3.46959,16.883656 8.36377,33.442907 14.63,49.5 h 8.741 z m 47.593,-24.7 c 0,15.485 5.89,25.84 22.99,25.84 16.815,0 23.18,-9.975 23.18,-25.84 0,-15.3 -5.985,-26.125 -23.18,-26.125 C 518.772,46.1 512.5,56.358 512.5,72.223 Z m 8.74,-0.1 c 0,-12.35 3.515,-18.81 14.345,-18.81 10.83,0 14.345,6.555 14.345,18.715 0,12.35 -3.61,18.81 -14.345,18.81 -10.921,0.001 -14.341,-6.554 -14.341,-18.714 z m 55.385,-24.7 h -7.79 v 49.5 h 8.36 V 69.088 c 0,-9.6 3.04,-14.155 11.21,-14.155 1.54025,-0.04535 3.0783,0.146908 4.56,0.57 v -8.74 c -1.20278,-0.350063 -2.45281,-0.510323 -3.705,-0.475 -6.08,0 -9.595,2.185 -12.635,7.22 v -6.08 z m 31.444,-18.62 h -8.36 v 68.116 h 8.36 z m 2.85,42.466 19.383,25.65 h 10.735 L 621.559,71.273 639.61,47.428 h -10.733 z m 71.536,-10.165 c -0.57,-6.935 -2.85,-15.01 -19,-15.01 -11.4,0 -19.1,3.99 -19.1,14.44 0,7.315 3.61,10.925 13.775,13.585 l 8.74,2.28 c 6.555,1.71 8.74,3.9 8.74,7.6 0,5.985 -5.035,6.935 -11.875,6.935 -9.595,0 -11.59,-2.09 -12.255,-9.5 h -8.36 c 0.95,9.405 3.8,16.72 20.52,16.72 13.775,0 20.71,-4.94 20.71,-15.2 0,-8.835 -5.225,-11.78 -14.82,-14.155 l -8.075,-2 c -6.08,-1.52 -8.36,-2.945 -8.36,-7.125 0,-5.605 4.465,-6.365 10.26,-6.365 8.645,0 10.355,1.8 10.735,7.79 h 8.36 z"
       sodipodi:nodetypes="cccccccccccccssccccsssccccccccccccccsccccsccccccccccccccccccssccccsscccccccsccccccccccccccccccccsscsssccssccssccc"
       inkscape:label="Networks"
       style="fill:#0188cc;fill-opacity:1" /><path
       id="path1"
       class="cls-1"
       d="M 70.379,64.908 V 96.923 H 79.5 V 28.807 h -9.12 v 28.12 H 41.5 v 7.98 H 70.38 Z M 34.849,96.923 V 28.807 h -9.12 v 68.116 z m 98.514,-49.5 h -8.931 L 110.847,87.708 C 105.23519,74.69029 100.75367,61.213939 97.452,47.428 h -9.405 c 4.826187,17.249597 11.020838,34.086676 18.525,50.351 -3.61,9.595 -4.75,11.59 -9.31,11.59 -1.569425,0.006 -3.13336,-0.18563 -4.655,-0.57 v 7.79 c 1.655571,0.34426 3.344257,0.50357 5.035,0.475 9.4,0 11.59,-4.18 17.575,-20.425 z m 27.644,43.511 c -8.835,0 -12.445,-3.9 -12.445,-18.43 v -43.7 H 140.2 v 68.119 h 8.36 V 91.7 c 2.375,3.42 5.415,6.46 13.585,6.46 16.435,0 21.471,-12.255 21.471,-26.98 0,-16.245 -6.176,-25.08 -20.711,-25.08 -2.62111,-0.07034 -5.23236,0.348478 -7.7,1.235 v 7.22 c 2.07501,-0.864148 4.3078,-1.284818 6.555,-1.235 10.83,0 13.11,7.03 13.11,18.43 0.007,13.488 -3.128,19.188 -13.863,19.188 z m 40.85,-43.511 h -7.79 v 49.5 h 8.36 V 69.088 c 0,-9.6 3.04,-14.155 11.21,-14.155 1.54025,-0.04535 3.0783,0.146908 4.56,0.57 v -8.74 c -1.20278,-0.350063 -2.45281,-0.510323 -3.705,-0.475 -6.08,0 -9.595,2.185 -12.635,7.22 v -6.08 z m 31.729,49.5 v -49.5 h -8.36 v 49.5 z m -9.5,-63.366 c 0,3.99 1.33,5.32 5.32,5.32 3.99,0 5.415,-1.33 5.415,-5.32 0,-3.99 -1.425,-5.415 -5.415,-5.415 -3.99,0 -5.32,1.425 -5.32,5.415 z m 27.929,38.1 c 0,-11.4 2,-18.335 13.11,-18.335 2.31872,-0.05731 4.6216,0.396777 6.745,1.33 v -7.03 c -2.68376,-1.082921 -5.56211,-1.600378 -8.455,-1.52 -14.06,0 -20.14,8.93 -20.14,25.555 0,14.535 4.655,26.505 22.23,26.505 4.37,0 9.405,-0.76 13.015,-6.84 v 5.605 h 8.36 v -68.12 h -8.36 V 47.897708 72.6 c 0,13.965 -3.515,18.335 -13.015,18.335 -10.545,0.003 -13.49,-5.507 -13.49,-19.282 z"
       sodipodi:nodetypes="ccccccccccccccccccccccccccccscccccsscccccccccccsccccccccccccssssscccccssccccccsccc"
       inkscape:label="Hybrid" /></g></svg>
