<svg
   data-name="C1"
   viewBox="0 0 256 256"
   version="1.1"
   id="svg8"
   xml:space="preserve"
   width="256"
   height="256"
   xmlns="http://www.w3.org/2000/svg"
   xmlns:svg="http://www.w3.org/2000/svg"><defs
     id="defs2" /><path
     style="fill:none"
     d="M 0,0 H 256 V 256 H 0 Z"
     id="path2" /><style
     type="text/css"
     id="style1">
	.st0{fill:#FFFFFF;}
</style><g
     id="g8"
     transform="matrix(1.0297046,0,0,1.0297046,18.03487,18.03487)"><path
       d="M 213.58578,106.79288 A 106.79289,106.79289 0 1 1 106.79289,1.5751821e-7 106.78709,106.78709 0 0 1 213.58578,106.79288"
       fill="#5bbdbf"
       id="path1" /><path
       d="m 108.5922,66.76582 27.63843,68.20864 -41.74528,-32.8803 z m 49.09554,83.922 -42.5103,-102.3007 a 6.85642,6.85642 0 0 0 -6.58524,-4.51358 7.08778,7.08778 0 0 0 -6.76578,4.51358 L 55.16975,160.59936 H 71.131 l 18.46744,-46.268 55.11772,44.52993 c 2.21855,1.79319 3.81589,2.60411 5.89673,2.60411 a 7.62418,7.62418 0 0 0 7.80314,-7.62872 10.11356,10.11356 0 0 0 -0.72829,-3.1488"
       fill="#ffffff"
       id="path2-4" /></g></svg>
