<?xml version="1.0" encoding="UTF-8" standalone="no"?>
<svg
   data-name="Capa 1"
   viewBox="0 0 256 256"
   version="1.1"
   id="svg8"
   xml:space="preserve"
   width="256"
   height="256"
   xmlns="http://www.w3.org/2000/svg"
   xmlns:svg="http://www.w3.org/2000/svg"><defs
     id="defs2" /><path
     style="fill:none"
     d="M 0,0 H 256 V 256 H 0 Z"
     id="path2" /><g
     style="fill:none"
     id="g8"
     transform="matrix(1.7180748,0,0,1.7180748,18.043213,17.186753)"><path
       fill="currentColor"
       d="m 123.998,0 h -7.999 v 7.999 h 7.999 z M 96.01,56.02 V 39.994 l 0.004,0.005 h 15.993 V 55.996 H 128 v 5.07 c 0,5.862 -0.498,12.807 -1.644,18.26 -0.642,3.049 -1.615,6.078 -2.756,8.987 -1.169,2.976 -2.516,5.827 -3.982,8.382 a 62.776,62.776 0 0 1 -6.695,9.547 l -0.136,0.158 -0.224,0.262 c -0.617,0.724 -1.227,1.44 -1.898,2.139 a 63.215,63.215 0 0 1 -2.415,2.415 c -10.237,9.859 -23.575,16.017 -37.521,17.431 -1.678,0.172 -5.047,0.35 -6.729,0.35 -1.687,-0.005 -5.051,-0.178 -6.729,-0.35 -13.946,-1.414 -27.284,-7.577 -37.52,-17.431 a 63.155,63.155 0 0 1 -2.416,-2.415 c -0.704,-0.729 -1.339,-1.477 -1.98,-2.233 l -0.003,-0.002 -0.275,-0.324 A 62.658,62.658 0 0 1 8.382,96.695 C 6.916,94.135 5.569,91.289 4.4,88.313 3.259,85.403 2.286,82.375 1.644,79.327 0.498,73.867 0,66.928 0,61.067 V 1.002 H 31.99 V 56.02 c 0,0 0,4.218 0.053,5.598 l 0.012,0.322 v 0.002 c 0.068,1.785 0.133,3.534 0.319,5.274 0.527,4.94 1.62,9.628 3.872,13.592 0.652,1.145 1.313,2.257 2.104,3.311 4.812,6.417 12.135,11.234 21.27,12.576 1.087,0.158 3.283,0.297 4.38,0.297 1.097,0 3.292,-0.139 4.38,-0.297 9.135,-1.342 16.458,-6.159 21.27,-12.576 0.795,-1.054 1.452,-2.166 2.104,-3.311 2.252,-3.964 3.345,-8.651 3.872,-13.592 0.186,-1.743 0.252,-3.495 0.319,-5.284 l 0.012,-0.314 C 96.01,60.238 96.01,56.02 96.01,56.02 Z M 100.002,12 h 12 V 23.996 H 128 V 39.994 H 112.002 V 24.001 h -12 v -12 z"
       id="path1"
       style="fill:#000000;fill-opacity:1" /></g></svg>
