<svg
   data-name="C1"
   viewBox="0 0 256 256"
   version="1.1"
   id="svg8"
   xml:space="preserve"
   width="256"
   height="256"
   xmlns="http://www.w3.org/2000/svg"
   xmlns:svg="http://www.w3.org/2000/svg"><defs
     id="defs2" /><path
     style="fill:none"
     d="M 0,0 H 256 V 256 H 0 Z"
     id="path2" /><g
     id="g8"
     transform="matrix(6.7802256,0,0,6.7802256,18.60106,18.60106)"><path
       d="m 18.03,11.14 3.1,3.1 -1.22,1.24 -3.1,-3.1 z m 5.67,-5.66 3.1,3.1 -1.23,1.24 -3.1,-3.1 z m -0.2,11.14 3.12,3.1 -1.23,1.24 -3.2,-3.1 z m 5.67,-5.66 3.1,3.1 -1.22,1.24 -3.1,-3.1 z m -12.27,-2.3 3.12,-3.1 1.23,1.23 -3.1,3.1 z m 5.48,5.48 3.1,-3.1 1.24,1.22 -3.1,3.1 z m 5.47,5.48 3.1,-3.12 1.24,1.23 -3.2,3.1 z m -16.62,-5.27 3.1,-3.1 1.24,1.22 -3.1,3.1 z m 5.47,5.47 3.12,-3.1 1.22,1.22 -3.1,3.1 z m 5.48,5.48 3.1,-3.12 1.24,1.23 -3.12,3.2 z"
       fill="#ffffff"
       id="path6-5" /><path
       d="M 6.7,22.46 9.82,25.56 8.6,26.8 5.48,23.68 Z m 5.67,-5.66 3.1,3.1 -1.22,1.23 -3.1,-3.1 z m -0.17,11.14 3.1,3.1 -1.23,1.23 -3.1,-3.1 z m 5.65,-5.66 3.1,3.1 -1.22,1.23 -3.1,-3.1 z M 1.23,16.98 4.33,20.08 3.1,21.3 0,18.2 Z m 5.67,-5.66 3.1,3.1 -1.23,1.23 -3.1,-3.1 z m 5.65,-5.66 3.1,3.1 -1.2,1.24 -3.1,-3.1 z M 18.2,0 l 3.12,3.1 -1.23,1.23 -3.2,-3.1 z m -6.77,3.2 3.1,-3.1 1.23,1.22 -3.1,3.1 z M 5.76,8.87 8.86,5.77 10.1,7 7,10.1 Z m -5.66,5.67 3.1,-3.1 1.23,1.2 -3.1,3.12 z m 5.46,5.46 3.1,-3.1 1.24,1.23 -3.1,3.1 z m 5.48,5.48 3.1,-3.1 1.23,1.22 -3.1,3.1 z m 5.46,5.48 3.12,-3.1 1.23,1.2 -3.1,3.12 z"
       fill="#db202e"
       id="path7" /></g></svg>
