<svg id="uuid-aadb5c46-615f-46f7-98e8-4e3398cf18f0" data-name="C1" xmlns="http://www.w3.org/2000/svg" width="1920" height="773" viewBox="0 0 1920 773">
  <defs>
    <style>
      .uuid-3870e78b-7290-45d6-92b0-a60964659171 {
        fill: none;
      }

      .uuid-dea3036b-c0cf-4d1c-b5bf-2cfd76be8d00 {
        fill: #25303f;
      }

      .uuid-bcdcfe80-6d5f-439f-a374-89702dd6d5bc {
        fill: #f4991a;
        fill-rule: evenodd;
      }
    </style>
  </defs>
  <rect class="uuid-3870e78b-7290-45d6-92b0-a60964659171" width="1920" height="773"/>
  <path class="uuid-dea3036b-c0cf-4d1c-b5bf-2cfd76be8d00" d="M728.11,299.63c0,13.05,1.42,23.62,3.9,31.49,2.85,7.72,6.37,16.27,11.25,25.42,1.8,2.85,2.47,5.62,2.47,8.17,0,3.52-2.1,7.05-6.75,10.57l-22.27,14.85c-3.22,2.1-6.37,3.22-9.15,3.22-3.52,0-7.05-1.8-10.57-4.95-4.95-5.32-9.15-10.95-12.75-16.57-3.52-6-7.05-12.75-10.95-20.85-27.59,32.47-62.16,48.74-103.93,48.74-29.69,0-53.39-8.47-70.71-25.42-17.32-16.95-26.17-39.59-26.17-67.86,0-30.07,10.57-54.44,32.17-72.81,21.52-18.37,50.16-27.59,86.6-27.59,12,0,24.37,1.05,37.42,2.85,13.05,1.8,26.54,4.65,40.64,7.72v-25.79c0-26.84-5.62-45.59-16.57-56.54-11.25-10.95-30.37-16.27-57.59-16.27-12.37,0-25.04,1.42-38.17,4.65s-25.79,7.05-38.17,12c-5.62,2.47-9.9,3.9-12.37,4.65s-4.2,1.05-5.62,1.05c-4.95,0-7.42-3.52-7.42-10.95v-17.32c0-5.62.67-9.9,2.47-12.37s4.95-4.95,9.9-7.42c12.37-6.37,27.22-11.7,44.54-15.9,17.32-4.65,35.69-6.75,55.11-6.75,42.07,0,72.81,9.52,92.6,28.64,19.42,19.12,29.32,48.06,29.32,86.9v114.5h.67l.08-.08ZM584.67,353.32c11.7,0,23.62-2.1,36.37-6.37,12.75-4.27,24.07-12,33.59-22.64,5.62-6.75,9.9-14.17,12-22.64,2.1-8.47,3.52-18.75,3.52-30.74v-14.85c-10.27-2.47-21.22-4.65-32.47-6-11.25-1.35-22.27-2.1-33.22-2.1-23.62,0-41.02,4.65-52.71,14.17-11.7,9.52-17.32,22.94-17.32,40.64,0,16.57,4.2,28.94,13.05,37.42,8.47,8.92,20.85,13.12,37.12,13.12h.07ZM868.48,391.49c-6.37,0-10.57-1.05-13.42-3.52-2.85-2.1-5.32-7.05-7.42-13.8l-83.08-273.16c-2.1-7.05-3.22-11.7-3.22-14.17,0-5.62,2.85-8.85,8.47-8.85h34.64c6.75,0,11.25,1.05,13.8,3.52,2.85,2.1,4.95,7.05,7.05,13.8l59.39,233.95,55.11-233.95c1.8-7.05,3.9-11.7,6.75-13.8s7.72-3.52,14.17-3.52h28.27c6.75,0,11.25,1.05,14.17,3.52,2.85,2.1,5.32,7.05,6.75,13.8l55.86,236.79,61.11-236.79c2.1-7.05,4.65-11.7,7.05-13.8,2.85-2.1,7.42-3.52,13.8-3.52h32.84c5.62,0,8.85,2.85,8.85,8.85,0,1.8-.37,3.52-.67,5.62-.37,2.1-1.05,4.95-2.47,8.85l-85.18,273.16c-2.1,7.05-4.65,11.7-7.42,13.8-2.85,2.1-7.42,3.52-13.42,3.52h-30.37c-6.75,0-11.25-1.05-14.17-3.52-2.85-2.47-5.32-7.05-6.75-14.17l-54.81-227.95-54.29,227.72c-1.8,7.05-3.9,11.7-6.75,14.17s-7.72,3.52-14.17,3.52h-30.29l-.15-.07ZM1322.57,401.01c-18.37,0-36.74-2.1-54.44-6.37-17.7-4.27-31.49-8.85-40.64-14.17-5.62-3.22-9.52-6.75-10.95-9.9-1.42-3.22-2.1-6.75-2.1-9.9v-18c0-7.42,2.85-10.95,8.17-10.95,2.1,0,4.2.37,6.37,1.05s5.32,2.1,8.85,3.52c12,5.32,25.04,9.52,38.92,12.37,14.17,2.85,27.97,4.2,42.07,4.2,22.27,0,39.59-3.9,51.59-11.7,12-7.72,18.37-19.12,18.37-33.59,0-9.9-3.22-18-9.52-24.74-6.3-6.75-18.37-12.75-35.69-18.37l-51.29-15.9c-25.79-8.17-44.84-20.1-56.54-35.99-11.7-15.6-17.7-32.84-17.7-51.29,0-14.85,3.22-27.97,9.52-39.22,6.37-11.25,14.85-21.22,25.42-28.94,10.57-8.17,22.64-14.17,36.74-18.37,14.17-4.2,28.94-6,44.54-6,7.72,0,15.9.37,23.62,1.42,8.17,1.05,15.6,2.47,22.94,3.9,7.05,1.8,13.8,3.52,20.1,5.62s11.25,4.2,14.85,6.37c4.95,2.85,8.47,5.62,10.57,8.85,2.1,2.85,3.22,6.75,3.22,11.7v16.57c0,7.42-2.85,11.25-8.17,11.25-2.85,0-7.42-1.42-13.42-4.2-20.1-9.15-42.74-13.8-67.86-13.8-20.1,0-35.99,3.22-47.01,9.9-11.02,6.67-16.57,16.95-16.57,31.49,0,9.9,3.52,18.37,10.57,25.04,7.05,6.75,20.1,13.42,38.92,19.42l50.16,15.9c25.42,8.17,43.86,19.42,54.81,33.89,10.95,14.47,16.27,31.12,16.27,49.49,0,15.22-3.22,28.94-9.15,41.02-6.37,12-14.85,22.64-25.79,31.12-10.95,8.85-24.07,15.22-39.22,19.8-15.9,5.02-32.47,7.5-50.54,7.5h0Z"/>
  <g>
    <path class="uuid-bcdcfe80-6d5f-439f-a374-89702dd6d5bc" d="M1389.38,572.79c-116.3,85.85-285.23,131.44-430.47,131.44-203.58,0-386.98-75.28-525.48-200.35-10.95-9.9-1.05-23.32,12-15.6,149.82,86.9,334.65,139.62,525.85,139.62,129.04,0,270.69-26.84,401.08-81.96,19.5-8.85,36.07,12.75,16.95,26.84h.08Z"/>
    <path class="uuid-bcdcfe80-6d5f-439f-a374-89702dd6d5bc" d="M1437.82,517.61c-14.85-19.12-98.23-9.15-136.09-4.65-11.25,1.42-13.05-8.47-2.85-15.9,66.43-46.64,175.61-33.22,188.36-17.7,12.75,15.9-3.52,125.07-65.76,177.41-9.52,8.17-18.75,3.9-14.47-6.75,14.1-34.94,45.59-113.75,30.74-132.49l.07.07Z"/>
  </g>
</svg>