<svg
   id="uuid-19907d1f-9315-477d-b7ba-91ae3e2acc9a"
   data-name="C1"
   viewBox="0 0 256 256"
   version="1.1"
   sodipodi:docname="logo-siu-guarani-1.svg"
   xml:space="preserve"
   width="256"
   height="256"
   xmlns:inkscape="http://www.inkscape.org/namespaces/inkscape"
   xmlns:sodipodi="http://sodipodi.sourceforge.net/DTD/sodipodi-0.dtd"
   xmlns="http://www.w3.org/2000/svg"
   xmlns:svg="http://www.w3.org/2000/svg"><sodipodi:namedview
     id="namedview7"
     pagecolor="#ffffff"
     bordercolor="#000000"
     borderopacity="0.25"
     inkscape:showpageshadow="2"
     inkscape:pageopacity="0.0"
     inkscape:pagecheckerboard="0"
     inkscape:deskcolor="#d1d1d1"><inkscape:page
       x="0"
       y="0"
       width="256"
       height="256"
       id="page2"
       margin="0"
       bleed="0" /></sodipodi:namedview><defs
     id="defs2"><style
       id="style1">
      .uuid-153302a6-b94e-4ad0-9cfb-43725c5c5610 {
        fill: url(#uuid-af07a271-8980-47e6-b92b-41550c7dc68a);
      }

      .uuid-27fce091-ee3a-4889-9199-28416b94f462 {
        fill: url(#uuid-dc53e15d-e646-4f9b-aab3-d9d8fec05b0e);
      }

      .uuid-5da2c4a3-8db1-41d9-92d6-1ab0c264b0da {
        fill: none;
      }

      .uuid-ed4306aa-b6e6-45eb-bfe3-e4f85f33ea76 {
        fill: url(#uuid-afdc0b81-5c65-49b4-9e34-1cf3c2f4f8f7);
      }

      .uuid-03bde706-b35e-416f-8ae5-693e38f68253 {
        fill: url(#uuid-8e0b3ff5-2b0d-4ede-9e3a-d9af7f50b81e);
      }

      .uuid-aed79b63-67fc-4862-91f2-2516d39da3fa {
        fill: url(#uuid-5be9ed93-6987-4def-8687-537049e4e1cf);
      }

      .uuid-7fb198ab-10f1-4f2d-9a38-66668a795b4d {
        fill: url(#uuid-ebe94990-143f-470c-b744-73e231e6133d);
      }
    </style><style
       id="style1-3">
      .cls-1 {
        fill: #fff;
      }

      .cls-2 {
        fill: #3399fb;
      }
    </style><style
       id="style1-8">
      .cls-1 {
        fill: #fff;
      }

      .cls-2 {
        fill: #3399fb;
      }

      .cls-3 {
        fill: #4e4e4e;
      }
    </style><style
       id="style1-9">
      .cls-1 {
        fill: #fff;
      }

      .cls-2 {
        fill: #3399fb;
      }

      .cls-3 {
        fill: #4e4e4e;
      }

      .cls-4 {
        fill: url(#Degradado_sin_nombre);
      }
    </style><style
       id="style1-1">
      .cls-1 {
        fill: #9d5c9d;
      }

      .cls-2 {
        fill: #4e4e4e;
      }
    </style><style
       id="style1-13">
      .cls-1 {
        fill: #fff;
      }

      .cls-2 {
        fill: #3399fb;
      }

      .cls-3 {
        fill: #4e4e4e;
      }

      .cls-4 {
        fill: url(#Degradado_sin_nombre_2);
      }
    </style></defs><rect
     class="uuid-5da2c4a3-8db1-41d9-92d6-1ab0c264b0da"
     width="256"
     height="256"
     id="rect2"
     x="0"
     y="0" /><g
     id="g16"
     transform="translate(1.45,129.1281)"><g
       id="g4"
       transform="matrix(4.8160097,0,0,4.8160097,20.586417,-111.27941)"><path
         class="cls-2"
         d="M 40.1,0.24 2.7,4.84 c -1.4,0.2 -2.5,1.7 -2.5,3.4 v 16.9 c 2,-2.8 5.2,-4 8.1,-4 2.9,0 5.8,0.8 8.4,4.4 l -4.2,3.1 c -1.5,-2 -2.8,-2.7 -4.3,-2.7 -2.6,0 -4.2,2.2 -4.2,6.4 0,4.2 1.3,7.1 4.5,7.1 0.7,0 1.8,-0.2 2.3,-0.4 v -6.8 h 5.7 v 9.5 c -0.4,0.3 -0.8,0.5 -1.2,0.7 l 24.7,3 c 2.1,0.3 3.8,-1.2 3.8,-3.4 V 3.54 c 0.1,-2 -1.6,-3.5 -3.7,-3.3 z"
         id="path2-2"
         style="fill:#3399fd;fill-opacity:1" /><path
         class="cls-1"
         d="m 16.6,32.24 h -5.7 v 6.8 c -0.5,0.2 -1.6,0.4 -2.3,0.4 -3.2,0 -4.5,-2.8 -4.5,-7.1 0,-4.3 1.6,-6.4 4.2,-6.4 1.5,0 2.8,0.7 4.3,2.7 l 4.2,-3.1 c -2.5,-3.6 -5.5,-4.4 -8.4,-4.4 -2.9,0 -6.1,1.1 -8.1,4 v 12.4 c 0,1.7 1.1,3.2 2.5,3.4 l 12.7,1.6 c 0.4,-0.2 0.8,-0.5 1.2,-0.7 v -9.6 z"
         id="path3-7" /><path
         class="cls-4"
         d="M 40.6,45.74 H 40.1 L 2.7,41.14 C 1.2,40.94 0,39.34 0,37.54 V 8.24 c 0,-1.8 1.2,-3.4 2.7,-3.6 l 37.4,-4.6 c 2.2,-0.3 3.9,1.3 3.9,3.5 v 38.5 c 0.1,2.1 -1.4,3.7 -3.4,3.7 z m 0,-45.3 H 40.2 L 2.8,5.04 c -1.3,0.2 -2.4,1.6 -2.4,3.2 v 29.3 c 0,1.6 1.1,3.1 2.4,3.2 l 37.4,4.6 c 2,0.2 3.6,-1.2 3.6,-3.2 V 3.64 c -0.1,-1.9 -1.4,-3.2 -3.2,-3.2 z"
         id="path4-7"
         style="fill:#3399fd;fill-opacity:1" /></g></g></svg>
