<?xml version="1.0" encoding="UTF-8" standalone="no"?>
<svg
   id="uuid-19907d1f-9315-477d-b7ba-91ae3e2acc9a"
   data-name="Capa 1"
   viewBox="0 0 256 256"
   version="1.1"
   xml:space="preserve"
   width="256"
   height="256"
   xmlns="http://www.w3.org/2000/svg"
   xmlns:svg="http://www.w3.org/2000/svg"><defs
     id="defs2"><style
       id="style1">
      .uuid-153302a6-b94e-4ad0-9cfb-43725c5c5610 {
        fill: url(#uuid-af07a271-8980-47e6-b92b-41550c7dc68a);
      }

      .uuid-27fce091-ee3a-4889-9199-28416b94f462 {
        fill: url(#uuid-dc53e15d-e646-4f9b-aab3-d9d8fec05b0e);
      }

      .uuid-5da2c4a3-8db1-41d9-92d6-1ab0c264b0da {
        fill: none;
      }

      .uuid-ed4306aa-b6e6-45eb-bfe3-e4f85f33ea76 {
        fill: url(#uuid-afdc0b81-5c65-49b4-9e34-1cf3c2f4f8f7);
      }

      .uuid-03bde706-b35e-416f-8ae5-693e38f68253 {
        fill: url(#uuid-8e0b3ff5-2b0d-4ede-9e3a-d9af7f50b81e);
      }

      .uuid-aed79b63-67fc-4862-91f2-2516d39da3fa {
        fill: url(#uuid-5be9ed93-6987-4def-8687-537049e4e1cf);
      }

      .uuid-7fb198ab-10f1-4f2d-9a38-66668a795b4d {
        fill: url(#uuid-ebe94990-143f-470c-b744-73e231e6133d);
      }
    </style></defs><rect
     class="uuid-5da2c4a3-8db1-41d9-92d6-1ab0c264b0da"
     width="256"
     height="256"
     id="rect2"
     x="0"
     y="0" /><style
     type="text/css"
     id="style1-7">
	.st0{fill:#171516;}
	.st1{fill:#314A52;}
	.st2{fill:#FFFFFF;}
	.st3{fill-rule:evenodd;clip-rule:evenodd;fill:#ACBDC5;}
</style><g
     id="GitHub"
     transform="matrix(3.4278001,0,0,3.4278001,18.310397,18.267549)"><path
       class="st0"
       d="M 64,32 C 64,46.2 54.8,58.2 42,62.4 H 22 C 9.2,58.2 0,46.2 0,32 0,14.3 14.3,0 32,0 49.7,0 64,14.3 64,32 Z"
       id="path1" /><path
       class="st2"
       d="m 44,45 c 3,-1 8,-4 8,-13 0,-3.5 -0.9,-6.7 -2.9,-9.3 C 51.3,17.4 48.9,14 48,14 47.2,14 43.8,14.6 40.7,17.1 38.2,16.4 35.3,16 32,16 28.7,16 25.8,16.4 23.3,17.1 20.2,14.6 16.8,14 16,14 c -0.9,0 -3.3,3.4 -1.1,8.7 -2,2.6 -2.9,5.8 -2.9,9.3 0,9 5,12 8,13 2.4,0.8 5,1.3 6,1.5 -0.6,0.6 -1.6,2.2 -1.9,4.4 -0.8,0.6 -2,1.1 -3.6,1.1 -3,0 -4.5,-2 -6,-4 C 13,46 11,45 10,45 c -1,0 -2,0.5 -1,1.5 1,1 2.3,0.2 5,5 2,3.6 4.5,3.5 6.5,3.5 1.8,0 3.5,-1 3.5,-1 h 15 l 1,-2 c 0,-2.8 -1.3,-4.8 -2,-5.5 1,-0.2 3.6,-0.7 6,-1.5 z"
       id="path3-1"
       style="display:inline" /><path
       class="st3"
       d="m 9,46.5 c -0.6,-0.6 -0.5,-1 -0.1,-1.2 1.8,1.8 4.1,3.2 6.8,4.2 1.2,1.4 2.6,2.5 4.8,2.5 1,0 1.9,-0.3 2.7,-0.6 2.8,0.4 5.8,0.6 8.8,0.6 2.8,0 5.5,-0.1 8,-0.5 0,0.2 0,0.3 0,0.5 v 8 l 2.3,2.3 c -6.7,2.3 -13.9,2.3 -20.6,0 L 24,60 v -4.8 c -0.8,0.3 -2.2,0.8 -3.5,0.8 -2,0 -5,-0.4 -7,-4 -2,-3.7 -3,-4.4 -3.8,-4.9 C 9.5,46.9 9.2,46.7 9,46.5 Z"
       id="path4-4"
       style="fill:#ffffff;fill-opacity:1" /></g></svg>
