<?xml version="1.0" encoding="UTF-8" standalone="no"?>
<svg
   id="uuid-19907d1f-9315-477d-b7ba-91ae3e2acc9a"
   data-name="Capa 1"
   viewBox="0 0 256 256"
   version="1.1"
   sodipodi:docname="os-vyos-logo-1.svg"
   xml:space="preserve"
   inkscape:export-filename="software-zabbix-1.svg"
   inkscape:export-xdpi="96"
   inkscape:export-ydpi="96"
   width="256"
   height="256"
   xmlns:inkscape="http://www.inkscape.org/namespaces/inkscape"
   xmlns:sodipodi="http://sodipodi.sourceforge.net/DTD/sodipodi-0.dtd"
   xmlns:xlink="http://www.w3.org/1999/xlink"
   xmlns="http://www.w3.org/2000/svg"
   xmlns:svg="http://www.w3.org/2000/svg"><sodipodi:namedview
     id="namedview7"
     pagecolor="#ffffff"
     bordercolor="#000000"
     borderopacity="0.25"
     inkscape:showpageshadow="2"
     inkscape:pageopacity="0.0"
     inkscape:pagecheckerboard="0"
     inkscape:deskcolor="#d1d1d1"><inkscape:page
       x="0"
       y="0"
       width="256"
       height="256"
       id="page2"
       margin="0"
       bleed="0" /></sodipodi:namedview><defs
     id="defs2"><style
       id="style1">
      .uuid-153302a6-b94e-4ad0-9cfb-43725c5c5610 {
        fill: url(#uuid-af07a271-8980-47e6-b92b-41550c7dc68a);
      }

      .uuid-27fce091-ee3a-4889-9199-28416b94f462 {
        fill: url(#uuid-dc53e15d-e646-4f9b-aab3-d9d8fec05b0e);
      }

      .uuid-5da2c4a3-8db1-41d9-92d6-1ab0c264b0da {
        fill: none;
      }

      .uuid-ed4306aa-b6e6-45eb-bfe3-e4f85f33ea76 {
        fill: url(#uuid-afdc0b81-5c65-49b4-9e34-1cf3c2f4f8f7);
      }

      .uuid-03bde706-b35e-416f-8ae5-693e38f68253 {
        fill: url(#uuid-8e0b3ff5-2b0d-4ede-9e3a-d9af7f50b81e);
      }

      .uuid-aed79b63-67fc-4862-91f2-2516d39da3fa {
        fill: url(#uuid-5be9ed93-6987-4def-8687-537049e4e1cf);
      }

      .uuid-7fb198ab-10f1-4f2d-9a38-66668a795b4d {
        fill: url(#uuid-ebe94990-143f-470c-b744-73e231e6133d);
      }
    </style></defs><rect
     class="uuid-5da2c4a3-8db1-41d9-92d6-1ab0c264b0da"
     width="256"
     height="256"
     id="rect2"
     x="0"
     y="0" /><style
     type="text/css"
     id="style2">
	.st0{fill:#C59A6E;}
	.st1{fill:#3CB44B;}
	.st2{fill:#67308F;}
	.st3{fill:#D1D1D1;}
	.st4{fill:#EF5B28;}
	.st5{stroke:#000000;stroke-width:16;stroke-miterlimit:10;}
	.st6{fill:url(#Triangle-3_1_);}
	.st7{fill:#333333;}
	.st8{fill:#CF2129;}
	.st9{fill:#CC3832;}
	.st10{fill:#BA443D;}
	.st11{fill:#BAC556;}
	.st12{fill:#F8DF4B;}
	.st13{fill:#F5CF47;}
	.st14{fill:#A9B75D;}
	.st15{fill:#DDBE5B;}
	.st16{fill:#6FBECB;}
	.st17{fill:#79C0BF;}
	.st18{fill:#77C3D2;}
	.st19{fill:#5CB8BB;}
	.st20{fill:#529FB5;}
	.st21{fill:#BA3D36;}
	.st22{fill:#9D3634;}
	.st23{fill:#D33E35;}
	.st24{fill:#869B63;}
	.st25{fill:#BEC54F;}
	.st26{fill:#9EAD59;}
	.st27{fill:none;}
	.st28{fill:#43AE2A;}
	.st29{fill:#009DDD;}
	.st30{fill:#00A297;}
	.st31{fill:#0072CC;}
	.st32{fill:#82BB00;}
	.st33{fill:#10069D;}
	.st34{fill:#333F48;}
	.st35{clip-path:url(#SVGID_2_);}
	.st36{clip-path:url(#SVGID_4_);fill:#414042;}
	.st37{clip-path:url(#SVGID_6_);fill:url(#SVGID_7_);}
</style><g
     id="g10"
     transform="matrix(0.42936803,0,0,0.42936803,18.081784,18.183395)"><g
       fill="#5a9fd4"
       id="g1"
       transform="matrix(1.3384632,0,0,1.3384632,-85.876809,-85.199882)"><path
         id="p"
         d="m 254,64 c -16,0 -31,1 -44,4 -39,7 -46,21 -46,47 v 35 h 92 v 12 H 130 c -27,0 -50,16 -58,46 -8,35 -8,57 0,93 7,28 23,47 49,47 h 32 v -42 c 0,-30 26,-57 57,-57 h 91 c 26,0 46,-21 46,-46 V 115 C 347,91 326,72 301,68 286,65 269,64 254,64 Z m -50,28 c 10,0 17,8 17,18 0,9 -7,17 -17,17 -9,0 -17,-8 -17,-17 0,-10 8,-18 17,-18 z" /></g><use
       xlink:href="#p"
       fill="#ffd43b"
       transform="matrix(-1.3384632,0,0,-1.3384632,599.41635,597.41633)"
       id="use1" /></g></svg>
