<?xml version="1.0" encoding="UTF-8" standalone="no"?>
<svg
   id="uuid-d837f90e-3a4b-44c2-81ee-d7b8ed5bc69b"
   data-name="Capa 1"
   width="1920"
   height="773"
   viewBox="0 0 1920 773"
   version="1.1"
   xml:space="preserve"
   xmlns="http://www.w3.org/2000/svg"
   xmlns:svg="http://www.w3.org/2000/svg"><defs
     id="defs1"><style
       id="style1">
      .uuid-c90f1ad1-f831-4e7c-956b-467930e03b8f {
        fill: none;
      }

      .uuid-04a06d85-28dc-4ddd-a18a-468519060675 {
        fill: #e2111a;
      }
    </style></defs><rect
     class="uuid-c90f1ad1-f831-4e7c-956b-467930e03b8f"
     width="1920"
     height="773"
     id="rect1"
     x="0"
     y="0" /><g
     id="g1"
     transform="matrix(3.9376538,0,0,3.8721362,3.56e-6,280.01625)"><path
       d="M 279.9,11.7 V 0 h 13.4 V 54.8 H 279.9 Z M 220.9,0 h 51.7 V 11.8 H 248.3 V 54.9 H 235 V 11.8 H 220.9 Z M 487.6,0 V 11.8 H 463.3 V 54.9 H 450 V 11.8 H 435.9 V 0 Z M 0,0 H 58 V 11.8 H 13.4 v 11.7 h 38 v 11.8 h -38 V 54.8 H 0 Z m 374.5,0 h 54 v 11.8 h -40.6 v 9.8 h 33.3 v 11.8 h -33.3 v 9.8 h 41.3 V 55 H 374.5 Z M 364.2,15.5 V 54.8 H 350.8 V 15.5 c 0,-2.1 -1.6,-3.7 -3.7,-3.7 h -30 V 54.9 H 303.7 V 0 h 45 c 8.5,0 15.5,7 15.5,15.5 z M 200.3,0 H 154.6 V 54.8 H 168 V 35.3 h 30 c 1.6,0.1 2.9,1.4 2.9,3 v 16.6 h 13.4 V 38.1 c 0,-2.9 -1.6,-5.4 -4,-6.8 2.9,-2.7 4.7,-6.6 4.7,-10.8 V 14.7 C 215.1,6.6 208.5,0 200.3,0 Z m 1.4,20.5 c 0,1.6 -1.3,3 -3,3 H 168 V 11.8 h 30.7 c 1.6,0 3,1.3 3,3 z"
       id="path1" /><path
       d="M 144.2,20.4 V 34.6 H 122 V 20.4 Z M 93.9,54.8 H 116 V 40.6 H 93.9 Z M 144.2,11.9 C 144.2,5.3 138.9,0 132.3,0 h -10.2 v 14.2 h 22.1 z M 93.9,0 V 14.2 H 116 V 0 Z M 65.7,20.4 V 34.6 H 87.8 V 20.4 Z M 122,54.8 h 10.2 c 6.6,0 11.9,-5.3 11.9,-11.9 V 40.6 H 122 Z M 65.7,42.9 c 0,6.6 5.3,11.9 11.9,11.9 H 87.8 V 40.6 H 65.7 Z m 0,-31 v 2.3 H 87.8 V 0 H 77.6 C 71,0 65.7,5.3 65.7,11.9 Z"
       fill="#da291c"
       id="path2" /></g></svg>
