<?xml version="1.0" encoding="UTF-8" standalone="no"?>
<svg
   data-name="Capa 1"
   viewBox="0 0 256 256"
   version="1.1"
   id="svg8"
   xml:space="preserve"
   width="256"
   height="256"
   xmlns="http://www.w3.org/2000/svg"
   xmlns:svg="http://www.w3.org/2000/svg"><defs
     id="defs2" /><path
     style="fill:none"
     d="M 0,0 H 256 V 256 H 0 Z"
     id="path2" /><g
     style="fill:none"
     id="g9"
     transform="matrix(16.027535,0,0,16.027535,-0.20997815,-0.17000784)"><g
       fill="#0080ff"
       id="g2"><path
         d="m 8,12.208 v 2.652 c 4.495,0 7.988,-4.34 6.518,-9.053 A 6.642,6.642 0 0 0 10.185,1.474 C 5.48,0.004 1.14,3.504 1.14,7.992 h 2.652 c 0,-2.815 2.792,-4.993 5.756,-3.92 A 3.975,3.975 0 0 1 11.92,6.444 C 13,9.405 10.82,12.194 8.008,12.2 V 9.563 H 5.363 v 2.645 z"
         id="path1-1" /><path
         d="M 5.363,14.245 H 3.325 V 12.208 H 5.363 Z M 1.622,12.208 H 3.325 V 10.504 H 1.622 Z"
         id="path2-7" /></g></g></svg>
