<?xml version="1.0" encoding="UTF-8" standalone="no"?>
<svg
   id="uuid-d837f90e-3a4b-44c2-81ee-d7b8ed5bc69b"
   data-name="Capa 1"
   width="1920"
   height="773"
   viewBox="0 0 1920 773"
   version="1.1"
   xml:space="preserve"
   xmlns="http://www.w3.org/2000/svg"
   xmlns:svg="http://www.w3.org/2000/svg"><defs
     id="defs1"><style
       id="style1">
      .uuid-c90f1ad1-f831-4e7c-956b-467930e03b8f {
        fill: none;
      }

      .uuid-04a06d85-28dc-4ddd-a18a-468519060675 {
        fill: #e2111a;
      }
    </style><style
       id="style1-4">
      .cls-1 {
        font-size: 95px;
        fill: #292d38;
      }

      .cls-1, .cls-3 {
        font-family: &quot;Foobar Pro&quot;;
      }

      .cls-2 {
        fill: #0188cc;
      }

      .cls-3 {
        font-size: 37px;
      }
    </style><style
       id="style1-48">
      .cls-1 {
        fill: #292d38;
      }

      .cls-1, .cls-2 {
        fill-rule: evenodd;
      }
    </style></defs><rect
     class="uuid-c90f1ad1-f831-4e7c-956b-467930e03b8f"
     width="1920"
     height="773"
     id="rect1"
     x="0"
     y="0" /><g
     id="g1"
     transform="matrix(2.8756439,0,0,2.8756439,-60.964297,177.71494)"><path
       id="HybridNetworks"
       class="cls-1"
       d="M 309.205,96.927 V 42.963 l 34.485,53.96 h 10.261 V 28.807 h -9.121 v 54.056 l -34.2,-54.056 h -10.545 v 68.116 h 9.12 z m 79.514,-5.985 c -11.306,0 -14.821,-4.655 -14.821,-18.335 0,-15.39 3.99,-19.285 14.441,-19.285 10.451,0 12.635,5.51 13.3,14.345 h -21.09 v 7.03 h 29.64 c 0,-19.38 -5.51,-28.6 -21.755,-28.6 -16.911,0 -23.276,9.88 -23.276,26.885 0,16.815 6.27,25.175 22.9,25.175 17.1,0 21,-8.835 21.755,-16.53 h -8.455 c -0.958,7.316 -5.039,9.311 -12.639,9.311 z m 41.7,-36.481 h 8.081 v -7.03 h -8.076 v -13.3 h -8.36 v 13.3 h -6.555 v 7.03 h 6.555 v 32.202 c 0,8.075 1.9,11.02 9.785,11.02 2.2336,1.23e-4 4.46164,-0.222647 6.651,-0.665 v -7.03 c -1.06814,0.190866 -2.14673,0.317758 -3.23,0.38 -3.611,0 -4.846,-0.38 -4.846,-3.61 v -32.3 z m 34.486,42.466 9.69,-38.19 10.07,38.19 h 8.645 c 6.35226,-16.043821 11.31059,-32.605047 14.82,-49.5 h -8.265 c -2.31351,13.18663 -5.84359,26.130597 -10.545,38.666 l -9.785,-38.665 h -9.12 l -9.88,39.046 c -4.52274,-12.679373 -7.86232,-25.750112 -9.976,-39.045 h -9.025 c 3.46959,16.883656 8.36377,33.442907 14.63,49.5 h 8.741 z m 47.593,-24.7 c 0,15.485 5.89,25.84 22.99,25.84 16.815,0 23.18,-9.975 23.18,-25.84 0,-15.3 -5.985,-26.125 -23.18,-26.125 C 518.772,46.1 512.5,56.358 512.5,72.223 Z m 8.74,-0.1 c 0,-12.35 3.515,-18.81 14.345,-18.81 10.83,0 14.345,6.555 14.345,18.715 0,12.35 -3.61,18.81 -14.345,18.81 -10.921,0.001 -14.341,-6.554 -14.341,-18.714 z m 55.385,-24.7 h -7.79 v 49.5 h 8.36 V 69.088 c 0,-9.6 3.04,-14.155 11.21,-14.155 1.54025,-0.04535 3.0783,0.146908 4.56,0.57 v -8.74 c -1.20278,-0.350063 -2.45281,-0.510323 -3.705,-0.475 -6.08,0 -9.595,2.185 -12.635,7.22 v -6.08 z m 31.444,-18.62 h -8.36 v 68.116 h 8.36 z m 2.85,42.466 19.383,25.65 h 10.735 L 621.559,71.273 639.61,47.428 h -10.733 z m 71.536,-10.165 c -0.57,-6.935 -2.85,-15.01 -19,-15.01 -11.4,0 -19.1,3.99 -19.1,14.44 0,7.315 3.61,10.925 13.775,13.585 l 8.74,2.28 c 6.555,1.71 8.74,3.9 8.74,7.6 0,5.985 -5.035,6.935 -11.875,6.935 -9.595,0 -11.59,-2.09 -12.255,-9.5 h -8.36 c 0.95,9.405 3.8,16.72 20.52,16.72 13.775,0 20.71,-4.94 20.71,-15.2 0,-8.835 -5.225,-11.78 -14.82,-14.155 l -8.075,-2 c -6.08,-1.52 -8.36,-2.945 -8.36,-7.125 0,-5.605 4.465,-6.365 10.26,-6.365 8.645,0 10.355,1.8 10.735,7.79 h 8.36 z"
       style="fill:#0188cc;fill-opacity:1" /><path
       id="path1"
       class="cls-1"
       d="M 70.379,64.908 V 96.923 H 79.5 V 28.807 h -9.12 v 28.12 H 41.5 v 7.98 H 70.38 Z M 34.849,96.923 V 28.807 h -9.12 v 68.116 z m 98.514,-49.5 h -8.931 L 110.847,87.708 C 105.23519,74.69029 100.75367,61.213939 97.452,47.428 h -9.405 c 4.826187,17.249597 11.020838,34.086676 18.525,50.351 -3.61,9.595 -4.75,11.59 -9.31,11.59 -1.569425,0.006 -3.13336,-0.18563 -4.655,-0.57 v 7.79 c 1.655571,0.34426 3.344257,0.50357 5.035,0.475 9.4,0 11.59,-4.18 17.575,-20.425 z m 27.644,43.511 c -8.835,0 -12.445,-3.9 -12.445,-18.43 v -43.7 H 140.2 v 68.119 h 8.36 V 91.7 c 2.375,3.42 5.415,6.46 13.585,6.46 16.435,0 21.471,-12.255 21.471,-26.98 0,-16.245 -6.176,-25.08 -20.711,-25.08 -2.62111,-0.07034 -5.23236,0.348478 -7.7,1.235 v 7.22 c 2.07501,-0.864148 4.3078,-1.284818 6.555,-1.235 10.83,0 13.11,7.03 13.11,18.43 0.007,13.488 -3.128,19.188 -13.863,19.188 z m 40.85,-43.511 h -7.79 v 49.5 h 8.36 V 69.088 c 0,-9.6 3.04,-14.155 11.21,-14.155 1.54025,-0.04535 3.0783,0.146908 4.56,0.57 v -8.74 c -1.20278,-0.350063 -2.45281,-0.510323 -3.705,-0.475 -6.08,0 -9.595,2.185 -12.635,7.22 v -6.08 z m 31.729,49.5 v -49.5 h -8.36 v 49.5 z m -9.5,-63.366 c 0,3.99 1.33,5.32 5.32,5.32 3.99,0 5.415,-1.33 5.415,-5.32 0,-3.99 -1.425,-5.415 -5.415,-5.415 -3.99,0 -5.32,1.425 -5.32,5.415 z m 27.929,38.1 c 0,-11.4 2,-18.335 13.11,-18.335 2.31872,-0.05731 4.6216,0.396777 6.745,1.33 v -7.03 c -2.68376,-1.082921 -5.56211,-1.600378 -8.455,-1.52 -14.06,0 -20.14,8.93 -20.14,25.555 0,14.535 4.655,26.505 22.23,26.505 4.37,0 9.405,-0.76 13.015,-6.84 v 5.605 h 8.36 v -68.12 h -8.36 V 47.897708 72.6 c 0,13.965 -3.515,18.335 -13.015,18.335 -10.545,0.003 -13.49,-5.507 -13.49,-19.282 z"
       style="fill:#292d38;fill-opacity:1" /></g></svg>
