<svg
   id="uuid-19907d1f-9315-477d-b7ba-91ae3e2acc9a"
   data-name="C1"
   viewBox="0 0 256 256"
   version="1.1"
   sodipodi:docname="os-altlinux-1.svg"
   xml:space="preserve"
   width="256"
   height="256"
   xmlns:inkscape="http://www.inkscape.org/namespaces/inkscape"
   xmlns:sodipodi="http://sodipodi.sourceforge.net/DTD/sodipodi-0.dtd"
   xmlns="http://www.w3.org/2000/svg"
   xmlns:svg="http://www.w3.org/2000/svg"><sodipodi:namedview
     id="namedview7"
     pagecolor="#ffffff"
     bordercolor="#000000"
     borderopacity="0.25"
     inkscape:showpageshadow="2"
     inkscape:pageopacity="0.0"
     inkscape:pagecheckerboard="0"
     inkscape:deskcolor="#d1d1d1"><inkscape:page
       x="0"
       y="0"
       width="256"
       height="256"
       id="page2"
       margin="0"
       bleed="0" /></sodipodi:namedview><defs
     id="defs2"><style
       id="style1">
      .uuid-153302a6-b94e-4ad0-9cfb-43725c5c5610 {
        fill: url(#uuid-af07a271-8980-47e6-b92b-41550c7dc68a);
      }

      .uuid-27fce091-ee3a-4889-9199-28416b94f462 {
        fill: url(#uuid-dc53e15d-e646-4f9b-aab3-d9d8fec05b0e);
      }

      .uuid-5da2c4a3-8db1-41d9-92d6-1ab0c264b0da {
        fill: none;
      }

      .uuid-ed4306aa-b6e6-45eb-bfe3-e4f85f33ea76 {
        fill: url(#uuid-afdc0b81-5c65-49b4-9e34-1cf3c2f4f8f7);
      }

      .uuid-03bde706-b35e-416f-8ae5-693e38f68253 {
        fill: url(#uuid-8e0b3ff5-2b0d-4ede-9e3a-d9af7f50b81e);
      }

      .uuid-aed79b63-67fc-4862-91f2-2516d39da3fa {
        fill: url(#uuid-5be9ed93-6987-4def-8687-537049e4e1cf);
      }

      .uuid-7fb198ab-10f1-4f2d-9a38-66668a795b4d {
        fill: url(#uuid-ebe94990-143f-470c-b744-73e231e6133d);
      }
    </style></defs><rect
     class="uuid-5da2c4a3-8db1-41d9-92d6-1ab0c264b0da"
     width="256"
     height="256"
     id="rect2"
     x="0"
     y="0" /><g
     style="fill:none"
     id="g7"
     transform="matrix(0.12127471,0,0,0.12127471,6.72529,28.286116)"><path
       d="M 374.221,486.26 V 1625.43 H 1590.36 V 486.26 Z"
       fill="#fdd005"
       id="path1" /><path
       d="m 1410.94,909.119 c -16.5,3.29 -44.55,16.499 -62.73,24.759 -3.29,1.657 -3.29,6.605 0,6.605 4.97,1.657 8.28,3.292 11.55,6.604 8.28,9.897 18.18,18.157 18.18,31.366 0,14.841 -8.26,19.791 -6.61,32.997 4.95,26.42 26.4,52.81 26.4,80.89 -1.64,21.45 -21.45,21.45 -33,36.31 -3.31,4.95 -4.97,9.9 -4.97,16.5 0,6.61 -1.63,18.16 4.97,18.16 8.24,1.65 9.9,-14.85 18.15,-14.85 11.56,1.64 9.92,18.16 19.82,18.16 h 434.08 c -1.66,-4.97 -4.95,-11.55 -8.24,-13.21 -21.47,-19.81 -75.94,-46.23 -85.83,-77.57 -16.52,-47.89 4.95,-108.939 11.55,-161.774 23.1,-153.489 14.87,-237.689 -13.21,-364.782 -14.86,-72.626 -26.41,-136.99 -47.86,-207.959 -3.31,-13.209 -21.45,-31.366 -28.07,-42.918 -4.95,-8.26 -9.9,-23.126 -11.55,-33.021 -11.56,-54.469 -6.59,-107.281 -46.21,-153.511 -14.87,-16.4992 -42.92,-18.1567 -61.07,-29.7085 -34.66,-18.1565 -69.31,-36.313 -103.99,-57.7592 -4.95,-3.315 -19.81,-8.262 -28.05,-3.3148 39.6,28.0761 66.02,61.0737 77.57,110.5955 4.95,23.104 11.55,41.261 -11.55,54.468 -6.61,3.315 -49.52,31.366 -69.33,79.23 -4.95,9.895 -33,74.281 -66.02,135.356 -39.6,-21.47 -79.23,-23.104 -107.28,-23.104 -29.71,0 -82.54,3.29 -107.3,21.446 -52.79,39.626 -75.91,90.783 -92.41,148.565 -13.21,44.552 -21.45,90.783 -24.76,136.99 -3.32,62.729 3.31,132.04 9.89,194.772 4.97,41.26 9.9,80.886 13.21,122.149 8.24,44.55 6.6,79.23 4.95,87.46 -14.84,46.23 -37.95,62.74 -82.52,71 -6.605,0 -9.917,3.29 -8.26,6.6 41.282,0 82.52,0 123.8,0 h 151.85 c 13.18,0 16.5,-6.6 29.71,-18.16 18.15,-18.15 -6.61,-49.52 0,-90.78 14.86,-102.353 59.41,-194.77 80.86,-293.813 3.31,-11.552 4.97,-26.416 6.62,-42.915 8.24,39.625 19.79,77.573 31.35,115.541 11.55,39.603 23.1,61.074 41.28,70.969 -1.66,0 -3.32,0 -4.97,1.657 z"
       fill="#231f20"
       id="path2-1" /><path
       d="m 1496.77,1161.65 c 8.26,-28.05 13.21,-47.86 3.31,-77.57 -6.63,-23.11 -26.42,-41.26 -34.65,-64.37 -9.92,-31.363 -1.66,-66.018 -18.18,-94.092 -3.29,-6.605 -11.55,-13.209 -19.79,-18.156 -19.81,-11.552 -26.42,-18.157 -34.66,-37.948 -3.31,-6.605 -6.62,-13.207 -8.28,-19.812 -18.13,-52.812 -31.34,-107.281 -41.24,-160.116 -4.97,28.074 -8.26,54.469 -13.21,82.543 -8.26,31.343 -16.52,61.072 -26.41,90.78 -21.45,62.709 -42.92,127.096 -52.83,193.121 -1.64,13.2 -1.64,24.76 0,37.96 1.65,11.56 11.57,36.32 0,49.5 -11.56,13.21 -14.85,16.53 -26.4,18.16 -37.94,0 -82.54,0 -120.48,0 8.26,-3.29 16.49,-9.89 21.46,-18.16 14.85,-31.34 -23.12,-130.38 -31.38,-166.695 -6.58,-31.363 -21.45,-61.071 -26.4,-92.437 -1.65,-21.449 -4.94,-87.468 -1.65,-103.99 0,-4.949 3.29,-6.604 6.6,0 3.31,28.074 -4.95,90.78 9.9,122.146 3.31,8.26 18.17,3.313 23.1,-3.292 13.21,-16.522 19.84,-36.313 26.42,-56.125 9.89,-34.655 18.18,-54.469 23.1,-100.676 4.97,-44.573 -4.92,-59.44 0,-103.99 3.31,-18.157 -1.66,-37.97 8.26,-67.678 11.55,-34.656 21.47,-57.782 46.23,-79.229 19.79,-19.813 51.15,-24.761 79.2,-28.076 75.94,0 66.04,82.543 82.54,125.461 4.95,14.844 19.82,51.155 28.06,66.022 6.6,14.841 18.15,41.259 26.41,66.021 6.61,18.156 4.95,44.573 0,54.467 -4.97,8.262 3.31,13.209 9.9,6.604 8.26,-13.207 8.26,-23.103 13.2,-37.967 4.95,-14.844 8.24,-37.971 13.21,-51.157 8.24,-23.127 24.76,-44.574 29.71,-69.335 4.95,-23.103 1.63,-46.207 -6.6,-69.31 -4.95,-8.262 -23.11,-61.074 -33,-75.939 -23.11,-24.761 -41.28,-28.054 -79.25,-57.762 -6.58,-4.968 -14.84,-9.917 -23.11,-14.864 19.82,-46.207 46.23,-87.49 64.39,-133.698 14.86,-37.97 39.6,-57.762 67.65,-79.231 47.87,28.053 44.6,29.709 51.18,85.836 -1.66,29.708 1.66,59.416 0,87.49 0,11.552 -8.24,37.946 -8.24,49.5 1.66,18.154 0,24.758 3.29,44.572 1.64,14.865 16.5,28.051 13.21,42.918 -9.92,66.019 -37.97,127.093 -39.6,193.114 -1.66,64.387 9.89,151.855 64.34,194.773 6.62,4.947 19.83,-3.292 21.47,-11.552 8.26,-37.971 -3.3,-79.231 1.65,-117.199 3.29,-24.761 9.92,-52.812 18.16,-77.573 6.6,-19.814 23.1,-66.022 36.31,-80.886 3.31,-6.605 11.55,-1.635 8.24,3.312 -1.64,0 -29.69,61.075 -41.24,107.282 -13.21,49.52 -24.76,122.146 6.58,166.719 9.9,16.501 31.37,33 46.21,57.761 8.28,14.865 13.21,80.883 9.92,97.383 -6.61,46.21 -62.71,120.49 -117.2,125.44 -19.79,0 -39.6,0 -59.41,0 z"
       fill="#ffffff"
       id="path3-5" /><path
       d="m 1399.39,955.327 v -3.292 c -1.66,-1.655 -6.59,-4.948 -6.59,-4.948 -6.62,-6.604 -3.31,-19.811 6.59,-21.469 16.52,-4.947 34.65,10e-4 39.62,14.865 4.95,13.209 -3.31,29.708 -14.87,39.605 -9.89,9.917 -26.41,1.655 -32.99,3.313 -3.32,1.657 -3.32,3.291 -1.66,4.947 6.6,3.292 18.16,3.292 28.05,3.292 6.6,0 13.21,-3.292 18.16,-1.635 3.31,1.635 4.97,8.239 4.97,11.555 0,8.24 -4.97,16.5 -4.97,23.1 1.65,4.95 6.6,4.95 9.89,8.26 14.87,23.11 13.21,36.31 16.52,57.76 3.32,26.42 29.71,33.02 28.08,39.63 0,1.63 -1.66,3.29 -4.97,1.63 -8.24,-8.24 -23.11,-8.24 -34.66,-6.6 -6.6,0 -9.89,9.91 -18.15,11.57 -3.3,1.64 -9.92,0 -11.58,-4.97 -4.92,-6.6 3.31,-18.15 -1.63,-24.76 -3.29,-4.95 -16.5,-6.6 -16.5,-16.5 0,-26.42 -18.18,-51.15 -24.76,-75.91 -1.66,-6.61 -1.66,-9.92 0,-16.526 4.95,-11.551 8.24,-26.395 0,-37.947 -3.31,-4.97 14.86,1.634 21.45,-4.97 z"
       fill="#ffffff"
       id="path4-2" /><path
       d="m 1434.04,29.3543 c 28.08,14.8645 62.73,67.6768 80.89,95.7297 8.26,11.552 19.81,1.655 14.84,-8.239 -28.03,-39.6257 -61.05,-72.6262 -95.73,-87.4907 z M 1293.77,463.449 c 21.44,4.97 49.52,26.418 56.1,46.23 6.63,19.814 8.26,31.366 0,89.125 0,3.315 6.63,6.604 8.26,0 1.63,-14.842 0,0 1.63,-6.602 1.66,-9.897 8.29,-8.24 11.58,-3.293 -6.61,-19.814 -1.66,-37.97 23.1,-36.312 13.21,1.657 11.55,11.551 33.02,16.498 6.58,1.658 21.45,-3.289 24.76,-14.841 8.24,-24.761 0,-46.23 -19.81,-62.729 -11.58,-9.92 -26.42,-14.867 -41.26,-4.95 -3.31,3.292 -8.26,13.186 -8.26,18.156 3.29,21.449 -8.26,14.844 -16.5,0 -11.55,-18.156 -49.52,-44.572 -72.62,-41.282 z m 136.98,313.628 c 9.92,-31.366 -1.63,-77.574 -8.26,-112.252 -3.29,-11.552 11.55,-14.842 14.87,-3.29 9.89,46.207 8.23,80.886 -6.61,115.542 z m 54.47,-594.21 c -3.31,1.634 -16.5,11.551 -24.76,16.498 18.15,3.292 42.91,16.499 54.47,37.97 8.26,18.157 14.84,44.551 18.15,62.707 0,-11.551 -1.66,-62.706 3.31,-69.311 8.24,-9.917 24.76,-1.657 36.32,3.29 8.23,3.315 13.21,13.209 21.44,18.156 8.26,3.315 16.53,4.947 24.76,1.657 8.24,-1.657 16.52,-8.262 19.82,-16.499 4.94,-14.866 -9.92,-74.283 -42.92,-61.073 -13.21,4.947 -14.87,24.76 -26.42,34.655 -6.58,4.947 -13.21,6.605 -21.44,4.947 -8.26,0 -18.18,-4.947 -26.42,-11.552 -11.55,-8.236 -23.1,-18.156 -36.31,-21.445 z"
       fill="#f57215"
       id="path5-7" /><path
       d="m 1414.25,933.878 c 4.95,0 11.55,6.605 9.9,8.262 -3.32,3.292 -4.95,-1.657 -11.55,-1.657 -4.95,0 -9.9,1.657 -9.9,-1.655 0,-3.292 4.95,-4.95 11.55,-4.95 z"
       fill="#231f20"
       id="path6" /><path
       d="M 207.188,890.133 102.597,879.388 c 3.94,-18.312 9.637,-32.73 17.08,-43.252 7.434,-10.5 18.145,-19.613 32.137,-27.359 10.041,-5.552 23.842,-9.871 41.415,-12.939 17.574,-3.044 36.58,-4.569 57.019,-4.569 32.821,0 59.181,1.837 79.081,5.51 19.903,3.67 36.482,11.326 49.757,22.947 9.312,8.058 16.666,19.477 22.051,34.229 5.371,14.777 8.069,28.881 8.069,42.289 v 125.936 c 0,13.43 0.851,23.93 2.552,31.54 1.703,7.61 5.419,17.31 11.15,29.13 H 320.433 c -4.12,-7.37 -6.795,-12.99 -8.049,-16.84 -1.254,-3.85 -2.496,-9.94 -3.75,-18.2 -14.371,13.84 -28.644,23.71 -42.816,29.62 -19.398,7.92 -41.93,11.86 -67.596,11.86 -34.118,0 -60.008,-7.88 -77.694,-23.64 C 102.844,1049.89 94,1030.44 94,1007.31 c 0,-21.67 6.371,-39.492 19.119,-53.483 12.75,-13.97 36.277,-24.358 70.574,-31.187 41.114,-8.239 67.777,-14.014 79.989,-17.326 12.2,-3.315 25.129,-7.657 38.785,-13.031 0,-13.253 -2.799,-22.567 -8.374,-27.848 -5.573,-5.33 -15.38,-7.972 -29.416,-7.972 -17.998,0 -31.486,2.866 -40.486,8.552 -7.018,4.456 -12.682,12.828 -17.003,25.118 z m 95.279,57.312 c -15.134,5.373 -30.883,10.098 -47.269,14.195 -22.333,5.91 -36.47,11.731 -42.412,17.439 -6.123,5.89 -9.179,12.605 -9.179,20.106 0,8.575 3.01,15.605 9.043,21.045 6.034,5.44 14.899,8.17 26.606,8.17 12.246,0 23.63,-2.96 34.175,-8.84 10.532,-5.89 18.01,-13.1 22.42,-21.586 4.411,-8.485 6.616,-19.497 6.616,-33.11 z"
       fill="#231f20"
       id="path7" /><path
       d="M 478.157,688.825 H 587.764 V 1082.85 H 478.157 Z"
       fill="#231f20"
       id="path8" /><path
       d="m 789.604,688.825 v 108.893 h 60.176 v 80.237 h -60.176 v 100.812 c 0,12.111 1.162,20.149 3.503,24.063 3.592,6.07 9.885,9.09 18.882,9.09 8.095,0 19.422,-2.33 33.994,-6.94 l 8.095,75.45 c -27.089,5.91 -52.386,8.86 -75.87,8.86 -27.268,0 -47.358,-3.49 -60.276,-10.43 -12.918,-6.98 -22.466,-17.55 -28.655,-31.74 -6.19,-14.2 -9.28,-37.21 -9.28,-69.003 V 877.955 H 639.88 v -80.237 h 40.117 v -52.567 z"
       fill="#231f20"
       id="path9" /><path
       d="m 478.259,1141.05 h 109.607 v 394.03 H 478.259 Z"
       fill="#231f20"
       id="path10" /><path
       d="m 662.188,1141.05 h 109.605 v 74.51 H 662.188 Z m 0,108.9 h 109.605 v 285.13 H 662.188 Z"
       fill="#231f20"
       id="path11" /><path
       d="m 841.104,1249.95 h 102.06 v 46.63 c 15.201,-19.05 30.569,-32.66 46.128,-40.81 15.558,-8.2 34.508,-12.27 56.868,-12.27 30.2,0 53.85,9 70.93,27 17.07,17.98 25.61,45.76 25.61,83.35 v 181.23 h -109.61 v -156.56 c 0,-17.87 -3.31,-30.52 -9.93,-37.92 -6.62,-7.42 -15.93,-11.13 -27.901,-11.13 -13.243,0 -23.976,5.01 -32.204,15 -8.239,10.03 -12.347,27.98 -12.347,53.91 v 136.7 H 841.104 Z"
       fill="#231f20"
       id="path12" /><path
       d="m 1508.95,1535.08 h -102.33 v -46.12 c -15.2,18.96 -30.54,32.46 -46.01,40.49 -15.47,8.04 -34.45,12.07 -56.97,12.07 -30.04,0 -53.61,-9 -70.68,-26.97 -17.08,-17.98 -25.61,-45.7 -25.61,-83.11 v -181.49 h 109.61 v 156.89 c 0,17.91 3.3,30.62 9.93,38.15 6.61,7.52 15.91,11.28 27.9,11.28 13.05,0 23.74,-5.01 32.07,-15.04 8.32,-10.03 12.48,-28.03 12.48,-54 v -137.28 h 109.61 z"
       fill="#231f20"
       id="path13" /><path
       d="m 1551.39,1249.95 h 129.67 l 44.77,79.47 52.65,-79.47 h 120.36 l -97.11,135.84 104.27,149.29 h -127.52 l -52.65,-91.84 -61.97,91.84 h -118.2 l 103.65,-149.29 z"
       fill="#231f20"
       id="path14" /></g></svg>
