<svg
   data-name="C1"
   viewBox="0 0 256 256"
   version="1.1"
   id="svg8"
   xml:space="preserve"
   width="256"
   height="256"
   xmlns="http://www.w3.org/2000/svg"
   xmlns:svg="http://www.w3.org/2000/svg"><defs
     id="defs2" /><path
     style="fill:none"
     d="M 0,0 H 256 V 256 H 0 Z"
     id="path2" /><g
     style="display:inline;fill:none"
     id="g9"
     transform="matrix(7.8321601,0,0,7.8321601,2.6854384,2.6866132)"><path
       d="M 30,16.0004 C 30,8.26828 23.7318,2 15.9998,2 8.27112,2 2.00547,8.26303 2,15.9906 v 10.834 c 0.00416,1.7546 1.42723,3.1751 3.18292,3.1751 H 16.0055 C 23.735,29.9966 30,23.7305 30,16.0004 Z"
       fill="#294172"
       id="path1-1" /><path
       d="m 20.1101,5.31494 c -3.6213,0 -6.5674,2.94602 -6.5674,6.56746 v 3.4857 h -3.4714 c -3.62127,0 -6.56739,2.9463 -6.56739,6.5676 0,3.6212 2.94612,6.5674 6.56739,6.5674 3.6213,0 6.5675,-2.9462 6.5675,-6.5674 v -3.4859 h 3.4713 c 3.6213,0 6.5675,-2.9461 6.5675,-6.5674 0,-3.62144 -2.9462,-6.56746 -6.5675,-6.56746 z M 13.567,21.9357 c 0,1.9274 -1.5682,3.4955 -3.4957,3.4955 -1.92749,0 -3.4956,-1.5681 -3.4956,-3.4955 0,-1.9275 1.56811,-3.4956 3.4956,-3.4956 h 3.4714 v 0.0097 h 0.0243 z m 6.5431,-6.5577 h -3.4713 v -0.0099 h -0.0242 v -3.4857 c 0,-1.92755 1.5681,-3.49566 3.4955,-3.49566 1.9274,0 3.4956,1.56811 3.4956,3.49566 0,1.9275 -1.5682,3.4956 -3.4956,3.4956 z"
       fill="#3c6eb4"
       id="path2-1" /><path
       d="m 21.5619,5.5137 c -0.5097,-0.13322 -0.901,-0.19534 -1.4515,-0.19534 -3.6288,0 -6.5707,2.94208 -6.5707,6.57064 v 3.4827 h -2.7519 c -0.85805,0 -1.55149,0.6743 -1.55094,1.5308 0,0.8511 0.68578,1.5283 1.53474,1.5283 l 2.2784,4e-4 c 0.2705,0 0.4899,0.2188 0.4899,0.4888 v 3.0136 c -0.0034,1.9131 -1.5552,3.4627 -3.4683,3.4627 -0.64804,0 -0.80849,-0.0848 -1.25091,-0.0848 -0.92936,0 -1.55116,0.623 -1.55116,1.4796 2.2e-4,0.7086 0.60747,1.3178 1.35056,1.5123 0.50969,0.1332 0.90103,0.1955 1.45151,0.1955 3.6287,0 6.5707,-2.9421 6.5707,-6.5707 v -3.4827 h 2.7519 c 0.858,0 1.5515,-0.6743 1.5509,-1.5308 0,-0.8512 -0.6858,-1.5283 -1.5347,-1.5283 l -2.2784,-4e-4 c -0.1298,1e-4 -0.2543,-0.0513 -0.3462,-0.143 -0.0919,-0.0917 -0.1436,-0.2161 -0.1437,-0.3459 v -3.0136 c 0.0034,-1.91309 1.5552,-3.46272 3.4683,-3.46272 0.648,0 0.8085,0.08499 1.2509,0.08499 0.9294,0 1.5512,-0.62311 1.5512,-1.47963 C 22.9122,6.31739 22.305,5.70817 21.5619,5.5137 Z"
       fill="#ffffff"
       id="path3-5" /></g></svg>
