<?xml version="1.0" encoding="UTF-8" standalone="no"?>
<svg
   data-name="Capa 1"
   viewBox="0 0 256 256"
   version="1.1"
   id="svg8"
   xml:space="preserve"
   width="256"
   height="256"
   xmlns="http://www.w3.org/2000/svg"
   xmlns:svg="http://www.w3.org/2000/svg"><defs
     id="defs2"><radialGradient
       id="fillGrad0"
       cx="371.63522"
       cy="372.76358"
       fx="371.63522"
       fy="372.76358"
       r="353.952"
       gradientUnits="userSpaceOnUse">
   		<stop
   offset="0.000%"
   style="stop-color:rgb(76,180,255);stop-opacity:1.000"
   id="stop1-1" />
		<stop
   offset="100.000%"
   style="stop-color:rgb(0,104,251);stop-opacity:1.000"
   id="stop2-1" />
	</radialGradient></defs><path
     style="fill:none"
     d="M 0,0 H 256 V 256 H 0 Z"
     id="path2" /><g
     id="g8"
     transform="matrix(0.30445798,0,0,0.30445798,18.395127,18.395127)"
     style="display:inline"><path
       transform="rotate(-24.13,360,359.89)"
       fill="url(#fillGrad0)"
       stroke="#000000"
       fill-opacity="1"
       stroke-opacity="0"
       fill-rule="nonzero"
       stroke-width="0"
       stroke-linejoin="miter"
       stroke-linecap="square"
       d="m 360,-0.11 c 198.82,0 360,161.18 360,360 0,198.82 -161.18,360 -360,360 -198.82,0 -360,-161.18 -360,-360 0,-198.82 161.18,-360 360,-360 z"
       id="path2-5"
       style="fill:url(#fillGrad0)" /><path
       fill="#000000"
       stroke="#000000"
       fill-opacity="0.125"
       stroke-opacity="0"
       fill-rule="nonzero"
       stroke-width="0"
       stroke-linejoin="miter"
       stroke-linecap="square"
       d="m 641.25,584.89 c -180,157.5 -371.25,168.75 -562.5,0 a 358.78,357.16 172 0 0 562.5,0 z"
       id="path3-2" /><path
       fill="#f4f4f4"
       stroke="#000000"
       fill-opacity="0.153"
       stroke-opacity="0"
       fill-rule="nonzero"
       stroke-width="0"
       stroke-linejoin="miter"
       stroke-linecap="square"
       d="m 641.25,135.11 c -180,-157.5 -371.25,-168.75 -562.5,0 a 358.78,357.16 -172 0 1 562.5,0 z"
       id="path4-7" /><path
       fill="#050005"
       stroke="#000000"
       fill-opacity="0.522"
       stroke-opacity="0"
       fill-rule="nonzero"
       stroke-width="0"
       stroke-linejoin="miter"
       stroke-linecap="square"
       d="M 374.49,192.85 Q 280.63,148.18 119.86,152.33 l -71.04,0.74 a 6.72,13.92 -89.93 0 0 0.15,10.63 l 83.59,6.03 q 128.34,11.22 192.08,34.62 -204.78,7.29 -316.18,35.42 c -3.46,0.85 -9.11,15.27 15.53,10.88 q 176.05,-23.24 294.1,-19.13 -154.77,32.5 -252.53,98.49 c -9.51,8.83 -2.09,19.32 14.39,8.83 q 158.22,-80.45 282.01,-83.77 l 13.44,29.75 c -82.39,49.18 -55.41,182.84 59.4,182.84 139.14,-3.14 180.95,98.94 195.16,174.9 2.82,12.4 20.38,8.19 13.33,-14.42 q -7.3,-81.91 -73.65,-142.85 70.02,25.57 90.32,87.23 c 6.77,7.35 14,1.47 12.61,-3.93 -12.61,-51.48 -39.79,-90.04 -110.17,-112.7 -30.35,-13.02 -77.25,-18.25 -138.72,-22.21 -90.59,-2.89 -88.06,-145.13 20.83,-129.9 15.53,-2.05 74.88,24.91 95.69,36.01 3.25,21.41 4.03,17.58 33.04,30.62 q 16.79,10.96 24.62,22.29 10.09,-13.5 27.06,-17.81 c -18.96,-3.4 -43.18,-21.54 -29.48,-23.06 -5.84,-2 -11.11,-17.19 -17.98,-29.14 -2.16,-6.39 -16.82,-4.02 -28.65,-6.42 -35.88,-20.55 -86.35,-46.94 -126.63,-47.44 -65.01,-7.49 -41.65,-62.98 -47.69,-75.98 z"
       id="path5-6" /><path
       fill="#050005"
       stroke="#000000"
       fill-opacity="0.522"
       stroke-opacity="0"
       fill-rule="nonzero"
       stroke-width="0"
       stroke-linejoin="miter"
       stroke-linecap="square"
       d="m 546.29,310.57 25.83,3.83 c 0.66,-9.91 -60.58,-58.08 -114.32,-74.42 -15,-7.63 -24.57,5.71 -5.92,12.23 41.55,17.47 82.33,43.43 94.41,58.36 z"
       id="path6-1" /><path
       fill="#ffffff"
       stroke="#000000"
       fill-opacity="1"
       stroke-opacity="0"
       fill-rule="nonzero"
       stroke-width="0"
       stroke-linejoin="miter"
       stroke-linecap="square"
       d="M 374.6,177.54 Q 280.74,132.87 119.97,137.02 l -71.05,0.74 a 6.72,13.92 -89.93 0 0 0.16,10.63 l 83.59,6.03 q 128.34,11.22 192.07,34.62 -204.77,7.29 -316.18,35.42 c -3.45,0.85 -9.11,15.27 15.53,10.88 Q 200.15,212.1 318.19,216.21 163.43,248.71 65.67,314.7 c -9.51,8.83 -2.1,19.32 14.39,8.83 q 158.22,-80.45 282,-83.77 l 13.45,29.75 c -82.39,49.18 -55.42,182.84 59.39,182.84 139.15,-3.14 180.95,98.94 195.17,174.9 2.81,12.4 20.37,8.19 13.33,-14.42 q -7.3,-81.91 -73.65,-142.86 70.02,25.58 90.32,87.24 c 6.77,7.35 14,1.47 12.61,-3.93 -12.61,-51.48 -39.8,-90.04 -110.17,-112.7 -30.36,-13.02 -77.25,-18.25 -138.72,-22.21 -90.59,-2.89 -88.06,-145.13 20.83,-129.9 15.53,-2.05 74.88,24.91 95.69,36.01 3.25,21.41 4.02,17.58 33.04,30.62 q 16.79,10.96 24.62,22.29 10.09,-13.5 27.06,-17.81 c -18.96,-3.4 -43.18,-21.54 -29.49,-23.06 -5.84,-2 -11.11,-17.19 -17.98,-29.14 -2.15,-6.39 -16.81,-4.02 -28.65,-6.42 -35.87,-20.55 -86.34,-46.94 -126.62,-47.44 -65.01,-7.49 -41.66,-62.98 -47.69,-75.98 z"
       id="path7-4" /><path
       fill="#ffffff"
       stroke="#000000"
       fill-opacity="1"
       stroke-opacity="0"
       fill-rule="nonzero"
       stroke-width="0"
       stroke-linejoin="miter"
       stroke-linecap="square"
       d="m 546.39,295.26 25.84,3.83 c 0.65,-9.91 -60.58,-58.08 -114.33,-74.42 -14.99,-7.63 -24.56,5.71 -5.92,12.23 41.55,17.47 82.33,43.43 94.41,58.36 z"
       id="path8-2" /></g></svg>
