<?xml version="1.0" encoding="UTF-8" standalone="no"?>
<svg
   id="uuid-19907d1f-9315-477d-b7ba-91ae3e2acc9a"
   data-name="Capa 1"
   viewBox="0 0 256 256"
   version="1.1"
   sodipodi:docname="os-kubuntu-1.svg"
   xml:space="preserve"
   width="256"
   height="256"
   xmlns:inkscape="http://www.inkscape.org/namespaces/inkscape"
   xmlns:sodipodi="http://sodipodi.sourceforge.net/DTD/sodipodi-0.dtd"
   xmlns="http://www.w3.org/2000/svg"
   xmlns:svg="http://www.w3.org/2000/svg"><sodipodi:namedview
     id="namedview7"
     pagecolor="#ffffff"
     bordercolor="#000000"
     borderopacity="0.25"
     inkscape:showpageshadow="2"
     inkscape:pageopacity="0.0"
     inkscape:pagecheckerboard="0"
     inkscape:deskcolor="#d1d1d1"><inkscape:page
       x="0"
       y="0"
       width="256"
       height="256"
       id="page2"
       margin="0"
       bleed="0" /></sodipodi:namedview><defs
     id="defs2"><style
       id="style1">
      .uuid-153302a6-b94e-4ad0-9cfb-43725c5c5610 {
        fill: url(#uuid-af07a271-8980-47e6-b92b-41550c7dc68a);
      }

      .uuid-27fce091-ee3a-4889-9199-28416b94f462 {
        fill: url(#uuid-dc53e15d-e646-4f9b-aab3-d9d8fec05b0e);
      }

      .uuid-5da2c4a3-8db1-41d9-92d6-1ab0c264b0da {
        fill: none;
      }

      .uuid-ed4306aa-b6e6-45eb-bfe3-e4f85f33ea76 {
        fill: url(#uuid-afdc0b81-5c65-49b4-9e34-1cf3c2f4f8f7);
      }

      .uuid-03bde706-b35e-416f-8ae5-693e38f68253 {
        fill: url(#uuid-8e0b3ff5-2b0d-4ede-9e3a-d9af7f50b81e);
      }

      .uuid-aed79b63-67fc-4862-91f2-2516d39da3fa {
        fill: url(#uuid-5be9ed93-6987-4def-8687-537049e4e1cf);
      }

      .uuid-7fb198ab-10f1-4f2d-9a38-66668a795b4d {
        fill: url(#uuid-ebe94990-143f-470c-b744-73e231e6133d);
      }
    </style></defs><rect
     class="uuid-5da2c4a3-8db1-41d9-92d6-1ab0c264b0da"
     width="256"
     height="256"
     id="rect2"
     x="0"
     y="0" /><g
     transform="matrix(2.4646557,0,0,2.4646751,-1911.7881,-7.982929)"
     id="g3647"><path
       style="fill:#0079c1"
       d="m 872.23977,55.171341 c 0,24.64394 -19.97925,44.625008 -44.62479,44.625008 -24.64456,0 -44.62309,-19.981068 -44.62309,-44.625008 0,-24.644245 19.97853,-44.622169 44.62309,-44.622169 24.64554,0 44.62479,19.977924 44.62479,44.622169 z"
       id="path2819-8-3-8" /><g
       id="g4835-5-6-3"
       transform="matrix(0.415288,0,0,0.415288,609.13611,80.906538)"
       style="fill:#ffffff;fill-opacity:1"><path
         id="path79-9-8-1"
         style="fill:#ffffff;fill-opacity:1"
         d="m 490.89173,-23.585335 3.65182,-79.224895 -24.28352,-22.12009 c -0.57715,-0.37695 -1.33691,-0.29883 -1.82178,0.18945 l -11.21875,11.2168 c -0.47168,0.47314 -0.56055,1.20801 -0.21289,1.78076 l 13.13428,21.631353 c -2.32959,3.9165 -4.19531,8.13965 -5.52979,12.594237 l -24.11377,5.01563 c -0.6709,0.13916 -1.1543,0.7334 -1.1543,1.42188 v 15.862785 c 0,0.6709 0.45801,1.25195 1.10449,1.4082 l 23.4043,5.7207 c 1.24805,5.15918 3.18262,10.05078 5.73877,14.5459 l -13.54639,20.6582 c -0.37793,0.57715 -0.29883,1.33789 0.18945,1.82422 l 11.21533,11.21680039 c 0.47168,0.4707 1.20801,0.56152 1.7832,0.21582 z"
         sodipodi:nodetypes="ccccccccccccccccccc" /></g><g
       id="g4835-5-6-3-7"
       transform="matrix(-0.21579109,0.35482154,-0.35482154,-0.21579109,919.22927,-144.75119)"
       style="fill:#ffffff;fill-opacity:1"><path
         id="path79-9-8-1-7"
         style="fill:#ffffff;fill-opacity:1"
         d="m 492.48953,-21.721918 0.2923,-79.602262 -22.5218,-23.60614 c -0.57715,-0.37695 -1.33691,-0.29883 -1.82178,0.18945 l -11.21875,11.2168 c -0.47168,0.47314 -0.56055,1.20801 -0.21289,1.78076 l 13.13428,21.631353 c -2.32959,3.9165 -4.19531,8.13965 -5.52979,12.594237 l -24.11377,5.01563 c -0.6709,0.13916 -1.1543,0.7334 -1.1543,1.42188 v 15.862785 c 0,0.6709 0.45801,1.25195 1.10449,1.4082 l 23.4043,5.7207 c 1.24805,5.15918 3.18262,10.05078 5.73877,14.5459 l -13.54639,20.6582 c -0.37793,0.57715 -0.29883,1.33789 0.18945,1.82422 l 11.21533,11.21680039 c 0.47168,0.4707 1.20801,0.56152 1.7832,0.21582 z"
         sodipodi:nodetypes="ccccccccccccccccccc" /></g><g
       id="g4835-5-6-3-1"
       transform="matrix(-0.20731956,-0.35983709,0.35983709,-0.20731956,958.85963,231.66525)"
       style="fill:#ffffff;fill-opacity:1"><path
         id="path79-9-8-1-5"
         style="fill:#ffffff;fill-opacity:1"
         d="m 491.63809,-24.019439 1.65581,-78.077921 -23.03387,-22.83296 c -0.57715,-0.37695 -1.33691,-0.29883 -1.82178,0.18945 l -11.21875,11.2168 c -0.47168,0.47314 -0.56055,1.20801 -0.21289,1.78076 l 13.13428,21.631353 c -2.32959,3.9165 -4.19531,8.13965 -5.52979,12.594237 l -24.11377,5.01563 c -0.6709,0.13916 -1.1543,0.7334 -1.1543,1.42188 v 15.862785 c 0,0.6709 0.45801,1.25195 1.10449,1.4082 l 23.4043,5.7207 c 1.24805,5.15918 3.18262,10.05078 5.73877,14.5459 l -13.54639,20.6582 c -0.37793,0.57715 -0.29883,1.33789 0.18945,1.82422 l 11.21533,11.21680039 c 0.47168,0.4707 1.20801,0.56152 1.7832,0.21582 z"
         sodipodi:nodetypes="ccccccccccccccccccc" /></g><path
       style="fill:#0079c1;fill-opacity:1"
       d="m 849.15577,55.172072 c 0,11.895612 -9.64397,21.540458 -21.54035,21.540458 -11.89591,0 -21.53953,-9.644846 -21.53953,-21.540458 0,-11.895759 9.64362,-21.539088 21.53953,-21.539088 11.89638,0 21.54035,9.643329 21.54035,21.539088 z"
       id="path2819-8-3-8-5" /></g></svg>
