<svg id="uuid-19907d1f-9315-477d-b7ba-91ae3e2acc9a" data-name="Capa 1" version="1.1" xml:space="preserve" width="256" height="256" xmlns="http://www.w3.org/2000/svg">
    <defs id="defs2">
        <style id="style1">
            .uuid-153302a6-b94e-4ad0-9cfb-43725c5c5610{fill:url(#uuid-af07a271-8980-47e6-b92b-41550c7dc68a)}.uuid-27fce091-ee3a-4889-9199-28416b94f462{fill:url(#uuid-dc53e15d-e646-4f9b-aab3-d9d8fec05b0e)}.uuid-ed4306aa-b6e6-45eb-bfe3-e4f85f33ea76{fill:url(#uuid-afdc0b81-5c65-49b4-9e34-1cf3c2f4f8f7)}.uuid-03bde706-b35e-416f-8ae5-693e38f68253{fill:url(#uuid-8e0b3ff5-2b0d-4ede-9e3a-d9af7f50b81e)}.uuid-aed79b63-67fc-4862-91f2-2516d39da3fa{fill:url(#uuid-5be9ed93-6987-4def-8687-537049e4e1cf)}.uuid-7fb198ab-10f1-4f2d-9a38-66668a795b4d{fill:url(#uuid-ebe94990-143f-470c-b744-73e231e6133d)}
        </style>
    </defs>
    <path id="rect2" style="fill:none" d="M0 0h256v256H0z"/>
    <g id="layer1" transform="translate(17.97 17.97) scale(.73353)">
        <path style="fill:#0068c8;fill-opacity:1;stroke:none;stroke-opacity:1" d="M17.063 219.338c4.76-7.455 9.54-14.986 14.197-22.11 7.126-10.9 13.783-20.867 18.9-28.226 2.206-3.172 4.03-5.978 5.514-8.455 1.484-2.477 2.629-4.625 3.474-6.48.846-1.856 1.393-3.418 1.682-4.727.289-1.309.32-2.363.133-3.2-.186-.836-.59-1.455-1.168-1.894-.579-.438-1.333-.696-2.223-.81-.89-.115-1.915-.088-3.033.046-1.118.135-2.33.376-3.594.686-5.386 1.322-10.904 2.88-16.441 4.59a425.154 425.154 0 0 0-16.549 5.508c-6.235 2.21-11.714 4.479-17.53 6.757a150 150 0 0 0 16.637 58.315Z" id="path1502"/>
        <path style="fill:#0068c8;fill-opacity:1;stroke:none;stroke-opacity:1" d="M35.139 246.246c12.773-21.348 26.802-44.673 33.002-55.139 10.169-17.166 15.093-25.246 17.17-29.035 1.038-1.894 1.364-2.717 1.279-3.064-.085-.347-.581-.22-1.19-.217-.861.003-1.945.33-3.254 1.006-1.308.675-2.84 1.696-4.597 3.082-1.758 1.386-3.74 3.138-5.95 5.273-2.209 2.136-4.644 4.658-7.308 7.582-2.432 2.67-5.462 6.25-8.908 10.465-3.446 4.216-7.308 9.07-11.408 14.29-6.836 8.7-14.364 18.474-21.69 27.952a150 150 0 0 0 12.854 17.805z" id="path1500"/>
        <path style="fill:#0068c8;fill-opacity:1;stroke:none;stroke-opacity:1" d="M235.514 273.025c-2.1-6.355-4.148-12.637-6.496-19.347-3.467-9.908-7.183-20.063-11.086-30.045-3.903-9.982-7.993-19.79-12.207-29.01a365.64 365.64 0 0 0-6.407-13.334 254.712 254.712 0 0 0-6.547-12.135c-2.2-3.81-4.415-7.367-6.638-10.62-2.224-3.254-4.455-6.203-6.686-8.796-2.298-2.67-4.567-5.224-6.828-7.576-2.26-2.352-4.514-4.503-6.775-6.371-2.262-1.868-4.532-3.454-6.832-4.674a26.324 26.324 0 0 0-3.475-1.545 21 21 0 0 0-3.531-.933 18.51 18.51 0 0 0-3.604-.264 18.566 18.566 0 0 0-3.69.473c-1.245.286-2.508.705-3.79 1.267a27.402 27.402 0 0 0-3.906 2.125 37.773 37.773 0 0 0-4.036 3.045 53.88 53.88 0 0 0-4.177 4.026 77.603 77.603 0 0 0-4.336 5.068 111.277 111.277 0 0 0-4.51 6.176c-7.298 10.706-32.847 46.727-58.58 82.513-5.971 8.304-11.164 15.388-16.93 23.348A150 150 0 0 0 150 300a150 150 0 0 0 85.514-26.975Z" id="path1498"/>
        <path style="fill:#fff;fill-opacity:1;stroke:none;stroke-opacity:1" d="M244.357 266.52c-.462-2.912-.873-5.712-1.351-8.647-1.786-10.961-3.69-22.058-5.754-33.105-2.064-11.048-4.288-22.047-6.719-32.813-2.43-10.766-5.067-21.298-7.953-31.414a417.4 417.4 0 0 0-4.521-14.836 329.324 329.324 0 0 0-4.928-14.074 256.245 256.245 0 0 0-5.367-13.172 196.495 196.495 0 0 0-5.842-12.13 148.661 148.661 0 0 0-6.35-10.952c-2.204-3.44-4.497-6.66-6.886-9.637-2.39-2.977-4.876-5.712-7.461-8.181-2.586-2.47-5.273-4.675-8.067-6.59.578-.789 1.145-1.996 1.67-3.461.525-1.465 1.008-3.187 1.424-5 .416-1.814.763-3.72 1.014-5.555.25-1.834.404-3.596.433-5.123.018-.932.294-1.776.824-2.7.531-.922 1.316-1.925 2.348-3.171 1.033-1.246 2.315-2.737 3.838-4.639A126.347 126.347 0 0 0 190 34.215c-.457-.287-1.262-.276-2.383-.027-1.121.248-2.56.735-4.283 1.396-3.448 1.322-8.04 3.346-13.53 5.578a77.276 77.276 0 0 0-6.773 3.154 115.501 115.501 0 0 0-5.248 2.95c-1.51.891-2.787 1.664-3.855 2.23-1.069.566-1.927.927-2.6.996-1.444.15-3.474.78-6.01 1.828-2.536 1.049-5.578 2.517-9.048 4.344-3.471 1.827-7.37 4.014-11.618 6.5a613.553 613.553 0 0 0-13.715 8.293c-9.736 6.047-20.555 13.05-31.828 20.525-11.273 7.476-23 15.425-34.55 23.366-16.495 11.338-30.44 21.291-44.385 31.193A150 150 0 0 0 0 150a150 150 0 0 0 .426 11.023c5.815-2.278 11.294-4.547 17.53-6.757a425.154 425.154 0 0 1 16.548-5.508c5.537-1.71 11.055-3.268 16.441-4.59 1.265-.31 2.476-.55 3.594-.686 1.118-.134 2.144-.161 3.033-.046.89.114 1.644.372 2.223.81.579.438.982 1.058 1.168 1.895.186.836.156 1.89-.133 3.199-.289 1.309-.836 2.87-1.682 4.726-.845 1.856-1.99 4.004-3.474 6.48-1.485 2.477-3.308 5.284-5.514 8.456-5.117 7.36-11.774 17.325-18.9 28.226-4.657 7.124-9.436 14.655-14.198 22.11a150 150 0 0 0 5.223 9.103c7.326-9.478 14.854-19.252 21.69-27.953 4.1-5.22 7.962-10.073 11.408-14.289 3.446-4.216 6.476-7.794 8.908-10.465 2.664-2.924 5.1-5.446 7.309-7.582 2.209-2.136 4.191-3.887 5.949-5.273 1.757-1.386 3.29-2.407 4.597-3.082 1.309-.675 2.393-1.003 3.254-1.006.609-.002 1.105-.13 1.19.217.085.347-.241 1.17-1.28 3.064-2.076 3.79-7 11.87-17.17 29.035-6.199 10.466-20.228 33.791-33.001 55.14a150 150 0 0 0 9.308 10.169c5.766-7.96 10.959-15.044 16.93-23.348 25.733-35.786 51.282-71.807 58.58-82.513a111.277 111.277 0 0 1 4.51-6.176 77.603 77.603 0 0 1 4.336-5.068 53.88 53.88 0 0 1 4.177-4.026 37.773 37.773 0 0 1 4.036-3.045 27.402 27.402 0 0 1 3.906-2.125 21.343 21.343 0 0 1 3.79-1.267 18.57 18.57 0 0 1 3.69-.473c1.215-.031 2.415.06 3.604.264a21 21 0 0 1 3.531.933c1.167.417 2.325.935 3.475 1.545 2.3 1.22 4.57 2.806 6.832 4.674 2.261 1.868 4.514 4.019 6.775 6.371 2.261 2.352 4.53 4.905 6.828 7.576 2.231 2.593 4.462 5.542 6.686 8.795 2.223 3.254 4.438 6.811 6.638 10.621 2.2 3.81 4.386 7.873 6.547 12.135a365.64 365.64 0 0 1 6.407 13.334c4.214 9.22 8.304 19.028 12.207 29.01 3.903 9.982 7.619 20.137 11.086 30.045 2.348 6.71 4.396 12.992 6.496 19.347a150 150 0 0 0 8.843-6.505z" id="path1496"/>
        <path style="fill:#0068c8;fill-opacity:1;stroke:none;stroke-opacity:1" d="M150 0A150 150 0 0 0 .174 146.541c13.946-9.902 27.89-19.855 44.385-31.193 11.55-7.941 23.277-15.89 34.55-23.366 11.273-7.475 22.092-14.478 31.829-20.525a613.553 613.553 0 0 1 13.714-8.293c4.249-2.486 8.147-4.673 11.618-6.5 3.47-1.827 6.512-3.295 9.048-4.344 2.536-1.048 4.566-1.678 6.01-1.828.673-.07 1.531-.43 2.6-.996 1.068-.566 2.346-1.339 3.855-2.23 1.51-.892 3.252-1.904 5.248-2.95a77.276 77.276 0 0 1 6.774-3.154c5.489-2.232 10.081-4.256 13.529-5.578 1.724-.661 3.162-1.148 4.283-1.397 1.121-.248 1.926-.26 2.383.028a126.347 126.347 0 0 1-5.291 7.105c-1.523 1.902-2.805 3.393-3.838 4.639-1.032 1.246-1.817 2.249-2.348 3.172-.53.923-.806 1.767-.824 2.7-.029 1.526-.183 3.288-.433 5.122a63.964 63.964 0 0 1-1.014 5.555c-.416 1.813-.899 3.535-1.424 5-.525 1.465-1.092 2.672-1.67 3.46 2.794 1.916 5.48 4.121 8.067 6.59 2.586 2.47 5.071 5.205 7.46 8.182 2.39 2.978 4.683 6.198 6.887 9.637 2.204 3.44 4.32 7.096 6.35 10.951a196.495 196.495 0 0 1 5.842 12.131 256.245 256.245 0 0 1 5.367 13.172 329.324 329.324 0 0 1 4.928 14.074 417.4 417.4 0 0 1 4.521 14.836c2.886 10.116 5.522 20.648 7.953 31.414 2.431 10.766 4.655 21.765 6.719 32.813 2.064 11.047 3.968 22.144 5.754 33.105.478 2.935.89 5.735 1.351 8.647A150 150 0 0 0 300 150 150 150 0 0 0 150 0Z" id="path1433"/>
    </g>
</svg>
