<svg
   data-name="C1"
   viewBox="0 0 256 256"
   version="1.1"
   id="svg8"
   xml:space="preserve"
   width="256"
   height="256"
   xmlns:xlink="http://www.w3.org/1999/xlink"
   xmlns="http://www.w3.org/2000/svg"
   xmlns:svg="http://www.w3.org/2000/svg"><defs
     id="defs2"><linearGradient
       id="paint0_linear_87_7435"
       x1="16.0578"
       y1="6.30617"
       x2="15.8364"
       y2="9.3059797"
       gradientUnits="userSpaceOnUse"><stop
         stop-color="white"
         stop-opacity="0.8"
         id="stop23" /><stop
         offset="1"
         stop-color="white"
         stop-opacity="0"
         id="stop24" /></linearGradient><linearGradient
       id="paint1_linear_87_7435"
       x1="12.8966"
       y1="22.6721"
       x2="11.2506"
       y2="17.271601"
       gradientUnits="userSpaceOnUse"><stop
         stop-color="#FFEED7"
         id="stop25" /><stop
         offset="1"
         stop-color="#BDBFC2"
         id="stop26" /></linearGradient><linearGradient
       id="paint3_linear_87_7435"
       x1="16.6681"
       y1="9.6554604"
       x2="16.5748"
       y2="10.3542"
       gradientUnits="userSpaceOnUse"><stop
         stop-color="white"
         stop-opacity="0.65"
         id="stop29" /><stop
         offset="1"
         stop-color="white"
         stop-opacity="0"
         id="stop30" /></linearGradient><linearGradient
       id="paint4_linear_87_7435"
       x1="14.434"
       y1="9.7829399"
       x2="14.5344"
       y2="10.3483"
       gradientUnits="userSpaceOnUse"><stop
         stop-color="white"
         stop-opacity="0.65"
         id="stop31" /><stop
         offset="1"
         stop-color="white"
         stop-opacity="0"
         id="stop32" /></linearGradient><linearGradient
       id="paint5_linear_87_7435"
       x1="15.7613"
       y1="15.6306"
       x2="15.778"
       y2="19.627199"
       gradientUnits="userSpaceOnUse"><stop
         stop-color="white"
         stop-opacity="0.8"
         id="stop33" /><stop
         offset="1"
         stop-color="white"
         stop-opacity="0"
         id="stop34" /></linearGradient><linearGradient
       id="paint6_linear_87_7435"
       x1="15.8504"
       y1="13.1247"
       x2="15.8688"
       y2="14.7138"
       gradientUnits="userSpaceOnUse"><stop
         stop-color="white"
         stop-opacity="0.65"
         id="stop35" /><stop
         offset="1"
         stop-color="white"
         stop-opacity="0"
         id="stop36" /></linearGradient><linearGradient
       id="paint7_linear_87_7435"
       x1="11.72"
       y1="14.1055"
       x2="11.72"
       y2="19.937201"
       gradientUnits="userSpaceOnUse"><stop
         stop-color="white"
         stop-opacity="0.65"
         id="stop37" /><stop
         offset="1"
         stop-color="white"
         stop-opacity="0"
         id="stop38" /></linearGradient><linearGradient
       id="paint8_linear_87_7435"
       x1="21.033001"
       y1="13.5359"
       x2="21.0308"
       y2="18.805201"
       gradientUnits="userSpaceOnUse"><stop
         stop-color="white"
         stop-opacity="0.65"
         id="stop39" /><stop
         offset="1"
         stop-color="white"
         stop-opacity="0"
         id="stop40" /></linearGradient><linearGradient
       id="paint9_linear_87_7435"
       x1="11.4286"
       y1="22.437401"
       x2="10.5354"
       y2="25.4214"
       gradientUnits="userSpaceOnUse"><stop
         stop-color="#FFA63F"
         id="stop41" /><stop
         offset="1"
         stop-color="#FFFF00"
         id="stop42" /></linearGradient><linearGradient
       id="paint10_linear_87_7435"
       x1="19.882"
       y1="21.530001"
       x2="22.2656"
       y2="24.7801"
       gradientUnits="userSpaceOnUse"><stop
         stop-color="#FFA63F"
         id="stop43" /><stop
         offset="1"
         stop-color="#FFFF00"
         id="stop44" /></linearGradient><linearGradient
       id="paint11_linear_87_7435"
       x1="20.5198"
       y1="18.9333"
       x2="19.6863"
       y2="22.8605"
       gradientUnits="userSpaceOnUse"><stop
         stop-color="white"
         stop-opacity="0.65"
         id="stop45" /><stop
         offset="1"
         stop-color="white"
         stop-opacity="0"
         id="stop46" /></linearGradient><linearGradient
       id="paint12_linear_87_7435"
       x1="11.2464"
       y1="19.9042"
       x2="11.4117"
       y2="24.3239"
       gradientUnits="userSpaceOnUse"><stop
         stop-color="white"
         stop-opacity="0.65"
         id="stop47" /><stop
         offset="1"
         stop-color="white"
         stop-opacity="0"
         id="stop48" /></linearGradient><linearGradient
       id="paint13_linear_87_7435"
       x1="20.3755"
       y1="18.861601"
       x2="20.5688"
       y2="20.182199"
       gradientUnits="userSpaceOnUse"><stop
         stop-color="white"
         stop-opacity="0.65"
         id="stop49" /><stop
         offset="1"
         stop-color="white"
         stop-opacity="0"
         id="stop50" /></linearGradient><linearGradient
       id="paint14_linear_87_7435"
       x1="15.7644"
       y1="10.784"
       x2="15.7805"
       y2="13.1098"
       gradientUnits="userSpaceOnUse"><stop
         stop-color="#FFA63F"
         id="stop51" /><stop
         offset="1"
         stop-color="#FFFF00"
         id="stop52" /></linearGradient><linearGradient
       id="paint15_linear_87_7435"
       x1="15.5106"
       y1="10.5638"
       x2="15.5062"
       y2="11.7936"
       gradientUnits="userSpaceOnUse"><stop
         stop-color="white"
         stop-opacity="0.65"
         id="stop53" /><stop
         offset="1"
         stop-color="white"
         stop-opacity="0"
         id="stop54" /></linearGradient><linearGradient
       xlink:href="#paint1_linear_87_7435"
       id="linearGradient10"
       gradientUnits="userSpaceOnUse"
       x1="12.8966"
       y1="22.6721"
       x2="11.2506"
       y2="17.271601" /><linearGradient
       xlink:href="#paint1_linear_87_7435"
       id="linearGradient11"
       gradientUnits="userSpaceOnUse"
       x1="12.8966"
       y1="22.6721"
       x2="11.2506"
       y2="17.271601" /></defs><path
     style="fill:none"
     d="M 0,0 H 256 V 256 H 0 Z"
     id="path2" /><g
     style="fill:none"
     id="g10"
     transform="matrix(7.8801643,0,0,7.8801643,1.9173712,1.9173712)"><path
       d="M 30,16 C 30,23.728 23.735,30 16,30 8.265,30 2,23.728 2,16 2,8.265 8.265,2 16,2 23.735,2 30,8.265 30,16 Z"
       fill="#ffffff"
       id="path1" /><path
       d="M 11.3063,21.91 C 11.181,21.7232 11.0714,21.4713 10.9824,21.1699 9.37571,19.358 10.6169,16.6916 11.8446,14.881 c 0.1177,-0.1936 0.2459,-0.3806 0.3853,-0.5595 0.9367,-1.1638 1.179,-1.9737 1.2511,-3.0694 0.0086,-0.204 -0.0083,-0.474 -0.0277,-0.7843 -0.0991,-1.5841 -0.2638,-4.21606 2.5626,-4.4494 3.533,-0.29171 3.2452,2.95265 3.2191,4.8548 -0.0011,0.0787 -0.0022,0.1553 -0.0029,0.2292 -0.0096,1.1466 0.5888,1.9317 1.2134,2.7511 0.2281,0.2993 0.4597,0.6031 0.6665,0.9308 0.0061,0.0097 0.0122,0.0195 0.0183,0.0292 1.0915,1.5742 2.1691,3.9235 0.6692,6.1518 -0.2108,0.7606 -0.53,1.4587 -0.9561,2.0268 -1.5298,2.0131 -2.8895,1.8087 -3.9514,1.6491 -0.3203,-0.0481 -0.6135,-0.0922 -0.8761,-0.0701 -0.4362,0.0266 -0.7858,0.0971 -1.0878,0.1581 -1.1673,0.2356 -1.6235,0.3277 -3.6218,-2.8192 z"
       fill="#000000"
       id="path2-2" /><path
       d="m 18.0139,7.79452 c -0.0328,0.93239 -1.0218,1.74229 -2.2074,1.81715 -1.1856,0.07487 -2.1158,-0.63294 -2.083,-1.56534 0.0327,-0.9324 1.0218,-1.74229 2.2074,-1.81716 1.1856,-0.06805 2.1157,0.63295 2.083,1.56535 z"
       fill="url(#paint0_linear_87_7435)"
       id="path3-2"
       style="fill:url(#paint0_linear_87_7435)" /><path
       fill-rule="evenodd"
       clip-rule="evenodd"
       d="m 15.8656,10.0609 c 0.0095,0.507 0.2417,0.9393 0.5678,1.1346 -1.0639,-0.0953 -2.3822,0.2936 -2.3822,1.0297 -0.0164,1.2451 -0.7094,2.7943 -1.2083,3.9094 -0.0982,0.2197 -0.1889,0.4225 -0.2655,0.6028 -0.3088,0.7647 -0.4941,1.5826 -0.516,2.3847 -0.8179,-1.1274 -0.2236,-2.5737 0.0968,-3.2014 0.4264,-0.826 0.4182,-0.9291 0.2526,-0.7355 -0.6349,1.0796 -1.8305,3.2481 -0.3333,4.5508 0.0475,0.5817 0.1892,1.1453 0.441,1.6634 2.0043,4.0427 5.7576,2.3821 6.9956,0.2859 0.1647,-0.2981 0.2979,-0.5864 0.4036,-0.865 0.062,0.039 0.1284,0.0692 0.199,0.0891 0.6223,0.1838 1.5524,-0.5172 1.7751,-0.9528 0.2686,-0.5785 -0.0065,-0.9733 -0.9235,-1.4429 -0.0468,-0.0231 -0.093,-0.0449 -0.1386,-0.0652 0.3517,-1.4809 -0.6175,-3.0209 -1.3097,-3.6742 -0.1291,-0.0319 -0.1473,0.0413 0.0531,0.2412 0.4359,0.4178 1.3841,1.9073 0.8711,3.2936 -0.0845,-0.0227 -0.1658,-0.0387 -0.2433,-0.0475 -0.1576,-0.9458 -0.5778,-1.6816 -0.8715,-2.1958 -0.0665,-0.1165 -0.1265,-0.2216 -0.1756,-0.3152 -0.0988,-0.1889 -0.217,-0.3845 -0.3424,-0.5919 -0.4831,-0.7993 -1.0724,-1.7744 -1.0724,-3.2194 -0.0739,-0.3179 -0.3739,-0.5299 -0.7732,-0.647 0.4635,-0.0935 0.8114,-0.635 0.7994,-1.2858 C 17.7521,9.30545 17.3132,8.74737 16.7892,8.76099 16.2652,8.7746 15.846,9.3599 15.8656,10.0609 Z m 0.4323,0.1565 c -0.0065,0.388 0.1769,0.701 0.4193,0.701 0.2358,0 0.4388,-0.313 0.4454,-0.6942 0.0065,-0.38789 -0.1769,-0.70096 -0.4192,-0.70096 -0.2424,0 -0.4389,0.31307 -0.4455,0.69416 z"
       fill="url(#paint1_linear_87_7435)"
       id="path4-1"
       style="fill:url(#linearGradient10)" /><path
       fill-rule="evenodd"
       clip-rule="evenodd"
       d="m 14.5556,11.1498 c 0.3799,-0.0204 0.655,-0.5308 0.6223,-1.1365 -0.0328,-0.60576 -0.3668,-1.07536 -0.7468,-1.05495 -0.3799,0.02042 -0.655,0.53086 -0.6222,1.13655 0.0327,0.6057 0.3668,1.0753 0.7467,1.0549 z m 0.2292,-0.9256 c 0.0328,0.3199 -0.0851,0.5921 -0.2554,0.6194 -0.1703,0.0204 -0.3341,-0.2178 -0.3668,-0.5377 -0.0328,-0.31986 0.0851,-0.5921 0.2554,-0.61932 0.1703,-0.02042 0.3341,0.21778 0.3668,0.53762 z"
       fill="url(#paint2_linear_87_7435)"
       id="path5-6"
       style="fill:url(#linearGradient11)" /><path
       d="m 16.3961,9.99963 c -0.0197,0.21777 0.0786,0.39477 0.2161,0.40837 0.1376,0.0136 0.2686,-0.1566 0.2882,-0.3675 C 16.9201,9.82267 16.8218,9.64572 16.6843,9.63211 16.5467,9.6185 16.4157,9.78865 16.3961,9.99963 Z"
       fill="url(#paint3_linear_87_7435)"
       id="path6-8"
       style="fill:url(#paint3_linear_87_7435)" /><path
       d="m 14.641,10.0542 c 0.0196,0.177 -0.0524,0.3335 -0.1572,0.3471 -0.1048,0.0136 -0.2031,-0.1225 -0.2228,-0.3062 -0.0196,-0.17699 0.0524,-0.33352 0.1573,-0.34713 0.1048,-0.01361 0.203,0.12931 0.2227,0.30623 z"
       fill="url(#paint4_linear_87_7435)"
       id="path7"
       style="fill:url(#paint4_linear_87_7435)" /><path
       d="m 18.669,17.1525 c 0,1.1978 -1.107,2.7496 -3.0065,2.736 -1.9586,0.0136 -2.7904,-1.5382 -2.7904,-2.736 0,-1.1978 1.2969,-2.1711 2.8952,-2.1711 1.6048,0.0069 2.9017,0.9733 2.9017,2.1711 z"
       fill="url(#paint5_linear_87_7435)"
       id="path8"
       style="fill:url(#paint5_linear_87_7435)" /><path
       d="m 17.6346,13.3892 c -0.0196,1.2387 -0.7991,1.5313 -1.7817,1.5313 -0.9825,0 -1.6965,-0.1838 -1.7816,-1.5313 0,-0.8439 0.7991,-1.334 1.7816,-1.334 0.9826,-0.0068 1.7817,0.4833 1.7817,1.334 z"
       fill="url(#paint6_linear_87_7435)"
       id="path9"
       style="fill:url(#paint6_linear_87_7435)" /><path
       d="m 11.6936,15.2947 c 0.642,-1.014 1.9978,-2.5726 0.2555,0.2178 -1.4149,2.3004 -0.524,3.7773 -0.0655,4.1856 1.3231,1.2251 1.2707,2.0486 0.2292,1.402 -2.23358,-1.3816 -1.7685,-3.7092 -0.4192,-5.8054 z"
       fill="url(#paint7_linear_87_7435)"
       id="path10"
       style="fill:url(#paint7_linear_87_7435)" /><path
       d="m 20.9881,15.71 c -0.5567,-1.191 -2.3253,-4.2128 0.0852,-0.701 2.1943,3.1783 0.655,5.3902 0.3799,5.608 -0.2751,0.2178 -1.1987,0.6601 -0.9301,-0.1089 0.2751,-0.7691 1.6375,-2.2255 0.465,-4.7981 z"
       fill="url(#paint8_linear_87_7435)"
       id="path11"
       style="fill:url(#paint8_linear_87_7435)" /><path
       d="M 11.2089,25.1021 C 9.74165,24.2922 7.61283,25.2586 8.38575,23.0671 8.54296,22.5703 8.15649,21.8217 8.4054,21.3384 c 0.29476,-0.5921 0.93013,-0.4628 1.31004,-0.8575 0.37336,-0.4083 0.60916,-1.1161 1.31006,-1.0073 0.6943,0.1089 1.1594,0.9937 1.6441,2.0826 0.3603,0.7759 1.631,1.8716 1.5458,2.7428 -0.1048,1.3339 -1.5655,1.5857 -3.0065,0.8031 z"
       fill="url(#paint9_linear_87_7435)"
       id="path12"
       style="fill:url(#paint9_linear_87_7435)" /><path
       fill-rule="evenodd"
       clip-rule="evenodd"
       d="m 9.87664,20.6404 c -0.3568,0.3903 -1.01212,0.2967 -1.27512,0.8073 -0.16891,0.3279 0.01564,0.8319 0.04054,1.191 0.03076,0.4437 -0.33703,1.0723 -0.14973,1.4512 0.21035,0.4255 1.16063,0.3703 1.57837,0.4314 1.0312,0.1506 2.7356,1.4852 3.6681,0.4201 0.9116,-1.0412 -0.8406,-2.3589 -1.2704,-3.2845 -0.2795,-0.628 -0.6978,-1.8319 -1.4764,-1.9542 -0.5489,-0.0852 -0.7989,0.5916 -1.11536,0.9377 z m 1.18166,-1.3958 c 0.9695,0.1521 1.4546,1.4089 1.8124,2.2126 0.5431,1.1655 2.404,2.4183 1.1979,3.7959 -1.0954,1.2512 -2.8248,-0.0927 -4.06,-0.2731 C 9.39166,24.8898 8.41858,24.9546 8.09576,24.3015 7.81821,23.7401 8.2362,23.2316 8.1974,22.672 8.16434,22.1952 7.97565,21.6832 8.2077,21.2306 8.52537,20.5945 9.13864,20.7485 9.55546,20.3192 9.99809,19.8328 10.2634,19.1211 11.0583,19.2446 Z"
       fill="#e68c3f"
       id="path13" /><path
       d="m 21.3814,24.7278 c 1.0742,-1.3543 3.465,-1.0753 1.8537,-2.9333 -0.3406,-0.4015 -0.2358,-1.2591 -0.655,-1.6266 -0.4913,-0.4492 -1.035,-0.0817 -1.5328,-0.3131 -0.4978,-0.2518 -1.0218,-0.735 -1.631,-0.3947 -0.6092,0.3471 -0.6747,1.2455 -0.7336,2.4297 -0.0524,0.8507 -0.7991,2.2731 -0.3996,3.0558 0.5765,1.2114 2.0765,1.0481 3.0983,-0.2178 z"
       fill="url(#paint10_linear_87_7435)"
       id="path14"
       style="fill:url(#paint10_linear_87_7435)" /><path
       fill-rule="evenodd"
       clip-rule="evenodd"
       d="m 21.8097,19.6982 c 0.2754,-0.0073 0.6053,0.012 0.9151,0.2943 0.3853,0.3397 0.3891,0.8942 0.5344,1.3585 0.172,0.5498 0.7749,0.8639 0.7388,1.5087 -0.0589,1.0539 -1.8842,1.3078 -2.446,2.0162 -0.5399,0.6688 -1.2223,1.067 -1.8699,1.1207 -0.9821,0.0814 -1.7933,-0.7444 -1.7359,-1.7527 0.0466,-0.8163 0.4624,-1.5578 0.5131,-2.3675 0.0292,-0.5864 0.0607,-1.13 0.1667,-1.5714 0.1071,-0.4461 0.3001,-0.8302 0.6823,-1.048 0.837,-0.4676 1.6456,0.4636 2.5014,0.4412 z m -2.2878,-0.0345 c -0.2266,0.1294 -0.3707,0.3679 -0.4633,0.7534 -0.0937,0.3902 -0.1245,0.8902 -0.1543,1.4875 -0.05,0.8116 -0.4666,1.5526 -0.513,2.3667 -0.0414,0.7259 0.5162,1.3248 1.2554,1.2635 0.5017,-0.0416 1.0805,-0.3584 1.5624,-0.9551 0.4306,-0.5424 2.3046,-1.0461 2.3438,-1.7469 0.0256,-0.4576 -0.5764,-0.8869 -0.7178,-1.3385 -0.1106,-0.3535 -0.1164,-0.9011 -0.3996,-1.1494 -0.181,-0.1654 -0.3714,-0.19 -0.6146,-0.1836 -0.7047,0.0184 -1.6448,-0.8621 -2.299,-0.4976 z"
       fill="#e68c3f"
       id="path15" /><path
       d="m 20.9156,22.9174 c 1.6637,-2.5522 0.4257,-2.5318 0.0065,-2.7292 -0.4192,-0.2041 -0.858,-0.6057 -1.3493,-0.3266 -0.4913,0.2858 -0.5175,1.0208 -0.5306,1.9873 -0.0196,0.6942 -0.5764,1.858 -0.2423,2.5045 0.4061,0.7555 1.3886,-0.3403 2.1157,-1.436 z"
       fill="url(#paint11_linear_87_7435)"
       id="path16"
       style="fill:url(#paint11_linear_87_7435)" /><path
       d="M 10.8682,23.2847 C 8.37909,21.6105 9.54502,21.0388 9.91839,20.7733 10.3704,20.433 10.3769,19.7797 10.9337,19.8409 c 0.5567,0.0613 0.8842,0.7759 1.2576,1.6607 0.2751,0.6329 1.2315,1.4768 1.1594,2.205 -0.0917,0.8576 -1.4083,0.2927 -2.4825,-0.4219 z"
       fill="url(#paint12_linear_87_7435)"
       id="path17"
       style="fill:url(#paint12_linear_87_7435)" /><path
       d="m 21.7481,19.9362 c -0.1965,0.3539 -0.9956,0.9119 -1.5262,0.7622 -0.5436,-0.1429 -0.7925,-0.9392 -0.6812,-1.5381 0.0983,-0.6806 0.6812,-0.7146 1.4149,-0.3743 0.7794,0.3675 1.0218,0.6806 0.7925,1.1502 z"
       fill="#000000"
       id="path18" /><path
       d="m 21.2108,19.7389 c -0.1245,0.245 -0.6485,0.6329 -1.0153,0.5308 -0.3668,-0.1021 -0.5502,-0.6533 -0.4913,-1.0685 0.0524,-0.4696 0.4454,-0.4968 0.9433,-0.2654 0.5371,0.2586 0.7074,0.4764 0.5633,0.8031 z"
       fill="url(#paint13_linear_87_7435)"
       id="path19"
       style="fill:url(#paint13_linear_87_7435)" /><path
       d="m 14.4374,10.8576 c 0.262,-0.2519 0.8974,-1.02092 2.1026,-0.2178 0.2227,0.1497 0.4061,0.1633 0.8319,0.3539 0.8581,0.3675 0.4519,1.2522 -0.4651,1.5517 -0.393,0.1293 -0.7467,0.6261 -1.4541,0.5785 -0.6092,-0.034 -0.7664,-0.4492 -1.1398,-0.6738 -0.6615,-0.3879 -0.7598,-0.912 -0.3995,-1.191 0.3602,-0.279 0.4978,-0.3811 0.524,-0.4015 z"
       fill="url(#paint14_linear_87_7435)"
       id="path20"
       style="fill:url(#paint14_linear_87_7435)" /><path
       fill-rule="evenodd"
       clip-rule="evenodd"
       d="m 13.9933,11.3703 c -0.137,0.1061 -0.1806,0.2471 -0.1353,0.4031 0.093,0.3204 0.7636,0.7611 1.0204,0.9767 0.146,0.1226 0.313,0.2198 0.5829,0.2349 0.578,0.0389 0.899,-0.4058 1.4054,-0.5724 0.333,-0.1088 1.0377,-0.5244 0.8043,-1.0007 -0.1992,-0.4065 -0.8702,-0.4316 -1.2035,-0.6556 -0.5736,-0.3821 -0.9912,-0.3794 -1.2887,-0.2722 -0.326,0.1175 -0.8903,0.6575 -1.1855,0.8862 z m 1.0978,-1.1488 c 0.387,-0.1394 0.8901,-0.1194 1.5215,0.3013 0.415,0.279 1.0464,0.2521 1.2967,0.763 0.3189,0.6507 -0.4538,1.2258 -0.9623,1.3919 -0.5445,0.1793 -0.8487,0.6284 -1.5023,0.5847 -0.3389,-0.0191 -0.5563,-0.1466 -0.7344,-0.2961 -0.3695,-0.3102 -0.9938,-0.605 -1.1365,-1.0969 -0.0792,-0.2728 0.0363,-0.549 0.2596,-0.722 0.3609,-0.2795 0.8486,-0.7784 1.2577,-0.9259 z"
       fill="#e68c3f"
       id="path21" /><path
       fill-rule="evenodd"
       clip-rule="evenodd"
       d="m 17.4745,11.5671 c 0.0027,0.0511 -0.035,0.0948 -0.0841,0.0975 -0.6933,0.0393 -1.1805,0.8305 -1.9634,0.8305 -0.4381,0 -0.7849,-0.2114 -1.0329,-0.4147 -0.0499,-0.0409 -0.4908,-0.3808 -0.4908,-0.4674 0,-0.0512 0.0399,-0.0927 0.0892,-0.0927 0.0921,0 0.37,0.3016 0.4734,0.3864 0.2336,0.1915 0.5804,0.4031 0.9611,0.4031 0.7751,0 1.2506,-0.7903 1.9536,-0.8302 0.0492,-0.0028 0.0912,0.0364 0.0939,0.0875 z"
       fill="#e68c3f"
       id="path22" /><path
       d="m 14.8442,10.7893 c 0.131,-0.1225 0.5436,-0.456 1.0873,-0.1157 0.1179,0.068 0.2358,0.1429 0.4061,0.245 0.3472,0.211 0.1769,0.5172 -0.2424,0.7078 -0.1899,0.0817 -0.5043,0.2586 -0.7401,0.245 -0.262,-0.0272 -0.4389,-0.2042 -0.6092,-0.3199 -0.321,-0.2177 -0.3013,-0.4015 -0.1507,-0.5444 0.1114,-0.1089 0.2359,-0.211 0.249,-0.2178 z"
       fill="url(#paint15_linear_87_7435)"
       id="path23"
       style="fill:url(#paint15_linear_87_7435)" /></g></svg>
