<?xml version="1.0" encoding="UTF-8" standalone="no"?>
<svg
   id="uuid-19907d1f-9315-477d-b7ba-91ae3e2acc9a"
   data-name="Capa 1"
   viewBox="0 0 256 256"
   version="1.1"
   sodipodi:docname="os-lubuntu-2.svg"
   xml:space="preserve"
   width="256"
   height="256"
   xmlns:inkscape="http://www.inkscape.org/namespaces/inkscape"
   xmlns:sodipodi="http://sodipodi.sourceforge.net/DTD/sodipodi-0.dtd"
   xmlns="http://www.w3.org/2000/svg"
   xmlns:svg="http://www.w3.org/2000/svg"><sodipodi:namedview
     id="namedview7"
     pagecolor="#ffffff"
     bordercolor="#000000"
     borderopacity="0.25"
     inkscape:showpageshadow="2"
     inkscape:pageopacity="0.0"
     inkscape:pagecheckerboard="0"
     inkscape:deskcolor="#d1d1d1"><inkscape:page
       x="0"
       y="0"
       width="256"
       height="256"
       id="page2"
       margin="0"
       bleed="0" /></sodipodi:namedview><defs
     id="defs2"><style
       id="style1">
      .uuid-153302a6-b94e-4ad0-9cfb-43725c5c5610 {
        fill: url(#uuid-af07a271-8980-47e6-b92b-41550c7dc68a);
      }

      .uuid-27fce091-ee3a-4889-9199-28416b94f462 {
        fill: url(#uuid-dc53e15d-e646-4f9b-aab3-d9d8fec05b0e);
      }

      .uuid-5da2c4a3-8db1-41d9-92d6-1ab0c264b0da {
        fill: none;
      }

      .uuid-ed4306aa-b6e6-45eb-bfe3-e4f85f33ea76 {
        fill: url(#uuid-afdc0b81-5c65-49b4-9e34-1cf3c2f4f8f7);
      }

      .uuid-03bde706-b35e-416f-8ae5-693e38f68253 {
        fill: url(#uuid-8e0b3ff5-2b0d-4ede-9e3a-d9af7f50b81e);
      }

      .uuid-aed79b63-67fc-4862-91f2-2516d39da3fa {
        fill: url(#uuid-5be9ed93-6987-4def-8687-537049e4e1cf);
      }

      .uuid-7fb198ab-10f1-4f2d-9a38-66668a795b4d {
        fill: url(#uuid-ebe94990-143f-470c-b744-73e231e6133d);
      }
    </style></defs><rect
     class="uuid-5da2c4a3-8db1-41d9-92d6-1ab0c264b0da"
     width="256"
     height="256"
     id="rect2"
     x="0"
     y="0" /><g
     id="layer1"
     inkscape:label="Layer 1"
     transform="matrix(0.7335316,0,0,0.7335316,17.97026,17.97026)"><path
       style="fill:#0068c8;fill-opacity:1;stroke:none;stroke-opacity:1"
       d="m 17.0625,219.33789 c 4.761288,-7.45458 9.540277,-14.98561 14.197266,-22.10937 7.126449,-10.90129 13.783125,-20.86721 18.90039,-28.22657 2.205653,-3.17204 4.029154,-5.97843 5.513672,-8.45507 1.484519,-2.47665 2.629111,-4.62489 3.47461,-6.48047 0.845498,-1.85559 1.393048,-3.4177 1.68164,-4.72657 0.288593,-1.30886 0.319012,-2.36273 0.132813,-3.19922 -0.1862,-0.83648 -0.589092,-1.45609 -1.167969,-1.89453 -0.578878,-0.43843 -1.333215,-0.69581 -2.222656,-0.81054 -0.889442,-0.11473 -1.915312,-0.0878 -3.033204,0.0469 -1.117891,0.13464 -2.329522,0.37588 -3.59375,0.68555 -5.386564,1.32241 -10.904796,2.87982 -16.441406,4.58984 -5.536609,1.71002 -11.08998,3.57228 -16.548828,5.50781 -6.235259,2.21083 -11.7138452,4.47928 -17.52929675,6.75782 A 150,150 0 0 0 17.0625,219.33789 Z"
       id="path1502" /><path
       style="fill:#0068c8;fill-opacity:1;stroke:none;stroke-opacity:1"
       d="m 35.138672,246.24609 c 12.773765,-21.34798 26.802345,-44.67345 33.001953,-55.13867 10.169195,-17.166 15.093294,-25.24602 17.169922,-29.03515 1.038314,-1.89457 1.364313,-2.71726 1.279297,-3.06446 -0.08502,-0.3472 -0.580981,-0.21906 -1.189453,-0.21679 -0.861383,0.003 -1.945872,0.33081 -3.253907,1.00586 -1.308034,0.67504 -2.840297,1.69605 -4.597656,3.08203 -1.757359,1.38598 -3.739863,3.13759 -5.949219,5.27343 -2.209356,2.13585 -4.644568,4.65739 -7.308593,7.58204 -2.432337,2.67029 -5.462363,6.24879 -8.908204,10.46484 -3.44584,4.21605 -7.307562,9.06973 -11.408203,14.28906 -6.835824,8.70069 -14.363245,18.47472 -21.689453,27.95313 a 150,150 0 0 0 12.853516,17.80468 z"
       id="path1500" /><path
       style="fill:#0068c8;fill-opacity:1;stroke:none;stroke-opacity:1"
       d="m 235.51367,273.02539 c -2.09978,-6.35502 -4.1481,-12.63702 -6.49609,-19.34766 -3.46671,-9.90795 -7.18298,-20.06318 -11.08594,-30.04492 -3.90296,-9.98174 -7.99284,-19.79063 -12.20703,-29.00976 -2.1071,-4.60957 -4.24479,-9.0719 -6.40625,-13.33399 -2.16146,-4.26209 -4.34667,-8.3247 -6.54688,-12.13476 -2.2002,-3.81007 -4.41535,-7.36761 -6.63867,-10.6211 -2.22331,-3.25349 -4.45474,-6.20255 -6.68554,-8.79492 -2.29859,-2.67113 -4.56724,-5.22397 -6.82813,-7.57617 -2.26089,-2.3522 -4.51401,-4.50276 -6.77539,-6.37109 -2.26138,-1.86834 -4.53197,-3.45429 -6.83203,-4.67383 -1.15003,-0.60978 -2.30775,-1.12827 -3.47461,-1.54492 -1.16687,-0.41666 -2.34278,-0.73068 -3.53125,-0.9336 -1.18847,-0.20291 -2.38867,-0.29511 -3.60352,-0.26367 -1.21485,0.0314 -2.44345,0.18625 -3.68945,0.47266 -1.246,0.2864 -2.50909,0.70559 -3.79101,1.26757 -1.28193,0.56199 -2.58363,1.26682 -3.90626,2.125 -1.32262,0.85819 -2.66705,1.86992 -4.03515,3.04493 -1.3681,1.175 -2.75938,2.51295 -4.17774,4.02539 -1.41835,1.51243 -2.86256,3.19787 -4.33593,5.06836 -1.47338,1.87048 -2.9766,3.92663 -4.50977,6.17578 -7.29841,10.70676 -32.847122,46.72704 -58.580077,82.51367 -5.971087,8.30395 -11.164426,15.38813 -16.929687,23.34766 A 150,150 0 0 0 150,300 150,150 0 0 0 235.51367,273.02539 Z"
       id="path1498" /><path
       style="fill:#ffffff;fill-opacity:1;stroke:none;stroke-opacity:1"
       d="m 244.35742,266.51953 c -0.46226,-2.91189 -0.87336,-5.71165 -1.35156,-8.64648 -1.78602,-10.96119 -3.68963,-22.05782 -5.75391,-33.10547 -2.06427,-11.04765 -4.28798,-22.04674 -6.71875,-32.8125 -2.43076,-10.76576 -5.06764,-21.29855 -7.95312,-31.41406 -1.44274,-5.05776 -2.94852,-10.00982 -4.52149,-14.83594 -1.57296,-4.82613 -3.21352,-9.52577 -4.92773,-14.07422 -1.71421,-4.54845 -3.5007,-8.94714 -5.36719,-13.17188 -1.86649,-4.22473 -3.812,-8.27588 -5.84179,-12.13086 -2.0298,-3.85497 -4.14548,-7.511999 -6.34961,-10.951167 -2.20414,-3.439168 -4.49722,-6.659401 -6.88672,-9.636719 -2.3895,-2.977317 -4.87505,-5.712217 -7.46094,-8.18164 -2.5859,-2.469423 -5.27309,-4.67436 -8.06641,-6.589844 0.578,-0.78852 1.14506,-1.995886 1.66992,-3.460938 0.52487,-1.465051 1.00814,-3.186433 1.42383,-5 0.4157,-1.813566 0.7632,-3.72062 1.01367,-5.554687 0.25048,-1.834067 0.40439,-3.596494 0.4336,-5.123047 0.0178,-0.93226 0.29354,-1.776083 0.82422,-2.699219 0.53067,-0.923135 1.31518,-1.925473 2.34765,-3.171875 1.03247,-1.246402 2.3147,-2.736612 3.83789,-4.638672 1.5232,-1.902059 3.28816,-4.21536 5.29102,-7.105468 -0.45694,-0.287038 -1.26158,-0.276108 -2.38281,-0.02734 -1.12123,0.248764 -2.55928,0.735248 -4.28321,1.396484 -3.44786,1.322474 -8.04021,3.34574 -13.52929,5.578125 -2.52818,1.028195 -4.77729,2.108657 -6.77344,3.154297 -1.99615,1.04564 -3.73853,2.057522 -5.24805,2.949219 -1.50951,0.891697 -2.7872,1.664101 -3.85547,2.230469 -1.06826,0.566367 -1.92719,0.926444 -2.59961,0.996094 -1.44402,0.149583 -3.47371,0.779403 -6.00976,1.828124 -2.53606,1.048722 -5.57805,2.516333 -9.04883,4.34375 -3.47077,1.827418 -7.369,4.014328 -11.61719,6.5 -4.24818,2.485673 -8.84656,5.269484 -13.71484,8.292969 -9.73655,6.04697 -20.555079,13.049822 -31.828125,20.525391 C 67.836329,99.457991 56.109626,107.40702 44.558594,115.34766 28.064319,126.68647 14.119699,136.63899 0.17382812,146.54102 A 150,150 0 0 0 0,150 150,150 0 0 0 0.42578125,161.02344 C 6.2412328,158.7449 11.719819,156.47645 17.955078,154.26562 c 5.458848,-1.93553 11.012219,-3.79779 16.548828,-5.50781 5.53661,-1.71002 11.054842,-3.26743 16.441406,-4.58984 1.264228,-0.30967 2.475859,-0.55091 3.59375,-0.68555 1.117892,-0.13463 2.143762,-0.1616 3.033204,-0.0469 0.889441,0.11473 1.643778,0.37211 2.222656,0.81054 0.578877,0.43844 0.981769,1.05805 1.167969,1.89453 0.186199,0.83649 0.15578,1.89036 -0.132813,3.19922 -0.288592,1.30887 -0.836142,2.87098 -1.68164,4.72657 -0.845499,1.85558 -1.990091,4.00382 -3.47461,6.48047 -1.484518,2.47664 -3.308019,5.28303 -5.513672,8.45507 -5.117265,7.35936 -11.773941,17.32528 -18.90039,28.22657 -4.656989,7.12376 -9.435978,14.65479 -14.197266,22.10937 a 150,150 0 0 0 5.222656,9.10352 c 7.326208,-9.47841 14.853629,-19.25244 21.689453,-27.95313 4.100641,-5.21933 7.962363,-10.07301 11.408203,-14.28906 3.445841,-4.21605 6.475867,-7.79455 8.908204,-10.46484 2.664025,-2.92465 5.099237,-5.44619 7.308593,-7.58204 2.209356,-2.13584 4.19186,-3.88745 5.949219,-5.27343 1.757359,-1.38598 3.289622,-2.40699 4.597656,-3.08203 1.308035,-0.67505 2.392524,-1.00281 3.253907,-1.00586 0.608472,-0.002 1.104436,-0.13041 1.189453,0.21679 0.08502,0.3472 -0.240983,1.16989 -1.279297,3.06446 -2.076628,3.78913 -7.000727,11.86915 -17.169922,29.03515 -6.199608,10.46522 -20.228188,33.79069 -33.001953,55.13867 a 150,150 0 0 0 9.308594,10.16993 c 5.765261,-7.95953 10.9586,-15.04371 16.929687,-23.34766 25.732955,-35.78663 51.281667,-71.80691 58.580077,-82.51367 1.53317,-2.24915 3.03639,-4.3053 4.50977,-6.17578 1.47337,-1.87049 2.91758,-3.55593 4.33593,-5.06836 1.41836,-1.51244 2.80964,-2.85039 4.17774,-4.02539 1.3681,-1.17501 2.71253,-2.18674 4.03515,-3.04493 1.32263,-0.85818 2.62433,-1.56301 3.90626,-2.125 1.28192,-0.56198 2.54501,-0.98117 3.79101,-1.26757 1.246,-0.28641 2.4746,-0.44122 3.68945,-0.47266 1.21485,-0.0314 2.41505,0.0608 3.60352,0.26367 1.18847,0.20292 2.36438,0.51694 3.53125,0.9336 1.16686,0.41665 2.32458,0.93514 3.47461,1.54492 2.30006,1.21954 4.57065,2.80549 6.83203,4.67383 2.26138,1.86833 4.5145,4.01889 6.77539,6.37109 2.26089,2.3522 4.52954,4.90504 6.82813,7.57617 2.2308,2.59237 4.46223,5.54143 6.68554,8.79492 2.22332,3.25349 4.43847,6.81103 6.63867,10.6211 2.20021,3.81006 4.38542,7.87267 6.54688,12.13476 2.16146,4.26209 4.29915,8.72442 6.40625,13.33399 4.21419,9.21913 8.30407,19.02802 12.20703,29.00976 3.90296,9.98174 7.61923,20.13697 11.08594,30.04492 2.34799,6.71064 4.39631,12.99264 6.49609,19.34766 a 150,150 0 0 0 8.84375,-6.50586 z"
       id="path1496" /><path
       style="fill:#0068c8;fill-opacity:1;stroke:none;stroke-opacity:1"
       d="M 150,0 A 150,150 0 0 0 0.17382812,146.54102 C 14.119699,136.63899 28.064319,126.68647 44.558594,115.34766 56.109626,107.40702 67.836329,99.457991 79.109375,91.982422 90.382421,84.506853 101.20095,77.504001 110.9375,71.457031 c 4.86828,-3.023485 9.46666,-5.807296 13.71484,-8.292969 4.24819,-2.485672 8.14642,-4.672582 11.61719,-6.5 3.47078,-1.827417 6.51277,-3.295028 9.04883,-4.34375 2.53605,-1.048721 4.56574,-1.678541 6.00976,-1.828124 0.67242,-0.06965 1.53135,-0.429727 2.59961,-0.996094 1.06827,-0.566368 2.34596,-1.338772 3.85547,-2.230469 1.50952,-0.891697 3.2519,-1.903579 5.24805,-2.949219 1.99615,-1.04564 4.24526,-2.126102 6.77344,-3.154297 5.48908,-2.232385 10.08143,-4.255651 13.52929,-5.578125 1.72393,-0.661236 3.16198,-1.14772 4.28321,-1.396484 1.12123,-0.248764 1.92587,-0.259694 2.38281,0.02734 -2.00286,2.890108 -3.76782,5.203409 -5.29102,7.105468 -1.52319,1.90206 -2.80542,3.39227 -3.83789,4.638672 -1.03247,1.246402 -1.81698,2.24874 -2.34765,3.171875 -0.53068,0.923136 -0.8064,1.766959 -0.82422,2.699219 -0.0292,1.526553 -0.18312,3.28898 -0.4336,5.123047 -0.25047,1.834067 -0.59797,3.741121 -1.01367,5.554687 -0.41569,1.813567 -0.89896,3.534949 -1.42383,5 -0.52486,1.465052 -1.09192,2.672418 -1.66992,3.460938 2.79332,1.915484 5.48051,4.120421 8.06641,6.589844 2.58589,2.469423 5.07144,5.204323 7.46094,8.18164 2.3895,2.977318 4.68258,6.197551 6.88672,9.636719 2.20413,3.439168 4.31981,7.096201 6.34961,10.951171 2.02979,3.85498 3.9753,7.90613 5.84179,12.13086 1.86649,4.22474 3.65298,8.62343 5.36719,13.17188 1.71421,4.54845 3.35477,9.24809 4.92773,14.07422 1.57297,4.82612 3.07875,9.77818 4.52149,14.83594 2.88548,10.11551 5.52236,20.6483 7.95312,31.41406 2.43077,10.76576 4.65448,21.76485 6.71875,32.8125 2.06428,11.04765 3.96789,22.14428 5.75391,33.10547 0.4782,2.93483 0.8893,5.73459 1.35156,8.64648 A 150,150 0 0 0 300,150 150,150 0 0 0 150,0 Z"
       id="path1433" /></g></svg>
