<?xml version="1.0" encoding="UTF-8" standalone="no"?>
<!-- Created with Inkscape (http://www.inkscape.org/) -->

<svg
   width="255.99998"
   height="255.99998"
   viewBox="0 0 67.733328 67.733329"
   version="1.1"
   id="svg1"
   xml:space="preserve"
   inkscape:export-filename="ui-liteap-1.svg"
   inkscape:export-xdpi="96"
   inkscape:export-ydpi="96"
   xmlns:inkscape="http://www.inkscape.org/namespaces/inkscape"
   xmlns:sodipodi="http://sodipodi.sourceforge.net/DTD/sodipodi-0.dtd"
   xmlns="http://www.w3.org/2000/svg"
   xmlns:svg="http://www.w3.org/2000/svg"><sodipodi:namedview
     id="namedview1"
     pagecolor="#ffffff"
     bordercolor="#000000"
     borderopacity="0.25"
     inkscape:showpageshadow="2"
     inkscape:pageopacity="0.0"
     inkscape:pagecheckerboard="0"
     inkscape:deskcolor="#d1d1d1"
     inkscape:document-units="mm"
     inkscape:zoom="1.4378367"
     inkscape:cx="177.34976"
     inkscape:cy="206.90806"
     inkscape:window-width="1920"
     inkscape:window-height="1009"
     inkscape:window-x="1912"
     inkscape:window-y="-8"
     inkscape:window-maximized="1"
     inkscape:current-layer="layer1"
     showguides="true"><inkscape:page
       x="0"
       y="0"
       width="67.73333"
       height="67.73333"
       id="page2"
       margin="0"
       bleed="0" /></sodipodi:namedview><defs
     id="defs1"><style
       id="style1">
      .uuid-153302a6-b94e-4ad0-9cfb-43725c5c5610 {
        fill: url(#uuid-af07a271-8980-47e6-b92b-41550c7dc68a);
      }

      .uuid-27fce091-ee3a-4889-9199-28416b94f462 {
        fill: url(#uuid-dc53e15d-e646-4f9b-aab3-d9d8fec05b0e);
      }

      .uuid-5da2c4a3-8db1-41d9-92d6-1ab0c264b0da {
        fill: none;
      }

      .uuid-ed4306aa-b6e6-45eb-bfe3-e4f85f33ea76 {
        fill: url(#uuid-afdc0b81-5c65-49b4-9e34-1cf3c2f4f8f7);
      }

      .uuid-03bde706-b35e-416f-8ae5-693e38f68253 {
        fill: url(#uuid-8e0b3ff5-2b0d-4ede-9e3a-d9af7f50b81e);
      }

      .uuid-aed79b63-67fc-4862-91f2-2516d39da3fa {
        fill: url(#uuid-5be9ed93-6987-4def-8687-537049e4e1cf);
      }

      .uuid-7fb198ab-10f1-4f2d-9a38-66668a795b4d {
        fill: url(#uuid-ebe94990-143f-470c-b744-73e231e6133d);
      }
    </style></defs><g
     inkscape:label="Capa 1"
     inkscape:groupmode="layer"
     id="layer1"><g
       id="g15"><path
         style="fill:#dadada;fill-opacity:1"
         d="m 34.845399,63.066878 c -0.0072,-0.0072 -0.08003,-0.02317 -0.161901,-0.03554 l -0.148848,-0.02249 0.130603,0.0021 c 0.07183,0.0012 0.156988,0.01676 0.189235,0.03465 0.03225,0.01789 0.04633,0.03293 0.0313,0.03342 -0.01503,4.92e-4 -0.03321,-0.005 -0.04039,-0.01216 z m -2.208926,-0.02966 c 0.02455,-0.0064 0.05861,-0.006 0.07569,9.35e-4 0.01708,0.0069 -0.003,0.01215 -0.04463,0.01163 -0.04163,-5.14e-4 -0.05561,-0.0062 -0.03106,-0.01257 z m 0.195062,-0.0077 c -0.02274,-0.0147 -0.02585,-0.02461 -0.0078,-0.02484 0.01653,-2.13e-4 0.03707,0.01097 0.04564,0.02484 0.01936,0.03133 0.01063,0.03133 -0.03785,0 z m 0.61186,0.0065 c 0.107548,-0.0047 0.283537,-0.0047 0.391085,0 0.107549,0.0047 0.01956,0.0086 -0.195542,0.0086 -0.215097,0 -0.303092,-0.0039 -0.195543,-0.0086 z m -0.548603,-0.03142 c -0.0088,-0.0143 0.0013,-0.01853 0.02374,-0.0099 0.04371,0.01677 0.05171,0.03486 0.01542,0.03486 -0.01306,0 -0.03068,-0.01122 -0.03916,-0.02494 z m 2.239582,0.0075 c 0.02455,-0.0064 0.05861,-0.006 0.07569,9.35e-4 0.01708,0.0069 -0.003,0.01215 -0.04463,0.01163 -0.04163,-5.15e-4 -0.05561,-0.0062 -0.03106,-0.01257 z m -2.416201,-0.03269 c -0.0088,-0.0143 0.0013,-0.01853 0.02374,-0.0099 0.04371,0.01677 0.05171,0.03486 0.01542,0.03486 -0.01306,0 -0.03068,-0.01122 -0.03916,-0.02494 z m -0.863871,-0.01777 c 0.02455,-0.0064 0.05861,-0.006 0.07569,9.35e-4 0.01708,0.0069 -0.003,0.01215 -0.04463,0.01163 -0.04163,-5.14e-4 -0.05561,-0.0062 -0.03106,-0.01257 z m 3.897759,-0.02446 c 0.01735,-0.007 0.04573,-0.007 0.06308,0 0.01735,0.007 0.0032,0.01273 -0.03154,0.01273 -0.03469,0 -0.04889,-0.0057 -0.03154,-0.01273 z m -3.298996,-0.03524 c 0,-0.0147 0.01135,-0.0197 0.02523,-0.01113 0.01388,0.0086 0.02523,0.0206 0.02523,0.02672 0,0.0061 -0.01135,0.01113 -0.02523,0.01113 -0.01388,0 -0.02523,-0.01202 -0.02523,-0.02672 z m 3.450384,0.01001 c 0.01735,-0.007 0.04573,-0.007 0.06308,0 0.01735,0.007 0.0032,0.01273 -0.03154,0.01273 -0.03469,0 -0.04889,-0.0057 -0.03154,-0.01273 z m -3.70615,-0.03108 c 0.02904,-0.0184 0.02904,-0.02419 0,-0.03723 -0.01892,-0.0085 -0.006,-0.0086 0.02868,-2.19e-4 0.104805,0.02529 0.118779,0.06004 0.02397,0.05962 -0.0587,-2.61e-4 -0.07585,-0.0075 -0.05265,-0.02218 z m 3.859115,0.0053 c 0.01821,-0.0073 0.03998,-0.0064 0.04836,0.002 0.0084,0.0084 -0.0065,0.01435 -0.03312,0.01325 -0.02939,-0.0012 -0.03537,-0.0072 -0.01524,-0.01524 z m -3.582848,-0.05046 c 0.01821,-0.0073 0.03998,-0.0064 0.04836,0.002 0.0084,0.0084 -0.0065,0.01435 -0.03312,0.01325 -0.02939,-0.0012 -0.03537,-0.0072 -0.01524,-0.01524 z m 4.01178,-0.100925 c 0.01821,-0.0073 0.03998,-0.0064 0.04836,0.002 0.0084,0.0084 -0.0065,0.01435 -0.03312,0.01325 -0.02939,-0.0012 -0.03537,-0.0072 -0.01524,-0.01524 z m 0.204559,-0.06022 c 0.07521,-0.0267 0.141114,-0.04417 0.146448,-0.03884 0.01177,0.01177 -0.218049,0.09182 -0.256153,0.08922 -0.01487,-0.001 0.03449,-0.02369 0.109705,-0.05038 z m -5.902107,0.0018 c -0.02082,-0.01345 -0.02649,-0.02446 -0.01262,-0.02446 0.01388,0 0.04226,0.01101 0.06308,0.02446 0.02082,0.01345 0.02649,0.02446 0.01262,0.02446 -0.01388,0 -0.04226,-0.01101 -0.06308,-0.02446 z m 6.112288,-0.07504 c 0.02428,-0.01561 0.04415,-0.04986 0.04415,-0.07611 0,-0.02625 0.0085,-0.05298 0.01892,-0.05942 0.01041,-0.0064 0.01892,0.02128 0.01892,0.06159 0,0.04031 -0.0076,0.07328 -0.01686,0.07328 -0.0093,0 -0.03766,0.0065 -0.06308,0.01452 -0.04316,0.01356 -0.0433,0.01264 -0.0021,-0.01387 z m -6.351985,-0.07394 c 0,-0.04031 0.0085,-0.06802 0.01892,-0.06159 0.01041,0.0064 0.01892,0.03941 0.01892,0.07329 0,0.03387 -0.0085,0.06159 -0.01892,0.06159 -0.01041,0 -0.01892,-0.03298 -0.01892,-0.07328 z m 6.475818,-0.0024 c 0,-0.03469 0.0057,-0.04889 0.01273,-0.03154 0.007,0.01735 0.007,0.04573 0,0.06308 -0.007,0.01735 -0.01273,0.0032 -0.01273,-0.03154 z m -6.536905,-0.01472 c 0.0012,-0.02939 0.0072,-0.03537 0.01524,-0.01524 0.0073,0.01821 0.0064,0.03998 -0.002,0.04836 -0.0084,0.0084 -0.01435,-0.0065 -0.01325,-0.03312 z m -0.07769,-0.06098 c 0,-0.01388 0.01135,-0.02523 0.02523,-0.02523 0.01388,0 0.02523,0.01135 0.02523,0.02523 0,0.01388 -0.01135,0.02523 -0.02523,0.02523 -0.01388,0 -0.02523,-0.01135 -0.02523,-0.02523 z m 6.66107,-0.0015 c 0,-0.0147 0.01135,-0.0197 0.02523,-0.01113 0.01388,0.0086 0.02523,0.0206 0.02523,0.02672 0,0.0061 -0.01135,0.01113 -0.02523,0.01113 -0.01388,0 -0.02523,-0.01202 -0.02523,-0.02672 z m 0.100925,-0.02523 c 0,-0.0147 0.01135,-0.0197 0.02523,-0.01113 0.01388,0.0086 0.02523,0.0206 0.02523,0.02672 0,0.0061 -0.01136,0.01113 -0.02523,0.01113 -0.01388,0 -0.02523,-0.01202 -0.02523,-0.02672 z m -6.938614,-0.02374 c 0,-0.01388 0.01135,-0.02523 0.02523,-0.02523 0.01388,0 0.02523,0.01135 0.02523,0.02523 0,0.01388 -0.01135,0.02523 -0.02523,0.02523 -0.01388,0 -0.02523,-0.01135 -0.02523,-0.02523 z m 7.014308,0 c 0,-0.01388 0.01135,-0.02523 0.02523,-0.02523 0.01388,0 0.02523,0.01135 0.02523,0.02523 0,0.01388 -0.01136,0.02523 -0.02523,0.02523 -0.01388,0 -0.02523,-0.01135 -0.02523,-0.02523 z m -7.115233,-0.02523 c 0,-0.01388 0.01135,-0.02523 0.02523,-0.02523 0.01388,0 0.02523,0.01135 0.02523,0.02523 0,0.01388 -0.01135,0.02523 -0.02523,0.02523 -0.01388,0 -0.02523,-0.01135 -0.02523,-0.02523 z m 7.211112,-0.005 c 0.02355,-0.02355 0.03701,-0.02355 0.06055,0 0.02355,0.02355 0.01682,0.03028 -0.03028,0.03028 -0.0471,0 -0.05383,-0.0067 -0.03028,-0.03028 z M 38.86381,48.708765 c 0.0012,-0.02939 0.0072,-0.03537 0.01524,-0.01524 0.0073,0.01821 0.0064,0.03998 -0.002,0.04836 -0.0084,0.0084 -0.01435,-0.0065 -0.01325,-0.03312 z m 0.002,-0.313289 c 0,-0.03469 0.0057,-0.04889 0.01273,-0.03154 0.007,0.01735 0.007,0.04573 0,0.06308 -0.007,0.01735 -0.01273,0.0032 -0.01273,-0.03154 z m 0.0024,-0.744324 c 2.81e-4,-0.05551 0.0054,-0.07525 0.01148,-0.04386 0.006,0.03139 0.0058,0.0768 -5.09e-4,0.100926 -0.0063,0.02412 -0.01125,-0.0016 -0.01097,-0.05707 z m -0.0044,-0.178722 c 0.0012,-0.02939 0.0072,-0.03537 0.01524,-0.01524 0.0073,0.01821 0.0064,0.03998 -0.002,0.04836 -0.0084,0.0084 -0.01435,-0.0065 -0.01325,-0.03312 z m 0,-0.353238 c 0.0012,-0.02939 0.0072,-0.03537 0.01524,-0.01524 0.0073,0.01821 0.0064,0.03998 -0.002,0.04836 -0.0084,0.0084 -0.01435,-0.0065 -0.01325,-0.03312 z m 0.0029,-0.124054 c 5.15e-4,-0.04163 0.0062,-0.05561 0.01257,-0.03106 0.0064,0.02455 0.006,0.05861 -9.35e-4,0.07569 -0.0069,0.01708 -0.01215,-0.003 -0.01163,-0.04463 z m 9.35e-4,-0.592937 c 0,-0.04857 0.0052,-0.06844 0.01154,-0.04415 0.0063,0.02428 0.0063,0.06402 0,0.08831 -0.0063,0.02428 -0.01154,0.0044 -0.01154,-0.04415 z m -0.0039,-0.166106 c 0.0012,-0.02939 0.0072,-0.03537 0.01524,-0.01524 0.0073,0.01821 0.0064,0.03998 -0.002,0.04836 -0.0084,0.0084 -0.01435,-0.0065 -0.01325,-0.03312 z m 0.0056,-0.212363 c 0,-0.07632 0.0047,-0.107549 0.01051,-0.06939 0.0058,0.03816 0.0058,0.10061 0,0.138773 -0.0058,0.03816 -0.01051,0.0069 -0.01051,-0.06939 z m 2.58e-4,-0.290161 c 1.42e-4,-0.08326 0.0049,-0.114283 0.01047,-0.06893 0.0056,0.04535 0.0055,0.113474 -2.58e-4,0.151388 -0.0058,0.03791 -0.01035,8.1e-4 -0.01021,-0.08245 z m 8.31e-4,-0.353238 c 9.2e-5,-0.111018 0.0045,-0.153296 0.0099,-0.09395 0.0053,0.05935 0.0053,0.150178 -1.67e-4,0.201851 -0.0054,0.05167 -0.0098,0.0031 -0.0097,-0.1079 z m -1.66e-4,-0.391086 c 0,-0.104079 0.0045,-0.146657 0.0099,-0.09462 0.0054,0.05204 0.0054,0.137195 0,0.189235 -0.0054,0.05204 -0.0099,0.0095 -0.0099,-0.09462 z m -6.65e-4,-0.340622 c 1.42e-4,-0.08326 0.0049,-0.114284 0.01047,-0.06893 0.0056,0.04535 0.0055,0.113474 -2.58e-4,0.151388 -0.0058,0.03791 -0.01035,8.1e-4 -0.01021,-0.08245 z m -0.0029,-0.302776 c 5.15e-4,-0.04163 0.0062,-0.05561 0.01257,-0.03106 0.0064,0.02455 0.006,0.05861 -9.35e-4,0.07569 -0.0069,0.01708 -0.01215,-0.003 -0.01163,-0.04463 z m 0.0039,-0.290161 c 0,-0.117956 0.0043,-0.166211 0.0097,-0.107233 0.0053,0.05898 0.0053,0.155488 0,0.214467 -0.0053,0.05898 -0.0097,0.01072 -0.0097,-0.107234 z m -0.0068,-0.267031 c 0.0012,-0.02939 0.0072,-0.03537 0.01524,-0.01524 0.0073,0.01821 0.0064,0.03998 -0.002,0.04836 -0.0084,0.0084 -0.01435,-0.0065 -0.01325,-0.03312 z m 0.0044,-0.149285 c 2.81e-4,-0.05551 0.0054,-0.07525 0.01148,-0.04386 0.006,0.03139 0.0058,0.0768 -5.09e-4,0.100925 -0.0063,0.02412 -0.01125,-0.0016 -0.01097,-0.05706 z m 0.0044,-0.643399 c 0,-0.298361 0.0036,-0.420417 0.0081,-0.271237 0.0045,0.14918 0.0045,0.393293 0,0.542474 -0.0045,0.14918 -0.0081,0.02712 -0.0081,-0.271237 z m -0.0016,-0.782171 c 0,-0.131834 0.0043,-0.185766 0.0095,-0.119849 0.0052,0.06592 0.0052,0.173781 0,0.239698 -0.0052,0.06592 -0.0095,0.01198 -0.0095,-0.119849 z m 0.0034,-17.901624 c 0,-9.714059 0.0029,-13.68422 0.0064,-8.82258 0.0035,4.861641 0.0035,12.809508 0,17.661927 -0.0035,4.852418 -0.0064,0.874712 -0.0064,-8.839347 z M 38.841509,6.5491504 c 5.14e-4,-0.041632 0.0062,-0.055608 0.01257,-0.031059 0.0064,0.024549 0.006,0.058612 -9.35e-4,0.075694 -0.0069,0.017082 -0.01215,-0.003 -0.01163,-0.044635 z m -0.02816,-0.1282592 c 0.0012,-0.029393 0.0072,-0.035372 0.01524,-0.015244 0.0073,0.018214 0.0064,0.039976 -0.002,0.04836 -0.0084,0.00838 -0.01435,-0.00652 -0.01325,-0.033116 z"
         id="path19" /><path
         style="fill:#cecece;fill-opacity:1"
         d="m 33.003424,63.062694 c 0.01821,-0.0073 0.03998,-0.0064 0.04836,0.002 0.0084,0.0084 -0.0065,0.01435 -0.03312,0.01325 -0.02939,-0.0012 -0.03537,-0.0072 -0.01524,-0.01524 z m 0.907596,-0.0014 c 0.07332,-0.0051 0.186862,-0.0051 0.252313,1.2e-4 0.06545,0.0052 0.0055,0.0094 -0.13331,0.0093 -0.138772,-6.6e-5 -0.192323,-0.0043 -0.119003,-0.0094 z m 0.537423,0.0095 c 0.0058,-0.005 0.135408,-0.01483 0.288057,-0.02179 0.173063,-0.0079 0.239551,-0.005 0.176619,0.0077 -0.09973,0.0201 -0.485012,0.03179 -0.464676,0.0141 z m -1.681556,-0.05597 c 0.02193,-0.02193 0.03235,-0.05207 0.02314,-0.06698 -0.01026,-0.0166 -0.0048,-0.01971 0.0141,-0.008 0.01697,0.01049 0.02476,0.03495 0.01731,0.05436 -0.0074,0.01941 -0.0025,0.03529 0.01089,0.03529 0.01344,0 0.02444,-0.01202 0.02444,-0.02672 0,-0.0147 0.01257,-0.01895 0.02793,-0.0095 0.03791,0.02343 -0.02232,0.06052 -0.09911,0.06103 -0.05339,3.53e-4 -0.05504,-0.0031 -0.01869,-0.03949 z m -0.458902,-0.0027 c 0.02429,-0.0063 0.06403,-0.0063 0.08831,0 0.02428,0.0063 0.0044,0.01154 -0.04416,0.01154 -0.04857,0 -0.06844,-0.0052 -0.04415,-0.01154 z m -0.264929,-0.02759 c -0.1238,-0.01116 -0.120895,-0.04707 0.0055,-0.06843 0.136473,-0.02306 0.55409,-0.0056 0.536932,0.02247 -0.0078,0.0127 0.01823,0.01531 0.05932,0.006 0.04724,-0.01075 0.05974,-0.0087 0.0353,0.0057 -0.04112,0.02425 -0.484076,0.04811 -0.637091,0.03432 z m 0.132465,-0.132487 c 0.08115,-0.0249 0.291542,-0.02997 0.268036,-0.0065 -0.0099,0.0099 -0.08839,0.01969 -0.174516,0.02187 -0.105639,0.0027 -0.136072,-0.0023 -0.09352,-0.0154 z m 4.940608,-0.420087 c 0.01821,-0.0073 0.03998,-0.0064 0.04836,0.002 0.0084,0.0084 -0.0065,0.01435 -0.03312,0.01325 -0.02939,-0.0012 -0.03537,-0.0072 -0.01524,-0.01524 z m -7.066347,-0.07517 c 0.01735,-0.007 0.04573,-0.007 0.06308,0 0.01735,0.007 0.0032,0.01273 -0.03154,0.01273 -0.03469,0 -0.04889,-0.0057 -0.03154,-0.01273 z m 7.367546,0 c 0.01735,-0.007 0.04573,-0.007 0.06308,0 0.01735,0.007 0.0032,0.01273 -0.03154,0.01273 -0.03469,0 -0.04888,-0.0057 -0.03154,-0.01273 z"
         id="path18" /><path
         style="fill:#c2c2c2;fill-opacity:1"
         d="m 33.418511,63.087056 c 0.03835,-0.0058 0.09512,-0.0056 0.126156,3.44e-4 0.03103,0.006 -3.47e-4,0.01073 -0.06973,0.01055 -0.06939,-1.89e-4 -0.09478,-0.0051 -0.05642,-0.01089 z m -0.34097,-0.02384 c 0.01735,-0.007 0.04573,-0.007 0.06308,0 0.01735,0.007 0.0032,0.01273 -0.03154,0.01273 -0.03469,0 -0.04889,-0.0057 -0.03154,-0.01273 z m 0.592936,-6.82e-4 c 0.02428,-0.0063 0.06402,-0.0063 0.08831,0 0.02429,0.0063 0.0044,0.01154 -0.04415,0.01154 -0.04857,0 -0.06844,-0.0052 -0.04416,-0.01154 z m 0.643693,-4.53e-4 c 0.03139,-0.006 0.0768,-0.0058 0.100925,5.09e-4 0.02412,0.0063 -0.0016,0.01125 -0.05707,0.01097 -0.05551,-2.8e-4 -0.07525,-0.0054 -0.04386,-0.01148 z m -1.974645,-0.05955 c -0.07173,-0.01163 -0.03523,-0.01689 0.126156,-0.01817 0.124895,-9.94e-4 0.24979,0.0082 0.277545,0.02044 0.05861,0.02584 -0.240726,0.02416 -0.403701,-0.0023 z m 0.409517,-0.03874 c -0.0084,-0.0084 -0.09258,-0.03607 -0.187133,-0.06156 -0.09456,-0.02549 -0.142759,-0.04703 -0.107115,-0.04787 0.08283,-0.0019 0.319372,0.06782 0.3393,0.100063 0.01646,0.02663 -0.02018,0.03424 -0.04505,0.0094 z"
         id="path17" /><path
         style="fill:#b6b6b6;fill-opacity:1"
         d="m 33.280237,63.061299 c 0.07332,-0.0051 0.186862,-0.0051 0.252313,1.2e-4 0.06545,0.0052 0.0055,0.0094 -0.13331,0.0093 -0.138772,-6.6e-5 -0.192324,-0.0043 -0.119003,-0.0094 z M 30.51064,62.493302 c 3.12e-4,-0.04591 0.0051,-0.04953 0.02485,-0.01892 0.03161,0.04892 0.03161,0.07569 0,0.07569 -0.01388,0 -0.02506,-0.02555 -0.02485,-0.05677 z m 6.459219,0.03785 c 2.12e-4,-0.01041 0.01139,-0.03596 0.02484,-0.05677 0.01978,-0.0306 0.02453,-0.02698 0.02484,0.01892 2.12e-4,0.03122 -0.01097,0.05677 -0.02484,0.05677 -0.01388,0 -0.02506,-0.0085 -0.02484,-0.01892 z"
         id="path16" /></g><g
       id="g12"><path
         style="fill:#dadada;fill-opacity:1"
         d="m 34.845399,63.066878 c -0.0072,-0.0072 -0.08003,-0.02317 -0.161901,-0.03554 l -0.148848,-0.02249 0.130603,0.0021 c 0.07183,0.0012 0.156988,0.01676 0.189235,0.03465 0.03225,0.01789 0.04633,0.03293 0.0313,0.03342 -0.01503,4.92e-4 -0.03321,-0.005 -0.04039,-0.01216 z m -2.208926,-0.02966 c 0.02455,-0.0064 0.05861,-0.006 0.07569,9.35e-4 0.01708,0.0069 -0.003,0.01215 -0.04463,0.01163 -0.04163,-5.14e-4 -0.05561,-0.0062 -0.03106,-0.01257 z m 0.195062,-0.0077 c -0.02274,-0.0147 -0.02585,-0.02461 -0.0078,-0.02484 0.01653,-2.13e-4 0.03707,0.01097 0.04564,0.02484 0.01936,0.03133 0.01063,0.03133 -0.03785,0 z m 0.61186,0.0065 c 0.107548,-0.0047 0.283537,-0.0047 0.391085,0 0.107549,0.0047 0.01956,0.0086 -0.195542,0.0086 -0.215097,0 -0.303092,-0.0039 -0.195543,-0.0086 z m -0.548603,-0.03142 c -0.0088,-0.0143 0.0013,-0.01853 0.02374,-0.0099 0.04371,0.01677 0.05171,0.03486 0.01542,0.03486 -0.01306,0 -0.03068,-0.01122 -0.03916,-0.02494 z m 2.239582,0.0075 c 0.02455,-0.0064 0.05861,-0.006 0.07569,9.35e-4 0.01708,0.0069 -0.003,0.01215 -0.04463,0.01163 -0.04163,-5.15e-4 -0.05561,-0.0062 -0.03106,-0.01257 z m -2.416201,-0.03269 c -0.0088,-0.0143 0.0013,-0.01853 0.02374,-0.0099 0.04371,0.01677 0.05171,0.03486 0.01542,0.03486 -0.01306,0 -0.03068,-0.01122 -0.03916,-0.02494 z m -0.863871,-0.01777 c 0.02455,-0.0064 0.05861,-0.006 0.07569,9.35e-4 0.01708,0.0069 -0.003,0.01215 -0.04463,0.01163 -0.04163,-5.14e-4 -0.05561,-0.0062 -0.03106,-0.01257 z m 3.897759,-0.02446 c 0.01735,-0.007 0.04573,-0.007 0.06308,0 0.01735,0.007 0.0032,0.01273 -0.03154,0.01273 -0.03469,0 -0.04889,-0.0057 -0.03154,-0.01273 z m -3.298996,-0.03524 c 0,-0.0147 0.01135,-0.0197 0.02523,-0.01113 0.01388,0.0086 0.02523,0.0206 0.02523,0.02672 0,0.0061 -0.01135,0.01113 -0.02523,0.01113 -0.01388,0 -0.02523,-0.01202 -0.02523,-0.02672 z m 3.450384,0.01001 c 0.01735,-0.007 0.04573,-0.007 0.06308,0 0.01735,0.007 0.0032,0.01273 -0.03154,0.01273 -0.03469,0 -0.04889,-0.0057 -0.03154,-0.01273 z m -3.70615,-0.03108 c 0.02904,-0.0184 0.02904,-0.02419 0,-0.03723 -0.01892,-0.0085 -0.006,-0.0086 0.02868,-2.19e-4 0.104805,0.02529 0.118779,0.06004 0.02397,0.05962 -0.0587,-2.61e-4 -0.07585,-0.0075 -0.05265,-0.02218 z m 3.859115,0.0053 c 0.01821,-0.0073 0.03998,-0.0064 0.04836,0.002 0.0084,0.0084 -0.0065,0.01435 -0.03312,0.01325 -0.02939,-0.0012 -0.03537,-0.0072 -0.01524,-0.01524 z m -3.582848,-0.05046 c 0.01821,-0.0073 0.03998,-0.0064 0.04836,0.002 0.0084,0.0084 -0.0065,0.01435 -0.03312,0.01325 -0.02939,-0.0012 -0.03537,-0.0072 -0.01524,-0.01524 z m 4.01178,-0.100925 c 0.01821,-0.0073 0.03998,-0.0064 0.04836,0.002 0.0084,0.0084 -0.0065,0.01435 -0.03312,0.01325 -0.02939,-0.0012 -0.03537,-0.0072 -0.01524,-0.01524 z m 0.204559,-0.06022 c 0.07521,-0.0267 0.141114,-0.04417 0.146448,-0.03884 0.01177,0.01177 -0.218049,0.09182 -0.256153,0.08922 -0.01487,-0.001 0.03449,-0.02369 0.109705,-0.05038 z m -5.902107,0.0018 c -0.02082,-0.01345 -0.02649,-0.02446 -0.01262,-0.02446 0.01388,0 0.04226,0.01101 0.06308,0.02446 0.02082,0.01345 0.02649,0.02446 0.01262,0.02446 -0.01388,0 -0.04226,-0.01101 -0.06308,-0.02446 z m 6.112288,-0.07504 c 0.02428,-0.01561 0.04415,-0.04986 0.04415,-0.07611 0,-0.02625 0.0085,-0.05298 0.01892,-0.05942 0.01041,-0.0064 0.01892,0.02128 0.01892,0.06159 0,0.04031 -0.0076,0.07328 -0.01686,0.07328 -0.0093,0 -0.03766,0.0065 -0.06308,0.01452 -0.04316,0.01356 -0.0433,0.01264 -0.0021,-0.01387 z m -6.351985,-0.07394 c 0,-0.04031 0.0085,-0.06802 0.01892,-0.06159 0.01041,0.0064 0.01892,0.03941 0.01892,0.07329 0,0.03387 -0.0085,0.06159 -0.01892,0.06159 -0.01041,0 -0.01892,-0.03298 -0.01892,-0.07328 z m 6.475818,-0.0024 c 0,-0.03469 0.0057,-0.04889 0.01273,-0.03154 0.007,0.01735 0.007,0.04573 0,0.06308 -0.007,0.01735 -0.01273,0.0032 -0.01273,-0.03154 z m -6.536905,-0.01472 c 0.0012,-0.02939 0.0072,-0.03537 0.01524,-0.01524 0.0073,0.01821 0.0064,0.03998 -0.002,0.04836 -0.0084,0.0084 -0.01435,-0.0065 -0.01325,-0.03312 z m -0.07769,-0.06098 c 0,-0.01388 0.01135,-0.02523 0.02523,-0.02523 0.01388,0 0.02523,0.01135 0.02523,0.02523 0,0.01388 -0.01135,0.02523 -0.02523,0.02523 -0.01388,0 -0.02523,-0.01135 -0.02523,-0.02523 z m 6.66107,-0.0015 c 0,-0.0147 0.01135,-0.0197 0.02523,-0.01113 0.01388,0.0086 0.02523,0.0206 0.02523,0.02672 0,0.0061 -0.01135,0.01113 -0.02523,0.01113 -0.01388,0 -0.02523,-0.01202 -0.02523,-0.02672 z m 0.100925,-0.02523 c 0,-0.0147 0.01135,-0.0197 0.02523,-0.01113 0.01388,0.0086 0.02523,0.0206 0.02523,0.02672 0,0.0061 -0.01136,0.01113 -0.02523,0.01113 -0.01388,0 -0.02523,-0.01202 -0.02523,-0.02672 z m -6.938614,-0.02374 c 0,-0.01388 0.01135,-0.02523 0.02523,-0.02523 0.01388,0 0.02523,0.01135 0.02523,0.02523 0,0.01388 -0.01135,0.02523 -0.02523,0.02523 -0.01388,0 -0.02523,-0.01135 -0.02523,-0.02523 z m 7.014308,0 c 0,-0.01388 0.01135,-0.02523 0.02523,-0.02523 0.01388,0 0.02523,0.01135 0.02523,0.02523 0,0.01388 -0.01136,0.02523 -0.02523,0.02523 -0.01388,0 -0.02523,-0.01135 -0.02523,-0.02523 z m -7.115233,-0.02523 c 0,-0.01388 0.01135,-0.02523 0.02523,-0.02523 0.01388,0 0.02523,0.01135 0.02523,0.02523 0,0.01388 -0.01135,0.02523 -0.02523,0.02523 -0.01388,0 -0.02523,-0.01135 -0.02523,-0.02523 z m 7.211112,-0.005 c 0.02355,-0.02355 0.03701,-0.02355 0.06055,0 0.02355,0.02355 0.01682,0.03028 -0.03028,0.03028 -0.0471,0 -0.05383,-0.0067 -0.03028,-0.03028 z M 38.86381,48.708765 c 0.0012,-0.02939 0.0072,-0.03537 0.01524,-0.01524 0.0073,0.01821 0.0064,0.03998 -0.002,0.04836 -0.0084,0.0084 -0.01435,-0.0065 -0.01325,-0.03312 z m 0.002,-0.313289 c 0,-0.03469 0.0057,-0.04889 0.01273,-0.03154 0.007,0.01735 0.007,0.04573 0,0.06308 -0.007,0.01735 -0.01273,0.0032 -0.01273,-0.03154 z m 0.0024,-0.744324 c 2.81e-4,-0.05551 0.0054,-0.07525 0.01148,-0.04386 0.006,0.03139 0.0058,0.0768 -5.09e-4,0.100926 -0.0063,0.02412 -0.01125,-0.0016 -0.01097,-0.05707 z m -0.0044,-0.178722 c 0.0012,-0.02939 0.0072,-0.03537 0.01524,-0.01524 0.0073,0.01821 0.0064,0.03998 -0.002,0.04836 -0.0084,0.0084 -0.01435,-0.0065 -0.01325,-0.03312 z m 0,-0.353238 c 0.0012,-0.02939 0.0072,-0.03537 0.01524,-0.01524 0.0073,0.01821 0.0064,0.03998 -0.002,0.04836 -0.0084,0.0084 -0.01435,-0.0065 -0.01325,-0.03312 z m 0.0029,-0.124054 c 5.15e-4,-0.04163 0.0062,-0.05561 0.01257,-0.03106 0.0064,0.02455 0.006,0.05861 -9.35e-4,0.07569 -0.0069,0.01708 -0.01215,-0.003 -0.01163,-0.04463 z m 9.35e-4,-0.592937 c 0,-0.04857 0.0052,-0.06844 0.01154,-0.04415 0.0063,0.02428 0.0063,0.06402 0,0.08831 -0.0063,0.02428 -0.01154,0.0044 -0.01154,-0.04415 z m -0.0039,-0.166106 c 0.0012,-0.02939 0.0072,-0.03537 0.01524,-0.01524 0.0073,0.01821 0.0064,0.03998 -0.002,0.04836 -0.0084,0.0084 -0.01435,-0.0065 -0.01325,-0.03312 z m 0.0056,-0.212363 c 0,-0.07632 0.0047,-0.107549 0.01051,-0.06939 0.0058,0.03816 0.0058,0.10061 0,0.138773 -0.0058,0.03816 -0.01051,0.0069 -0.01051,-0.06939 z m 2.58e-4,-0.290161 c 1.42e-4,-0.08326 0.0049,-0.114283 0.01047,-0.06893 0.0056,0.04535 0.0055,0.113474 -2.58e-4,0.151388 -0.0058,0.03791 -0.01035,8.1e-4 -0.01021,-0.08245 z m 8.31e-4,-0.353238 c 9.2e-5,-0.111018 0.0045,-0.153296 0.0099,-0.09395 0.0053,0.05935 0.0053,0.150178 -1.67e-4,0.201851 -0.0054,0.05167 -0.0098,0.0031 -0.0097,-0.1079 z m -1.66e-4,-0.391086 c 0,-0.104079 0.0045,-0.146657 0.0099,-0.09462 0.0054,0.05204 0.0054,0.137195 0,0.189235 -0.0054,0.05204 -0.0099,0.0095 -0.0099,-0.09462 z m -6.65e-4,-0.340622 c 1.42e-4,-0.08326 0.0049,-0.114284 0.01047,-0.06893 0.0056,0.04535 0.0055,0.113474 -2.58e-4,0.151388 -0.0058,0.03791 -0.01035,8.1e-4 -0.01021,-0.08245 z m -0.0029,-0.302776 c 5.15e-4,-0.04163 0.0062,-0.05561 0.01257,-0.03106 0.0064,0.02455 0.006,0.05861 -9.35e-4,0.07569 -0.0069,0.01708 -0.01215,-0.003 -0.01163,-0.04463 z m 0.0039,-0.290161 c 0,-0.117956 0.0043,-0.166211 0.0097,-0.107233 0.0053,0.05898 0.0053,0.155488 0,0.214467 -0.0053,0.05898 -0.0097,0.01072 -0.0097,-0.107234 z m -0.0068,-0.267031 c 0.0012,-0.02939 0.0072,-0.03537 0.01524,-0.01524 0.0073,0.01821 0.0064,0.03998 -0.002,0.04836 -0.0084,0.0084 -0.01435,-0.0065 -0.01325,-0.03312 z m 0.0044,-0.149285 c 2.81e-4,-0.05551 0.0054,-0.07525 0.01148,-0.04386 0.006,0.03139 0.0058,0.0768 -5.09e-4,0.100925 -0.0063,0.02412 -0.01125,-0.0016 -0.01097,-0.05706 z m 0.0044,-0.643399 c 0,-0.298361 0.0036,-0.420417 0.0081,-0.271237 0.0045,0.14918 0.0045,0.393293 0,0.542474 -0.0045,0.14918 -0.0081,0.02712 -0.0081,-0.271237 z m -0.0016,-0.782171 c 0,-0.131834 0.0043,-0.185766 0.0095,-0.119849 0.0052,0.06592 0.0052,0.173781 0,0.239698 -0.0052,0.06592 -0.0095,0.01198 -0.0095,-0.119849 z m 0.0034,-17.901624 c 0,-9.714059 0.0029,-13.68422 0.0064,-8.82258 0.0035,4.861641 0.0035,12.809508 0,17.661927 -0.0035,4.852418 -0.0064,0.874712 -0.0064,-8.839347 z M 38.841509,6.5491504 c 5.14e-4,-0.041632 0.0062,-0.055608 0.01257,-0.031059 0.0064,0.024549 0.006,0.058612 -9.35e-4,0.075694 -0.0069,0.017082 -0.01215,-0.003 -0.01163,-0.044635 z m -0.02816,-0.1282592 c 0.0012,-0.029393 0.0072,-0.035372 0.01524,-0.015244 0.0073,0.018214 0.0064,0.039976 -0.002,0.04836 -0.0084,0.00838 -0.01435,-0.00652 -0.01325,-0.033116 z"
         id="path15" /><path
         style="fill:#cecece;fill-opacity:1"
         d="m 33.003424,63.062694 c 0.01821,-0.0073 0.03998,-0.0064 0.04836,0.002 0.0084,0.0084 -0.0065,0.01435 -0.03312,0.01325 -0.02939,-0.0012 -0.03537,-0.0072 -0.01524,-0.01524 z m 0.907596,-0.0014 c 0.07332,-0.0051 0.186862,-0.0051 0.252313,1.2e-4 0.06545,0.0052 0.0055,0.0094 -0.13331,0.0093 -0.138772,-6.6e-5 -0.192323,-0.0043 -0.119003,-0.0094 z m 0.537423,0.0095 c 0.0058,-0.005 0.135408,-0.01483 0.288057,-0.02179 0.173063,-0.0079 0.239551,-0.005 0.176619,0.0077 -0.09973,0.0201 -0.485012,0.03179 -0.464676,0.0141 z m -1.681556,-0.05597 c 0.02193,-0.02193 0.03235,-0.05207 0.02314,-0.06698 -0.01026,-0.0166 -0.0048,-0.01971 0.0141,-0.008 0.01697,0.01049 0.02476,0.03495 0.01731,0.05436 -0.0074,0.01941 -0.0025,0.03529 0.01089,0.03529 0.01344,0 0.02444,-0.01202 0.02444,-0.02672 0,-0.0147 0.01257,-0.01895 0.02793,-0.0095 0.03791,0.02343 -0.02232,0.06052 -0.09911,0.06103 -0.05339,3.53e-4 -0.05504,-0.0031 -0.01869,-0.03949 z m -0.458902,-0.0027 c 0.02429,-0.0063 0.06403,-0.0063 0.08831,0 0.02428,0.0063 0.0044,0.01154 -0.04416,0.01154 -0.04857,0 -0.06844,-0.0052 -0.04415,-0.01154 z m -0.264929,-0.02759 c -0.1238,-0.01116 -0.120895,-0.04707 0.0055,-0.06843 0.136473,-0.02306 0.55409,-0.0056 0.536932,0.02247 -0.0078,0.0127 0.01823,0.01531 0.05932,0.006 0.04724,-0.01075 0.05974,-0.0087 0.0353,0.0057 -0.04112,0.02425 -0.484076,0.04811 -0.637091,0.03432 z m 0.132465,-0.132487 c 0.08115,-0.0249 0.291542,-0.02997 0.268036,-0.0065 -0.0099,0.0099 -0.08839,0.01969 -0.174516,0.02187 -0.105639,0.0027 -0.136072,-0.0023 -0.09352,-0.0154 z m 4.940608,-0.420087 c 0.01821,-0.0073 0.03998,-0.0064 0.04836,0.002 0.0084,0.0084 -0.0065,0.01435 -0.03312,0.01325 -0.02939,-0.0012 -0.03537,-0.0072 -0.01524,-0.01524 z m -7.066347,-0.07517 c 0.01735,-0.007 0.04573,-0.007 0.06308,0 0.01735,0.007 0.0032,0.01273 -0.03154,0.01273 -0.03469,0 -0.04889,-0.0057 -0.03154,-0.01273 z m 7.367546,0 c 0.01735,-0.007 0.04573,-0.007 0.06308,0 0.01735,0.007 0.0032,0.01273 -0.03154,0.01273 -0.03469,0 -0.04888,-0.0057 -0.03154,-0.01273 z"
         id="path14" /><path
         style="fill:#c2c2c2;fill-opacity:1"
         d="m 33.418511,63.087056 c 0.03835,-0.0058 0.09512,-0.0056 0.126156,3.44e-4 0.03103,0.006 -3.47e-4,0.01073 -0.06973,0.01055 -0.06939,-1.89e-4 -0.09478,-0.0051 -0.05642,-0.01089 z m -0.34097,-0.02384 c 0.01735,-0.007 0.04573,-0.007 0.06308,0 0.01735,0.007 0.0032,0.01273 -0.03154,0.01273 -0.03469,0 -0.04889,-0.0057 -0.03154,-0.01273 z m 0.592936,-6.82e-4 c 0.02428,-0.0063 0.06402,-0.0063 0.08831,0 0.02429,0.0063 0.0044,0.01154 -0.04415,0.01154 -0.04857,0 -0.06844,-0.0052 -0.04416,-0.01154 z m 0.643693,-4.53e-4 c 0.03139,-0.006 0.0768,-0.0058 0.100925,5.09e-4 0.02412,0.0063 -0.0016,0.01125 -0.05707,0.01097 -0.05551,-2.8e-4 -0.07525,-0.0054 -0.04386,-0.01148 z m -1.974645,-0.05955 c -0.07173,-0.01163 -0.03523,-0.01689 0.126156,-0.01817 0.124895,-9.94e-4 0.24979,0.0082 0.277545,0.02044 0.05861,0.02584 -0.240726,0.02416 -0.403701,-0.0023 z m 0.409517,-0.03874 c -0.0084,-0.0084 -0.09258,-0.03607 -0.187133,-0.06156 -0.09456,-0.02549 -0.142759,-0.04703 -0.107115,-0.04787 0.08283,-0.0019 0.319372,0.06782 0.3393,0.100063 0.01646,0.02663 -0.02018,0.03424 -0.04505,0.0094 z"
         id="path13" /><path
         style="fill:#b6b6b6;fill-opacity:1"
         d="m 33.280237,63.061299 c 0.07332,-0.0051 0.186862,-0.0051 0.252313,1.2e-4 0.06545,0.0052 0.0055,0.0094 -0.13331,0.0093 -0.138772,-6.6e-5 -0.192324,-0.0043 -0.119003,-0.0094 z M 30.51064,62.493302 c 3.12e-4,-0.04591 0.0051,-0.04953 0.02485,-0.01892 0.03161,0.04892 0.03161,0.07569 0,0.07569 -0.01388,0 -0.02506,-0.02555 -0.02485,-0.05677 z m 6.459219,0.03785 c 2.12e-4,-0.01041 0.01139,-0.03596 0.02484,-0.05677 0.01978,-0.0306 0.02453,-0.02698 0.02484,0.01892 2.12e-4,0.03122 -0.01097,0.05677 -0.02484,0.05677 -0.01388,0 -0.02506,-0.0085 -0.02484,-0.01892 z"
         id="path12" /></g><path
       style="fill:#dadada;fill-opacity:1"
       d="m 31.840121,63.962168 c 0.14473,-0.0584 0.381559,-0.0584 0.526289,0 0.144729,0.0584 0.02631,0.106181 -0.263144,0.106181 -0.289459,0 -0.407874,-0.04778 -0.263145,-0.106181 z"
       id="path20" /><g
       id="g1898"
       transform="matrix(0.4912387,0,0,0.4912387,128.14921,-459.97034)"><g
         id="g1882"
         transform="matrix(1.5932425,0,0,1.5932425,113.6466,-570.59656)"><path
           inkscape:connector-curvature="0"
           id="path1290"
           style="fill:#e57000;fill-opacity:1;fill-rule:nonzero;stroke:none;stroke-width:0.542875"
           d="m -173.38497,989.64514 18.87524,20.74226 c -2.0743,2.1432 -4.97814,3.4575 -8.1594,3.4575 -3.38754,0 -6.36035,-1.4522 -8.4347,-3.7339 l -10.44002,-11.47689 -8.1589,-8.98897 8.1589,-8.91944 10.44002,-11.47749 c 2.07435,-2.28114 5.04716,-3.7339 8.4347,-3.7339 3.18126,0 6.0851,1.31376 8.1594,3.38811 z"
           sodipodi:nodetypes="ccscccccscc" /><path
           inkscape:connector-curvature="0"
           id="path1292"
           style="fill:#e57000;fill-opacity:1;fill-rule:nonzero;stroke:none;stroke-width:0.542875"
           d="m -210.19854,989.64491 -18.87525,20.74229 c 2.0743,2.1432 4.97814,3.4575 8.15941,3.4575 3.38753,0 6.36034,-1.4522 8.43469,-3.7339 l 10.44002,-11.47692 8.15888,-8.98897 -8.15888,-8.91944 -10.44002,-11.47749 c -2.07435,-2.28117 -5.04716,-3.7339 -8.43469,-3.7339 -3.18127,0 -6.08511,1.31376 -8.15941,3.38811 z"
           sodipodi:nodetypes="ccscccccscc" /><path
           inkscape:connector-curvature="0"
           id="path1294"
           style="fill:#000000;fill-opacity:1;fill-rule:nonzero;stroke:none;stroke-width:0.495509"
           d="m -184.35429,999.92973 -7.44678,-8.20441 -7.44712,8.20441 -17.22853,18.93277 c 1.89315,1.8933 4.54432,3.0923 7.44626,3.0923 3.09254,0 5.68045,-1.2625 7.63638,-3.4079 l 9.59301,-10.4759 9.52871,10.4759 c 1.89351,2.0819 4.60672,3.4079 7.69878,3.4079 2.90352,0 5.55411,-1.199 7.44728,-3.0923 z"
           sodipodi:nodetypes="ccccscccscc" /><path
           inkscape:connector-curvature="0"
           id="path1296"
           style="fill:#000000;fill-opacity:1;fill-rule:nonzero;stroke:none;stroke-width:0.495509"
           d="m -184.35475,979.35922 -7.44678,8.20441 -7.44712,-8.20441 -17.22852,-18.93276 c 1.89317,-1.89324 4.54431,-3.09227 7.44627,-3.09227 3.09255,0 5.68044,1.26249 7.63636,3.40788 l 9.59301,10.47593 9.52871,-10.47593 c 1.89354,-2.08195 4.60674,-3.40788 7.69878,-3.40788 2.90352,0 5.55414,1.19903 7.44729,3.09227 z"
           sodipodi:nodetypes="ccccscccscc" /></g></g></g></svg>
