<?xml version="1.0" encoding="UTF-8" standalone="no"?>
<svg
   data-name="Capa 1"
   viewBox="0 0 256 256"
   version="1.1"
   id="svg8"
   xml:space="preserve"
   width="256"
   height="256"
   xmlns="http://www.w3.org/2000/svg"
   xmlns:svg="http://www.w3.org/2000/svg"><defs
     id="defs2" /><path
     style="fill:none"
     d="M 0,0 H 256 V 256 H 0 Z"
     id="path2" /><style
     type="text/css"
     id="style1">
	.st0{fill:#15E0ED;}
	.st1{fill:url(#SVGID_1_);}
</style><g
     id="g8"
     transform="matrix(1.2555921,0,0,1.2555921,18.135691,18.135691)"
     style="display:inline"><circle
       id="circle25"
       class="st0"
       cx="87.5"
       cy="87.5"
       r="87.5" /><polygon
       class="st1"
       points="174.5,78.4 175,83.7 175,89.9 174.7,94.3 174.1,100 173.4,104.4 171.9,110.6 170,116.7 168.5,120.8 166.7,124.7 164.9,128.3 162.7,132.2 160.3,136.1 156.8,141 154.4,143.9 150.4,148.3 146.2,152.4 141.1,156.7 135.8,160.4 132.8,162.4 128.3,164.9 121.7,168.2 116.6,162.4 80.6,122.1 54.6,61.3 60.6,31.7 141.9,19 146.8,23.2 149.4,25.6 153.4,30 156.3,33.5 159.3,37.5 162,41.6 164.4,45.8 166.2,49.3 168.2,53.7 169.9,58.1 171.5,62.8 172.9,68.6 174,73.9 "
       id="polygon7" /><g
       id="g289">
	<g
   id="g287">
		<path
   id="path27"
   d="m 80.6,122.1 36,40.3 -12,-25.2 11.2,11.7 L 79.3,83 95,63.4 153.7,39.1 95,40.4 133.2,20.3 60.6,31.7 l -6,29.6 -29.3,1.9 -5.1,25.1 14.7,-12" />
	</g>
</g></g></svg>
