<svg width="256" height="256" viewBox="0 0 67.733 67.733" version="1.1" id="svg1" xml:space="preserve" xmlns="http://www.w3.org/2000/svg">
    <defs id="defs1">
        <style id="style1">
            .uuid-153302a6-b94e-4ad0-9cfb-43725c5c5610{fill:url(#uuid-af07a271-8980-47e6-b92b-41550c7dc68a)}.uuid-27fce091-ee3a-4889-9199-28416b94f462{fill:url(#uuid-dc53e15d-e646-4f9b-aab3-d9d8fec05b0e)}.uuid-5da2c4a3-8db1-41d9-92d6-1ab0c264b0da{fill:none}.uuid-ed4306aa-b6e6-45eb-bfe3-e4f85f33ea76{fill:url(#uuid-afdc0b81-5c65-49b4-9e34-1cf3c2f4f8f7)}.uuid-03bde706-b35e-416f-8ae5-693e38f68253{fill:url(#uuid-8e0b3ff5-2b0d-4ede-9e3a-d9af7f50b81e)}.uuid-aed79b63-67fc-4862-91f2-2516d39da3fa{fill:url(#uuid-5be9ed93-6987-4def-8687-537049e4e1cf)}.uuid-7fb198ab-10f1-4f2d-9a38-66668a795b4d{fill:url(#uuid-ebe94990-143f-470c-b744-73e231e6133d)}
        </style>
    </defs>
    <g id="layer1">
        <g id="g1898" transform="translate(128.15 -459.97) scale(.49124)">
            <g id="g1882" transform="translate(113.647 -570.597) scale(1.59324)">
                <path id="path1290" style="fill:#e57000;fill-opacity:1;fill-rule:nonzero;stroke:none;stroke-width:.542875" d="m-173.385 989.645 18.875 20.742a11.332 11.332 0 0 1-8.16 3.458 11.32 11.32 0 0 1-8.434-3.734l-10.44-11.477-8.159-8.989 8.16-8.92 10.44-11.477a11.321 11.321 0 0 1 8.434-3.734c3.181 0 6.085 1.314 8.16 3.388z"/>
                <path id="path1292" style="fill:#e57000;fill-opacity:1;fill-rule:nonzero;stroke:none;stroke-width:.542875" d="m-210.199 989.645-18.875 20.742a11.332 11.332 0 0 0 8.16 3.458 11.32 11.32 0 0 0 8.434-3.734l10.44-11.477 8.16-8.99-8.16-8.919-10.44-11.477a11.321 11.321 0 0 0-8.434-3.734 11.553 11.553 0 0 0-8.16 3.388z"/>
                <path id="path1294" style="fill:#000;fill-opacity:1;fill-rule:nonzero;stroke:none;stroke-width:.495509" d="m-184.354 999.93-7.447-8.205-7.447 8.205-17.229 18.933a10.545 10.545 0 0 0 7.447 3.092c3.092 0 5.68-1.263 7.636-3.408l9.593-10.476 9.529 10.476a10.334 10.334 0 0 0 7.698 3.408c2.904 0 5.555-1.2 7.448-3.093z"/>
                <path id="path1296" style="fill:#000;fill-opacity:1;fill-rule:nonzero;stroke:none;stroke-width:.495509" d="m-184.355 979.36-7.447 8.204-7.447-8.205-17.228-18.933a10.545 10.545 0 0 1 7.446-3.092c3.093 0 5.68 1.263 7.636 3.408l9.593 10.476 9.53-10.476a10.334 10.334 0 0 1 7.698-3.408c2.903 0 5.554 1.2 7.447 3.092z"/>
            </g>
        </g>
    </g>
</svg>
