<?xml version="1.0" encoding="UTF-8"?>
<svg id="uuid-f9a31a6a-3051-4a46-a41c-172f93b162e7" data-name="uuid-19907d1f-9315-477d-b7ba-91ae3e2acc9a" xmlns="http://www.w3.org/2000/svg" width="256" height="256" viewBox="0 0 256 256">
  <defs>
    <style>
      .uuid-9dcc70f0-6cd8-4f61-a3da-4f20c96b8029 {
        fill: #fff;
      }

      .uuid-035e7dc9-bf5c-47a8-a91d-4a79803a2b44 {
        fill: #dd4814;
      }

      .uuid-27fee51a-fb34-4225-8cb9-fadbc66f0f95 {
        fill: none;
      }
    </style>
  </defs>
  <rect class="uuid-27fee51a-fb34-4225-8cb9-fadbc66f0f95" width="256" height="256"/>
  <g>
    <path class="uuid-035e7dc9-bf5c-47a8-a91d-4a79803a2b44" d="M238,128c0,60.75-49.25,110-110,110S18,188.75,18,128,67.25,18,128,18s110,49.25,110,110Z"/>
    <path class="uuid-9dcc70f0-6cd8-4f61-a3da-4f20c96b8029" d="M53.2,113.32c-8.11,0-14.69,6.57-14.69,14.69s6.57,14.68,14.69,14.68,14.68-6.57,14.68-14.68-6.57-14.69-14.68-14.69ZM158.06,180.06c-7.02,4.06-9.43,13.03-5.38,20.05,4.06,7.02,13.03,9.43,20.06,5.38,7.02-4.05,9.43-13.03,5.37-20.06-4.05-7.02-13.03-9.43-20.06-5.37ZM85.1,128c0-14.51,7.21-27.33,18.24-35.1l-10.74-17.98c-12.85,8.59-22.41,21.71-26.38,37.09,4.64,3.78,7.6,9.54,7.6,15.99s-2.96,12.21-7.6,15.99c3.97,15.38,13.53,28.5,26.38,37.09l10.74-17.99c-11.03-7.76-18.24-20.58-18.24-35.1ZM128,85.1c22.41,0,40.8,17.18,42.72,39.1l20.93-.31c-1.03-16.18-8.1-30.7-18.96-41.38-5.58,2.11-12.03,1.79-17.61-1.43-5.58-3.22-9.08-8.66-10.04-14.56-5.43-1.5-11.14-2.32-17.04-2.32-10.16,0-19.75,2.38-28.27,6.61l10.2,18.29c5.49-2.56,11.61-3.99,18.07-3.99h0ZM128,170.9c-6.46,0-12.58-1.44-18.07-3.99l-10.2,18.29c8.52,4.22,18.12,6.61,28.28,6.61,5.91,0,11.62-.82,17.04-2.32.96-5.9,4.46-11.34,10.05-14.56,5.57-3.22,12.03-3.54,17.61-1.43,10.86-10.68,17.93-25.21,18.95-41.38l-20.93-.31c-1.93,21.91-20.31,39.1-42.72,39.1h0ZM158.06,75.94c7.02,4.06,16,1.65,20.06-5.37,4.06-7.02,1.65-16-5.37-20.06-7.02-4.05-16-1.65-20.06,5.38-4.05,7.02-1.65,16,5.37,20.05h0Z"/>
  </g>
</svg>