<svg id="uuid-8a99fff1-adfc-46e0-aa4e-865a1f7ba2af" data-name="uuid-19907d1f-9315-477d-b7ba-91ae3e2acc9a" xmlns="http://www.w3.org/2000/svg" width="256" height="256">
    <defs>
        <style>
            .uuid-52b64925-db99-4ffd-a4b4-50ee7c1f616d{fill:#000}
        </style>
    </defs>
    <path style="fill:#fff" d="M18 18h220v220H18z"/>
    <path style="fill:none" d="M0 0h256v256H0z"/>
    <path class="uuid-52b64925-db99-4ffd-a4b4-50ee7c1f616d" d="M178.6 44.4h33v110H238V18h-59.4v26.4ZM154.4 18H18v59.4h26.4v-33h110V18ZM44.4 101.6H18V238h59.4v-26.4h-33v-110ZM101.6 211.6V238H238v-59.4h-26.4v33h-110Z"/>
    <path class="uuid-52b64925-db99-4ffd-a4b4-50ee7c1f616d" d="M66.4 66.4h26.4l48.4 123.2h-26.4L66.4 66.4Z"/>
    <path class="uuid-52b64925-db99-4ffd-a4b4-50ee7c1f616d" d="M189.6 66.4h-26.4l-48.4 123.2h26.4l48.4-123.2Z"/>
</svg>
