<svg data-name="uuid-19907d1f-9315-477d-b7ba-91ae3e2acc9a" xmlns="http://www.w3.org/2000/svg" width="256" height="256">
    <defs>
        <linearGradient id="a" data-name="Degraded" x1="87.3" y1="463.7" x2="307.3" y2="683.7" gradientTransform="translate(0 -515)" gradientUnits="userSpaceOnUse">
            <stop offset="0" stop-color="#fcbe1b"/>
            <stop offset="1" stop-color="#f28f1c"/>
        </linearGradient>
        <linearGradient id="b" data-name="Degraded 2" x1="37.25" y1="513.75" x2="257.25" y2="733.75" gradientTransform="translate(0 -515)" gradientUnits="userSpaceOnUse">
            <stop offset="0" stop-color="#fcbe1b"/>
            <stop offset="1" stop-color="#f28f1c"/>
        </linearGradient>
        <linearGradient id="c" data-name="Degraded 3" x1="-51.3" y1="602.3" x2="168.7" y2="822.3" gradientTransform="translate(0 -515)" gradientUnits="userSpaceOnUse">
            <stop offset="0" stop-color="#fcbe1b"/>
            <stop offset="1" stop-color="#f28f1c"/>
        </linearGradient>
        <linearGradient id="d" data-name="Degraded 4" x1="-1.25" y1="552.25" x2="218.75" y2="772.25" gradientTransform="translate(0 -515)" gradientUnits="userSpaceOnUse">
            <stop offset="0" stop-color="#fcbe1b"/>
            <stop offset="1" stop-color="#f28f1c"/>
        </linearGradient>
        <linearGradient id="e" data-name="Degraded 5" x1="5.9" y1="545.1" x2="225.9" y2="765.1" gradientTransform="translate(0 -515)" gradientUnits="userSpaceOnUse">
            <stop offset="0" stop-color="#fcbe1b"/>
            <stop offset="1" stop-color="#f28f1c"/>
        </linearGradient>
        <linearGradient id="f" data-name="Degraded 6" x1="30.1" y1="520.9" x2="250.1" y2="740.9" gradientTransform="translate(0 -515)" gradientUnits="userSpaceOnUse">
            <stop offset="0" stop-color="#fcbe1b"/>
            <stop offset="1" stop-color="#f28f1c"/>
        </linearGradient>
    </defs>
    <path style="fill:#fff" d="M18 18h220v220H18z"/>
    <path style="fill:none" d="M0 0h256v256H0z"/>
    <path d="M178.6 44.4h33v110H238V18h-59.4v26.4Z" style="fill:url(#a)"/>
    <path d="M154.4 18H18v59.4h26.4v-33h110V18Z" style="fill:url(#b)"/>
    <path d="M44.4 101.6H18V238h59.4v-26.4h-33v-110Z" style="fill:url(#c)"/>
    <path d="M101.6 211.6V238H238v-59.4h-26.4v33h-110Z" style="fill:url(#d)"/>
    <path d="M66.4 66.4h26.4l48.4 123.2h-26.4L66.4 66.4Z" style="fill:url(#e)"/>
    <path d="M189.6 66.4h-26.4l-48.4 123.2h26.4l48.4-123.2Z" style="fill:url(#f)"/>
</svg>
