<svg data-name="Capa 1" xmlns="http://www.w3.org/2000/svg" xmlns:xlink="http://www.w3.org/1999/xlink" viewBox="0 0 256 256">
    <defs>
        <linearGradient id="a" data-name="Degraded1" x1="87.3" y1="309.3" x2="307.3" y2="89.3" gradientTransform="matrix(1 0 0 -1 0 258)" gradientUnits="userSpaceOnUse">
            <stop offset="0" stop-color="#fcbe1b"/>
            <stop offset="1" stop-color="#f28f1c"/>
        </linearGradient>
        <linearGradient id="b" data-name="Degraded1" x1="37.25" y1="259.25" x2="257.25" y2="39.25" xlink:href="#a"/>
        <linearGradient id="c" data-name="Degraded1" x1="-51.3" y1="170.7" x2="168.7" y2="-49.3" xlink:href="#a"/>
        <linearGradient id="d" data-name="Degraded1" x1="-1.25" y1="220.75" x2="218.75" y2=".75" xlink:href="#a"/>
        <linearGradient id="e" data-name="Degraded1" x1="5.9" y1="227.9" x2="225.9" y2="7.9" xlink:href="#a"/>
        <linearGradient id="f" data-name="Degraded1" x1="30.1" y1="252.1" x2="250.1" y2="32.1" xlink:href="#a"/>
    </defs>
    <path style="fill:none" d="M0 0h256v256H0z"/>
    <path d="M178.6 44.4h33v110H238V18h-59.4v26.4Z" style="fill:url(#a)"/>
    <path d="M154.4 18H18v59.4h26.4v-33h110V18Z" style="fill:url(#b)"/>
    <path d="M44.4 101.6H18V238h59.4v-26.4h-33v-110Z" style="fill:url(#c)"/>
    <path d="M101.6 211.6V238H238v-59.4h-26.4v33h-110Z" style="fill:url(#d)"/>
    <path d="M66.4 66.4h26.4l48.4 123.2h-26.4L66.4 66.4Z" style="fill:url(#e)"/>
    <path d="M189.6 66.4h-26.4l-48.4 123.2h26.4l48.4-123.2Z" style="fill:url(#f)"/>
</svg>
