<?xml version="1.0" encoding="UTF-8" standalone="no"?>
<svg
   id="uuid-19907d1f-9315-477d-b7ba-91ae3e2acc9a"
   data-name="Capa 1"
   viewBox="0 0 256 256"
   version="1.1"
   sodipodi:docname="os-vyos-logo-1.svg"
   xml:space="preserve"
   inkscape:export-filename="software-zabbix-1.svg"
   inkscape:export-xdpi="96"
   inkscape:export-ydpi="96"
   width="256"
   height="256"
   xmlns:inkscape="http://www.inkscape.org/namespaces/inkscape"
   xmlns:sodipodi="http://sodipodi.sourceforge.net/DTD/sodipodi-0.dtd"
   xmlns="http://www.w3.org/2000/svg"
   xmlns:svg="http://www.w3.org/2000/svg"><sodipodi:namedview
     id="namedview7"
     pagecolor="#ffffff"
     bordercolor="#000000"
     borderopacity="0.25"
     inkscape:showpageshadow="2"
     inkscape:pageopacity="0.0"
     inkscape:pagecheckerboard="0"
     inkscape:deskcolor="#d1d1d1"><inkscape:page
       x="0"
       y="0"
       width="256"
       height="256"
       id="page2"
       margin="0"
       bleed="0" /></sodipodi:namedview><defs
     id="defs2"><style
       id="style1">
      .uuid-153302a6-b94e-4ad0-9cfb-43725c5c5610 {
        fill: url(#uuid-af07a271-8980-47e6-b92b-41550c7dc68a);
      }

      .uuid-27fce091-ee3a-4889-9199-28416b94f462 {
        fill: url(#uuid-dc53e15d-e646-4f9b-aab3-d9d8fec05b0e);
      }

      .uuid-5da2c4a3-8db1-41d9-92d6-1ab0c264b0da {
        fill: none;
      }

      .uuid-ed4306aa-b6e6-45eb-bfe3-e4f85f33ea76 {
        fill: url(#uuid-afdc0b81-5c65-49b4-9e34-1cf3c2f4f8f7);
      }

      .uuid-03bde706-b35e-416f-8ae5-693e38f68253 {
        fill: url(#uuid-8e0b3ff5-2b0d-4ede-9e3a-d9af7f50b81e);
      }

      .uuid-aed79b63-67fc-4862-91f2-2516d39da3fa {
        fill: url(#uuid-5be9ed93-6987-4def-8687-537049e4e1cf);
      }

      .uuid-7fb198ab-10f1-4f2d-9a38-66668a795b4d {
        fill: url(#uuid-ebe94990-143f-470c-b744-73e231e6133d);
      }
    </style><linearGradient
       id="A"
       x1="42.046001"
       y1="18.108999"
       x2="42.046001"
       y2="60.522999"
       gradientUnits="userSpaceOnUse"><stop
         offset="0"
         stop-color="#00b8f1"
         id="stop1-8" /><stop
         offset=".22"
         stop-color="#06a5e5"
         id="stop2-2" /><stop
         offset=".79"
         stop-color="#1870c5"
         id="stop3" /><stop
         offset="1"
         stop-color="#1d61bc"
         id="stop4" /></linearGradient></defs><rect
     class="uuid-5da2c4a3-8db1-41d9-92d6-1ab0c264b0da"
     width="256"
     height="256"
     id="rect2"
     x="0"
     y="0" /><style
     type="text/css"
     id="style2">
	.st0{fill:#C59A6E;}
	.st1{fill:#3CB44B;}
	.st2{fill:#67308F;}
	.st3{fill:#D1D1D1;}
	.st4{fill:#EF5B28;}
	.st5{stroke:#000000;stroke-width:16;stroke-miterlimit:10;}
	.st6{fill:url(#Triangle-3_1_);}
	.st7{fill:#333333;}
	.st8{fill:#CF2129;}
	.st9{fill:#CC3832;}
	.st10{fill:#BA443D;}
	.st11{fill:#BAC556;}
	.st12{fill:#F8DF4B;}
	.st13{fill:#F5CF47;}
	.st14{fill:#A9B75D;}
	.st15{fill:#DDBE5B;}
	.st16{fill:#6FBECB;}
	.st17{fill:#79C0BF;}
	.st18{fill:#77C3D2;}
	.st19{fill:#5CB8BB;}
	.st20{fill:#529FB5;}
	.st21{fill:#BA3D36;}
	.st22{fill:#9D3634;}
	.st23{fill:#D33E35;}
	.st24{fill:#869B63;}
	.st25{fill:#BEC54F;}
	.st26{fill:#9EAD59;}
	.st27{fill:none;}
	.st28{fill:#43AE2A;}
	.st29{fill:#009DDD;}
	.st30{fill:#00A297;}
	.st31{fill:#0072CC;}
	.st32{fill:#82BB00;}
	.st33{fill:#10069D;}
	.st34{fill:#333F48;}
	.st35{clip-path:url(#SVGID_2_);}
	.st36{clip-path:url(#SVGID_4_);fill:#414042;}
	.st37{clip-path:url(#SVGID_6_);fill:url(#SVGID_7_);}
</style><g
     id="g10"
     transform="matrix(3.4386801,0,0,3.4386801,17.963068,17.962016)"><path
       d="M 0,17.975 V 60 H 42.928 L 84.945,17.98 H 0 Z"
       fill="url(#A)"
       transform="matrix(0.753423,0,0,0.753423,0,2.625985)"
       id="path4"
       style="fill:url(#A)" /><path
       d="m 39.04,30.904 h -1.35 v -4.932 h 1.35 c 1.802,0 3.237,0.593 3.237,2.436 0,1.903 -1.435,2.498 -3.237,2.498 m -14.53,3.53 c -0.67,0.003 -1.335,-0.114 -1.963,-0.346 l 1.944,-6.13 h 0.04 l 1.905,6.15 c -0.618,0.22 -1.27,0.33 -1.924,0.33 M 38.682,21.964 H 32.55 v 14.58 L 27.194,21.964 H 21.89 L 17.316,34.15 c -0.484,-3.068 -3.664,-4.133 -6.166,-4.928 -1.648,-0.53 -3.404,-1.3 -3.388,-2.173 0.014,-0.706 0.943,-1.36 2.774,-1.264 1.234,0.062 2.333,0.16 4.485,1.207 l 2.138,-3.71 c -1.973,-1.007 -4.706,-1.64 -6.944,-1.645 h -0.02 c -2.61,0 -4.782,0.85 -6.13,2.243 -0.932,0.96 -1.458,2.24 -1.468,3.577 -0.035,1.878 0.657,3.21 2.105,4.277 1.225,0.898 2.788,1.475 4.168,1.91 1.703,0.523 3.093,0.984 3.077,1.963 A 1.42,1.42 0 0 1 11.543,36.56 C 11.119,36.997 10.468,37.165 9.566,37.186 7.828,37.221 6.541,36.951 4.488,35.738 L 2.59,39.494 c 2.114,1.2 4.503,1.836 6.934,1.845 h 0.32 c 2.15,-0.04 3.888,-0.655 5.276,-1.77 l 0.225,-0.194 -0.607,1.64 h 5.565 l 0.935,-2.844 c 2.1,0.68 4.36,0.69 6.467,0.027 l 0.9,2.82 h 9.08 V 35.14 h 1.983 c 4.786,0 7.62,-2.436 7.62,-6.524 0,-4.55 -2.755,-6.64 -8.612,-6.64"
       fill="#ffffff"
       id="path5" /></g></svg>
