<?xml version="1.0" encoding="UTF-8" standalone="no"?>
<svg
   data-name="Capa 1"
   viewBox="0 0 256 256"
   version="1.1"
   id="svg8"
   xml:space="preserve"
   width="256"
   height="256"
   xmlns="http://www.w3.org/2000/svg"
   xmlns:svg="http://www.w3.org/2000/svg"><defs
     id="defs2" /><path
     style="fill:none"
     d="M 0,0 H 256 V 256 H 0 Z"
     id="path2" /><g
     id="g8"
     transform="matrix(12.171353,0,0,12.171353,6.28647,2.8784912)"><g
       fill="none"
       stroke="#145656"
       stroke-linecap="round"
       stroke-linejoin="round"
       stroke-width="1.5"
       id="g1"><path
         d="M 10,18.56 14,16 c 3,-2.33 3,-4.6 3,-7 V 4 C 17,4 13.11,4.39 10,2 M 10,18.56 6,16 C 3,13.67 3,11.4 3,9 V 4 c 0,0 3.89,0.39 7,-2"
         id="path1" /></g><g
       fill="none"
       stroke="#3ca384"
       stroke-linecap="round"
       stroke-linejoin="round"
       stroke-width="1.5"
       id="g2"><path
         d="M 10,14 V 6 m 4,2 v 2 c 0,0.82 -0.39,1.59 -1.3,2.24 L 10,14 M 6,8 v 2 c 0,0.82 0.37,1.61 1.25,2.24 L 10,14"
         id="path2-9" /></g></g></svg>
