<svg data-name="C1" viewBox="0 0 256 256" xml:space="preserve" width="256" height="256" xmlns="http://www.w3.org/2000/svg"><path style="fill:none" d="M0 0h256v256H0Z"/><g fill="none" stroke-linecap="round" stroke-linejoin="round" stroke-width="18.82"><path d="M217.71 102.918c3.764 10.288 5.772 21.33 5.772 32.873 0 15.307-3.639 29.61-10.038 42.408m-170.89 0c-6.398-12.797-10.037-27.226-10.037-42.408a95.583 95.583 0 0 1 132.747-88.08M128 215.841h100.375m-100.375 0H27.624m100.376 0v-37.642" stroke="#145656"/><path stroke="#3ca384" d="m148.2 146.456 67.628-106.273M90.358 178.199c0-20.828 16.814-37.64 37.642-37.64s37.64 16.812 37.64 37.64"/></g></svg>