<?xml version="1.0" encoding="UTF-8" standalone="no"?>
<svg
   data-name="Capa 1"
   viewBox="0 0 256 256"
   version="1.1"
   id="svg8"
   xml:space="preserve"
   width="256"
   height="256"
   xmlns="http://www.w3.org/2000/svg"
   xmlns:svg="http://www.w3.org/2000/svg"><defs
     id="defs2" /><path
     style="fill:none"
     d="M 0,0 H 256 V 256 H 0 Z"
     id="path2" /><g
     id="g8"
     transform="matrix(12.546964,0,0,12.546964,2.53036,2.5418511)"><g
       fill="none"
       stroke="#145656"
       stroke-linecap="round"
       stroke-linejoin="round"
       stroke-width="1.5"
       id="g1"><path
         d="m 17.15,8 c 0.3,0.82 0.46,1.7 0.46,2.62 0,1.22 -0.29,2.36 -0.8,3.38 M 3.19,14 C 2.68,12.98 2.39,11.83 2.39,10.62 A 7.618,7.618 0 0 1 12.97,3.6 M 10,17 h 8 m -8,0 H 2 m 8,0 v -3"
         id="path1" /></g><path
       fill="none"
       stroke="#3ca384"
       stroke-linecap="round"
       stroke-linejoin="round"
       stroke-width="1.5"
       d="M 11.61,11.47 17,3 M 7,14 c 0,-1.66 1.34,-3 3,-3 1.66,0 3,1.34 3,3"
       id="path2-7" /></g></svg>
