<svg data-name="C1" viewBox="0 0 256 256" xml:space="preserve" width="256" height="256" xmlns="http://www.w3.org/2000/svg"><path style="fill:none" d="M0 0h256v256H0Z"/><g fill="none" stroke-linecap="round" stroke-linejoin="round" stroke-width="18.257"><path d="m128 228.778 48.685-31.158c36.514-28.36 36.514-55.989 36.514-85.2V51.563s-47.347 4.747-85.2-24.342m0 201.557L79.315 197.62C42.8 169.26 42.8 141.63 42.8 112.42V51.563S90.147 56.31 128 27.221" stroke="#145656"/><path d="M128 173.277v-97.37m48.685 24.342v24.342c0 9.981-4.747 19.353-15.823 27.264L128 173.277m-48.686-73.028v24.343c0 9.98 4.503 19.595 15.214 27.263L128 173.277" stroke="#3ca384"/></g></svg>