<svg id="G3" width="288" height="288" version="1.1" xmlns="http://www.w3.org/2000/svg"><defs id="defs1"><style id="style1">.cls-2,.cls-3{fill-rule:evenodd}.cls-2{fill:#e5e5e5}.cls-3{fill:#ccc}</style></defs><g id="layer3"><path id="L1" class="cls-2" d="M19 288h-1V0h1zm0 0h-1V0h1zm0 0h-1V0h1zm0 0h-1V0h1z" style="fill-rule:nonzero"/><path id="L2" class="cls-2" d="M37 288h-1V0h1zm0 0h-1V0h1zm0 0h-1V0h1zm0 0h-1V0h1z" style="fill-rule:nonzero"/><path id="L3" class="cls-2" d="M55 288h-1V0h1zm0 0h-1V0h1zm0 0h-1V0h1zm0 0h-1V0h1z" style="fill-rule:nonzero"/><path id="L4" class="cls-2" d="M73 288h-1V0h1zm0 0h-1V0h1zm0 0h-1V0h1zm0 0h-1V0h1z" style="fill-rule:nonzero"/><path id="L5" class="cls-2" d="M91 288h-1V0h1zm0 0h-1V0h1zm0 0h-1V0h1zm0 0h-1V0h1z" style="fill-rule:nonzero"/><path id="L6" class="cls-2" d="M109 288h-1V0h1zm0 0h-1V0h1zm0 0h-1V0h1zm0 0h-1V0h1z" style="fill-rule:nonzero"/><path id="L7" class="cls-2" d="M127 288h-1V0h1zm0 0h-1V0h1zm0 0h-1V0h1zm0 0h-1V0h1z" style="fill-rule:nonzero"/><path id="L8" class="cls-2" d="M163 288h-1V0h1zm0 0h-1V0h1zm0 0h-1V0h1zm0 0h-1V0h1z" style="fill-rule:nonzero"/><path id="L9" class="cls-2" d="M181 288h-1V0h1zm0 0h-1V0h1zm0 0h-1V0h1zm0 0h-1V0h1z" style="fill-rule:nonzero"/><path id="L10" class="cls-2" d="M199 288h-1V0h1zm0 0h-1V0h1zm0 0h-1V0h1zm0 0h-1V0h1z" style="fill-rule:nonzero"/><path id="L11" class="cls-2" d="M217 288h-1V0h1zm0 0h-1V0h1zm0 0h-1V0h1zm0 0h-1V0h1z" style="fill-rule:nonzero"/><path id="L12" class="cls-2" d="M235 288h-1V0h1zm0 0h-1V0h1zm0 0h-1V0h1zm0 0h-1V0h1z" style="fill-rule:nonzero"/><path id="L13" class="cls-2" d="M253 288h-1V0h1zm0 0h-1V0h1zm0 0h-1V0h1zm0 0h-1V0h1z" style="fill-rule:nonzero"/><path id="L14" class="cls-2" d="M271 288h-1V0h1zm0 0h-1V0h1zm0 0h-1V0h1zm0 0h-1V0h1z" style="fill-rule:nonzero"/></g><g id="layer2"><path id="L1-2" data-name="L1" class="cls-2" d="M0 19v-1h288v1zm0 0v-1h288v1zm0 0v-1h288v1zm0 0v-1h288v1z" style="fill-rule:nonzero"/><path id="L2-2" data-name="L2" class="cls-2" d="M0 37v-1h288v1zm0 0v-1h288v1zm0 0v-1h288v1zm0 0v-1h288v1z" style="fill-rule:nonzero"/><path id="L3-2" data-name="L3" class="cls-2" d="M0 55v-1h288v1zm0 0v-1h288v1zm0 0v-1h288v1zm0 0v-1h288v1z" style="fill-rule:nonzero"/><path id="L4-2" data-name="L4" class="cls-2" d="M0 73v-1h288v1zm0 0v-1h288v1zm0 0v-1h288v1zm0 0v-1h288v1z" style="fill-rule:nonzero"/><path id="L5-2" data-name="L5" class="cls-2" d="M0 91v-1h288v1zm0 0v-1h288v1zm0 0v-1h288v1zm0 0v-1h288v1z" style="fill-rule:nonzero"/><path id="L6-2" data-name="L6" class="cls-2" d="M0 109v-1h288v1zm0 0v-1h288v1zm0 0v-1h288v1zm0 0v-1h288v1z" style="fill-rule:nonzero"/><path id="L7-2" data-name="L7" class="cls-2" d="M0 127v-1h288v1zm0 0v-1h288v1zm0 0v-1h288v1zm0 0v-1h288v1z" style="fill-rule:nonzero"/><path id="L8-2" data-name="L8" class="cls-2" d="M0 163v-1h288v1zm0 0v-1h288v1zm0 0v-1h288v1zm0 0v-1h288v1z" style="fill-rule:nonzero"/><path id="L9-2" data-name="L9" class="cls-2" d="M0 181v-1h288v1zm0 0v-1h288v1zm0 0v-1h288v1zm0 0v-1h288v1z" style="fill-rule:nonzero"/><path id="L10-2" data-name="L10" class="cls-2" d="M0 199v-1h288v1zm0 0v-1h288v1zm0 0v-1h288v1zm0 0v-1h288v1z" style="fill-rule:nonzero"/><path id="L11-2" data-name="L11" class="cls-2" d="M0 217v-1h288v1zm0 0v-1h288v1zm0 0v-1h288v1zm0 0v-1h288v1z" style="fill-rule:nonzero"/><path id="L12-2" data-name="L12" class="cls-2" d="M0 235v-1h288v1zm0 0v-1h288v1zm0 0v-1h288v1zm0 0v-1h288v1z" style="fill-rule:nonzero"/><path id="L13-2" data-name="L13" class="cls-2" d="M0 253v-1h288v1zm0 0v-1h288v1zm0 0v-1h288v1zm0 0v-1h288v1z" style="fill-rule:nonzero"/><path id="L14-2" data-name="L14" class="cls-2" d="M0 271v-1h288v1zm0 0v-1h288v1zm0 0v-1h288v1zm0 0v-1h288v1z" style="fill-rule:nonzero"/></g><g id="layer1"><path id="L1-3" data-name="L1" class="cls-3" d="M0 1V0h288v1zm0 0V0h288v1zm0 0V0h288v1zm0 0V0h288v1z" style="fill:#ccc;fill-opacity:1;fill-rule:nonzero"/><path id="L3-3" data-name="L3" class="cls-3" d="M1 288H0V0h1zm0 0H0V0h1zm0 0H0V0h1zm0 0H0V0h1z" style="fill:#ccc;fill-opacity:1;fill-rule:nonzero"/><path id="L4-3" data-name="L4" class="cls-3" d="M145 288h-1V0h1zm0 0h-1V0h1zm0 0h-1V0h1zm0 0h-1V0h1z" style="fill:#ccc;fill-opacity:1;fill-rule:nonzero"/><path id="L2-3" data-name="L2" class="cls-3" d="M0 145v-1h288v1zm0 0v-1h288v1zm0 0v-1h288v1zm0 0v-1h288v1z" style="opacity:1;fill:#ccc;fill-opacity:1;fill-rule:nonzero"/></g></svg>