<svg width="294" height="38" viewBox="0 0 294 38" fill="none" xmlns="http://www.w3.org/2000/svg">
<path d="M54.2104 23.0002V15.4402H55.8904V17.2882L55.7085 17.0502C55.8065 16.7889 55.9371 16.5509 56.1004 16.3362C56.2638 16.1216 56.4644 15.9442 56.7024 15.8042C56.8844 15.6922 57.0828 15.6059 57.2975 15.5452C57.5121 15.4799 57.7338 15.4402 57.9625 15.4262C58.1911 15.4076 58.4198 15.4122 58.6484 15.4402V17.2182C58.4384 17.1529 58.1934 17.1319 57.9134 17.1552C57.6381 17.1739 57.3885 17.2369 57.1645 17.3442C56.9405 17.4469 56.7515 17.5846 56.5975 17.7572C56.4435 17.9252 56.3268 18.1259 56.2474 18.3592C56.1681 18.5879 56.1284 18.8469 56.1284 19.1362V23.0002H54.2104Z" fill="#0E0E10"/>
<path d="M48.8351 23.2095C48.0744 23.2095 47.4071 23.0392 46.8331 22.6985C46.2591 22.3578 45.8111 21.8888 45.4891 21.2915C45.1717 20.6895 45.0131 19.9988 45.0131 19.2195C45.0131 18.4308 45.1764 17.7378 45.5031 17.1405C45.8297 16.5385 46.2801 16.0695 46.8541 15.7335C47.4281 15.3975 48.0884 15.2295 48.8351 15.2295C49.5957 15.2295 50.2631 15.3998 50.8371 15.7405C51.4157 16.0812 51.8661 16.5525 52.1881 17.1545C52.5101 17.7518 52.6711 18.4402 52.6711 19.2195C52.6711 20.0035 52.5077 20.6965 52.1811 21.2985C51.8591 21.8958 51.4087 22.3648 50.8301 22.7055C50.2561 23.0415 49.5911 23.2095 48.8351 23.2095ZM48.8351 21.4315C49.4464 21.4315 49.9014 21.2262 50.2001 20.8155C50.5034 20.4002 50.6551 19.8682 50.6551 19.2195C50.6551 18.5475 50.5011 18.0108 50.1931 17.6095C49.8897 17.2082 49.4371 17.0075 48.8351 17.0075C48.4197 17.0075 48.0791 17.1008 47.8131 17.2875C47.5471 17.4742 47.3487 17.7332 47.2181 18.0645C47.0921 18.3958 47.0291 18.7808 47.0291 19.2195C47.0291 19.8962 47.1807 20.4352 47.4841 20.8365C47.7921 21.2332 48.2424 21.4315 48.8351 21.4315Z" fill="#0E0E10"/>
<path d="M40.9361 23V15.468C40.9361 15.2766 40.9408 15.0596 40.9501 14.817C40.9594 14.5743 40.9968 14.3293 41.0621 14.082C41.1321 13.8346 41.2581 13.6106 41.4401 13.41C41.6734 13.1486 41.9254 12.9713 42.1961 12.878C42.4714 12.78 42.7374 12.7286 42.9941 12.724C43.2508 12.7146 43.4701 12.71 43.6521 12.71H44.5901V14.25H43.7221C43.4234 14.25 43.2018 14.327 43.0571 14.481C42.9124 14.6303 42.8401 14.81 42.8401 15.02V23H40.9361ZM39.7461 16.91V15.44H44.5901V16.91H39.7461Z" fill="#0E0E10"/>
<path d="M32.4998 23.2095C31.7251 23.2095 31.0415 23.0438 30.4488 22.7125C29.8608 22.3765 29.3988 21.9168 29.0628 21.3335C28.7315 20.7455 28.5658 20.0735 28.5658 19.3175C28.5658 18.4915 28.7291 17.7728 29.0558 17.1615C29.3825 16.5502 29.8328 16.0765 30.4068 15.7405C30.9808 15.3998 31.6411 15.2295 32.3878 15.2295C33.1811 15.2295 33.8555 15.4162 34.4108 15.7895C34.9661 16.1628 35.3768 16.6878 35.6428 17.3645C35.9088 18.0412 36.0021 18.8368 35.9228 19.7515H34.0398V19.0515C34.0398 18.2815 33.9161 17.7285 33.6688 17.3925C33.4261 17.0518 33.0271 16.8815 32.4718 16.8815C31.8231 16.8815 31.3448 17.0798 31.0368 17.4765C30.7335 17.8685 30.5818 18.4495 30.5818 19.2195C30.5818 19.9242 30.7335 20.4702 31.0368 20.8575C31.3448 21.2402 31.7951 21.4315 32.3878 21.4315C32.7611 21.4315 33.0808 21.3498 33.3468 21.1865C33.6128 21.0232 33.8158 20.7875 33.9558 20.4795L35.8598 21.0255C35.5751 21.7162 35.1248 22.2528 34.5088 22.6355C33.8975 23.0182 33.2278 23.2095 32.4998 23.2095ZM29.9938 19.7515V18.3375H35.0058V19.7515H29.9938Z" fill="#0E0E10"/>
<path d="M23.3018 23.2099C22.6065 23.2099 21.9975 23.0349 21.4748 22.6849C20.9521 22.3349 20.5438 21.8589 20.2498 21.2569C19.9605 20.6549 19.8158 19.9759 19.8158 19.2199C19.8158 18.4499 19.9628 17.7663 20.2568 17.1689C20.5555 16.5669 20.9731 16.0933 21.5098 15.7479C22.0465 15.4026 22.6765 15.2299 23.3998 15.2299C24.1185 15.2299 24.7228 15.4049 25.2128 15.7549C25.7028 16.1049 26.0738 16.5809 26.3258 17.1829C26.5778 17.7849 26.7038 18.4639 26.7038 19.2199C26.7038 19.9759 26.5755 20.6549 26.3188 21.2569C26.0668 21.8589 25.6888 22.3349 25.1848 22.6849C24.6808 23.0349 24.0531 23.2099 23.3018 23.2099ZM23.6098 21.5159C24.0345 21.5159 24.3728 21.4203 24.6248 21.2289C24.8815 21.0376 25.0658 20.7693 25.1778 20.4239C25.2898 20.0786 25.3458 19.6773 25.3458 19.2199C25.3458 18.7626 25.2898 18.3613 25.1778 18.0159C25.0658 17.6706 24.8861 17.4023 24.6388 17.2109C24.3961 17.0196 24.0765 16.9239 23.6798 16.9239C23.2551 16.9239 22.9051 17.0289 22.6298 17.2389C22.3591 17.4443 22.1585 17.7219 22.0278 18.0719C21.8971 18.4173 21.8318 18.7999 21.8318 19.2199C21.8318 19.6446 21.8948 20.0319 22.0208 20.3819C22.1468 20.7273 22.3405 21.0026 22.6018 21.2079C22.8631 21.4133 23.1991 21.5159 23.6098 21.5159ZM25.3458 22.9999V17.8199H25.1078V12.9199H27.0258V22.9999H25.3458Z" fill="#0E0E10"/>
<path d="M14.1737 23.2095C13.6324 23.2095 13.1727 23.1068 12.7947 22.9015C12.4214 22.6915 12.1367 22.4138 11.9407 22.0685C11.7494 21.7185 11.6537 21.3335 11.6537 20.9135C11.6537 20.5635 11.7074 20.2438 11.8147 19.9545C11.922 19.6652 12.0947 19.4108 12.3327 19.1915C12.5754 18.9675 12.8997 18.7808 13.3057 18.6315C13.5857 18.5288 13.9194 18.4378 14.3067 18.3585C14.694 18.2792 15.1327 18.2045 15.6227 18.1345C16.1127 18.0598 16.6517 17.9782 17.2397 17.8895L16.5537 18.2675C16.5537 17.8195 16.4464 17.4905 16.2317 17.2805C16.017 17.0705 15.6577 16.9655 15.1537 16.9655C14.8737 16.9655 14.582 17.0332 14.2787 17.1685C13.9754 17.3038 13.763 17.5442 13.6417 17.8895L11.9197 17.3435C12.111 16.7182 12.4704 16.2095 12.9977 15.8175C13.525 15.4255 14.2437 15.2295 15.1537 15.2295C15.821 15.2295 16.4137 15.3322 16.9317 15.5375C17.4497 15.7428 17.8417 16.0975 18.1077 16.6015C18.257 16.8815 18.3457 17.1615 18.3737 17.4415C18.4017 17.7215 18.4157 18.0342 18.4157 18.3795V22.9995H16.7497V21.4455L16.9877 21.7675C16.619 22.2762 16.22 22.6448 15.7907 22.8735C15.366 23.0975 14.827 23.2095 14.1737 23.2095ZM14.5797 21.7115C14.9297 21.7115 15.2237 21.6508 15.4617 21.5295C15.7044 21.4035 15.8957 21.2612 16.0357 21.1025C16.1804 20.9438 16.2784 20.8108 16.3297 20.7035C16.4277 20.4982 16.4837 20.2602 16.4977 19.9895C16.5164 19.7142 16.5257 19.4855 16.5257 19.3035L17.0857 19.4435C16.521 19.5368 16.0637 19.6162 15.7137 19.6815C15.3637 19.7422 15.0814 19.7982 14.8667 19.8495C14.652 19.9008 14.463 19.9568 14.2997 20.0175C14.113 20.0922 13.9614 20.1738 13.8447 20.2625C13.7327 20.3465 13.6487 20.4398 13.5927 20.5425C13.5414 20.6452 13.5157 20.7595 13.5157 20.8855C13.5157 21.0582 13.5577 21.2075 13.6417 21.3335C13.7304 21.4548 13.854 21.5482 14.0127 21.6135C14.1714 21.6788 14.3604 21.7115 14.5797 21.7115Z" fill="#0E0E10"/>
<path d="M0.0288086 22.9999V12.9199H1.73681L5.06881 19.6119L8.40081 12.9199H10.1088V22.9999H8.33081V16.9799L5.40481 22.9999H4.73281L1.80681 16.9799V22.9999H0.0288086Z" fill="#0E0E10"/>
<g clip-path="url(#clip0_321_295)">
<path d="M211.238 11.4213V13.5504C211.238 13.9506 210.918 14.2657 210.523 14.2487C209.925 14.2231 209.093 14.1976 208.588 14.1891C205.736 14.1891 204.162 15.9094 204.162 19.0349V26.7848C204.162 27.168 203.851 27.4831 203.472 27.4831H200.974C200.595 27.4831 200.284 27.168 200.284 26.7848V11.2169C200.284 10.8336 200.595 10.5185 200.974 10.5185H203.355C203.733 10.5185 204.044 10.8336 204.044 11.2169V12.2048C205.18 11.0125 207.006 10.3652 209.252 10.3652C209.623 10.3652 210.094 10.4163 210.422 10.4674C210.885 10.527 211.238 10.9358 211.238 11.4127V11.4213ZM185.644 17.9703C185.51 17.7915 185.526 17.5445 185.678 17.3912L191.828 11.268C192.106 10.9954 191.912 10.5185 191.525 10.5185H187.941C187.764 10.5185 187.605 10.5867 187.478 10.7059L180.546 17.1443C180.268 17.3997 179.822 17.2039 179.822 16.8206V11.2169C179.822 10.8336 179.511 10.5185 179.132 10.5185H176.633C176.255 10.5185 175.944 10.8336 175.944 11.2169V26.7763C175.944 27.1595 176.255 27.4746 176.633 27.4746H179.132C179.519 27.4746 179.822 27.1595 179.822 26.7677L179.797 23.1568C179.797 22.9609 179.873 22.7736 180.016 22.6373L182.169 20.6104C182.355 20.4401 182.641 20.4571 182.8 20.653L188.008 27.2021C188.143 27.3639 188.337 27.4661 188.547 27.4661H192.139C192.501 27.4661 192.703 27.0488 192.476 26.7592L185.627 17.9618L185.644 17.9703ZM165.233 10.5185H162.734C162.356 10.5185 162.044 10.8336 162.044 11.2169V26.7763C162.044 27.1595 162.356 27.4746 162.734 27.4746H165.233C165.612 27.4746 165.923 27.1595 165.923 26.7763V11.2169C165.923 10.8336 165.612 10.5185 165.233 10.5185ZM254.845 10.5185H239.743C239.364 10.5185 239.053 10.8336 239.053 11.2169V13.4822C239.053 13.8655 239.364 14.1806 239.743 14.1806H244.875C245.111 14.1806 245.304 14.3764 245.304 14.6149V26.7763C245.304 27.1595 245.615 27.4746 245.994 27.4746H248.585C248.964 27.4746 249.275 27.1595 249.275 26.7763V14.6149C249.275 14.3764 249.469 14.1806 249.704 14.1806H254.837C255.215 14.1806 255.526 13.8655 255.526 13.4822V11.2169C255.526 10.8336 255.215 10.5185 254.837 10.5185H254.845ZM233.828 18.9923C233.828 24.0084 230.185 27.6534 225.154 27.6534C220.123 27.6534 216.454 24.0084 216.454 18.9923C216.454 13.9762 220.114 10.3652 225.154 10.3652C230.194 10.3652 233.828 13.9932 233.828 18.9923ZM229.916 18.9923C229.916 15.969 228.006 13.9336 225.154 13.9336C222.302 13.9336 220.367 16.0116 220.367 18.9923C220.367 21.973 222.335 24.0766 225.154 24.0766C227.972 24.0766 229.916 21.9815 229.916 18.9923ZM266.506 10.5185H264.007C263.629 10.5185 263.317 10.8336 263.317 11.2169V26.7763C263.317 27.1595 263.629 27.4746 264.007 27.4746H266.506C266.885 27.4746 267.196 27.1595 267.196 26.7763V11.2169C267.196 10.8336 266.885 10.5185 266.506 10.5185ZM145.058 10.3652C142.803 10.3652 140.775 11.1487 139.387 12.5454C139.202 12.7328 138.916 12.7157 138.748 12.5199C137.561 11.1317 135.744 10.3652 133.556 10.3652C131.546 10.3652 129.829 10.9699 128.651 12.0855V11.2169C128.651 10.8336 128.34 10.5185 127.962 10.5185H125.581C125.202 10.5185 124.891 10.8336 124.891 11.2169V26.7763C124.891 27.1595 125.202 27.4746 125.581 27.4746H128.079C128.458 27.4746 128.769 27.1595 128.769 26.7763V18.7624C128.769 15.7391 130.3 14.0017 132.968 14.0017C135.315 14.0017 136.51 15.3899 136.51 18.1322V26.7763C136.51 27.1595 136.821 27.4746 137.2 27.4746H139.698C140.077 27.4746 140.388 27.1595 140.388 26.7763V18.7624C140.388 15.7391 141.919 14.0017 144.587 14.0017C146.942 14.0017 148.129 15.3899 148.129 18.1322V26.7763C148.129 27.1595 148.44 27.4746 148.819 27.4746H151.317C151.696 27.4746 152.007 27.1595 152.007 26.7763V17.8C152.007 13.082 149.475 10.3738 145.058 10.3738V10.3652ZM293.774 26.7592L286.925 17.9618C286.791 17.783 286.808 17.536 286.959 17.3827L293.109 11.2595C293.387 10.9869 293.194 10.51 292.807 10.51H289.222C289.046 10.51 288.886 10.5781 288.76 10.6974L281.827 17.1357C281.549 17.3912 281.103 17.1954 281.103 16.8121V11.2084C281.103 10.8251 280.792 10.51 280.413 10.51H277.915C277.536 10.51 277.225 10.8251 277.225 11.2084V26.7677C277.225 27.151 277.536 27.4661 277.915 27.4661H280.413C280.801 27.4661 281.103 27.151 281.103 26.7592L281.078 23.1483C281.078 22.9524 281.154 22.7651 281.297 22.6288L283.451 20.6019C283.636 20.4316 283.922 20.4486 284.082 20.653L289.29 27.2021C289.424 27.3639 289.618 27.4661 289.828 27.4661H293.421C293.782 27.4661 293.984 27.0488 293.757 26.7592H293.774Z" fill="#0E0E10"/>
<path d="M111.194 11.7783C111.194 10.2709 110.386 8.88274 109.09 8.15033L95.6034 0.52819C94.3582 -0.178668 92.8438 -0.178668 91.5986 0.52819L78.1034 8.15033C76.8077 8.88274 76 10.2709 76 11.7783V26.3243C76 27.8402 76.8161 29.2368 78.1286 29.9692L91.6238 37.4807C92.8522 38.1705 94.3498 38.1705 95.5781 37.4807L109.073 29.9692C110.386 29.2368 111.202 27.8402 111.202 26.3243V11.7783H111.194ZM86.1214 26.2135C86.1214 26.5542 85.7596 26.7671 85.4651 26.6053L83.2103 25.3449C82.7392 25.0809 82.4531 24.5869 82.4531 24.0419V17.1692C82.4531 16.8285 82.8149 16.6156 83.1094 16.7774L85.5913 18.1656C85.9195 18.3444 86.1214 18.6936 86.1214 19.0768V26.2135ZM104.749 24.0078C104.749 24.5443 104.463 25.0468 103.992 25.3108L101.737 26.5712C101.442 26.733 101.081 26.5201 101.081 26.1795V17.3906C101.081 17.0499 100.719 16.837 100.424 16.9988L96.2596 19.3238C95.7885 19.5878 95.5024 20.0818 95.5024 20.6268V29.6116C95.5024 29.8841 95.3594 30.1311 95.1238 30.2588L94.274 30.7357C93.8365 30.9827 93.2981 30.9827 92.8522 30.7357L92.0613 30.2929C91.8257 30.1651 91.6827 29.9096 91.6827 29.6456V20.5672C91.6827 20.0307 91.3966 19.5282 90.9255 19.2642L82.6719 14.6483C82.5288 14.5717 82.4447 14.4184 82.4447 14.2566V13.8989C82.4447 13.3623 82.7308 12.8599 83.2019 12.5959L84.3798 11.9401C84.8173 11.6931 85.3558 11.6931 85.8017 11.9401L92.9363 15.9343C93.3738 16.1813 93.9123 16.1813 94.3582 15.9343L97.5637 14.1373C97.8666 13.967 97.8666 13.5242 97.5637 13.3538L90.4039 9.35114C90.101 9.18081 90.101 8.73796 90.4039 8.56764L92.8438 7.20502C93.2813 6.95804 93.8197 6.95804 94.2656 7.20502L103.983 12.6385C104.454 12.9025 104.74 13.3964 104.74 13.9415V23.9993L104.749 24.0078Z" fill="#0E0E10"/>
</g>
<defs>
<clipPath id="clip0_321_295">
<rect width="217.867" height="38" fill="white" transform="translate(76)"/>
</clipPath>
</defs>
</svg>
